<!-- Generator: Adobe Illustrator 17.0.0, SVG Export Plug-In  -->
<svg version="1.1" baseProfile="basic"
	 xmlns="http://www.w3.org/2000/svg" xmlns:xlink="http://www.w3.org/1999/xlink" xmlns:a="http://ns.adobe.com/AdobeSVGViewerExtensions/3.0/"
	 x="0px" y="0px" width="491.046px" height="511.609px" viewBox="0 0 491.046 511.609" enable-background="new 0 0 491.046 511.609"
	 xml:space="preserve">
<defs>
</defs>
<g>
	<path fill="#40DD92" d="M413.768,90.733c0.101,4.69-2.181,8.185-5.383,11.374c-20.549,20.459-41.045,40.971-61.553,61.471
		c-4.503,4.501-4.505,4.523,0.134,9.166c16.491,16.504,33.068,32.924,49.416,49.567c2.987,3.041,4.646,2.81,7.508-0.082
		c20.399-20.608,40.961-41.055,61.482-61.541c1.295-1.292,2.579-2.637,4.053-3.7c5.405-3.9,12.682-3.332,17.445,1.242
		c4.694,4.508,5.57,11.942,1.919,17.417c-1.005,1.508-2.318,2.835-3.609,4.126c-24.396,24.389-48.808,48.762-73.222,73.133
		c-8.281,8.267-15.449,8.293-23.679,0.073c-46.105-46.045-92.248-92.054-138.227-138.224c-3.545-3.56-5.352-3.681-8.982-0.035
		c-45.856,46.058-91.896,91.933-137.886,137.857c-8.771,8.758-15.638,8.771-24.386,0.03C54.63,228.46,30.461,204.314,6.297,180.165
		c-1.06-1.06-2.177-2.08-3.117-3.24c-4.592-5.666-4.157-13.626,0.963-18.624c5.128-5.006,13.076-5.276,18.598-0.427
		c3,2.635,5.747,5.561,8.577,8.388c18.63,18.607,37.304,37.171,55.82,55.891c2.771,2.802,4.434,3.363,7.505,0.237
		c16.817-17.118,33.808-34.067,50.885-50.926c2.692-2.657,2.572-4.191-0.053-6.788c-20.492-20.28-40.844-40.7-61.237-61.08
		c-1.179-1.178-2.408-2.315-3.486-3.581c-4.767-5.597-4.581-13.49,0.386-18.627c5.112-5.286,13.221-5.613,18.996-0.713
		c1.267,1.075,2.398,2.312,3.577,3.49c20.279,20.258,40.611,40.463,60.769,60.84c2.878,2.909,4.534,3.099,7.506,0.08
		c16.599-16.865,33.339-33.594,50.219-50.178c3.076-3.023,3.309-4.74,0.096-7.905c-20.539-20.231-40.864-40.679-61.251-61.065
		c-1.294-1.294-2.647-2.564-3.739-4.02c-4.007-5.344-3.601-12.641,0.863-17.471c4.607-4.985,12.113-5.934,17.755-2.049
		c1.901,1.309,3.542,3.024,5.189,4.667c20.058,20.007,40.173,39.959,60.059,60.136c3.3,3.348,5.14,3.675,8.609,0.151
		c19.991-20.307,40.233-40.368,60.406-60.496c1.53-1.526,3.046-3.121,4.799-4.358c5.576-3.934,13.127-3.1,17.792,1.803
		c4.551,4.782,5.06,12.025,1.112,17.446c-1.07,1.47-2.409,2.757-3.703,4.051c-20.267,20.269-40.477,40.598-60.895,60.713
		c-3.315,3.265-3.779,5.141-0.188,8.647c16.693,16.297,33.202,32.789,49.508,49.474c3.518,3.599,5.351,3.09,8.612-0.215
		c20.482-20.76,41.218-41.269,61.786-61.944c3.937-3.957,8.34-6.011,13.921-4.959C409.14,78.68,413.685,84.278,413.768,90.733z"/>
	<path fill="#40DD92" d="M105.513,370.758c0.297-18.326,6.74-35.271,20.679-48.851c23.75-23.138,47.618-46.161,71.75-68.9
		c26.506-24.976,70.492-24.443,96.171,1.447c23.817,24.013,47.282,48.394,70.319,73.155c24.792,26.647,23.939,70.08-1.909,95.757
		c-23.994,23.835-48.415,47.261-73.191,70.282c-26.821,24.921-70.339,23.726-96.121-2.443
		c-23.503-23.856-46.678-48.044-69.629-72.433C111.314,405.732,105.756,389.702,105.513,370.758z M129.453,370.283
		c0.037,13.435,3.916,24.123,12.168,32.814c22.491,23.687,45.038,47.327,67.913,70.644c17.675,18.017,46.211,18.662,64.611,1.388
		c23.813-22.355,47.366-44.996,70.664-67.888c17.899-17.587,18.559-45.805,1.372-64.173c-22.429-23.971-45.205-47.628-68.238-71.021
		c-17.362-17.633-45.804-18.276-63.844-1.389c-24.089,22.548-47.764,45.542-71.411,68.555
		C133.672,347.989,129.59,359.115,129.453,370.283z"/>
	<path fill="#40DD92" d="M245.972,301.346c8.081,0.07,14.694-6.377,14.823-14.45c0.128-8.05-6.299-14.775-14.325-14.99
		c-8.177-0.219-15.073,6.514-15.103,14.746C231.337,294.659,237.915,301.276,245.972,301.346z"/>
	<path fill="#40DD92" d="M305.192,373.225c-0.311,34.481-27.659,61.456-62.015,61.171c-33.838-0.281-60.932-28.115-60.522-62.176
		c0.405-33.692,28.102-60.795,61.776-60.452C278.258,312.113,305.495,339.661,305.192,373.225z M206.546,373.191
		c0.07,20.797,16.801,37.382,37.615,37.286c20.481-0.095,37.217-16.828,37.251-37.246c0.034-20.691-16.774-37.549-37.461-37.573
		C223.199,335.635,206.477,352.414,206.546,373.191z"/>
	<path fill="#40DD92" d="M245.972,301.346c-8.057-0.07-14.634-6.687-14.606-14.694c0.029-8.232,6.926-14.965,15.103-14.746
		c8.026,0.215,14.453,6.94,14.325,14.99C260.666,294.969,254.052,301.417,245.972,301.346z"/>
</g>
</svg>
