<?xml version="1.0" encoding="utf-8"?>
<!-- Generator: Adobe Illustrator 17.0.0, SVG Export Plug-In . SVG Version: 6.00 Build 0)  -->
<!DOCTYPE svg PUBLIC "-//W3C//DTD SVG 1.1//EN" "http://www.w3.org/Graphics/SVG/1.1/DTD/svg11.dtd">
<svg version="1.1" id="Layer_1" xmlns="http://www.w3.org/2000/svg" xmlns:xlink="http://www.w3.org/1999/xlink" x="0px" y="0px"
	 width="975.098px" height="1317.132px" viewBox="48.579 970.316 975.098 1317.132"
	 enable-background="new 48.579 970.316 975.098 1317.132" xml:space="preserve">
<g id="Comments">
	<g id="lines">
		<path fill="none" stroke="#40DD92" stroke-width="10" stroke-miterlimit="10" d="M528.898,1480.225
			c-9.82,250.592-30.254,488.747,186.843,668.364"/>
		<path fill="none" stroke="#40DD92" stroke-width="10" stroke-miterlimit="10" d="M525.899,1484.225"/>
	</g>
	<g id="patel-6">
		<g>
			<path fill="#FFD000" d="M949.154,2188.653c-11.503-15.192-97.756-106.602-134.745-95.593
				c-58.765,17.491-73.408,103.738-23.958,141.105C820.238,2256.675,950.64,2190.616,949.154,2188.653z"/>
			<path fill="#FFAA00" d="M827.172,2122.056c-1.818-1.993-5.662-2.701-8.279-3.356l-51.098-21.38
				c-4.396-1.1-9.051,0.042-12.438,3.052l-38.042,33.803c-3.801,3.378-5.421,8.581-4.21,13.52l10.838,44.164
				c1.212,4.938,5.057,8.801,9.99,10.035l51.778,12.956c2.99,0.748,6.145,0.467,8.955-0.797c0,0,68.221-15.363,101.021-34.542
				C859.746,2146.013,827.172,2122.056,827.172,2122.056z"/>
			<path fill="#1DF288" stroke="#1DF288" stroke-width="1.2" stroke-miterlimit="10" d="M849.492,2092.182
				c0,0-116.554-48.19-141.409,45.997s82.528,112.789,115.311,106.951c0,0,11.508-50.293-65.636-90.867
				C757.758,2154.262,828.745,2150.164,849.492,2092.182z"/>
			<path fill="#00FFFF" stroke="#00FFFF" stroke-width="2.5" stroke-miterlimit="10" d="M849.756,2091.835
				c0,0-8.914-7.519-40.683-9.392c0,0-21.961,55.954-90.098,65.708c0,0,59.555,33.843,63.613,93.816c0,0,26.177,9.057,40.031,5.023
				c0,0,11.792-68.959-54.575-89.321C768.044,2157.668,835.591,2157.953,849.756,2091.835z"/>
		</g>
	</g>
	<g id="patel-5">
		<g>
			<path fill="#FFD000" d="M633.007,1188.355c-39.553,30.507-277.145,258.737-247.421,355.438
				c47.224,153.63,273.64,189.993,370.433,59.498C814.326,1524.684,638.118,1184.413,633.007,1188.355z"/>
			<path fill="#FFAA00" d="M461.292,1509.658c-5.181,4.813-6.949,14.905-8.604,21.781L397.84,1665.88
				c-2.78,11.548,0.323,23.723,8.291,32.531l89.497,98.928c8.943,9.885,22.62,14.01,35.537,10.718l115.512-29.442
				c12.916-3.292,22.951-13.461,26.071-26.421l32.749-136.025c1.891-7.854,1.081-16.117-2.3-23.456
				c0,0-41.867-178.466-92.908-263.993C523.327,1423.713,461.292,1509.658,461.292,1509.658z"/>
			<g>
				<path fill="#1DF288" stroke="#1DF288" stroke-width="1.2" stroke-miterlimit="10" d="M382.463,1451.851
					c0,0-123.591,306.646,123.878,369.594s293.717-218.965,277.647-304.761c0,0-132.101-28.989-236.651,174.175
					C547.336,1690.858,534.934,1504.879,382.463,1451.851z"/>
				<path fill="#00FFFF" stroke="#00FFFF" stroke-width="2.5" stroke-miterlimit="10" d="M381.548,1451.166
					c0,0-19.502,23.541-23.668,106.861c0,0,147.184,56.257,174.344,234.633c0,0,87.318-156.901,244.428-168.94
					c0,0,23.128-68.828,12.229-105.049c0,0-181.035-29.298-232.856,145.143C556.025,1663.814,555.192,1486.75,381.548,1451.166z"/>
			</g>
		</g>
	</g>
	<g id="bee-1">
		<g>
			<path fill="#FFAA00" stroke="#FFAA00" stroke-miterlimit="10" d="M420.085,1133.565c-14.879-37.74-50.366-59.098-79.258-47.708
				c-28.899,11.394-40.264,51.223-25.385,88.963c10.745,27.255,32.238,45.972,54.233,49.966c0.186,0.617,0.406,1.238,0.647,1.85
				c4.9,12.428,18.946,18.536,31.381,13.634c12.428-4.9,18.534-18.953,13.634-31.381c-0.241-0.612-0.504-1.216-0.79-1.794
				C427.89,1189.161,430.83,1160.82,420.085,1133.565z"/>
			<path fill="#FFD000" d="M369.675,1224.786c0,0,16.61-14.397,44.872-17.691c0,0,9.549-8.266,11.056-27.263
				c0,0-48.799,3.29-82.622,32.573C342.982,1212.406,359.54,1224.771,369.675,1224.786z"/>
			<path fill="#FFD000" d="M317.769,1180.723c0,0,41.323-31.096,104.443-41.176c0,0-3.661-19.883-21.622-36.407
				c0,0-43.027,2.737-91.662,36.137C308.929,1139.277,306.205,1157.593,317.769,1180.723z"/>
			
				<ellipse transform="matrix(-0.7828 -0.6223 0.6223 -0.7828 -176.1924 2296.4626)" fill="#FFFFFF" stroke="#FFD000" stroke-width="3" stroke-miterlimit="10" cx="312.699" cy="1178.982" rx="59.687" ry="11.478"/>
			
				<ellipse transform="matrix(-0.1475 0.9891 -0.9891 -0.1475 1608.022 882.6296)" fill="#FFFFFF" stroke="#FFD000" stroke-width="3" stroke-miterlimit="10" cx="423.627" cy="1134.318" rx="59.688" ry="11.478"/>
		</g>
		
			<animateTransform  type="translate" fill="remove" restart="always" calcMode="linear" begin="0.5" accumulate="none" repeatCount="indefinite" attributeName="transform" dur="4s" attributeType="XML" values="0,0; -35,-25; 40,-25; 32,20; -35,0; 0,0;" additive="replace">
			</animateTransform>
	</g>
	<g id="bee-2">
		<g>
			<path fill="#FFAA00" stroke="#FFAA00" stroke-miterlimit="10" d="M218.045,1216.026c-53.547,7.869-92.071,47.485-86.047,88.478
				c6.025,41.004,54.317,67.862,107.864,59.994c38.671-5.683,69.513-27.92,81.381-55.282c0.859-0.054,1.732-0.151,2.6-0.279
				c17.634-2.591,29.834-18.984,27.242-36.627c-2.591-17.634-18.993-29.833-36.627-27.242c-0.869,0.128-1.733,0.286-2.571,0.481
				C292.641,1222.769,256.716,1210.343,218.045,1216.026z"/>
			<path fill="#FFD000" d="M321.244,1309.216c0,0-13.66-25.95-9.356-63.667c0,0-7.839-14.916-32.06-22.642
				c0,0-10.545,64.395,17.226,117.227C297.054,1340.134,318.146,1322.379,321.244,1309.216z"/>
			<path fill="#FFD000" d="M248.238,1363.267c0,0-27.848-63.127-21.776-148.188c0,0-26.941-1.282-53.863,17.033
				c0,0-9.511,56.729,19.111,130.053C191.71,1362.166,214.678,1371.266,248.238,1363.267z"/>
			
				<ellipse transform="matrix(-0.7841 0.6206 -0.6206 -0.7841 1285.8247 2291.4106)" fill="#FFFFFF" stroke="#FFD000" stroke-width="3" stroke-miterlimit="10" cx="244.373" cy="1369.345" rx="79.628" ry="15.313"/>
			
				<ellipse transform="matrix(0.9295 0.3688 -0.3688 0.9295 462.3557 4.2054)" fill="#FFFFFF" stroke="#FFD000" stroke-width="3" stroke-miterlimit="10" cx="220.177" cy="1211.581" rx="79.629" ry="15.313"/>
		</g>
		
			<animateTransform  type="translate" fill="remove" restart="always" calcMode="linear" begin="0" accumulate="none" repeatCount="indefinite" attributeName="transform" dur="4.5s" attributeType="XML" values="0,0; -20,25; 25,20; 45,30; 25,10; 0,0;" additive="replace">
			</animateTransform>
	</g>
</g>
</svg>
