<?xml version="1.0" encoding="utf-8"?>
<!-- Generator: Adobe Illustrator 17.0.0, SVG Export Plug-In . SVG Version: 6.00 Build 0)  -->
<!DOCTYPE svg PUBLIC "-//W3C//DTD SVG 1.1//EN" "http://www.w3.org/Graphics/SVG/1.1/DTD/svg11.dtd">
<svg version="1.1" id="Layer_1" xmlns="http://www.w3.org/2000/svg" xmlns:xlink="http://www.w3.org/1999/xlink" x="0px" y="0px"
	 width="975.098px" height="923.066px" viewBox="0 0 975.098 923.066" enable-background="new 0 0 975.098 923.066"
	 xml:space="preserve">
<rect x="0" fill="#FFFFFF" width="975.098" height="782.087"/>
<g id="Comments">
	<g id="patel-5">
		<g>
			<path fill="#FFD000" d="M633.058,286.976c-33.575,25.896-235.257,219.631-210.025,301.716
				c40.086,130.41,232.281,161.277,314.445,50.505C786.972,572.471,637.397,283.63,633.058,286.976z"/>
			<path fill="#FFAA00" d="M487.297,559.716c-4.398,4.086-5.899,12.652-7.304,18.489l-46.558,114.121
				c-2.36,9.803,0.274,20.137,7.038,27.614l75.97,83.976c7.591,8.391,19.201,11.893,30.166,9.098l98.053-24.992
				c10.964-2.794,19.482-11.427,22.131-22.428l27.799-115.466c1.605-6.667,0.918-13.681-1.952-19.911
				c0,0-35.539-151.492-78.866-224.092C539.956,486.761,487.297,559.716,487.297,559.716z"/>
			<g>
				<path fill="#1DF288" stroke="#1DF288" stroke-width="1.2" stroke-miterlimit="10" d="M420.382,510.647
					c0,0-104.911,260.299,105.155,313.733c210.066,53.434,249.324-185.87,235.683-258.699c0,0-112.135-24.608-200.883,147.85
					C560.336,713.529,549.808,555.66,420.382,510.647z"/>
				<path fill="#00FFFF" stroke="#00FFFF" stroke-width="2.5" stroke-miterlimit="10" d="M419.606,510.065
					c0,0-16.554,19.983-20.091,90.71c0,0,124.938,47.754,147.993,199.17c0,0,74.121-133.187,207.484-143.406
					c0,0,19.632-58.425,10.381-89.172c0,0-153.673-24.87-197.662,123.206C567.712,690.573,567.005,540.271,419.606,510.065z"/>
			</g>
		</g>
	</g>
	<g id="bee-1">
		<g>
			<path fill="#FFAA00" stroke="#FFAA00" stroke-miterlimit="10" d="M452.318,240.467c-12.63-32.036-42.754-50.166-67.279-40.497
				c-24.531,9.672-34.178,43.481-21.548,75.517c9.121,23.136,27.365,39.024,46.036,42.414c0.158,0.524,0.345,1.051,0.549,1.57
				c4.159,10.55,16.082,15.734,26.638,11.573c10.55-4.159,15.733-16.088,11.573-26.638c-0.205-0.52-0.428-1.032-0.671-1.523
				C458.943,287.66,461.439,263.603,452.318,240.467z"/>
			<path fill="#FFD000" d="M409.527,317.901c0,0,14.1-12.221,38.09-15.017c0,0,8.106-7.017,9.385-23.142
				c0,0-41.423,2.793-70.134,27.65C386.869,307.392,400.924,317.888,409.527,317.901z"/>
			<path fill="#FFD000" d="M365.466,280.498c0,0,35.077-26.396,88.657-34.953c0,0-3.108-16.878-18.354-30.904
				c0,0-36.524,2.323-77.808,30.675C357.962,245.316,355.65,260.864,365.466,280.498z"/>
			
				<ellipse transform="matrix(-0.6223 0.7828 -0.7828 -0.6223 804.3223 169.9055)" fill="#FFFFFF" stroke="#FFD000" stroke-width="3" stroke-miterlimit="10" cx="361.17" cy="279.003" rx="9.743" ry="50.667"/>
			
				<ellipse transform="matrix(0.9891 0.1475 -0.1475 0.9891 40.5425 -64.5153)" fill="#FFFFFF" stroke="#FFD000" stroke-width="3" stroke-miterlimit="10" cx="455.287" cy="241.114" rx="9.744" ry="50.668"/>
		</g>
		
			<animateTransform  type="translate" fill="remove" additive="replace" values="0,0; -35,-25; 40,-25; 32,20; -35,0; 0,0;" attributeType="XML" dur="4s" attributeName="transform" repeatCount="indefinite" accumulate="none" begin="0.5" calcMode="linear" restart="always">
			</animateTransform>
	</g>
	<g id="bee-2">
		<g>
			<path fill="#FFAA00" stroke="#FFAA00" stroke-miterlimit="10" d="M280.815,310.465c-45.454,6.68-78.155,40.308-73.042,75.105
				c5.114,34.807,46.107,57.605,91.561,50.926c32.826-4.824,59.007-23.7,69.081-46.927c0.729-0.046,1.47-0.128,2.207-0.237
				c14.969-2.199,25.325-16.115,23.125-31.091c-2.199-14.969-16.122-25.324-31.091-23.125c-0.738,0.109-1.471,0.243-2.182,0.408
				C344.136,316.189,313.641,305.641,280.815,310.465z"/>
			<path fill="#FFD000" d="M368.416,389.57c0,0-11.595-22.028-7.942-54.044c0,0-6.654-12.662-27.214-19.22
				c0,0-8.951,54.662,14.622,99.509C347.882,415.815,365.786,400.743,368.416,389.57z"/>
			<path fill="#FFD000" d="M306.444,435.451c0,0-23.639-53.586-18.485-125.79c0,0-22.869-1.088-45.722,14.459
				c0,0-8.073,48.155,16.223,110.396C258.46,434.517,277.957,442.241,306.444,435.451z"/>
			
				<ellipse transform="matrix(0.6206 0.7841 -0.7841 0.6206 460.5275 -70.5629)" fill="#FFFFFF" stroke="#FFD000" stroke-width="3" stroke-miterlimit="10" cx="303.183" cy="440.628" rx="12.998" ry="67.591"/>
			
				<ellipse transform="matrix(0.3688 -0.9295 0.9295 0.3688 -106.6715 456.2811)" fill="#FFFFFF" stroke="#FFD000" stroke-width="3" stroke-miterlimit="10" cx="282.627" cy="306.683" rx="12.998" ry="67.593"/>
		</g>
		
			<animateTransform  type="translate" fill="remove" additive="replace" values="0,0; -20,25; 25,20; 45,30; 25,10; 0,0;" attributeType="XML" dur="4.5s" attributeName="transform" repeatCount="indefinite" accumulate="none" begin="0" calcMode="linear" restart="always">
			</animateTransform>
	</g>
</g>
</svg>
