<?xml version="1.0" encoding="utf-8"?>
<!DOCTYPE svg PUBLIC "-//W3C//DTD SVG 1.1//EN" "http://www.w3.org/Graphics/SVG/1.1/DTD/svg11.dtd">
<svg version="1.1" xmlns="http://www.w3.org/2000/svg" xmlns:xlink="http://www.w3.org/1999/xlink" x="0px" y="0px"
	 width="1274.638px" height="2248.024px" viewBox="0 0 1274.638 2248.024" enable-background="new 0 0 1274.638 2248.024"
	 xml:space="preserve">
<g id="Comments">
	<g id="lines">
		<path fill="none" stroke="#40DD92" stroke-width="10" stroke-miterlimit="10" d="M528.898,1480.225
			c-9.82,250.592-30.254,488.747,186.843,668.364"/>
		<path fill="none" stroke="#40DD92" stroke-width="10" stroke-miterlimit="10" d="M1200.685,319.277
			c-792-744-1477.116,53.448-1056,324c389.783,250.422,392.464,553.847,381.214,840.948"/>
	</g>
	<g id="patel-6">
		<g>
			<path fill="#FFD000" d="M949.154,2188.653c-11.503-15.192-97.756-106.602-134.745-95.593
				c-58.765,17.491-73.408,103.738-23.958,141.105C820.238,2256.675,950.64,2190.616,949.154,2188.653z"/>
			<path fill="#FFAA00" d="M827.172,2122.056c-1.818-1.993-5.662-2.701-8.279-3.356l-51.098-21.38
				c-4.396-1.1-9.051,0.042-12.438,3.052l-38.042,33.803c-3.801,3.378-5.421,8.581-4.21,13.52l10.838,44.164
				c1.212,4.938,5.057,8.801,9.99,10.035l51.778,12.956c2.99,0.748,6.145,0.467,8.955-0.797c0,0,68.221-15.363,101.021-34.542
				C859.746,2146.013,827.172,2122.056,827.172,2122.056z"/>
			<path fill="#1DF288" stroke="#1DF288" stroke-width="1.2" stroke-miterlimit="10" d="M849.492,2092.182
				c0,0-116.554-48.19-141.409,45.997c-24.855,94.187,82.528,112.789,115.311,106.951c0,0,11.508-50.293-65.636-90.867
				C757.758,2154.262,828.745,2150.164,849.492,2092.182z"/>
			<path fill="#00FFFF" stroke="#00FFFF" stroke-width="2.5" stroke-miterlimit="10" d="M849.756,2091.835
				c0,0-8.914-7.519-40.683-9.392c0,0-21.961,55.954-90.098,65.708c0,0,59.555,33.843,63.613,93.816c0,0,26.177,9.057,40.031,5.023
				c0,0,11.792-68.959-54.575-89.321C768.044,2157.668,835.591,2157.953,849.756,2091.835z"/>
		</g>
	</g>
	<g id="patel-5">
		<g>
			<path fill="#FFD000" d="M633.007,1188.355c-39.553,30.507-277.145,258.737-247.421,355.438
				c47.224,153.63,273.64,189.993,370.433,59.498C814.326,1524.684,638.118,1184.413,633.007,1188.355z"/>
			<path fill="#FFAA00" d="M461.292,1509.658c-5.181,4.813-6.949,14.905-8.604,21.781L397.84,1665.88
				c-2.78,11.548,0.323,23.723,8.291,32.531l89.497,98.928c8.943,9.885,22.62,14.01,35.537,10.718l115.512-29.442
				c12.916-3.292,22.951-13.461,26.071-26.421l32.749-136.025c1.891-7.854,1.081-16.117-2.3-23.456
				c0,0-41.867-178.466-92.908-263.993C523.327,1423.713,461.292,1509.658,461.292,1509.658z"/>
			<g>
				<path fill="#1DF288" stroke="#1DF288" stroke-width="1.2" stroke-miterlimit="10" d="M382.463,1451.851
					c0,0-123.591,306.646,123.878,369.594s293.717-218.965,277.647-304.761c0,0-132.101-28.989-236.651,174.175
					C547.336,1690.858,534.934,1504.879,382.463,1451.851z"/>
				<path fill="#00FFFF" stroke="#00FFFF" stroke-width="2.5" stroke-miterlimit="10" d="M381.548,1451.166
					c0,0-19.502,23.541-23.668,106.861c0,0,147.184,56.257,174.344,234.633c0,0,87.318-156.901,244.428-168.94
					c0,0,23.128-68.828,12.229-105.049c0,0-181.035-29.298-232.856,145.143C556.025,1663.814,555.192,1486.75,381.548,1451.166z"/>
			</g>
		</g>
	</g>
	<g id="patel-4">
		<g>
			<path fill="#FFD000" d="M219.438,530.095c-7.948,18.85-46.621,148.115-16.526,176.592
				c47.812,45.242,135.854,12.549,144.044-53.485C351.89,613.423,220.465,527.659,219.438,530.095z"/>
			<path fill="#FFAA00" d="M223.015,679.253c-0.876,2.76,0.529,6.714,1.325,9.499l7.557,58.983c1.338,4.677,4.899,8.391,9.515,9.924
				l51.85,17.218c5.181,1.72,10.888,0.433,14.829-3.345l35.24-33.787c3.94-3.778,5.467-9.426,3.966-14.675l-15.754-55.092
				c-0.91-3.181-2.864-5.963-5.549-7.897c0,0-50.91-55.175-86.35-75.371C227.799,636.108,223.015,679.253,223.015,679.253z"/>
			<path fill="#1DF288" stroke="#1DF288" stroke-width="1.2" stroke-miterlimit="10" d="M183.259,674.542
				c0,0,17.776,134.23,118.683,106.769c100.907-27.461,60.548-137.279,37.52-164.622c0,0-52.935,16.303-49.237,109.806
				C290.224,726.494,248.303,662.7,183.259,674.542z"/>
			<path fill="#00FFFF" stroke="#00FFFF" stroke-width="2.5" stroke-miterlimit="10" d="M182.795,674.482
				c0,0-2.205,12.324,13.111,42.865c0,0,63.81-9.625,109.459,48.484c0,0-0.512-73.537,53.065-109.508
				c0,0-5.634-29.198-16.823-39.912c0,0-70.441,26.06-53.739,98.692C287.868,715.102,251.868,652.153,182.795,674.482z"/>
		</g>
	</g>
	<g id="patel-3">
		<g>
			<path fill="#FFD000" d="M211.083,35.667C196.63,39.365,104.503,73.922,101.24,103.96c-5.185,47.721,52.634,84.431,94.595,60.061
				C221.112,149.341,212.95,35.189,211.083,35.667z"/>
			<path fill="#FFAA00" d="M126.039,103.534c-1.99,0.709-3.666,3.269-4.932,4.959l-30.92,30.405
				c-2.126,2.84-2.712,6.546-1.567,9.903l12.871,37.706c1.286,3.768,4.551,6.514,8.483,7.136l35.165,5.562
				c3.932,0.622,7.886-0.983,10.272-4.17l25.045-33.449c1.446-1.931,2.2-4.294,2.139-6.706c0,0,9.587-53.902,5.684-83.391
				C153.205,87.282,126.039,103.534,126.039,103.534z"/>
			<path fill="#1DF288" stroke="#1DF288" stroke-width="1.2" stroke-miterlimit="10" d="M111.239,78.368
				c0,0-70.112,69.529-9.657,116.017s106.43-25.388,112.152-50.822c0,0-32.816-23.55-85.486,19.839
				C128.248,163.402,146.805,110.918,111.239,78.368z"/>
			<path fill="#00FFFF" stroke="#00FFFF" stroke-width="2.5" stroke-miterlimit="10" d="M111.069,78.072
				c0,0-8.13,4.155-19.11,26.521c0,0,33.734,32.812,20.123,84.952c0,0,42.48-32.733,87.001-17.484c0,0,14.471-16.151,15.758-27.374
				c0,0-46.204-29.413-81.017,12.323C133.825,157.009,154.503,108.337,111.069,78.072z"/>
		</g>
	</g>
	<g id="patel-2">
		<g>
			<path fill="#FFD000" d="M797.062,195.888c1.378-16.595-1.079-126.358-30.672-140.693c-47.015-22.775-105.275,24.939-95.318,78.062
				C677.069,165.258,796.884,198.033,797.062,195.888z"/>
			<path fill="#FFAA00" d="M757.962,81.523c-0.014-2.357-2.037-5.055-3.316-7.004l-20.084-43.658
				c-2.148-3.274-5.734-5.236-9.581-5.244l-43.214-0.087c-4.318-0.009-8.298,2.442-10.34,6.366l-18.266,35.097
				c-2.042,3.925-1.812,8.679,0.598,12.353l25.301,38.561c1.461,2.227,3.611,3.878,6.103,4.689c0,0,51.771,29.662,83.365,36.234
				C764.894,116.087,757.962,81.523,757.962,81.523z"/>
			<path fill="#1DF288" stroke="#1DF288" stroke-width="1.2" stroke-miterlimit="10" d="M789.023,75.028
				c0,0-46.14-99.208-115.356-52.257s-12.045,121.534,11.956,136.795c0,0,35.847-26.096,10.241-97.418
				C695.864,62.148,742.977,100.763,789.023,75.028z"/>
			<path fill="#00FFFF" stroke="#00FFFF" stroke-width="2.5" stroke-miterlimit="10" d="M789.387,74.955
				c0,0-1.349-10.087-20.327-29.785c0,0-45.659,23.707-94.189-9.563c0,0,18.335,56.703-13.194,98.163c0,0,11.366,21.13,22.4,26.557
				c0,0,46.636-38.1,16.341-89.976C700.417,70.352,742.869,109.824,789.387,74.955z"/>
		</g>
	</g>
	<g id="patel-1">
		<g>
			<path fill="#FFD000" d="M1253.409,424.7c2.392-11.43,9.93-88.079-10.044-100.743c-31.732-20.121-77.485,7.819-74.856,45.71
				C1170.094,392.492,1253.1,426.177,1253.409,424.7z"/>
			<path fill="#FFAA00" d="M1235.101,341.524c0.189-1.642-1.03-3.704-1.781-5.177l-10.681-32.22c-1.26-2.474-3.662-4.166-6.416-4.52
				l-30.932-3.979c-3.091-0.398-6.148,0.948-7.943,3.495l-16.05,22.781c-1.795,2.547-2.033,5.879-0.618,8.655l14.848,29.144
				c0.857,1.683,2.257,3.028,3.972,3.818c0,0,34.554,25.348,56.617,32.789C1237.137,366.219,1235.101,341.524,1235.101,341.524z"/>
			<path fill="#1DF288" stroke="#1DF288" stroke-width="1.2" stroke-miterlimit="10" d="M1257.89,339.818
				c0,0-24.631-73.26-78.164-46.845c-53.532,26.415-18.917,83.53-3.026,96.332c0,0,27.875-14.92,15.583-66.902
				C1192.283,322.403,1222.743,353.562,1257.89,339.818z"/>
			<path fill="#00FFFF" stroke="#00FFFF" stroke-width="2.5" stroke-miterlimit="10" d="M1258.157,339.8
				c0,0-0.112-7.146-12.031-22.582c0,0-34.698,12.367-66.625-15.199c0,0,8.325,41.144-17.76,67.153c0,0,6.348,15.743,13.788,20.522
				c0,0,36.616-22.3,19.32-61.167C1194.848,328.528,1221.899,359.861,1258.157,339.8z"/>
		</g>
		<!-- <animateTransform 
			attributeName="transform" 
			attributeType="XML"
			type="scale" 
			from="0 0" 
			to="1 1"
			begin="1s" 
			dur="2s" 
			fill="freeze" 
			repeatCount="indefinite" /> -->
	</g>
	<g id="bee-1">
		<g>
			<path fill="#FFAA00" stroke="#FFAA00" stroke-miterlimit="10" d="M420.085,1133.565c-14.879-37.74-50.366-59.098-79.258-47.708
				c-28.899,11.394-40.264,51.223-25.385,88.963c10.745,27.255,32.238,45.972,54.233,49.966c0.186,0.617,0.406,1.238,0.647,1.85
				c4.9,12.428,18.946,18.536,31.381,13.634c12.428-4.9,18.534-18.953,13.634-31.381c-0.241-0.612-0.504-1.216-0.79-1.794
				C427.89,1189.161,430.83,1160.82,420.085,1133.565z"/>
			<path fill="#FFD000" d="M369.675,1224.786c0,0,16.61-14.397,44.872-17.691c0,0,9.549-8.266,11.056-27.263
				c0,0-48.799,3.29-82.622,32.573C342.982,1212.406,359.54,1224.771,369.675,1224.786z"/>
			<path fill="#FFD000" d="M317.769,1180.723c0,0,41.323-31.096,104.443-41.176c0,0-3.661-19.883-21.622-36.407
				c0,0-43.027,2.737-91.662,36.137C308.929,1139.277,306.205,1157.593,317.769,1180.723z"/>
			
			<ellipse transform="matrix(0.6223 -0.7828 0.7828 0.6223 -804.7806 690.0775)" fill="#FFFFFF" stroke="#FFD000" stroke-width="3" stroke-miterlimit="10" cx="312.683" cy="1178.969" rx="11.478" ry="59.686"/>
		
			<ellipse transform="matrix(-0.9891 -0.1475 0.1475 -0.9891 675.361 2318.7998)" fill="#FFFFFF" stroke="#FFD000" stroke-width="3" stroke-miterlimit="10" cx="423.669" cy="1134.355" rx="11.478" ry="59.686"/>
		</g>
		<animateTransform
			attributeName="transform"
			attributeType="XML"
			type="translate"
			values="0,0; -35,-25; 40,-25; 32,20; -35,0; 0,0;"
			begin="0.5"
			dur="4s"
			repeatCount="indefinite"
		/>
	</g>
	<g id="bee-2">
		<g>
			<path fill="#FFAA00" stroke="#FFAA00" stroke-miterlimit="10" d="M218.045,1216.026c-53.547,7.869-92.071,47.485-86.047,88.478
				c6.025,41.004,54.317,67.862,107.864,59.994c38.671-5.683,69.513-27.92,81.381-55.282c0.859-0.054,1.732-0.151,2.6-0.279
				c17.634-2.591,29.834-18.984,27.242-36.627c-2.591-17.634-18.993-29.833-36.627-27.242c-0.869,0.128-1.733,0.286-2.571,0.481
				C292.641,1222.769,256.716,1210.343,218.045,1216.026z"/>
			<path fill="#FFD000" d="M321.244,1309.216c0,0-13.66-25.95-9.356-63.667c0,0-7.839-14.916-32.06-22.642
				c0,0-10.545,64.395,17.226,117.227C297.054,1340.134,318.146,1322.379,321.244,1309.216z"/>
			<path fill="#FFD000" d="M248.238,1363.267c0,0-27.848-63.127-21.776-148.188c0,0-26.941-1.282-53.863,17.033
				c0,0-9.511,56.729,19.111,130.053C191.71,1362.166,214.678,1371.266,248.238,1363.267z"/>
			
			<ellipse transform="matrix(-0.6206 -0.7841 0.7841 -0.6206 -677.6445 2410.8054)" fill="#FFFFFF" stroke="#FFD000" stroke-width="3" stroke-miterlimit="10" cx="244.415" cy="1369.343" rx="15.313" ry="79.63"/>
		
			<ellipse transform="matrix(-0.3688 0.9295 -0.9295 -0.3688 1427.5638 1453.7836)" fill="#FFFFFF" stroke="#FFD000" stroke-width="3" stroke-miterlimit="10" cx="220.161" cy="1211.61" rx="15.313" ry="79.63"/>
		</g>
		<animateTransform
			attributeName="transform"
			attributeType="XML"
			type="translate"
			values="0,0; -20,25; 25,20; 45,30; 25,10; 0,0;"
			begin="0"
			dur="4.5s"
			repeatCount="indefinite"
		/>
	</g>
</g>
</svg>
