<?xml version="1.0" encoding="utf-8"?>
<!-- Generator: Adobe Illustrator 17.0.0, SVG Export Plug-In . SVG Version: 6.00 Build 0)  -->
<!DOCTYPE svg PUBLIC "-//W3C//DTD SVG 1.1//EN" "http://www.w3.org/Graphics/SVG/1.1/DTD/svg11.dtd">
<svg version="1.1" id="Layer_1" xmlns="http://www.w3.org/2000/svg" xmlns:xlink="http://www.w3.org/1999/xlink" x="0px" y="0px"
	 width="772.5px" height="795.619px" viewBox="0 0 772.5 795.619" enable-background="new 0 0 772.5 795.619" xml:space="preserve">
<g>
	
		<image overflow="visible" opacity="0.3" enable-background="new    " width="2800" height="2883" xlink:href="B73BFC29.png"  transform="matrix(0.276 0 0 0.276 -0.2138 0)">
	</image>
	<g>
		<g>
			<path fill="#FFFFFF" d="M562.415,191.042c-0.025,5.161-2.574,9.022-6.109,12.542c-23.778,23.682-47.406,47.515-71.326,71.051
				c-3.902,3.839-4.135,5.894-0.092,9.846c19.336,18.899,38.448,38.03,57.346,57.365c3.726,3.812,5.595,3.229,8.988-0.203
				c23.463-23.723,47.129-47.247,70.746-70.818c1.489-1.486,2.979-3.027,4.694-4.22c6.278-4.362,14.668-3.546,20.046,1.803
				c5.315,5.286,6.19,13.843,1.903,20.076c-1.183,1.72-2.71,3.225-4.196,4.712c-27.936,27.93-55.889,55.843-83.841,83.759
				c-9.976,9.964-17.975,9.898-28.068-0.185c-52.776-52.719-105.557-105.434-158.338-158.149c-5.361-5.354-5.363-5.352-10.905,0.182
				c-52.786,52.71-105.571,105.419-158.355,158.13c-9.991,9.978-17.975,9.938-28.063-0.144
				c-27.807-27.788-55.62-55.57-83.424-83.361c-1.354-1.354-2.786-2.666-3.938-4.182c-4.892-6.438-4.183-15.408,1.559-20.978
				c5.782-5.61,14.694-6.074,20.955-0.822c3.222,2.704,6.103,5.819,9.088,8.799c21.984,21.95,44.026,43.842,65.853,65.948
				c3.264,3.306,5.047,3.025,8.135-0.106c19.259-19.52,38.635-38.927,58.174-58.168c3.363-3.313,3.525-5.187,0.063-8.6
				c-23.619-23.297-47.019-46.814-70.481-70.268c-1.49-1.49-3.052-2.941-4.338-4.597c-4.816-6.199-4.338-14.933,1.015-20.559
				c5.539-5.821,14.454-6.616,20.946-1.75c1.675,1.257,3.131,2.819,4.621,4.308c23.612,23.577,47.274,47.103,70.742,70.822
				c3.202,3.237,4.978,3.209,8.155-0.013c19.253-19.526,38.648-38.915,58.195-58.145c3.368-3.313,3.528-5.192,0.069-8.605
				c-23.616-23.298-47.017-46.816-70.481-70.268c-1.356-1.356-2.778-2.664-3.986-4.142c-5.18-6.343-4.878-15.191,0.643-21.004
				c5.672-5.972,14.784-6.627,21.403-1.426c1.8,1.414,3.383,3.114,5.01,4.738c23.207,23.168,46.493,46.257,69.513,69.608
				c3.646,3.698,5.539,3.442,9.035-0.1c22.497-22.79,45.232-45.347,67.89-67.978c1.764-1.762,3.461-3.597,5.315-5.261
				c6.749-6.057,16.196-5.987,22.328,0.098c6.179,6.133,6.345,15.566,0.072,22.251c-5.377,5.73-11.065,11.171-16.626,16.729
				c-18.991,18.977-37.923,38.013-57.042,56.859c-3.122,3.077-3.487,4.917-0.153,8.197c19.681,19.367,39.227,38.874,58.588,58.56
				c3.38,3.436,5.17,2.795,8.181-0.241c23.77-23.961,47.709-47.751,71.539-71.653c3.648-3.659,7.545-6.441,12.969-6.471
				C555.451,174.957,562.543,182.021,562.415,191.042z"/>
			<path fill="#FFFFFF" d="M207.734,508.11c0.282-16.66,7.894-36.222,24.112-51.964c27.231-26.431,54.532-52.795,82.135-78.835
				c30.445-28.719,81.098-28.192,110.626,1.542c27.413,27.604,54.354,55.694,80.904,84.129
				c28.534,30.562,27.77,80.608-1.881,110.152c-27.693,27.592-55.895,54.703-84.607,81.233
				c-30.827,28.485-80.67,27.148-110.135-2.66c-27.213-27.532-53.873-55.617-80.546-83.677
				C214.95,553.941,207.819,534.325,207.734,508.11z M235.257,512.47c0.051,15.222,4.507,27.524,13.997,37.521
				c25.869,27.253,51.809,54.445,78.122,81.269c20.344,20.74,53.086,21.492,74.318,1.588c27.411-25.698,54.498-51.752,81.304-78.081
				c20.581-20.216,21.29-52.854,1.591-73.823c-25.858-27.525-52.015-54.779-78.505-81.696
				c-19.958-20.278-52.665-21.039-73.438-1.609c-27.72,25.928-54.947,52.389-82.148,78.865
				C240.128,486.597,235.41,499.389,235.257,512.47z"/>
			<path fill="#FFFFFF" d="M369.322,432.962c9.266,0.068,16.862-7.292,17.07-16.541c0.213-9.448-7.424-17.353-16.827-17.419
				c-9.388-0.066-17.193,7.771-17.108,17.177C352.541,425.389,360.082,432.894,369.322,432.962z"/>
			<path fill="#FFFFFF" d="M437.5,515.41c-0.055,39.193-31.396,70.61-70.47,70.643c-39.085,0.032-70.66-31.481-70.619-70.482
				c0.04-39.156,31.438-70.656,70.457-70.689C405.902,444.848,437.555,476.455,437.5,515.41z M323.966,515.31
				c-0.029,23.943,19.089,43.146,42.97,43.16c23.575,0.014,42.864-19.026,43.105-42.549c0.244-23.748-18.972-43.279-42.783-43.485
				C343.443,472.228,323.995,491.49,323.966,515.31z"/>
			<path fill="#FFFFFF" d="M369.322,432.962c-9.24-0.068-16.781-7.573-16.865-16.783c-0.085-9.406,7.72-17.242,17.108-17.177
				c9.402,0.066,17.039,7.971,16.827,17.419C386.184,425.669,378.589,433.03,369.322,432.962z"/>
		</g>
	</g>
</g>
</svg>
