<?xml version="1.0" encoding="utf-8"?>
<!-- Generator: Adobe Illustrator 17.0.0, SVG Export Plug-In . SVG Version: 6.00 Build 0)  -->
<!DOCTYPE svg PUBLIC "-//W3C//DTD SVG 1.1//EN" "http://www.w3.org/Graphics/SVG/1.1/DTD/svg11.dtd">
<svg version="1.1" xmlns="http://www.w3.org/2000/svg" xmlns:xlink="http://www.w3.org/1999/xlink" x="0px" y="0px" width="8255px"
	 height="11699px" viewBox="0 0 8255 11699" enable-background="new 0 0 8255 11699" xml:space="preserve">
<g id="Comments">
	<path fill="none" stroke="#40DD92" stroke-width="10" stroke-miterlimit="10" d="M1581.214,8306.948
		c-9.82,250.592-30.254,488.746,186.843,668.363c347.068,287.15,131.53,819.964,697.944,951.688c344,80,594.152-217.184,1040-80
		c208,64,338.023,352.326,584,392c496,80,800-240,800-240"/>
	<g>
		<g>
			<path fill="#FFD000" d="M2944.493,9824.357c-12.957-2.597-99.709-10.65-113.704,11.374
				c-22.233,34.99,10.078,85.261,52.862,82.247C2909.425,9916.163,2946.167,9824.693,2944.493,9824.357z"/>
			<path fill="#FFAA00" d="M2850.777,9844.772c-1.859-0.203-4.17,1.146-5.823,1.976l-36.245,11.859
				c-2.776,1.395-4.65,4.043-5.006,7.075l-4.002,34.059c-0.4,3.403,1.169,6.764,4.077,8.731l26.005,17.594
				c2.908,1.967,6.677,2.219,9.792,0.652l32.702-16.436c1.888-0.949,3.386-2.493,4.252-4.384c0,0,28.095-38.113,36.152-62.421
				C2878.656,9842.453,2850.777,9844.772,2850.777,9844.772z"/>
			<g>
				<path fill="#1DF288" stroke="#1DF288" stroke-width="1.2" stroke-miterlimit="10" d="M2848.484,9819.694
					c0,0-82.407,27.344-51.695,86.182s94.712,20.557,108.927,3.026c0,0-17.31-30.635-75.865-16.94
					C2829.851,9891.962,2864.581,9858.336,2848.484,9819.694z"/>
				<path fill="#00FFFF" stroke="#00FFFF" stroke-width="2.5" stroke-miterlimit="10" d="M2848.46,9819.401
					c0,0-8.074,0.146-25.331,13.313c0,0,14.533,38.151-16.112,73.381c0,0,46.369-9.294,76.183,19.335c0,0,17.692-7.037,22.974-15.24
					c0,0-25.791-40.232-69.442-21.071C2836.733,9889.119,2871.713,9859.246,2848.46,9819.401z"/>
			</g>
		</g>
	</g>
	<g>
		<g>
			<path fill="#FFD000" d="M2079.451,9873.984c12.108-11.431,83.583-94.77,71.13-125.203
				c-19.784-48.351-95.012-51.744-123.079-5.555C2010.595,9771.051,2077.886,9875.462,2079.451,9873.984z"/>
			<path fill="#FFAA00" d="M2126.725,9762.748c1.563-1.764,1.86-5.122,2.209-7.427l14.208-45.908
				c0.588-3.871-0.771-7.727-3.629-10.302l-32.106-28.925c-3.208-2.89-7.807-3.724-11.948-2.167l-37.034,13.925
				c-4.141,1.557-7.145,5.25-7.804,9.594l-6.921,45.599c-0.4,2.633,0.097,5.298,1.411,7.565c0,0,18.725,56.652,37.851,82.644
				C2108.801,9793.105,2126.725,9762.748,2126.725,9762.748z"/>
			<g>
				<path fill="#1DF288" stroke="#1DF288" stroke-width="1.2" stroke-miterlimit="10" d="M2154.182,9778.658
					c0,0,31.912-104.655-50.961-115.935c-82.873-11.278-90.129,82.415-82.457,109.803c0,0,44.109,4.516,72.681-65.67
					C2093.444,9706.856,2102.722,9767.062,2154.182,9778.658z"/>
				<path fill="#00FFFF" stroke="#00FFFF" stroke-width="2.5" stroke-miterlimit="10" d="M2154.5,9778.847
					c0,0,5.732-8.408,4.762-35.744c0,0-49.817-12.848-63.719-70.021c0,0-24.221,54.449-75.377,64.253c0,0-5.651,23.317-1.064,34.726
					c0,0,60.156,2.786,72.251-56.057C2091.354,9716.004,2096.591,9773.733,2154.5,9778.847z"/>
			</g>
		</g>
	</g>
</g>
<g id="Bees">
	<g>
		<path fill="none" stroke="#40DD92" stroke-width="10" stroke-miterlimit="10" d="M5828.067,6357.963
			c57.673,14.898,117.369,27.542,179.433,37.537c636.5,102.5,617.893,735.883,39,779c-409.5,30.5-693.396-48.093-1084-192
			C4117,6671,3803,6953,3803,6953c-504,385-1103.602,612.343-1550,193c-792-744-1477.116,53.448-1056,324
			c389.783,250.422,392.464,553.848,381.214,840.948"/>
	</g>
	<g>
		<g>
			<path fill="#FFD000" d="M5938.998,6417.639c-4.021-9.519-37.629-69.246-59.739-68.864c-35.126,0.608-56.432,43.156-34.859,69.612
				C5857.395,6434.324,5939.517,6418.869,5938.998,6417.639z"/>
			<path fill="#FFAA00" d="M5881.861,6365.622c-0.699-1.293-2.712-2.212-4.057-2.928l-24.934-18.416
				c-2.258-1.201-5.004-1.279-7.335-0.208l-26.186,12.032c-2.616,1.202-4.309,3.664-4.396,6.395l-0.787,24.424
				c-0.088,2.731,1.443,5.284,3.977,6.632l26.601,14.151c1.536,0.817,3.321,1.125,5.066,0.875c0,0,40.021,1.854,61.069-3.361
				C5896.172,6382.708,5881.861,6365.622,5881.861,6365.622z"/>
			<g>
				<path fill="#1DF288" stroke="#1DF288" stroke-width="1.2" stroke-miterlimit="10" d="M5898.763,6353.364
					c0,0-56.962-41.706-85.124,3.485c-28.162,45.192,28.273,70.26,47.268,71.951c0,0,14.063-24.385-22.308-56.482
					C5838.6,6372.318,5878.42,6380.401,5898.763,6353.364z"/>
				<path fill="#00FFFF" stroke="#00FFFF" stroke-width="2.5" stroke-miterlimit="10" d="M5898.962,6353.223
					c0,0-3.769-5.175-21.021-10.711c0,0-20.703,25.813-59.816,21.067c0,0,27.692,26.083,20.738,57.718
					c0,0,13.064,8.452,21.332,8.355c0,0,17.082-34.008-16.438-54.091C5843.756,6375.56,5881.006,6385.418,5898.962,6353.223z"/>
			</g>
		</g>
	</g>
	<g>
		<g>
			<path fill="#FFD000" d="M6448.513,6899.895c8.186-5.683,57.918-48.612,53.267-67.731c-7.389-30.375-51.598-39.101-72.33-14.276
				C6416.962,6832.841,6447.455,6900.629,6448.513,6899.895z"/>
			<path fill="#FFAA00" d="M6486.417,6838.298c1.083-0.904,1.558-2.865,1.971-4.198l12.506-25.895
				c0.693-2.238,0.234-4.641-1.228-6.419l-16.415-19.981c-1.64-1.997-4.287-2.901-6.876-2.349l-23.157,4.932
				c-2.589,0.552-4.696,2.468-5.474,4.98l-8.167,26.363c-0.472,1.522-0.416,3.144,0.159,4.603c0,0,6.021,35.193,15.017,52.28
				C6473.101,6854.659,6486.417,6838.298,6486.417,6838.298z"/>
			<g>
				<path fill="#1DF288" stroke="#1DF288" stroke-width="1.2" stroke-miterlimit="10" d="M6501.243,6850.163
					c0,0,28.227-59.075-19.802-73.148c-48.029-14.074-60.688,40.717-58.594,57.607c0,0,25.696,6.61,48.869-32.367
					C6471.715,6802.255,6471.83,6838.707,6501.243,6850.163z"/>
				<path fill="#00FFFF" stroke="#00FFFF" stroke-width="2.5" stroke-miterlimit="10" d="M6501.415,6850.303
					c0,0,4.143-4.464,6.009-20.725c0,0-28.33-12.05-31.45-47.12c0,0-19.193,30.055-50.337,31.288c0,0-5.426,13.292-3.73,20.452
					c0,0,35.345,7.021,47.756-26.717C6469.663,6807.48,6467.606,6842.107,6501.415,6850.303z"/>
			</g>
		</g>
	</g>
	<g>
		<g>
			<path fill="#FFD000" d="M4838.777,6999.457c10.174,8.232,82.587,55.164,104.986,42.271c35.586-20.482,30.338-79.436-8.584-96.452
				C4911.732,6935.025,4837.463,6998.393,4838.777,6999.457z"/>
			<path fill="#FFAA00" d="M4930.381,7024.61c1.538,1.033,4.185,0.911,6.017,0.942l37.249,6.251
				c3.077,0.051,5.938-1.411,7.644-3.908l19.162-28.042c1.915-2.802,2.082-6.471,0.435-9.534l-14.731-27.386
				c-1.647-3.063-4.838-5.015-8.292-5.073l-36.244-0.607c-2.093-0.035-4.117,0.632-5.745,1.893c0,0-42.164,20.528-60.403,38.152
				C4904.855,7013.834,4930.381,7024.61,4930.381,7024.61z"/>
			<g>
				<path fill="#1DF288" stroke="#1DF288" stroke-width="1.2" stroke-miterlimit="10" d="M4920.87,7047.667
					c0,0,84.866,13.878,84.958-51.857c0.092-65.736-73.65-61.559-94.178-52.71c0,0,1.11,34.832,58.776,49.725
					C4970.426,6992.824,4924.503,7006.367,4920.87,7047.667z"/>
				<path fill="#00FFFF" stroke="#00FFFF" stroke-width="2.5" stroke-miterlimit="10" d="M4920.755,7047.935
					c0,0,7.151,3.583,28.342-0.041c0,0,4.781-40.151,47.856-56.978c0,0-44.953-13.154-57.956-51.973c0,0-18.756-1.955-27.161,2.814
					c0,0,4.14,47.15,51.244,50.398C4963.082,6992.156,4918.664,7002.291,4920.755,7047.935z"/>
			</g>
		</g>
	</g>
</g>
<g id="Followers">
	<path fill="none" stroke="#40DD92" stroke-width="10" stroke-miterlimit="10" d="M5026,494c-220,1125,1209-184,1568,535
		c242.841,486.359-211.653,754.225-1240,573c-488-86-833.219,464.427-1532,214c-1504-539-1616,180-2420,410
		c-812.585,232.456-950,445-916,873c29.177,367.283,283,625,180,872c-317.485,761.347,642.289,702.471,661,314"/>
	<g>
		<g>
			<path fill="#FFD000" d="M5024.616,363.242c-9.186,10.019-62.275,82.263-49.808,106.808
				c19.807,38.995,82.205,38.215,102.088-1.276C5088.873,444.986,5025.803,361.947,5024.616,363.242z"/>
			<path fill="#FFAA00" d="M4993.519,457.376c-1.166,1.531-1.17,4.32-1.294,6.24l-8.453,38.597c-0.208,3.225,1.19,6.346,3.736,8.337
				l28.597,22.362c2.857,2.234,6.717,2.704,10.027,1.221l29.602-13.266c3.31-1.483,5.527-4.677,5.761-8.297l2.454-37.994
				c0.142-2.194-0.459-4.372-1.707-6.182c0,0-19.526-45.903-37.188-66.461C5006.154,431.447,4993.519,457.376,4993.519,457.376z"/>
			<g>
				<path fill="#1DF288" stroke="#1DF288" stroke-width="1.2" stroke-miterlimit="10" d="M4969.694,445.543
					c0,0-18.876,87.966,50.403,93.334c69.279,5.368,68.568-72.37,60.269-94.626c0,0-36.767-1.629-55.351,57.706
					C5025.016,501.958,5013.042,452.669,4969.694,445.543z"/>
				<path fill="#00FFFF" stroke="#00FFFF" stroke-width="2.5" stroke-miterlimit="10" d="M4969.417,445.402
					c0,0-4.134,7.219-1.375,29.752c0,0,42.079,8.238,57.658,54.802c0,0,16.114-46.13,57.679-56.664c0,0,3-19.53-1.606-28.735
					c0,0-49.902,0.564-55.684,49.746C5026.088,494.303,5017.63,446.867,4969.417,445.402z"/>
			</g>
		</g>
	</g>
</g>
<g id="Human_touch">
	<path fill="none" stroke="#40DD92" stroke-width="10" stroke-miterlimit="10" d="M3034,4285c0,0,277,570,1096,70
		c369.749-225.732,713-31,780,53c77.128,96.698,139.026,193.787,197.341,286.477"/>
	<g id="petal-blink-1">
		<g>
			<path fill="#FFD000" d="M4788.251,4285.714c-0.426,6.918,1.715,52.583,14.532,58.311c20.362,9.099,44.84-11.232,40.049-33.262
				C4839.946,4297.491,4788.307,4284.82,4788.251,4285.714z"/>
			<path fill="#FFAA00" d="M4806.132,4332.998c0.03,0.981,0.922,2.087,1.49,2.888l9.034,18.009c0.953,1.345,2.508,2.133,4.156,2.105
				l18.509-0.313c1.849-0.031,3.529-1.083,4.365-2.733l7.475-14.756c0.836-1.65,0.69-3.627-0.378-5.137l-11.219-15.845
				c-0.648-0.915-1.585-1.585-2.66-1.902c0,0-22.467-11.927-36.063-14.406C4802.82,4318.668,4806.132,4332.998,4806.132,4332.998z"
				/>
			<g>
				<path fill="#1DF288" stroke="#1DF288" stroke-width="1.2" stroke-miterlimit="10" d="M4792.894,4335.953
					c0,0,20.745,40.918,49.923,20.817c29.179-20.102,3.953-50.682-6.477-56.84c0,0-15.094,11.152-3.42,40.63
					C4832.919,4340.56,4812.359,4324.869,4792.894,4335.953z"/>
				<path fill="#00FFFF" stroke="#00FFFF" stroke-width="2.5" stroke-miterlimit="10" d="M4792.738,4335.986
					c0,0,0.678,4.188,9.001,12.232c0,0,19.32-10.237,40.434,3.218c0,0-8.415-23.452,4.677-40.964c0,0-5.078-8.703-9.856-10.873
					c0,0-19.596,16.236-6.106,37.582C4830.888,4337.182,4812.315,4321.097,4792.738,4335.986z"/>
			</g>
		</g>
	</g>
	<g>
		<g>
			<g>
				<path fill="#FFD000" d="M3053.241,3957.117c-18.598,19.829-123.864,157.67-99.486,207.041
					c38.73,78.435,163.539,78.285,204.197-0.242C3182.444,4116.612,3055.644,3954.555,3053.241,3957.117z"/>
				<path fill="#FFAA00" d="M2991.462,4139.235c-2.365,3.036-2.437,8.612-2.729,12.45l-17.779,77
					c-0.49,6.446,2.236,12.718,7.283,16.757l56.686,45.37c5.664,4.533,13.372,5.561,20.025,2.668l59.502-25.862
					c6.653-2.892,11.16-9.228,11.71-16.462l5.768-75.93c0.333-4.384-0.821-8.753-3.275-12.402c0,0-41.702-88.786-76.561-130.3
					C3013.629,4091.124,2991.462,4139.235,2991.462,4139.235z"/>
				<g>
					<path fill="#1DF288" stroke="#1DF288" stroke-width="1.2" stroke-miterlimit="10" d="M2944.083,4115.031
						c0,0-39.739,175.499,98.692,187.801c138.431,12.303,138.768-143.183,122.674-187.881c0,0-73.495-4.088-112.002,114.156
						C3053.447,4229.107,3030.613,4130.265,2944.083,4115.031z"/>
					<path fill="#00FFFF" stroke="#00FFFF" stroke-width="2.5" stroke-miterlimit="10" d="M2943.532,4114.743
						c0,0-8.431,14.344-3.425,59.471c0,0,83.969,17.428,114.072,110.903c0,0,33.271-91.891,116.635-112.02
						c0,0,6.441-38.991-2.563-57.503c0,0-99.813,0-112.487,98.228C3055.763,4213.822,3039.92,4118.763,2943.532,4114.743z"/>
				</g>
			</g>
			<path fill="none" stroke="#42210B" stroke-width="0.5" stroke-miterlimit="10" d="M2894.954,4114.01"/>
		</g>
	</g>
	<g>
		<g>
			<path fill="#FFD000" d="M1325.878,3957.117c-18.598,19.829-123.864,157.67-99.486,207.041
				c38.73,78.435,163.539,78.285,204.197-0.242C1455.081,4116.612,1328.281,3954.555,1325.878,3957.117z"/>
			<path fill="#FFAA00" d="M1264.099,4139.235c-2.365,3.036-2.437,8.612-2.729,12.45l-17.779,77
				c-0.49,6.446,2.236,12.718,7.283,16.757l56.686,45.37c5.664,4.533,13.372,5.561,20.025,2.668l59.502-25.862
				c6.653-2.892,11.161-9.228,11.71-16.462l5.768-75.93c0.333-4.384-0.82-8.753-3.275-12.402c0,0-41.702-88.786-76.561-130.3
				C1286.266,4091.124,1264.099,4139.235,1264.099,4139.235z"/>
			<g>
				<path fill="#1DF288" stroke="#1DF288" stroke-width="1.2" stroke-miterlimit="10" d="M1216.72,4115.031
					c0,0-39.739,175.499,98.692,187.801s138.767-143.183,122.673-187.881c0,0-73.495-4.088-112.002,114.156
					C1326.084,4229.107,1303.25,4130.265,1216.72,4115.031z"/>
				<path fill="#00FFFF" stroke="#00FFFF" stroke-width="2.5" stroke-miterlimit="10" d="M1216.169,4114.743
					c0,0-8.431,14.344-3.425,59.471c0,0,83.969,17.428,114.072,110.903c0,0,33.271-91.891,116.635-112.02
					c0,0,6.441-38.991-2.564-57.503c0,0-99.813,0-112.487,98.228C1328.401,4213.822,1312.557,4118.763,1216.169,4114.743z"/>
			</g>
		</g>
		<path fill="none" stroke="#42210B" stroke-width="0.5" stroke-miterlimit="10" d="M1167.591,4114.01"/>
	</g>
	<g>
		<g>
			<path fill="#FFD000" d="M5055.299,9751.047c-26.433,6.357-190.104,63.742-196.843,118.39
				c-10.708,86.818,93.677,155.235,170.781,111.938C5075.683,9955.293,5058.714,9750.225,5055.299,9751.047z"/>
			<path fill="#FFAA00" d="M4903.654,9869.315c-3.645,1.238-6.767,5.859-9.118,8.906l-57.145,54.586
				c-3.949,5.118-5.115,11.856-3.116,18.004l22.457,69.046c2.244,6.899,8.121,11.99,15.27,13.228l63.929,11.064
				c7.148,1.237,14.395-1.582,18.827-7.326l46.519-60.288c2.687-3.481,4.122-7.766,4.074-12.163c0,0,13.909-97.101,7.575-150.938
				C4948.601,9841.282,4903.654,9869.315,4903.654,9869.315z"/>
			<g>
				<path fill="#1DF288" stroke="#1DF288" stroke-width="1.2" stroke-miterlimit="10" d="M4877.352,9823.068
					c0,0-129.591,124.841-20.659,211.146c108.931,86.305,194.601-43.45,205.699-89.644c0,0-59.175-43.779-156.292,33.892
					C4906.099,9978.463,4941.299,9883.319,4877.352,9823.068z"/>
				<path fill="#00FFFF" stroke="#00FFFF" stroke-width="2.5" stroke-miterlimit="10" d="M4877.05,9822.525
					c0,0-14.923,7.356-35.522,47.819c0,0,60.603,60.679,34.424,155.328c0,0,78.27-58.522,158.992-29.563
					c0,0,26.795-29.047,29.437-49.463c0,0-83.414-54.815-147.951,20.313C4916.429,9966.961,4955.394,9878.818,4877.05,9822.525z"/>
			</g>
		</g>
		<path fill="none" stroke="#42210B" stroke-width="0.5" stroke-miterlimit="10" d="M4836.855,9795.234"/>
	</g>
</g>
<g id="Creative">
	<path fill="none" stroke="#40DD92" stroke-width="10" stroke-miterlimit="10" d="M5107.341,4694.477
		C5293.717,4990.712,5443.508,5242.01,5937,5292c385,39,608-102,549-294c-41.257-134.26-187-156-349-135
		c-230.046,29.821-761,225-744,549c4.498,85.715-1,135,29,220c11.481,32.53,33,228-122.085,305.703
		C5126.991,6024.344,4881.972,6141.604,4569,6147c-519.201,8.952-323.906-592.462,8-424
		c414.589,210.429,760.153,503.373,1254.067,630.963"/>
	<g id="petal-blink-4">
		<g>
			<path fill="#FFD000" d="M4229.519,5845.271c-3.577,6.156-22.643,49.073-13.512,60.234c14.506,17.733,46.346,10.339,52.093-12.096
				C4271.562,5879.895,4229.981,5844.476,4229.519,5845.271z"/>
			<path fill="#FFAA00" d="M4224.16,5896.924c-0.424,0.914-0.114,2.341,0.038,3.338l0.001,20.697
				c0.255,1.674,1.32,3.114,2.846,3.847l17.139,8.236c1.712,0.823,3.74,0.631,5.267-0.499l13.66-10.106
				c1.527-1.13,2.304-3.013,2.018-4.891l-3.003-19.716c-0.173-1.139-0.725-2.186-1.566-2.972c0,0-15.137-21.299-26.479-29.838
				C4227.719,5882.24,4224.16,5896.924,4224.16,5896.924z"/>
			<g>
				<path fill="#1DF288" stroke="#1DF288" stroke-width="1.2" stroke-miterlimit="10" d="M4210.643,5893.54
					c0,0,0.203,47.126,36.253,42.107c36.05-5.019,26.972-44.716,20.231-55.174c0,0-18.996,3.288-21.853,35.732
					C4245.274,5916.205,4233.622,5892.327,4210.643,5893.54z"/>
				<path fill="#00FFFF" stroke="#00FFFF" stroke-width="2.5" stroke-miterlimit="10" d="M4210.485,5893.499
					c0,0-1.306,4.157,2.631,15.378c0,0,22.455-0.501,35.645,21.578c0,0,3.075-25.41,23.161-35.46c0,0-0.654-10.329-4.043-14.522
					c0,0-25.471,5.883-22.916,31.696C4244.964,5912.167,4235.319,5888.844,4210.485,5893.499z"/>
			</g>
		</g>
	</g>
	<g id="petal-blink-2">
		<g>
			<path fill="#FFD000" d="M6521.45,5048.651c1.768-8.13,7.564-62.696-6.596-71.83c-22.495-14.511-55.247,5.14-53.584,32.15
				C6462.271,5025.242,6521.222,5049.701,6521.45,5048.651z"/>
			<path fill="#FFAA00" d="M6508.869,4989.291c0.144-1.169-0.713-2.645-1.24-3.698l-7.431-23.014
				c-0.884-1.77-2.586-2.988-4.546-3.256l-22.015-3.007c-2.2-0.3-4.385,0.641-5.678,2.446l-11.562,16.141
				c-1.293,1.805-1.481,4.177-0.488,6.163l10.417,20.846c0.602,1.204,1.591,2.17,2.809,2.742c0,0,24.477,18.251,40.154,23.675
				C6510.182,5006.896,6508.869,4989.291,6508.869,4989.291z"/>
			<g>
				<path fill="#1DF288" stroke="#1DF288" stroke-width="1.2" stroke-miterlimit="10" d="M6525.114,4988.202
					c0,0-17.141-52.331-55.427-33.809s-13.942,59.405-2.692,68.614c0,0,19.943-10.475,11.474-47.577
					C6478.469,4975.43,6499.997,4997.798,6525.114,4988.202z"/>
				<path fill="#00FFFF" stroke="#00FFFF" stroke-width="2.5" stroke-miterlimit="10" d="M6525.304,4988.191
					c0,0-0.04-5.091-8.446-16.155c0,0-24.789,8.618-47.382-11.199c0,0,5.702,29.359-13.026,47.744c0,0,4.435,11.251,9.709,14.698
					c0,0,26.211-15.684,14.104-43.471C6480.263,4979.808,6499.36,5002.281,6525.304,4988.191z"/>
			</g>
		</g>
	</g>
	<g id="petal-blink-3">
		<g>
			<path fill="#FFD000" d="M5990.919,5334.562c8.406,3.041,65.695,16.989,77.44,3.21c18.66-21.891,2.397-59.572-26.606-61.65
				C6024.282,5274.87,5989.833,5334.168,5990.919,5334.562z"/>
			<path fill="#FFAA00" d="M6055.931,5329.62c1.225,0.32,2.918-0.383,4.116-0.793l25.569-4.635c2.011-0.69,3.551-2.328,4.115-4.377
				l6.339-23.018c0.633-2.3-0.058-4.762-1.796-6.396l-15.544-14.613c-1.738-1.634-4.237-2.172-6.494-1.398l-23.685,8.124
				c-1.368,0.469-2.538,1.385-3.321,2.601c0,0-22.925,23.468-30.936,39.392C6036.994,5328.51,6055.931,5329.62,6055.931,5329.62z"/>
			<g>
				<path fill="#1DF288" stroke="#1DF288" stroke-width="1.2" stroke-miterlimit="10" d="M6054.776,5347.077
					c0,0,58.176-10.8,43.905-54.214c-14.271-43.414-61.282-23.312-72.692-12.643c0,0,8.314,22.731,49.036,18.999
					C6075.025,5299.218,6048.134,5318.959,6054.776,5347.077z"/>
				<path fill="#00FFFF" stroke="#00FFFF" stroke-width="2.5" stroke-miterlimit="10" d="M6054.761,5347.28
					c0,0,5.428,0.683,18.41-6.693c0,0-5.646-27.629,18.678-48.868c0,0-32.08,1.89-48.993-20.676c0,0-12.615,3.121-17.037,8.246
					c0,0,12.969,30.15,44.288,21.215C6070.106,5300.505,6043.451,5317.643,6054.761,5347.28z"/>
			</g>
		</g>
	</g>
</g>
<g id="Alternate_hand" display="none">
</g>
</svg>
