<?xml version="1.0" encoding="utf-8"?>
<!-- Generator: Adobe Illustrator 17.0.0, SVG Export Plug-In . SVG Version: 6.00 Build 0)  -->
<!DOCTYPE svg PUBLIC "-//W3C//DTD SVG 1.1//EN" "http://www.w3.org/Graphics/SVG/1.1/DTD/svg11.dtd">
<svg version="1.1" id="Layer_1" xmlns="http://www.w3.org/2000/svg" xmlns:xlink="http://www.w3.org/1999/xlink" x="0px" y="0px"
	 width="8255px" height="10630px" viewBox="0 0 8255 10630" enable-background="new 0 0 8255 10630" xml:space="preserve">
<g display="none">
	<path display="inline" fill="#40DD92" d="M6008.295,6390.563c-59.346-9.557-118.93-21.996-177.133-36.971l1.155-4.471
		c-271.033-70.015-500.082-191.614-716.661-319.69c68.515-28.813,130.691-59.297,186.498-87.258
		c36.51-18.293,66.134-44.432,88.053-77.692c18.064-27.413,30.889-59.572,38.114-95.586c12.827-63.92,4.268-121.917-1.606-138.56
		c-23.597-66.859-25.02-112.282-26.82-169.79c-0.48-15.339-0.978-31.2-1.901-48.808c-5.138-97.914,40.85-181.145,105.34-248.906
		c117.929,73.234,258.38,116.437,433.163,134.142c122.514,12.411,235.571,6.874,326.947-16.013
		c87.296-21.864,154.621-59.254,194.696-108.128c41.313-50.383,52.601-111.347,32.64-176.302
		c-19.663-63.989-64.239-107.397-132.49-129.02c-56.834-18.006-131.505-21.192-221.932-9.47
		c-117.823,15.273-307.769,72.161-466.52,164.823c-56.42,32.932-117.063,75.271-167.617,126.741
		c-171.322-108.938-271.59-268.412-380.94-442.354l-9.708-15.437h0.001c-63.742-101.316-122.613-192.837-197.664-286.932
		c-20.417-25.597-54.045-54.237-92.263-78.578c-50.956-32.454-107.473-56.405-167.981-71.187
		c-75.163-18.363-154.105-21.685-234.633-9.875c-95.428,13.997-193.441,49.426-291.305,105.296
		c-12.978,5.849-25.743,11.61-38.307,17.281c-335.136,151.257-519.745,234.579-762.03,191.831
		c-120.076-21.185-204.509-75.224-244.171-156.274c-29.997-61.299-24.135-117.14-24.072-117.697l-4.968-0.563l-4.968-0.568
		c-0.271,2.375-6.287,58.89,24.796,122.752c18.248,37.491,45.566,69.607,81.197,95.456c44.317,32.151,101.665,54.607,170.45,66.742
		c41.988,7.408,83.006,11.154,124.334,11.154c72.801-0.002,146.534-11.631,228.007-35.358
		c119.825-34.895,250.323-93.793,415.539-168.36c12.633-5.702,25.469-11.495,38.521-17.377l0.425-0.217
		c177.492-101.385,356.896-134.065,518.813-94.51c135.416,33.082,223.877,107.518,254.799,146.286
		c74.729,93.691,133.438,184.965,197.018,286.022l9.706,15.434c90.082,143.293,175.169,278.64,297.385,382.334
		c26.877,22.804,54.985,43.611,84.512,62.492c-65.415,69.218-111.977,154.37-106.704,254.862c0.919,17.503,1.414,33.31,1.893,48.597
		c1.828,58.375,3.272,104.482,27.386,172.805c5.587,15.83,13.653,71.363,1.232,133.264
		c-10.764,53.64-40.466,126.033-120.842,166.305c-52.419,26.264-117.024,58.635-192.494,89.994
		c-44.677-26.508-88.843-53.264-132.753-79.864c-126.444-76.6-257.192-155.806-393.166-224.821
		c-49.463-25.106-98.193-34.709-144.841-28.54c-41.529,5.491-80.357,23.798-112.286,52.942
		c-33.693,30.754-58.66,72.82-70.302,118.45c-12.104,47.441-9.522,95.095,7.465,137.807
		c18.322,46.069,53.185,84.169,100.818,110.181c54.446,29.731,124.764,44.092,208.969,42.618
		c139.77-2.409,276.981-26.76,419.477-74.439c40.312-13.488,78.829-28.136,115.569-43.322
		c87.123,51.646,176.448,102.486,268.548,148.844c157.639,79.343,306.591,136.672,455.294,175.24l-1.159,4.484
		c59.088,15.263,119.611,27.924,179.89,37.632c152.045,24.484,276.875,81.529,360.994,164.966
		c74.793,74.187,113.798,166.23,109.831,259.178c-6.668,156.195-142.646,323.427-431.401,344.934
		c-58.832,4.382-115.032,6.537-169.539,6.535c-311.344-0.01-565.367-70.4-912.361-198.24
		c-193.225-71.188-374.575-117.046-539.015-136.298c-131.712-15.422-252.96-13.908-360.371,4.499
		c-95.758,16.408-162.608,43.498-201.826,63.333c-41.269,20.872-61.139,37.978-63.204,39.8
		c-282.284,215.607-549.55,349.205-794.373,397.079c-292.186,57.132-544.191-11.455-749.016-203.866
		c-157.187-147.66-319.653-244.051-482.885-286.495c-138.774-36.084-276.148-31.491-397.274,13.283
		c-85.74,31.693-160.632,82.46-216.581,146.81c-26.643,30.646-48.275,63.58-64.293,97.891
		c-16.07,34.422-26.134,69.468-29.914,104.161c-5.452,50.057,2.188,97.225,22.708,140.193
		c21.869,45.791,57.57,84.822,106.112,116.009c401.59,258.007,389.021,578.791,378.921,836.546l2.833,0.111
		c-0.394,9.94-0.799,19.869-1.206,29.767c-9.86,239.363-19.173,465.451,190.024,638.533
		c142.386,117.805,189.699,278.662,235.453,434.224c33.517,113.953,65.174,221.588,131.189,313.547
		c35.576,49.558,77.729,89.637,128.869,122.524c57.127,36.74,124.016,63.697,204.487,82.411
		c156.511,36.399,292.995-4.409,437.495-47.612c176.466-52.761,358.942-107.316,602.167-32.479
		c93.271,28.699,169.969,102.38,251.17,180.387c97.161,93.339,197.63,189.855,333.504,211.771
		c53.199,8.58,106.244,12.868,158.827,12.868c59.813-0.001,119.028-5.55,177.157-16.644
		c87.386-16.677,172.532-45.848,253.074-86.702c137.183-69.585,214.598-150.209,215.363-151.016l-7.25-6.887
		c-0.754,0.793-76.975,80.171-212.637,148.984c-125.248,63.532-328.051,130.634-582.942,89.522
		c-132.791-21.418-232.115-116.834-328.168-209.109c-82.083-78.854-159.614-153.335-255.158-182.732
		c-110.15-33.893-218.362-44.283-330.816-31.771c-99.299,11.05-189.716,38.084-277.157,64.227
		c-104.518,31.249-204.784,61.233-311.19,61.229c-39.372-0.001-79.603-4.108-121.174-13.776
		c-329.276-76.576-391.422-287.867-457.217-511.563c-46.179-157.004-93.93-319.354-238.672-439.107
		c-205.377-169.921-196.163-393.602-186.408-630.416c0.464-11.271,0.93-22.572,1.374-33.898l-2.84-0.111
		c5.69-147.372,6.525-291.322-40.635-431.903c-26.019-77.563-64.046-146.775-116.254-211.595
		c-57.645-71.569-133.943-138.1-226.778-197.741c-91.099-58.529-135.238-146.144-124.285-246.706
		c15.482-142.142,137.776-279.004,304.313-340.564c265.077-97.983,582.122,0.835,869.846,271.121
		c160.146,150.44,348.716,226.104,562.473,226.1c62.943-0.001,128.084-6.563,195.309-19.708
		c128.304-25.09,264.865-74.562,405.889-147.041c127.498-65.527,259.651-150.32,392.787-252.021l0.302-0.251
		c0.195-0.175,19.995-17.704,61.905-38.816c38.696-19.493,104.687-46.109,199.318-62.217
		c167.34-28.48,458.142-28.786,893.211,131.503c169.42,62.417,351.573,125.197,535.672,161.615
		c179.583,35.525,354.485,45.272,550.428,30.679c132.357-9.858,244.1-51.391,323.145-120.105
		c71.995-62.587,113.726-145.822,117.506-234.374c4.089-95.794-35.964-190.512-112.779-266.704
		C6289.13,6473.386,6162.415,6415.383,6008.295,6390.563z M5674.878,5031.501c157.544-91.957,345.941-148.398,462.765-163.542
		c88.974-11.534,162.192-8.477,217.626,9.085c64.935,20.572,107.311,61.762,125.952,122.425
		c18.929,61.6,8.274,119.355-30.813,167.024c-81.772,99.724-273.508,144.781-512.903,120.533
		c-182.928-18.53-318.728-65.399-426.607-131.985C5560.427,5104.991,5619.704,5063.706,5674.878,5031.501z M4568.914,6142.001
		c-3.933,0.067-7.785,0.101-11.618,0.101c-200.098,0-266.75-91.395-288.705-146.598c-32.667-82.138-7.876-182.957,60.286-245.174
		c37.89-34.584,83.511-52.074,132.553-52.074c36.474,0,74.845,9.681,113.308,29.203c135.638,68.845,266.224,147.954,392.51,224.457
		c41.648,25.23,83.739,50.729,126.364,76.076C4952.499,6085.563,4774.767,6138.451,4568.914,6142.001z"/>
	<g display="inline">
		<g>
			<path fill="#FFD000" d="M2944.493,9824.357c-12.957-2.597-99.709-10.65-113.704,11.374
				c-22.233,34.99,10.078,85.261,52.862,82.247C2909.425,9916.163,2946.167,9824.693,2944.493,9824.357z"/>
			<path fill="#FFAA00" d="M2850.777,9844.772c-1.859-0.203-4.17,1.146-5.823,1.976l-36.245,11.859
				c-2.776,1.395-4.65,4.043-5.006,7.075l-4.002,34.059c-0.4,3.403,1.169,6.764,4.077,8.731l26.005,17.594
				c2.908,1.967,6.677,2.219,9.792,0.652l32.702-16.436c1.888-0.949,3.386-2.493,4.252-4.384c0,0,28.095-38.113,36.152-62.421
				C2878.656,9842.453,2850.777,9844.772,2850.777,9844.772z"/>
			<g>
				<path fill="#1DF288" stroke="#1DF288" stroke-width="1.2" stroke-miterlimit="10" d="M2848.484,9819.694
					c0,0-82.407,27.344-51.695,86.182s94.712,20.557,108.927,3.026c0,0-17.31-30.635-75.865-16.94
					C2829.851,9891.962,2864.581,9858.336,2848.484,9819.694z"/>
				<path fill="#00FFFF" stroke="#00FFFF" stroke-width="2.5" stroke-miterlimit="10" d="M2848.46,9819.401
					c0,0-8.074,0.146-25.331,13.313c0,0,14.533,38.151-16.112,73.381c0,0,46.369-9.294,76.183,19.335c0,0,17.692-7.037,22.974-15.24
					c0,0-25.791-40.232-69.442-21.071C2836.733,9889.119,2871.713,9859.246,2848.46,9819.401z"/>
			</g>
		</g>
	</g>
	<g display="inline">
		<g>
			<path fill="#FFD000" d="M2079.451,9873.984c12.108-11.431,83.583-94.77,71.13-125.203
				c-19.784-48.351-95.012-51.744-123.079-5.555C2010.595,9771.051,2077.886,9875.462,2079.451,9873.984z"/>
			<path fill="#FFAA00" d="M2126.725,9762.748c1.563-1.764,1.86-5.122,2.209-7.427l14.208-45.908
				c0.588-3.871-0.771-7.727-3.629-10.302l-32.106-28.925c-3.208-2.89-7.807-3.724-11.948-2.167l-37.034,13.925
				c-4.141,1.557-7.145,5.25-7.804,9.594l-6.921,45.599c-0.4,2.633,0.097,5.298,1.411,7.565c0,0,18.725,56.652,37.851,82.644
				C2108.801,9793.105,2126.725,9762.748,2126.725,9762.748z"/>
			<g>
				<path fill="#1DF288" stroke="#1DF288" stroke-width="1.2" stroke-miterlimit="10" d="M2154.182,9778.658
					c0,0,31.912-104.655-50.961-115.935c-82.873-11.278-90.129,82.415-82.457,109.803c0,0,44.109,4.516,72.681-65.67
					C2093.444,9706.856,2102.722,9767.062,2154.182,9778.658z"/>
				<path fill="#00FFFF" stroke="#00FFFF" stroke-width="2.5" stroke-miterlimit="10" d="M2154.5,9778.847
					c0,0,5.732-8.408,4.762-35.744c0,0-49.817-12.848-63.719-70.021c0,0-24.221,54.449-75.377,64.253c0,0-5.651,23.317-1.064,34.726
					c0,0,60.156,2.786,72.251-56.057C2091.354,9716.004,2096.591,9773.733,2154.5,9778.847z"/>
			</g>
		</g>
	</g>
	<g display="inline">
		<g>
			<path fill="#FFD000" d="M5938.998,6408.639c-4.021-9.519-37.629-69.246-59.739-68.864c-35.126,0.608-56.432,43.156-34.859,69.612
				C5857.395,6425.324,5939.517,6409.869,5938.998,6408.639z"/>
			<path fill="#FFAA00" d="M5881.861,6356.622c-0.699-1.293-2.712-2.212-4.057-2.928l-24.934-18.416
				c-2.258-1.201-5.004-1.279-7.335-0.208l-26.186,12.032c-2.616,1.202-4.309,3.664-4.396,6.395l-0.787,24.424
				c-0.088,2.731,1.443,5.284,3.977,6.632l26.601,14.151c1.536,0.817,3.321,1.125,5.066,0.875c0,0,40.021,1.854,61.069-3.361
				C5896.172,6373.708,5881.861,6356.622,5881.861,6356.622z"/>
			<g>
				<path fill="#1DF288" stroke="#1DF288" stroke-width="1.2" stroke-miterlimit="10" d="M5898.763,6344.364
					c0,0-56.962-41.706-85.124,3.485c-28.162,45.192,28.273,70.26,47.268,71.951c0,0,14.063-24.385-22.308-56.482
					C5838.6,6363.318,5878.42,6371.401,5898.763,6344.364z"/>
				<path fill="#00FFFF" stroke="#00FFFF" stroke-width="2.5" stroke-miterlimit="10" d="M5898.962,6344.223
					c0,0-3.769-5.175-21.021-10.711c0,0-20.703,25.813-59.816,21.067c0,0,27.692,26.083,20.738,57.718
					c0,0,13.064,8.452,21.332,8.355c0,0,17.082-34.008-16.438-54.091C5843.756,6366.56,5881.006,6376.418,5898.962,6344.223z"/>
			</g>
		</g>
	</g>
	<g display="inline">
		<g>
			<path fill="#FFD000" d="M6448.513,6899.895c8.186-5.683,57.918-48.612,53.267-67.731c-7.389-30.375-51.598-39.101-72.33-14.276
				C6416.962,6832.841,6447.455,6900.629,6448.513,6899.895z"/>
			<path fill="#FFAA00" d="M6486.417,6838.298c1.083-0.904,1.558-2.865,1.971-4.198l12.506-25.895
				c0.693-2.238,0.234-4.641-1.228-6.419l-16.415-19.981c-1.64-1.997-4.287-2.901-6.876-2.349l-23.157,4.932
				c-2.589,0.552-4.696,2.468-5.474,4.98l-8.167,26.363c-0.472,1.522-0.416,3.144,0.159,4.603c0,0,6.021,35.193,15.017,52.28
				C6473.101,6854.659,6486.417,6838.298,6486.417,6838.298z"/>
			<g>
				<path fill="#1DF288" stroke="#1DF288" stroke-width="1.2" stroke-miterlimit="10" d="M6501.243,6850.163
					c0,0,28.227-59.075-19.802-73.148c-48.029-14.074-60.688,40.717-58.594,57.607c0,0,25.696,6.61,48.869-32.367
					C6471.715,6802.255,6471.83,6838.707,6501.243,6850.163z"/>
				<path fill="#00FFFF" stroke="#00FFFF" stroke-width="2.5" stroke-miterlimit="10" d="M6501.415,6850.303
					c0,0,4.143-4.464,6.009-20.725c0,0-28.33-12.05-31.45-47.12c0,0-19.193,30.055-50.337,31.288c0,0-5.426,13.292-3.73,20.452
					c0,0,35.345,7.021,47.756-26.717C6469.663,6807.48,6467.606,6842.107,6501.415,6850.303z"/>
			</g>
		</g>
	</g>
	<g display="inline">
		<g>
			<path fill="#FFD000" d="M4838.777,6999.457c10.174,8.232,82.587,55.164,104.986,42.271c35.586-20.482,30.338-79.436-8.584-96.452
				C4911.732,6935.025,4837.463,6998.393,4838.777,6999.457z"/>
			<path fill="#FFAA00" d="M4930.381,7024.61c1.538,1.033,4.185,0.911,6.017,0.942l37.249,6.251
				c3.077,0.051,5.938-1.411,7.644-3.908l19.162-28.042c1.915-2.802,2.082-6.471,0.435-9.534l-14.731-27.386
				c-1.647-3.063-4.838-5.015-8.292-5.073l-36.244-0.607c-2.093-0.035-4.117,0.632-5.745,1.893c0,0-42.164,20.528-60.403,38.152
				C4904.855,7013.834,4930.381,7024.61,4930.381,7024.61z"/>
			<g>
				<path fill="#1DF288" stroke="#1DF288" stroke-width="1.2" stroke-miterlimit="10" d="M4920.87,7047.667
					c0,0,84.866,13.878,84.958-51.857c0.092-65.736-73.65-61.559-94.178-52.71c0,0,1.11,34.832,58.776,49.725
					C4970.426,6992.824,4924.503,7006.367,4920.87,7047.667z"/>
				<path fill="#00FFFF" stroke="#00FFFF" stroke-width="2.5" stroke-miterlimit="10" d="M4920.755,7047.935
					c0,0,7.151,3.583,28.342-0.041c0,0,4.781-40.151,47.856-56.978c0,0-44.953-13.154-57.956-51.973c0,0-18.756-1.955-27.161,2.814
					c0,0,4.14,47.15,51.244,50.398C4963.082,6992.156,4918.664,7002.291,4920.755,7047.935z"/>
			</g>
		</g>
	</g>
	<g display="inline">
		<path fill="#40DD92" d="M940.681,4569.567c-19.868,0-39.563-1.225-58.863-3.707c-83.263-10.706-153.524-43.557-203.187-95.001
			c-48.149-49.877-75.374-115.082-80.919-193.803c-6.21-88.151,15.212-191.771,63.672-307.98
			c57.754-138.499,1.594-280.943-63.434-445.879c-48.88-123.98-104.281-264.501-116.936-423.8
			c-9.318-117.295-4.665-208.135,14.643-285.881c21.709-87.414,63.344-161.937,127.284-227.827
			c66.888-68.929,160.512-131.055,286.221-189.931c125.416-58.738,286.174-115.839,491.461-174.565
			c242.427-69.351,422.098-183.504,595.854-293.899c102.488-65.116,199.293-126.62,307.312-178.919
			c122.354-59.24,237.778-96.196,363.244-116.304c147.526-23.643,306.081-22.828,484.727,2.494
			c96.313,13.651,200.08,34.892,308.421,63.132c113.237,29.517,235.538,67.737,363.505,113.597
			c401.476,143.88,679.515,24.836,948.401-90.288c192.836-82.564,374.975-160.55,582.78-123.929
			c324.989,57.273,599.653,71.435,816.364,42.094c203.039-27.491,349.562-94.556,423.727-193.944
			c78.89-105.719,77.011-248.875-5.432-413.991c-73.825-147.854-200.303-221.769-386.661-225.968
			c-164.798-3.713-351.397,45.539-531.839,93.17c-127.351,33.617-247.638,65.369-351.387,75.883
			c-55.85,5.659-102.225,4.695-141.774-2.948c-44.481-8.595-79.566-25.389-107.263-51.342
			c-37.136-34.799-59.482-84.682-68.315-152.497c-9.381-72.027-3.23-161.814,18.805-274.492l9.814,1.919
			c-41.611,212.784-26.39,349.438,46.535,417.772c49.983,46.839,126.621,63.247,241.19,51.637
			c102.965-10.434,222.883-42.089,349.843-75.603c181.111-47.808,368.373-97.237,534.615-93.498
			c90.471,2.038,165.198,19.541,228.453,53.509c34.552,18.555,65.824,42.392,92.951,70.853
			c28.547,29.949,53.437,65.995,73.979,107.136c42.248,84.614,63.984,163.806,64.605,235.375
			c0.618,71.178-19.604,134.788-60.105,189.063c-37.798,50.653-93.307,93.136-164.986,126.269
			c-72.411,33.472-161.71,57.563-265.413,71.604c-106.111,14.368-228.113,18.31-362.612,11.719
			c-138.906-6.807-292.606-24.932-456.83-53.873c-204.866-36.102-385.68,41.312-577.108,123.273
			c-132.405,56.69-269.319,115.31-424.599,141.992c-84.076,14.447-165.175,18.208-247.929,11.495
			c-92.155-7.473-187.432-28.662-283.183-62.977c-1046.903-375.187-1421.685-137.069-1818.472,115.027
			c-174.356,110.776-354.648,225.324-598.466,295.073c-404.117,115.606-642.598,227.203-773.256,361.846
			c-117.734,121.325-158.044,267.909-139.134,505.951c12.537,157.812,67.647,297.596,116.271,420.924
			c65.826,166.962,122.675,311.154,63.36,453.397c-114.382,274.295-54.862,418.4,15.211,490.989
			c109.455,113.382,297.647,112.98,426.185,64.625c126.431-47.563,204.933-138.695,209.995-243.779l9.989,0.481
			c-2.756,57.203-25.119,109.294-66.468,154.824c-37.367,41.146-89.234,74.976-149.995,97.834
			C1060.095,4558.754,999.669,4569.565,940.681,4569.567z"/>
	</g>
	<g display="inline">
		<g>
			<path fill="#FFD000" d="M5024.616,363.242c-9.186,10.019-62.275,82.263-49.808,106.808
				c19.807,38.995,82.205,38.215,102.088-1.276C5088.873,444.986,5025.803,361.947,5024.616,363.242z"/>
			<path fill="#FFAA00" d="M4993.519,457.376c-1.166,1.531-1.17,4.32-1.294,6.24l-8.453,38.597c-0.208,3.225,1.19,6.346,3.736,8.337
				l28.597,22.362c2.857,2.234,6.717,2.704,10.027,1.221l29.602-13.266c3.31-1.483,5.527-4.677,5.761-8.297l2.454-37.994
				c0.142-2.194-0.459-4.372-1.707-6.182c0,0-19.526-45.903-37.188-66.461C5006.154,431.447,4993.519,457.376,4993.519,457.376z"/>
			<g>
				<path fill="#1DF288" stroke="#1DF288" stroke-width="1.2" stroke-miterlimit="10" d="M4969.694,445.543
					c0,0-18.876,87.966,50.403,93.334s68.568-72.37,60.269-94.626c0,0-36.767-1.629-55.351,57.706
					C5025.016,501.958,5013.042,452.669,4969.694,445.543z"/>
				<path fill="#00FFFF" stroke="#00FFFF" stroke-width="2.5" stroke-miterlimit="10" d="M4969.417,445.402
					c0,0-4.134,7.219-1.375,29.752c0,0,42.079,8.238,57.658,54.802c0,0,16.114-46.13,57.679-56.664c0,0,3-19.53-1.606-28.735
					c0,0-49.902,0.564-55.684,49.746C5026.088,494.303,5017.63,446.867,4969.417,445.402z"/>
			</g>
		</g>
	</g>
	<g id="petal-blink-1" display="inline">
		<g>
			<path fill="#FFD000" d="M4788.251,4285.714c-0.426,6.918,1.715,52.583,14.532,58.311c20.362,9.099,44.84-11.232,40.049-33.262
				C4839.946,4297.491,4788.307,4284.82,4788.251,4285.714z"/>
			<path fill="#FFAA00" d="M4806.132,4332.998c0.03,0.981,0.922,2.087,1.49,2.888l9.034,18.009c0.953,1.345,2.508,2.133,4.156,2.105
				l18.509-0.313c1.849-0.031,3.529-1.083,4.365-2.733l7.475-14.756c0.836-1.65,0.69-3.627-0.378-5.137l-11.219-15.845
				c-0.648-0.915-1.585-1.585-2.66-1.902c0,0-22.467-11.927-36.063-14.406C4802.82,4318.668,4806.132,4332.998,4806.132,4332.998z"
				/>
			<g>
				<path fill="#1DF288" stroke="#1DF288" stroke-width="1.2" stroke-miterlimit="10" d="M4792.894,4335.953
					c0,0,20.745,40.918,49.923,20.817c29.179-20.102,3.953-50.682-6.477-56.84c0,0-15.094,11.152-3.42,40.63
					C4832.919,4340.56,4812.359,4324.869,4792.894,4335.953z"/>
				<path fill="#00FFFF" stroke="#00FFFF" stroke-width="2.5" stroke-miterlimit="10" d="M4792.738,4335.986
					c0,0,0.678,4.188,9.001,12.232c0,0,19.32-10.237,40.434,3.218c0,0-8.415-23.452,4.677-40.964c0,0-5.078-8.703-9.856-10.873
					c0,0-19.596,16.236-6.106,37.582C4830.888,4337.182,4812.315,4321.097,4792.738,4335.986z"/>
			</g>
		</g>
	</g>
	<g display="inline">
		<g>
			<g>
				<path fill="#FFD000" d="M3053.241,3957.117c-18.598,19.829-123.864,157.67-99.486,207.041
					c38.73,78.435,163.539,78.285,204.197-0.242C3182.444,4116.612,3055.644,3954.555,3053.241,3957.117z"/>
				<path fill="#FFAA00" d="M2991.462,4139.235c-2.365,3.036-2.437,8.612-2.729,12.45l-17.779,77
					c-0.49,6.446,2.236,12.718,7.283,16.757l56.686,45.37c5.664,4.533,13.372,5.561,20.025,2.668l59.502-25.862
					c6.653-2.892,11.16-9.228,11.71-16.462l5.768-75.93c0.333-4.384-0.821-8.753-3.275-12.402c0,0-41.702-88.786-76.561-130.3
					C3013.629,4091.124,2991.462,4139.235,2991.462,4139.235z"/>
				<g>
					<path fill="#1DF288" stroke="#1DF288" stroke-width="1.2" stroke-miterlimit="10" d="M2944.083,4115.031
						c0,0-39.739,175.499,98.692,187.801c138.431,12.303,138.768-143.183,122.674-187.881c0,0-73.495-4.088-112.002,114.156
						C3053.447,4229.107,3030.613,4130.265,2944.083,4115.031z"/>
					<path fill="#00FFFF" stroke="#00FFFF" stroke-width="2.5" stroke-miterlimit="10" d="M2943.532,4114.743
						c0,0-8.431,14.344-3.425,59.471c0,0,83.969,17.428,114.072,110.903c0,0,33.271-91.891,116.635-112.02
						c0,0,6.441-38.991-2.563-57.503c0,0-99.813,0-112.487,98.228C3055.763,4213.822,3039.92,4118.763,2943.532,4114.743z"/>
				</g>
			</g>
			<path fill="none" stroke="#42210B" stroke-width="0.5" stroke-miterlimit="10" d="M2894.954,4114.01"/>
		</g>
	</g>
	<g display="inline">
		<g>
			<path fill="#FFD000" d="M1325.878,3957.117c-18.598,19.829-123.864,157.67-99.486,207.041
				c38.73,78.435,163.539,78.285,204.197-0.242C1455.081,4116.612,1328.281,3954.555,1325.878,3957.117z"/>
			<path fill="#FFAA00" d="M1264.099,4139.235c-2.365,3.036-2.437,8.612-2.729,12.45l-17.779,77
				c-0.49,6.446,2.236,12.718,7.283,16.757l56.686,45.37c5.664,4.533,13.372,5.561,20.025,2.668l59.502-25.862
				c6.653-2.892,11.161-9.228,11.71-16.462l5.768-75.93c0.333-4.384-0.82-8.753-3.275-12.402c0,0-41.702-88.786-76.561-130.3
				C1286.266,4091.124,1264.099,4139.235,1264.099,4139.235z"/>
			<g>
				<path fill="#1DF288" stroke="#1DF288" stroke-width="1.2" stroke-miterlimit="10" d="M1216.72,4115.031
					c0,0-39.739,175.499,98.692,187.801s138.767-143.183,122.673-187.881c0,0-73.495-4.088-112.002,114.156
					C1326.084,4229.107,1303.25,4130.265,1216.72,4115.031z"/>
				<path fill="#00FFFF" stroke="#00FFFF" stroke-width="2.5" stroke-miterlimit="10" d="M1216.169,4114.743
					c0,0-8.431,14.344-3.425,59.471c0,0,83.969,17.428,114.072,110.903c0,0,33.271-91.891,116.635-112.02
					c0,0,6.441-38.991-2.564-57.503c0,0-99.813,0-112.487,98.228C1328.401,4213.822,1312.557,4118.763,1216.169,4114.743z"/>
			</g>
		</g>
		<path fill="none" stroke="#42210B" stroke-width="0.5" stroke-miterlimit="10" d="M1167.591,4114.01"/>
	</g>
	<g display="inline">
		<g>
			<path fill="#FFD000" d="M5055.299,9751.047c-26.433,6.357-190.104,63.742-196.843,118.39
				c-10.708,86.818,93.677,155.235,170.781,111.938C5075.683,9955.293,5058.714,9750.225,5055.299,9751.047z"/>
			<path fill="#FFAA00" d="M4903.654,9869.315c-3.645,1.238-6.767,5.859-9.118,8.906l-57.145,54.586
				c-3.949,5.118-5.115,11.856-3.116,18.004l22.457,69.046c2.244,6.899,8.121,11.99,15.27,13.228l63.929,11.064
				c7.148,1.237,14.395-1.582,18.827-7.326l46.519-60.288c2.687-3.481,4.122-7.766,4.074-12.163c0,0,13.909-97.101,7.575-150.938
				C4948.601,9841.282,4903.654,9869.315,4903.654,9869.315z"/>
			<g>
				<path fill="#1DF288" stroke="#1DF288" stroke-width="1.2" stroke-miterlimit="10" d="M4877.352,9823.068
					c0,0-129.591,124.841-20.659,211.146c108.931,86.305,194.601-43.45,205.699-89.644c0,0-59.175-43.779-156.292,33.892
					C4906.099,9978.463,4941.299,9883.319,4877.352,9823.068z"/>
				<path fill="#00FFFF" stroke="#00FFFF" stroke-width="2.5" stroke-miterlimit="10" d="M4877.05,9822.525
					c0,0-14.923,7.356-35.522,47.819c0,0,60.603,60.679,34.424,155.328c0,0,78.27-58.522,158.992-29.563
					c0,0,26.795-29.047,29.437-49.463c0,0-83.414-54.815-147.951,20.313C4916.429,9966.961,4955.394,9878.818,4877.05,9822.525z"/>
			</g>
		</g>
		<path fill="none" stroke="#42210B" stroke-width="0.5" stroke-miterlimit="10" d="M4836.855,9795.234"/>
	</g>
	<g id="petal-blink-4" display="inline">
		<g>
			<path fill="#FFD000" d="M4229.519,5845.271c-3.577,6.156-22.643,49.073-13.512,60.234c14.506,17.733,46.346,10.339,52.093-12.096
				C4271.562,5879.895,4229.981,5844.476,4229.519,5845.271z"/>
			<path fill="#FFAA00" d="M4224.16,5896.924c-0.424,0.914-0.114,2.341,0.038,3.338l0.001,20.697
				c0.255,1.674,1.32,3.114,2.846,3.847l17.139,8.236c1.712,0.823,3.74,0.631,5.267-0.499l13.66-10.106
				c1.527-1.13,2.304-3.013,2.018-4.891l-3.003-19.716c-0.173-1.139-0.725-2.186-1.566-2.972c0,0-15.137-21.299-26.479-29.838
				C4227.719,5882.24,4224.16,5896.924,4224.16,5896.924z"/>
			<g>
				<path fill="#1DF288" stroke="#1DF288" stroke-width="1.2" stroke-miterlimit="10" d="M4210.643,5893.54
					c0,0,0.203,47.126,36.253,42.107s26.972-44.716,20.231-55.174c0,0-18.996,3.288-21.853,35.732
					C4245.274,5916.205,4233.622,5892.327,4210.643,5893.54z"/>
				<path fill="#00FFFF" stroke="#00FFFF" stroke-width="2.5" stroke-miterlimit="10" d="M4210.485,5893.499
					c0,0-1.306,4.157,2.631,15.378c0,0,22.455-0.501,35.645,21.578c0,0,3.075-25.41,23.161-35.46c0,0-0.654-10.329-4.043-14.522
					c0,0-25.471,5.883-22.916,31.696C4244.964,5912.167,4235.319,5888.844,4210.485,5893.499z"/>
			</g>
		</g>
	</g>
	<g id="petal-blink-2" display="inline">
		<g>
			<path fill="#FFD000" d="M6521.45,5048.651c1.768-8.13,7.564-62.696-6.596-71.83c-22.495-14.511-55.247,5.14-53.584,32.15
				C6462.271,5025.242,6521.222,5049.701,6521.45,5048.651z"/>
			<path fill="#FFAA00" d="M6508.869,4989.291c0.144-1.169-0.713-2.645-1.24-3.698l-7.431-23.014
				c-0.884-1.77-2.586-2.988-4.546-3.256l-22.015-3.007c-2.2-0.3-4.385,0.641-5.678,2.446l-11.562,16.141
				c-1.293,1.805-1.481,4.177-0.488,6.163l10.417,20.846c0.602,1.204,1.591,2.17,2.809,2.742c0,0,24.477,18.251,40.154,23.675
				C6510.182,5006.896,6508.869,4989.291,6508.869,4989.291z"/>
			<g>
				<path fill="#1DF288" stroke="#1DF288" stroke-width="1.2" stroke-miterlimit="10" d="M6525.114,4988.202
					c0,0-17.141-52.331-55.427-33.809s-13.942,59.405-2.692,68.614c0,0,19.943-10.475,11.474-47.577
					C6478.469,4975.43,6499.997,4997.798,6525.114,4988.202z"/>
				<path fill="#00FFFF" stroke="#00FFFF" stroke-width="2.5" stroke-miterlimit="10" d="M6525.304,4988.191
					c0,0-0.04-5.091-8.446-16.155c0,0-24.789,8.618-47.382-11.199c0,0,5.702,29.359-13.026,47.744c0,0,4.435,11.251,9.709,14.698
					c0,0,26.211-15.684,14.104-43.471C6480.263,4979.808,6499.36,5002.281,6525.304,4988.191z"/>
			</g>
		</g>
	</g>
	<g id="petal-blink-3" display="inline">
		<g>
			<path fill="#FFD000" d="M5990.919,5334.562c8.406,3.041,65.695,16.989,77.44,3.21c18.66-21.891,2.397-59.572-26.606-61.65
				C6024.282,5274.87,5989.833,5334.168,5990.919,5334.562z"/>
			<path fill="#FFAA00" d="M6055.931,5329.62c1.225,0.32,2.918-0.383,4.116-0.793l25.569-4.635c2.011-0.69,3.551-2.328,4.115-4.377
				l6.339-23.018c0.633-2.3-0.058-4.762-1.796-6.396l-15.544-14.613c-1.738-1.634-4.237-2.172-6.494-1.398l-23.685,8.124
				c-1.368,0.469-2.538,1.385-3.321,2.601c0,0-22.925,23.468-30.936,39.392C6036.994,5328.51,6055.931,5329.62,6055.931,5329.62z"/>
			<g>
				<path fill="#1DF288" stroke="#1DF288" stroke-width="1.2" stroke-miterlimit="10" d="M6054.776,5347.077
					c0,0,58.176-10.8,43.905-54.214s-61.282-23.312-72.692-12.643c0,0,8.314,22.731,49.036,18.999
					C6075.025,5299.218,6048.134,5318.959,6054.776,5347.077z"/>
				<path fill="#00FFFF" stroke="#00FFFF" stroke-width="2.5" stroke-miterlimit="10" d="M6054.761,5347.28
					c0,0,5.428,0.683,18.41-6.693c0,0-5.646-27.629,18.678-48.868c0,0-32.08,1.89-48.993-20.676c0,0-12.615,3.121-17.037,8.246
					c0,0,12.969,30.15,44.288,21.215C6070.106,5300.505,6043.451,5317.643,6054.761,5347.28z"/>
			</g>
		</g>
	</g>
	<g id="Alternate_hand" display="inline">
	</g>
</g>
<g>
	<path fill="none" stroke="#42DB90" stroke-width="11" stroke-miterlimit="10" d="M5695.883,6514.8
		c57.686,14.901,117.394,27.548,179.472,37.545c636.635,102.521,618.024,736.04,39.008,779.166
		c-409.587,30.506-686.488-315.15-1084.23-192.041c-643.103,199.053-814.405,341.934-1351.808-119.81
		c-527.434-453.179-1135.076-195.771-862.708,453.105c74.256,176.903,455.065,309.065,189.015,749.663"/>
	<g>
		<g>
			<path fill="#FFCF00" d="M6301.595,7015.013c8.739-4.792,62.72-42.263,60.104-61.77c-4.156-30.99-47.212-44.317-70.443-21.805
				C6277.263,6944.999,6300.466,7015.632,6301.595,7015.013z"/>
			<path fill="#FDA803" d="M6345.774,6957.729c1.171-0.785,1.851-2.686,2.401-3.968l15.162-24.442
				c0.925-2.153,0.721-4.592-0.546-6.515l-14.226-21.601c-1.421-2.159-3.959-3.336-6.592-3.06l-23.552,2.471
				c-2.634,0.276-4.931,1.961-5.969,4.377l-10.895,25.364c-0.629,1.464-0.744,3.083-0.325,4.595c0,0,2.289,35.639,9.44,53.58
				C6330.809,6972.604,6345.774,6957.729,6345.774,6957.729z"/>
			<g>
				<path fill="#20F086" stroke="#20F086" stroke-width="1.2" stroke-miterlimit="10" d="M6359.273,6971.09
					c0,0,34.288-55.792-12.005-74.84s-64.646,34.119-64.339,51.139c0,0,24.864,9.277,52.012-27.056
					C6334.94,6920.333,6331.221,6956.603,6359.273,6971.09z"/>
				<path fill="#0EFDFD" stroke="#0EFDFD" stroke-width="2.5" stroke-miterlimit="10" d="M6359.429,6971.248
					c0,0,4.589-4.004,8.156-19.983c0,0-26.912-14.964-26.329-50.176c0,0-22.25,27.877-53.359,25.829c0,0-6.794,12.651-5.86,19.951
					c0,0,34.419,10.699,50.311-21.554C6332.349,6925.315,6326.663,6959.541,6359.429,6971.248z"/>
			</g>
		</g>
	</g>
	<g>
		<g>
			<path fill="#FFCF00" d="M5260.026,7229.472c10.176,8.234,82.604,55.175,105.008,42.28c35.593-20.487,30.344-79.453-8.586-96.473
				C5332.996,7165.027,5258.711,7228.408,5260.026,7229.472z"/>
			<path fill="#FDA803" d="M5351.649,7254.632c1.538,1.033,4.186,0.911,6.018,0.942l37.257,6.252
				c3.078,0.052,5.939-1.411,7.646-3.909l19.166-28.048c1.915-2.803,2.083-6.473,0.435-9.536l-14.734-27.393
				c-1.648-3.063-4.84-5.016-8.293-5.073l-36.251-0.607c-2.093-0.035-4.118,0.631-5.747,1.893c0,0-42.172,20.533-60.416,38.161
				C5326.118,7243.853,5351.649,7254.632,5351.649,7254.632z"/>
			<g>
				<path fill="#20F086" stroke="#20F086" stroke-width="1.2" stroke-miterlimit="10" d="M5342.136,7277.692
					c0,0,84.884,13.882,84.976-51.868c0.092-65.75-73.666-61.572-94.198-52.721c0,0,1.11,34.839,58.789,49.735
					C5391.703,7222.838,5345.771,7236.384,5342.136,7277.692z"/>
				<path fill="#0EFDFD" stroke="#0EFDFD" stroke-width="2.5" stroke-miterlimit="10" d="M5342.021,7277.961
					c0,0,7.153,3.583,28.348-0.041c0,0,4.782-40.16,47.867-56.99c0,0-44.962-13.157-57.968-51.983c0,0-18.76-1.956-27.167,2.815
					c0,0,4.141,47.16,51.255,50.409C5384.357,7222.17,5339.929,7232.307,5342.021,7277.961z"/>
			</g>
		</g>
	</g>
	<path fill="none" stroke="#42DB90" stroke-width="11" stroke-miterlimit="10" d="M3054.948,4293.48
		c0,0,55.617,557.48,901.562,128.642c471.596-239.068,754.098,58.283,821.112,142.301
		c77.145,96.719,139.056,193.828,197.383,286.538"/>
	<path fill="none" stroke="#42DB90" stroke-width="10" stroke-miterlimit="10" d="M5713.82,5099.536
		c0,0-81.017,36.008-120.025,55.012"/>
	<path fill="none" stroke="#42DB90" stroke-width="11" stroke-miterlimit="10" d="M4975.005,4850.96
		c186.416,296.298,336.238,547.649,829.835,597.65c385.082,39.008,608.129-102.021,549.117-294.063
		c-41.266-134.289-187.04-156.033-349.074-135.029c-230.095,29.827-761.162,225.048-744.158,549.117
		c4.499,85.733-1,135.029,29.006,220.047c11.483,32.537,33.007,228.048-122.111,305.768
		c-172.961,86.659-418.032,203.944-731.07,209.342c-519.311,8.954-323.975-592.588,8.002-424.09
		c414.677,210.474,760.314,503.48,1254.333,631.097"/>
	<g>
		<g>
			<path fill="#FFCF00" d="M4096.997,6002c-3.578,6.157-22.648,49.083-13.515,60.247c14.509,17.736,46.356,10.341,52.104-12.099
				C4139.048,6036.63,4097.459,6001.204,4096.997,6002z"/>
			<path fill="#FDA803" d="M4091.636,6053.663c-0.425,0.915-0.114,2.342,0.038,3.338l0.001,20.702
				c0.255,1.674,1.321,3.114,2.847,3.848l17.143,8.238c1.713,0.823,3.741,0.631,5.269-0.5l13.662-10.108
				c1.528-1.13,2.305-3.013,2.019-4.892l-3.004-19.72c-0.173-1.139-0.726-2.186-1.567-2.972c0,0-15.14-21.304-26.484-29.844
				C4095.196,6038.976,4091.636,6053.663,4091.636,6053.663z"/>
			<g>
				<path fill="#20F086" stroke="#20F086" stroke-width="1.2" stroke-miterlimit="10" d="M4078.116,6050.278
					c0,0,0.203,47.136,36.26,42.116c36.058-5.02,26.978-44.726,20.235-55.186c0,0-19,3.289-21.857,35.739
					C4112.755,6072.947,4101.1,6049.065,4078.116,6050.278z"/>
				<path fill="#0EFDFD" stroke="#0EFDFD" stroke-width="2.5" stroke-miterlimit="10" d="M4077.959,6050.237
					c0,0-1.306,4.158,2.632,15.381c0,0,22.459-0.502,35.653,21.582c0,0,3.075-25.415,23.166-35.467c0,0-0.654-10.332-4.044-14.525
					c0,0-25.476,5.884-22.92,31.702C4112.445,6068.909,4102.797,6045.581,4077.959,6050.237z"/>
			</g>
		</g>
	</g>
	<g>
		<g>
			<path fill="#FFCF00" d="M5146.913,5155.652c2.512,9.347,25.646,68.84,45.156,70.723c30.997,2.992,54.36-34.801,38.225-61.831
				C5220.574,5148.261,5146.588,5154.444,5146.913,5155.652z"/>
			<path fill="#FDA803" d="M5191.6,5210.291c0.475,1.285,2.149,2.353,3.255,3.161l19.964,19.821
				c1.858,1.357,4.268,1.709,6.436,0.939l24.36-8.643c2.434-0.864,4.19-3.003,4.563-5.559l3.334-22.854
				c0.373-2.556-0.699-5.108-2.785-6.631l-21.893-15.986c-1.264-0.923-2.802-1.394-4.367-1.335c0,0-35.041-5.8-54.14-3.038
				C5180.846,5192.795,5191.6,5210.291,5191.6,5210.291z"/>
			<g>
				<path fill="#20F086" stroke="#20F086" stroke-width="1.2" stroke-miterlimit="10" d="M5175.39,5220.087
					c0,0,45.649,44.94,75.335,5.361s-17.297-68.843-33.841-72.356c0,0-15.021,21.471,13.535,55.3
					C5230.419,5208.392,5196.229,5196.763,5175.39,5220.087z"/>
				<path fill="#0EFDFD" stroke="#0EFDFD" stroke-width="2.5" stroke-miterlimit="10" d="M5175.2,5220.2
					c0,0,2.759,5.241,17.353,12.19c0,0,21.022-22.139,54.951-13.715c0,0-21.564-27.302-12.019-56.301c0,0-10.59-9.262-17.88-10.009
					c0,0-18.721,30.201,8.624,52.459C5226.229,5204.824,5194.494,5191.789,5175.2,5220.2z"/>
			</g>
		</g>
	</g>
	
		<line fill="none" stroke="#42DB90" stroke-width="10" stroke-miterlimit="10" x1="4789.882" y1="6075.584" x2="4967.532" y2="6182.669"/>
	<g>
		<g>
			<path fill="#FFCF00" d="M5858.77,5491.181c8.408,3.042,65.709,16.993,77.457,3.211c18.664-21.896,2.398-59.585-26.612-61.663
				C5892.14,5431.477,5857.684,5490.788,5858.77,5491.181z"/>
			<path fill="#FDA803" d="M5923.796,5486.238c1.225,0.32,2.919-0.383,4.116-0.794l25.575-4.636c2.011-0.69,3.552-2.329,4.116-4.378
				l6.34-23.023c0.633-2.301-0.058-4.763-1.796-6.397l-15.547-14.616c-1.738-1.634-4.238-2.173-6.496-1.398l-23.69,8.125
				c-1.368,0.469-2.538,1.386-3.321,2.602c0,0-22.93,23.473-30.942,39.4C5904.855,5485.128,5923.796,5486.238,5923.796,5486.238z"/>
			<g>
				<path fill="#20F086" stroke="#20F086" stroke-width="1.2" stroke-miterlimit="10" d="M5922.641,5503.699
					c0,0,58.188-10.802,43.915-54.226c-14.274-43.423-61.295-23.317-72.708-12.646c0,0,8.316,22.736,49.046,19.003
					C5942.894,5455.831,5915.998,5475.575,5922.641,5503.699z"/>
				<path fill="#0EFDFD" stroke="#0EFDFD" stroke-width="2.5" stroke-miterlimit="10" d="M5922.626,5503.902
					c0,0,5.429,0.683,18.413-6.694c0,0-5.647-27.635,18.682-48.878c0,0-32.087,1.89-49.003-20.681c0,0-12.617,3.121-17.041,8.248
					c0,0,12.972,30.156,44.297,21.22C5937.975,5457.117,5911.313,5474.258,5922.626,5503.902z"/>
			</g>
		</g>
	</g>
	<path fill="none" stroke="#42DB90" stroke-width="10" stroke-miterlimit="10" d="M5593.795,5154.548
		c0,0,74.016-39.008,98.021-43.009"/>
	<path fill="none" stroke="#42DB90" stroke-width="11" stroke-miterlimit="10" d="M2804.682,8222.829
		c-27,367-452.725,722.449-194,914c362.11,268.094-57.876,620.546,508.658,752.298c344.073,80.017,594.278-217.23,1040.221-80.017"
		/>
	<path fill="none" stroke="#42DB90" stroke-width="11" stroke-miterlimit="10" d="M5305.061,460.676
		c121.121,939.653,912.906,145.69,1184.813,631.628c188.524,336.921,78.624,615.886-1152.056,479.386
		c-793.046-87.96-1167.616,522.942-1712.3,316.753c-1038.488-393.119-1249.334,40.565-1888.152,207.64
		c-817.851,213.899-891.224,447.627-857.217,875.718c29.183,367.361-185.412,625.273-200.326,892.529
		c-44.281,793.513,654.994,707.245,653.894,398.15"/>
	<g>
		<path fill="#FFCF00" d="M5304.684,173.245c-18.196,20.207-120.664,160.187-95.283,209.062
			c40.323,77.649,165.129,74.965,204.193-4.388C5437.126,330.118,5307.035,170.634,5304.684,173.245z"/>
		<path fill="#FDA803" d="M5246.602,356.619c-2.304,3.085-2.263,8.662-2.476,12.506l-16.215,77.362
			c-0.359,6.456,2.495,12.672,7.624,16.609l57.607,44.219c5.756,4.418,13.484,5.289,20.08,2.262l58.977-27.07
			c6.595-3.027,10.974-9.455,11.376-16.7l4.226-76.048c0.244-4.391-0.998-8.737-3.527-12.336c0,0-43.505-87.94-79.208-128.746
			C5267.792,308.057,5246.602,356.619,5246.602,356.619z"/>
		<g>
			<path fill="#20F086" stroke="#20F086" stroke-width="11" stroke-miterlimit="10" d="M5198.731,333.376
				c0,0-36.176,176.307,102.506,185.799c138.682,9.492,135.861-146.001,118.859-190.373c0,0-73.579-2.597-109.685,116.431
				C5310.412,445.233,5285.57,346.853,5198.731,333.376z"/>
			<path fill="#0EFDFD" stroke="#0EFDFD" stroke-width="11" stroke-miterlimit="10" d="M5198.174,333.099
				c0,0-8.14,14.515-2.217,59.541c0,0,84.324,15.723,116.324,108.587c0,0,31.405-92.567,114.361-114.389
				c0,0,5.649-39.122-3.731-57.452c0,0-99.813,2.027-110.493,100.513C5312.418,429.901,5294.645,335.162,5198.174,333.099z"/>
		</g>
	</g>
	<g>
		<g>
			<path fill="#FFCF00" d="M3051.686,3948.483c-18.602,19.834-123.89,157.704-99.507,207.085
				c38.738,78.452,163.574,78.302,204.24-0.243C3180.917,4108.011,3054.09,3945.92,3051.686,3948.483z"/>
			<path fill="#FDA803" d="M2989.894,4130.639c-2.366,3.037-2.438,8.614-2.729,12.453l-17.782,77.017
				c-0.49,6.448,2.237,12.721,7.285,16.761l56.698,45.379c5.666,4.534,13.374,5.562,20.029,2.669l59.514-25.867
				c6.655-2.893,11.163-9.23,11.712-16.466l5.769-75.946c0.333-4.385-0.821-8.755-3.276-12.405c0,0-41.711-88.805-76.577-130.327
				C3012.065,4082.518,2989.894,4130.639,2989.894,4130.639z"/>
			<g>
				<path fill="#20F086" stroke="#20F086" stroke-width="1.2" stroke-miterlimit="10" d="M2942.505,4106.43
					c0,0-39.748,175.536,98.713,187.841s138.797-143.213,122.699-187.921c0,0-73.51-4.09-112.025,114.18
					C3051.892,4220.531,3029.053,4121.667,2942.505,4106.43z"/>
				<path fill="#0EFDFD" stroke="#0EFDFD" stroke-width="2.5" stroke-miterlimit="10" d="M2941.954,4106.142
					c0,0-8.433,14.347-3.426,59.484c0,0,83.987,17.431,114.096,110.926c0,0,33.278-91.911,116.66-112.043
					c0,0,6.443-38.999-2.564-57.516c0,0-99.834,0-112.511,98.249C3054.209,4205.242,3038.362,4110.163,2941.954,4106.142z"/>
			</g>
		</g>
		<path fill="none" stroke="#43200B" stroke-width="0.5" stroke-miterlimit="10" d="M2893.365,4105.409"/>
	</g>
	<g>
		<path fill="#FFCF00" d="M1328.596,3965.967c-18.602,19.834-123.89,157.704-99.507,207.085
			c38.738,78.452,163.574,78.302,204.24-0.242C1457.826,4125.496,1330.999,3963.404,1328.596,3965.967z"/>
		<path fill="#FDA803" d="M1266.804,4148.124c-2.366,3.037-2.438,8.614-2.729,12.453l-17.782,77.017
			c-0.49,6.447,2.237,12.721,7.285,16.761l56.698,45.379c5.666,4.535,13.374,5.562,20.029,2.669l59.514-25.868
			c6.655-2.893,11.163-9.229,11.712-16.465l5.769-75.946c0.333-4.385-0.821-8.755-3.276-12.405c0,0-41.711-88.805-76.578-130.327
			C1288.975,4100.002,1266.804,4148.124,1266.804,4148.124z"/>
		<g>
			<path fill="#20F086" stroke="#20F086" stroke-width="1.2" stroke-miterlimit="10" d="M1219.414,4123.915
				c0,0-39.748,175.536,98.713,187.841s138.797-143.213,122.699-187.921c0,0-73.51-4.089-112.025,114.181
				C1328.801,4238.015,1305.962,4139.151,1219.414,4123.915z"/>
			<path fill="#0EFDFD" stroke="#0EFDFD" stroke-width="2.5" stroke-miterlimit="10" d="M1218.863,4123.626
				c0,0-8.433,14.347-3.425,59.484c0,0,83.987,17.431,114.096,110.926c0,0,33.278-91.91,116.66-112.043
				c0,0,6.443-38.999-2.564-57.515c0,0-99.834,0-112.511,98.249C1331.118,4222.727,1315.272,4127.646,1218.863,4123.626z"/>
		</g>
	</g>
</g>
</svg>
