<?xml version="1.0" encoding="utf-8"?>
<!-- Generator: Adobe Illustrator 17.0.0, SVG Export Plug-In . SVG Version: 6.00 Build 0)  -->
<!DOCTYPE svg PUBLIC "-//W3C//DTD SVG 1.0//EN" "http://www.w3.org/TR/2001/REC-SVG-20010904/DTD/svg10.dtd">
<svg version="1.0" xmlns="http://www.w3.org/2000/svg" xmlns:xlink="http://www.w3.org/1999/xlink" x="0px" y="0px" width="2232px"
	 height="2535.255px" viewBox="0 0 2232 2535.255" enable-background="new 0 0 2232 2535.255" xml:space="preserve">
<g id="Comments">
</g>
<g id="Bees">
</g>
<g id="Followers">
</g>
<g id="Human_touch">
	<g>
		<g>
			<g>
				<path fill="#40DD92" d="M1566.042,676.166l-4.102,4.384c-0.075,0.081-0.202,0.085-0.282,0.009s-0.084-0.202-0.009-0.282
					c0.003-0.003,0.006-0.006,0.009-0.009L1566.042,676.166z"/>
				<path fill="#40DD92" d="M1553.658,689.294l-8.303,8.725c-0.314,0.33-0.837,0.343-1.167,0.029
					c-0.33-0.314-0.343-0.837-0.029-1.167c0.009-0.009,0.02-0.02,0.029-0.029l8.725-8.303c0.211-0.201,0.544-0.192,0.745,0.018
					C1553.852,688.772,1553.849,689.092,1553.658,689.294z"/>
				<path fill="#40DD92" d="M1537.028,706.719l-8.361,8.666c-0.5,0.519-1.326,0.533-1.845,0.033s-0.533-1.326-0.033-1.845
					c0.01-0.01,0.023-0.023,0.033-0.033l8.666-8.361c0.433-0.418,1.123-0.405,1.54,0.028
					C1537.436,705.63,1537.432,706.299,1537.028,706.719z"/>
				<path fill="#40DD92" d="M1520.275,724.021l-8.404,8.623c-0.629,0.646-1.663,0.659-2.308,0.03
					c-0.646-0.629-0.659-1.663-0.03-2.308c0.008-0.008,0.022-0.022,0.03-0.03l8.624-8.404c0.584-0.569,1.52-0.557,2.089,0.027
					C1520.835,722.534,1520.831,723.449,1520.275,724.021z"/>
				<path fill="#40DD92" d="M1503.439,741.24l-8.447,8.58c-0.714,0.725-1.88,0.734-2.604,0.02c-0.725-0.714-0.734-1.879-0.02-2.604
					c0.004-0.005,0.016-0.016,0.02-0.02l8.58-8.447c0.688-0.677,1.794-0.669,2.472,0.019
					C1504.109,739.468,1504.106,740.561,1503.439,741.24z"/>
				<path fill="#40DD92" d="M1486.534,758.39l-8.492,8.536c-0.76,0.764-1.997,0.768-2.761,0.007
					c-0.765-0.76-0.768-1.996-0.007-2.761l0.007-0.007l8.536-8.492c0.752-0.748,1.968-0.745,2.717,0.007
					C1487.28,756.43,1487.279,757.641,1486.534,758.39z"/>
				<path fill="#40DD92" d="M1469.551,775.461l-8.512,8.515c-0.775,0.776-2.032,0.776-2.808,0.001c-0.775-0.775-0.775-2.032,0-2.808
					l0-0.001l8.516-8.512c0.774-0.774,2.03-0.774,2.805,0.001S1470.325,774.687,1469.551,775.461z"/>
				<path fill="#40DD92" d="M1452.503,792.468l-8.536,8.492c-0.753,0.749-1.97,0.746-2.719-0.007c-0.747-0.75-0.746-1.963,0-2.712
					l8.492-8.536c0.761-0.765,1.999-0.768,2.764-0.007c0.765,0.761,0.768,1.999,0.007,2.764L1452.503,792.468z"/>
				<path fill="#40DD92" d="M1435.399,809.419l-8.581,8.447c-0.689,0.679-1.799,0.67-2.478-0.019c-0.672-0.683-0.669-1.778,0-2.459
					l8.447-8.58c0.715-0.727,1.884-0.736,2.611-0.02c0.727,0.715,0.736,1.885,0.021,2.611
					C1435.416,809.403,1435.404,809.415,1435.399,809.419z"/>
				<path fill="#40DD92" d="M1418.225,826.299l-8.624,8.403c-0.587,0.571-1.525,0.559-2.097-0.027c-0.562-0.577-0.558-1.496,0-2.069
					l8.403-8.624c0.631-0.648,1.669-0.662,2.317-0.03c0.648,0.632,0.662,1.669,0.03,2.317
					C1418.247,826.278,1418.233,826.291,1418.225,826.299z"/>
				<path fill="#40DD92" d="M1400.966,843.095l-8.667,8.36c-0.435,0.42-1.127,0.407-1.547-0.028c-0.41-0.425-0.406-1.097,0-1.519
					l8.361-8.667c0.502-0.521,1.332-0.536,1.854-0.033c0.521,0.503,0.536,1.332,0.033,1.854
					C1400.989,843.072,1400.976,843.085,1400.966,843.095z"/>
				<path fill="#40DD92" d="M1383.598,859.782l-8.726,8.301c-0.212,0.202-0.547,0.193-0.749-0.019c-0.195-0.205-0.193-0.527,0-0.73
					l8.301-8.726c0.316-0.332,0.841-0.345,1.173-0.029c0.333,0.316,0.346,0.841,0.029,1.174
					C1383.619,859.762,1383.607,859.773,1383.598,859.782z"/>
				<path fill="#40DD92" d="M1366.126,876.365l-4.384,4.101l4.101-4.385c0.076-0.081,0.203-0.085,0.284-0.01s0.085,0.203,0.01,0.284
					C1366.133,876.359,1366.129,876.362,1366.126,876.365z"/>
			</g>
		</g>
		<g>
			<g>
				<path fill="#40DD92" d="M683.65,676.166l4.384,4.102c0.081,0.075,0.084,0.202,0.009,0.282c-0.075,0.081-0.202,0.085-0.282,0.009
					c-0.003-0.003-0.006-0.006-0.009-0.009L683.65,676.166z"/>
				<path fill="#40DD92" d="M696.778,688.549l8.725,8.303c0.33,0.314,0.343,0.837,0.029,1.167c-0.314,0.33-0.837,0.343-1.167,0.029
					c-0.009-0.009-0.02-0.02-0.029-0.029l-8.303-8.725c-0.201-0.211-0.192-0.544,0.019-0.745
					C696.256,688.355,696.577,688.358,696.778,688.549z"/>
				<path fill="#40DD92" d="M714.204,705.179l8.666,8.361c0.519,0.5,0.533,1.326,0.033,1.845c-0.5,0.519-1.326,0.533-1.845,0.033
					c-0.01-0.01-0.023-0.023-0.033-0.033l-8.361-8.666c-0.418-0.433-0.406-1.122,0.027-1.54
					C713.114,704.771,713.784,704.775,714.204,705.179z"/>
				<path fill="#40DD92" d="M731.505,721.932l8.623,8.404c0.646,0.629,0.659,1.663,0.03,2.308c-0.629,0.646-1.663,0.659-2.308,0.03
					c-0.008-0.008-0.021-0.022-0.03-0.03l-8.404-8.623c-0.569-0.584-0.558-1.519,0.027-2.089
					C730.018,721.372,730.934,721.376,731.505,721.932z"/>
				<path fill="#40DD92" d="M748.724,738.768l8.58,8.447c0.725,0.714,0.733,1.879,0.02,2.604s-1.879,0.734-2.604,0.02
					c-0.004-0.004-0.016-0.016-0.021-0.02l-8.447-8.58c-0.677-0.688-0.668-1.794,0.019-2.472
					C746.953,738.098,748.045,738.101,748.724,738.768z"/>
				<path fill="#40DD92" d="M765.874,755.673l8.536,8.492c0.764,0.76,0.768,1.996,0.007,2.761c-0.761,0.764-1.997,0.768-2.761,0.007
					l-0.007-0.007l-8.492-8.536c-0.749-0.752-0.745-1.969,0.007-2.717C763.914,754.927,765.125,754.928,765.874,755.673z"/>
				<path fill="#40DD92" d="M782.945,772.656l8.515,8.512c0.776,0.775,0.776,2.032,0,2.808c-0.775,0.776-2.032,0.776-2.808,0.001
					l0-0.001l-8.512-8.515c-0.774-0.775-0.774-2.03,0-2.805C780.916,771.882,782.171,771.882,782.945,772.656z"/>
				<path fill="#40DD92" d="M799.952,789.704l8.492,8.536c0.749,0.753,0.746,1.97-0.007,2.719c-0.75,0.747-1.963,0.745-2.712,0
					l-8.536-8.492c-0.765-0.761-0.769-1.999-0.007-2.764c0.761-0.765,1.999-0.768,2.764-0.007L799.952,789.704z"/>
				<path fill="#40DD92" d="M816.903,806.808l8.447,8.58c0.679,0.69,0.67,1.799-0.02,2.478c-0.683,0.672-1.778,0.669-2.458,0
					l-8.581-8.447c-0.727-0.716-0.736-1.885-0.021-2.611c0.715-0.727,1.885-0.736,2.611-0.02
					C816.888,806.792,816.899,806.803,816.903,806.808z"/>
				<path fill="#40DD92" d="M833.784,823.982l8.403,8.624c0.571,0.586,0.559,1.525-0.027,2.097c-0.577,0.562-1.496,0.558-2.069,0
					l-8.624-8.403c-0.648-0.632-0.662-1.669-0.03-2.317c0.631-0.648,1.669-0.662,2.317-0.03
					C833.762,823.96,833.775,823.974,833.784,823.982z"/>
				<path fill="#40DD92" d="M850.579,841.241l8.36,8.667c0.42,0.435,0.407,1.128-0.028,1.547c-0.425,0.41-1.097,0.406-1.519,0
					l-8.667-8.36c-0.521-0.503-0.536-1.332-0.033-1.853c0.502-0.521,1.333-0.536,1.854-0.033
					C850.556,841.218,850.569,841.232,850.579,841.241z"/>
				<path fill="#40DD92" d="M867.267,858.609l8.301,8.726c0.202,0.212,0.193,0.547-0.019,0.749c-0.205,0.195-0.527,0.193-0.73,0
					l-8.726-8.301c-0.332-0.316-0.345-0.841-0.029-1.174c0.316-0.332,0.842-0.345,1.174-0.029
					C867.247,858.588,867.258,858.599,867.267,858.609z"/>
				<path fill="#40DD92" d="M883.849,876.081l4.101,4.385l-4.385-4.101c-0.081-0.076-0.085-0.203-0.009-0.284
					c0.076-0.081,0.203-0.085,0.284-0.01C883.843,876.074,883.846,876.078,883.849,876.081z"/>
			</g>
		</g>
		<g>
			<g>
				<path fill="#40DD92" d="M1108.369,314.925l0.135,6c0.002,0.075-0.057,0.136-0.132,0.138c-0.075,0.002-0.137-0.057-0.138-0.132
					c0-0.002,0-0.004,0-0.006L1108.369,314.925z"/>
				<path fill="#40DD92" d="M1108.748,332.771l0.199,11.846c0.005,0.319-0.249,0.582-0.568,0.588
					c-0.319,0.005-0.583-0.249-0.588-0.568c0-0.006,0-0.014,0-0.019l0.199-11.846c0.003-0.209,0.176-0.376,0.386-0.373
					C1108.58,332.402,1108.745,332.568,1108.748,332.771z"/>
				<path fill="#40DD92" d="M1109.146,356.463l0.199,11.846c0.009,0.539-0.42,0.983-0.959,0.992
					c-0.539,0.009-0.983-0.42-0.992-0.959c0-0.01,0-0.023,0-0.033l0.199-11.846c0.007-0.429,0.361-0.771,0.79-0.764
					C1108.802,355.706,1109.138,356.047,1109.146,356.463z"/>
				<path fill="#40DD92" d="M1109.495,380.155l0.143,11.846c0.009,0.701-0.553,1.276-1.254,1.285
					c-0.701,0.009-1.276-0.553-1.285-1.254c0-0.008,0-0.023,0-0.031l0.144-11.846c0.007-0.622,0.518-1.12,1.14-1.112
					C1108.995,379.05,1109.487,379.546,1109.495,380.155z"/>
				<path fill="#40DD92" d="M1109.769,403.847l0.104,11.846c0.007,0.83-0.66,1.509-1.49,1.516c-0.831,0.007-1.509-0.66-1.517-1.49
					c0-0.006,0-0.02,0-0.026l0.103-11.846c0.007-0.773,0.639-1.395,1.413-1.388C1109.146,402.466,1109.762,403.086,1109.769,403.847
					z"/>
				<path fill="#40DD92" d="M1109.976,427.539l0.095,11.846c0.007,0.939-0.748,1.707-1.688,1.715
					c-0.939,0.008-1.707-0.748-1.714-1.688c0-0.006,0-0.021,0-0.027l0.094-11.846c0.007-0.887,0.732-1.601,1.62-1.594
					C1109.26,425.952,1109.968,426.664,1109.976,427.539z"/>
				<path fill="#40DD92" d="M1110.133,451.231l0.062,11.846c0.005,1.008-0.808,1.83-1.816,1.836
					c-1.008,0.005-1.83-0.808-1.835-1.816v-0.019l0.063-11.846c0.005-0.974,0.799-1.76,1.773-1.754
					C1109.346,449.482,1110.127,450.266,1110.133,451.231z"/>
				<path fill="#40DD92" d="M1110.257,474.923l0.038,11.846c0.003,1.064-0.856,1.929-1.92,1.932
					c-1.063,0.003-1.929-0.856-1.932-1.92v-0.012l0.038-11.846c0.003-1.043,0.852-1.886,1.895-1.882
					C1109.414,473.043,1110.254,473.885,1110.257,474.923z"/>
				<path fill="#40DD92" d="M1110.316,498.614l0.021,11.846c0.002,1.087-0.878,1.969-1.964,1.971
					c-1.087,0.002-1.969-0.878-1.971-1.964v-0.007l0.021-11.846c0.002-1.075,0.875-1.945,1.951-1.944
					C1109.448,496.673,1110.318,497.539,1110.316,498.614z"/>
				<path fill="#40DD92" d="M1110.357,522.306l0.002,11.846c0,1.099-0.891,1.991-1.99,1.991c-1.1,0-1.991-0.891-1.991-1.99v-0.001
					l0.002-11.846c0-1.098,0.891-1.988,1.989-1.988C1109.468,520.318,1110.357,521.208,1110.357,522.306z"/>
				<path fill="#40DD92" d="M1110.339,545.998l-0.021,11.846c-0.001,1.076-0.876,1.948-1.952,1.946
					c-1.077-0.002-1.948-0.869-1.946-1.946l-0.021-11.846c-0.002-1.088,0.878-1.971,1.967-1.973
					c1.088-0.002,1.971,0.878,1.973,1.966V545.998z"/>
				<path fill="#40DD92" d="M1110.297,569.69l-0.035,11.846c-0.003,1.046-0.853,1.891-1.899,1.888
					c-1.042-0.003-1.885-0.848-1.888-1.888l-0.034-11.846c-0.003-1.065,0.857-1.931,1.922-1.934
					c1.065-0.003,1.931,0.858,1.934,1.923V569.69z"/>
				<path fill="#40DD92" d="M1110.2,593.382l-0.063,11.846c-0.005,0.977-0.801,1.764-1.777,1.759
					c-0.97-0.005-1.753-0.791-1.759-1.759l-0.063-11.846c-0.005-1.011,0.81-1.835,1.821-1.841c1.011-0.005,1.835,0.81,1.841,1.821
					V593.382z"/>
				<path fill="#40DD92" d="M1110.074,617.074l-0.092,11.846c-0.007,0.891-0.735,1.607-1.625,1.601
					c-0.882-0.007-1.593-0.722-1.601-1.601l-0.092-11.846c-0.007-0.942,0.75-1.711,1.692-1.719c0.942-0.007,1.711,0.75,1.719,1.692
					C1110.074,617.053,1110.074,617.068,1110.074,617.074z"/>
				<path fill="#40DD92" d="M1109.878,640.766l-0.104,11.846c-0.007,0.776-0.641,1.399-1.417,1.393
					c-0.767-0.007-1.385-0.629-1.393-1.393l-0.104-11.846c-0.007-0.833,0.663-1.515,1.496-1.522
					c0.833-0.007,1.515,0.662,1.522,1.496C1109.878,640.745,1109.878,640.759,1109.878,640.766z"/>
				<path fill="#40DD92" d="M1109.645,664.458l-0.145,11.846c-0.008,0.625-0.52,1.125-1.145,1.117
					c-0.615-0.007-1.109-0.506-1.117-1.117l-0.145-11.846c-0.009-0.704,0.555-1.282,1.26-1.291c0.704-0.009,1.282,0.555,1.291,1.26
					C1109.645,664.435,1109.645,664.449,1109.645,664.458z"/>
				<path fill="#40DD92" d="M1109.351,688.149l-0.2,11.846c-0.007,0.432-0.363,0.775-0.794,0.768
					c-0.422-0.007-0.761-0.349-0.768-0.768l-0.2-11.846c-0.009-0.542,0.423-0.989,0.965-0.998s0.989,0.423,0.998,0.965
					C1109.351,688.126,1109.351,688.14,1109.351,688.149z"/>
				<path fill="#40DD92" d="M1108.95,711.841l-0.2,11.846c-0.003,0.21-0.177,0.378-0.387,0.375c-0.206-0.003-0.371-0.17-0.375-0.375
					l-0.2-11.846c-0.005-0.321,0.25-0.586,0.572-0.591c0.321-0.005,0.585,0.25,0.591,0.571
					C1108.95,711.827,1108.95,711.836,1108.95,711.841z"/>
				<path fill="#40DD92" d="M1108.505,735.533l-0.136,6l-0.136-6c-0.001-0.075,0.058-0.137,0.133-0.139
					c0.075-0.002,0.138,0.058,0.139,0.133C1108.505,735.529,1108.505,735.531,1108.505,735.533z"/>
			</g>
		</g>
		<g>
			<g>
				<path fill="#40DD92" d="M326.504,1155.623l11.579,3.171c0.187,0.051,0.296,0.244,0.245,0.431
					c-0.051,0.187-0.244,0.297-0.431,0.245c-0.006-0.002-0.013-0.004-0.02-0.006L326.504,1155.623z"/>
				<path fill="#40DD92" d="M349.638,1162.04l11.556,3.247c0.475,0.133,0.751,0.626,0.618,1.101
					c-0.133,0.474-0.626,0.751-1.101,0.618c-0.012-0.003-0.027-0.008-0.038-0.012l-11.397-3.765
					c-0.326-0.108-0.503-0.459-0.396-0.785C348.985,1162.127,349.321,1161.951,349.638,1162.04z"/>
				<path fill="#40DD92" d="M372.736,1168.577l11.534,3.319c0.697,0.201,1.099,0.928,0.898,1.625
					c-0.2,0.697-0.928,1.099-1.625,0.899c-0.012-0.004-0.029-0.009-0.041-0.013l-11.419-3.693c-0.587-0.19-0.909-0.82-0.719-1.407
					C371.55,1168.732,372.16,1168.412,372.736,1168.577z"/>
				<path fill="#40DD92" d="M395.792,1175.253l11.518,3.371c0.853,0.25,1.342,1.144,1.093,1.997
					c-0.25,0.853-1.144,1.343-1.998,1.093c-0.009-0.003-0.026-0.008-0.036-0.011l-11.435-3.641
					c-0.773-0.246-1.201-1.072-0.954-1.845C394.222,1175.456,395.029,1175.03,395.792,1175.253z"/>
				<path fill="#40DD92" d="M418.82,1182.019l11.501,3.424c0.958,0.285,1.504,1.294,1.219,2.252
					c-0.285,0.958-1.293,1.504-2.252,1.219c-0.005-0.002-0.02-0.006-0.024-0.007l-11.452-3.587c-0.91-0.285-1.416-1.253-1.131-2.162
					C416.963,1182.256,417.917,1181.751,418.82,1182.019z"/>
				<path fill="#40DD92" d="M441.822,1188.868l11.488,3.467c1.024,0.309,1.603,1.389,1.294,2.413
					c-0.309,1.024-1.39,1.603-2.413,1.294l-0.013-0.004l-11.464-3.545c-1-0.309-1.561-1.371-1.251-2.371
					C439.771,1189.127,440.826,1188.568,441.822,1188.868z"/>
				<path fill="#40DD92" d="M464.795,1195.814l11.484,3.479c1.053,0.319,1.648,1.432,1.33,2.485
					c-0.319,1.053-1.432,1.648-2.485,1.329l-0.009-0.003l-11.468-3.533c-1.037-0.319-1.619-1.419-1.299-2.456
					C462.668,1196.079,463.758,1195.495,464.795,1195.814z"/>
				<path fill="#40DD92" d="M487.752,1202.812l11.468,3.533c1.029,0.317,1.607,1.409,1.29,2.438c-0.317,1.03-1.4,1.61-2.429,1.292
					l-11.485-3.479c-1.046-0.317-1.637-1.422-1.32-2.468s1.421-1.637,2.468-1.32L487.752,1202.812z"/>
				<path fill="#40DD92" d="M510.689,1209.878l11.456,3.572c0.977,0.305,1.522,1.344,1.217,2.321c-0.302,0.97-1.33,1.514-2.3,1.224
					l-11.497-3.44c-1.017-0.304-1.595-1.375-1.291-2.393s1.375-1.595,2.393-1.291
					C510.671,1209.873,510.685,1209.877,510.689,1209.878z"/>
				<path fill="#40DD92" d="M533.596,1217.038l11.451,3.591c0.884,0.277,1.376,1.219,1.099,2.103
					c-0.274,0.876-1.202,1.366-2.079,1.106l-11.503-3.42c-0.936-0.278-1.468-1.262-1.19-2.198s1.262-1.469,2.198-1.19
					C533.577,1217.032,533.591,1217.036,533.596,1217.038z"/>
				<path fill="#40DD92" d="M556.482,1224.271l11.435,3.641c0.734,0.234,1.139,1.018,0.906,1.752
					c-0.23,0.723-0.997,1.127-1.721,0.915l-11.518-3.37c-0.814-0.238-1.281-1.092-1.043-1.906s1.092-1.281,1.906-1.043
					C556.457,1224.263,556.473,1224.268,556.482,1224.271z"/>
				<path fill="#40DD92" d="M579.339,1231.596l11.419,3.694c0.532,0.172,0.824,0.743,0.651,1.274
					c-0.168,0.521-0.72,0.811-1.243,0.661l-11.534-3.318c-0.642-0.184-1.012-0.854-0.828-1.496c0.185-0.642,0.854-1.012,1.496-0.828
					C579.312,1231.587,579.328,1231.592,579.339,1231.596z"/>
				<path fill="#40DD92" d="M602.156,1239.052l11.396,3.766c0.247,0.082,0.381,0.348,0.3,0.595c-0.08,0.24-0.334,0.373-0.575,0.306
					l-11.556-3.245c-0.396-0.111-0.626-0.522-0.516-0.917c0.111-0.396,0.522-0.626,0.917-0.515
					C602.134,1239.045,602.146,1239.049,602.156,1239.052z"/>
				<path fill="#40DD92" d="M624.938,1246.622l4.964,1.683l-5.057-1.378c-0.085-0.023-0.136-0.111-0.112-0.196
					c0.023-0.085,0.111-0.135,0.196-0.112C624.932,1246.62,624.936,1246.621,624.938,1246.622z"/>
			</g>
		</g>
		<g>
			<g>
				<path fill="#40DD92" d="M1586.835,1246.721l11.451-3.606c0.185-0.058,0.382,0.044,0.44,0.229
					c0.059,0.185-0.044,0.382-0.229,0.44c-0.006,0.002-0.014,0.004-0.02,0.006L1586.835,1246.721z"/>
				<path fill="#40DD92" d="M1609.758,1239.585l11.473-3.53c0.471-0.145,0.971,0.12,1.116,0.591c0.145,0.472-0.12,0.971-0.591,1.116
					c-0.012,0.004-0.027,0.008-0.039,0.011l-11.62,3.008c-0.333,0.086-0.672-0.114-0.758-0.446
					C1609.256,1240.013,1609.443,1239.683,1609.758,1239.585z"/>
				<path fill="#40DD92" d="M1632.716,1232.57l11.493-3.457c0.695-0.209,1.428,0.185,1.637,0.88c0.209,0.695-0.185,1.428-0.88,1.637
					c-0.012,0.004-0.029,0.008-0.041,0.012l-11.6,3.081c-0.597,0.158-1.209-0.197-1.368-0.794
					C1631.802,1233.343,1632.141,1232.743,1632.716,1232.57z"/>
				<path fill="#40DD92" d="M1655.712,1225.694l11.508-3.405c0.853-0.252,1.749,0.235,2.001,1.088
					c0.252,0.853-0.235,1.749-1.088,2.001c-0.009,0.003-0.027,0.008-0.036,0.01l-11.584,3.133c-0.784,0.212-1.591-0.251-1.803-1.035
					C1654.501,1226.715,1654.95,1225.92,1655.712,1225.694z"/>
				<path fill="#40DD92" d="M1678.735,1218.909l11.523-3.351c0.96-0.279,1.966,0.273,2.245,1.234s-0.273,1.966-1.233,2.245
					c-0.005,0.001-0.02,0.005-0.025,0.007l-11.569,3.187c-0.919,0.253-1.87-0.287-2.123-1.206
					C1677.302,1220.114,1677.831,1219.172,1678.735,1218.909z"/>
				<path fill="#40DD92" d="M1701.781,1212.207l11.535-3.307c1.028-0.295,2.101,0.3,2.396,1.328c0.294,1.028-0.3,2.1-1.328,2.395
					l-0.012,0.004l-11.557,3.23c-1.009,0.282-2.055-0.307-2.337-1.316C1700.196,1213.536,1700.78,1212.495,1701.781,1212.207z"/>
				<path fill="#40DD92" d="M1724.854,1205.604l11.539-3.296c1.058-0.302,2.161,0.311,2.463,1.369
					c0.303,1.058-0.311,2.161-1.369,2.464l-0.009,0.003l-11.554,3.242c-1.044,0.293-2.129-0.316-2.422-1.361
					C1723.209,1206.979,1723.81,1205.897,1724.854,1205.604z"/>
				<path fill="#40DD92" d="M1747.943,1199.053l11.554-3.242c1.037-0.291,2.113,0.314,2.404,1.351s-0.305,2.111-1.342,2.402
					l-11.539,3.296c-1.051,0.3-2.146-0.308-2.446-1.359c-0.3-1.051,0.308-2.146,1.359-2.446L1747.943,1199.053z"/>
				<path fill="#40DD92" d="M1771.051,1192.57l11.565-3.202c0.985-0.273,2.006,0.305,2.278,1.291
					c0.271,0.978-0.297,1.991-1.27,2.273l-11.527,3.336c-1.02,0.295-2.085-0.292-2.38-1.312c-0.295-1.02,0.292-2.085,1.312-2.38
					C1771.033,1192.574,1771.047,1192.571,1771.051,1192.57z"/>
				<path fill="#40DD92" d="M1794.186,1186.182l11.571-3.182c0.893-0.245,1.815,0.279,2.06,1.171
					c0.243,0.884-0.271,1.797-1.147,2.053l-11.521,3.356c-0.937,0.273-1.917-0.265-2.189-1.202
					c-0.273-0.936,0.265-1.917,1.202-2.189C1794.166,1186.187,1794.18,1186.183,1794.186,1186.182z"/>
				<path fill="#40DD92" d="M1817.341,1179.867l11.585-3.133c0.742-0.201,1.506,0.238,1.707,0.98
					c0.198,0.731-0.227,1.484-0.949,1.698l-11.508,3.405c-0.812,0.24-1.666-0.223-1.906-1.036c-0.241-0.812,0.223-1.666,1.035-1.906
					C1817.315,1179.874,1817.332,1179.87,1817.341,1179.867z"/>
				<path fill="#40DD92" d="M1840.523,1173.646l11.6-3.08c0.538-0.143,1.09,0.178,1.233,0.716c0.14,0.527-0.166,1.068-0.684,1.224
					l-11.493,3.458c-0.637,0.192-1.31-0.169-1.501-0.807c-0.192-0.637,0.169-1.309,0.807-1.501
					C1840.496,1173.653,1840.512,1173.649,1840.523,1173.646z"/>
				<path fill="#40DD92" d="M1863.743,1167.557l11.621-3.006c0.249-0.064,0.503,0.085,0.567,0.334
					c0.063,0.242-0.078,0.489-0.314,0.562l-11.472,3.531c-0.39,0.12-0.803-0.099-0.923-0.489c-0.12-0.39,0.099-0.803,0.489-0.923
					C1863.72,1167.563,1863.733,1167.56,1863.743,1167.557z"/>
				<path fill="#40DD92" d="M1886.995,1161.583l4.824-1.208l-4.741,1.5c-0.08,0.025-0.166-0.019-0.19-0.099
					c-0.025-0.08,0.019-0.165,0.099-0.19C1886.989,1161.585,1886.992,1161.584,1886.995,1161.583z"/>
			</g>
		</g>
		<circle fill="#FFD000" cx="227.971" cy="811.785" r="33.758"/>
		<circle fill="#FFD000" cx="752.578" cy="281.364" r="30.862"/>
		<circle fill="#FFD000" cx="1470.796" cy="281.364" r="30.862"/>
		<circle fill="#FFD000" cx="1998.273" cy="811.785" r="33.758"/>
		<path fill="none" stroke="#40DD92" stroke-width="10" stroke-linecap="round" stroke-linejoin="round" stroke-miterlimit="10" d="
			M560.102,500.289c-16.011,45.644-65.939,69.648-111.517,53.614s-69.548-66.034-53.537-111.678s65.939-69.648,111.517-53.614
			C552.144,404.644,576.113,454.645,560.102,500.289z"/>
		
			<line fill="none" stroke="#40DD92" stroke-width="10" stroke-linecap="round" stroke-linejoin="round" stroke-miterlimit="10" x1="542.384" y1="535.208" x2="605.406" y2="597.544"/>
		<path fill="none" stroke="#40DD92" stroke-width="10" stroke-linecap="round" stroke-linejoin="round" stroke-miterlimit="10" d="
			M1809.903,492.582c0,42.777-71.295,120.409-71.295,120.409s-66.542-68.126-71.295-115.656
			c-3.917-39.175,31.924-76.048,71.295-76.048S1809.903,453.211,1809.903,492.582z"/>
		
			<circle fill="none" stroke="#40DD92" stroke-width="10" stroke-linecap="round" stroke-linejoin="round" stroke-miterlimit="10" cx="1738.139" cy="490.206" r="21.388"/>
		<g>
			
				<polygon fill="none" stroke="#40DD92" stroke-width="10" stroke-linecap="round" stroke-linejoin="round" stroke-miterlimit="10" points="
				34.85,1061.355 264.784,1063.979 127.535,1248.477 100.611,1145.298 			"/>
			
				<line fill="none" stroke="#40DD92" stroke-width="10" stroke-linecap="round" stroke-linejoin="round" stroke-miterlimit="10" x1="100.611" y1="1145.298" x2="264.784" y2="1063.979"/>
		</g>
		<path fill="none" stroke="#40DD92" stroke-width="10" stroke-linecap="round" stroke-linejoin="round" stroke-miterlimit="10" d="
			M1214.58,153.14c0,22.703-7.018,43.759-19.012,61.123v64.039l-65.75-18.22c0,0-15.78,0.792-22.973,0.792
			c-59.507,0-107.734-48.227-107.734-107.734s48.227-107.734,107.734-107.734C1166.353,45.406,1214.58,93.633,1214.58,153.14z"/>
		<circle fill="#40DD92" cx="1051.791" cy="150.368" r="16.239"/>
		<circle fill="#40DD92" cx="1105.921" cy="150.368" r="16.239"/>
		<circle fill="#40DD92" cx="1161.599" cy="150.368" r="16.239"/>
		<path fill="none" stroke="#40DD92" stroke-width="10" stroke-linecap="round" stroke-linejoin="round" stroke-miterlimit="10" d="
			M2160.645,1177.724l-92.113,82.86l-95.709-85.031c-15.447-12.675-25.492-33.287-25.492-56.56c0-38.499,27.488-69.71,61.393-69.71
			c28.534,0,52.536,22.117,59.412,52.077c6.876-29.96,30.878-52.077,59.412-52.077c33.905,0,59.408,31.262,61.393,69.71
			c1.942,37.613-19.012,49.701-28.217,58.668"/>
		<circle fill="#FFD000" cx="171.997" cy="1498.977" r="30.862"/>
		<circle fill="#FFD000" cx="2068.199" cy="1498.977" r="30.862"/>
	</g>
</g>
<g id="Creative">
</g>
<g id="Alternate_hand">
	<g>
		
			<path fill="#99FFCC" stroke="#40DD92" stroke-width="6" stroke-linecap="round" stroke-linejoin="round" stroke-miterlimit="10" d="
			M1560.74,1369.259v624.225c0,10.599-0.301,21.119-0.903,31.544v0.048c-14.829,256.962-209.131,460.342-446.669,460.342
			c-247.187,0-447.572-220.253-447.572-491.933c0-7.066,0-25.999,0-28.518v-644.821c0-18.521,7.573-35.362,19.772-47.561
			c12.199-12.199,29.041-19.772,47.561-19.772c32.067,0,59.08,22.703,65.75,52.837c0,0,0.555,386.972,1.584,389.95
			c3.945,11.518,14.908,19.836,27.726,19.836c16.128,0,29.31-13.182,29.31-29.31l-1.584-682.845
			c0-18.521,7.573-35.362,19.772-47.562c12.199-12.199,29.041-19.772,47.562-19.772c33.303,0,61.155,24.494,66.431,56.354
			c-0.444,2.012-0.127,605.26,0.903,608.239c3.945,11.518,14.908,19.836,27.726,19.836c16.128,0,29.31-13.182,29.31-29.31
			l-1.584-717.7c0-18.521,7.573-35.362,19.772-47.562c12.199-12.199,29.041-19.772,47.562-19.772
			c37.042,0,67.334,30.292,67.334,67.334l-1.584,703.441c0,16.128,13.182,29.31,29.31,29.31c12.817,0,23.781-8.318,27.726-19.836
			c1.03-2.979,1.584-6.163,1.584-9.474V988.783c2.82-12.738,9.268-24.145,18.188-33.065c12.199-12.199,29.041-19.772,47.562-19.772
			c37.042,0,67.334,30.292,67.334,67.334l-1.584,682.845c0,16.128,13.182,29.31,29.31,29.31c12.817,0,23.781-8.318,27.726-19.836
			c1.03-2.979,1.584-6.163,1.584-9.474v-331.362c2.82-12.738,9.268-24.145,18.188-33.065c12.199-12.199,29.041-19.772,47.562-19.772
			C1530.448,1301.926,1560.74,1332.218,1560.74,1369.259z"/>
		
			<line fill="none" stroke="#FFFFFF" stroke-width="12" stroke-linecap="round" stroke-linejoin="round" stroke-miterlimit="10" x1="730.553" y1="1333.612" x2="730.553" y2="1755.043"/>
		
			<line fill="none" stroke="#FFFFFF" stroke-width="12" stroke-linecap="round" stroke-linejoin="round" stroke-miterlimit="10" x1="920.673" y1="1048.433" x2="920.673" y2="1783.561"/>
		
			<line fill="none" stroke="#FFFFFF" stroke-width="12" stroke-linecap="round" stroke-linejoin="round" stroke-miterlimit="10" x1="1112.376" y1="913.766" x2="1112.376" y2="1766.133"/>
		
			<line fill="none" stroke="#FFFFFF" stroke-width="12" stroke-linecap="round" stroke-linejoin="round" stroke-miterlimit="10" x1="1300.916" y1="1038.927" x2="1302.5" y2="1780.392"/>
		
			<line fill="none" stroke="#FFFFFF" stroke-width="12" stroke-linecap="round" stroke-linejoin="round" stroke-miterlimit="10" x1="1495.783" y1="1358.961" x2="1495.783" y2="1780.392"/>
		<path fill="none" stroke="#FFFFFF" stroke-width="12" stroke-linecap="round" stroke-linejoin="round" stroke-miterlimit="10" d="
			M745.487,1810.494h-31.451c-6.6,0-12-5.4-12-12v-31.451c0-6.6,5.4-12,12-12h31.451c6.6,0,12,5.4,12,12v31.451
			C757.487,1805.094,752.087,1810.494,745.487,1810.494z"/>
		<path fill="none" stroke="#FFFFFF" stroke-width="12" stroke-linecap="round" stroke-linejoin="round" stroke-miterlimit="10" d="
			M1512.301,1839.012h-31.451c-6.6,0-12-5.4-12-12v-31.451c0-6.6,5.4-12,12-12h31.451c6.6,0,12,5.4,12,12v31.451
			C1524.301,1833.612,1518.901,1839.012,1512.301,1839.012z"/>
		<path fill="none" stroke="#FFFFFF" stroke-width="12" stroke-linecap="round" stroke-linejoin="round" stroke-miterlimit="10" d="
			M839.032,2093.93l-59.285,66.003c-4.547,5.054-11.233,7.098-17.507,5.989v-162.678c3.375,0.586,6.622,2.107,9.348,4.547
			l66.003,59.285C845.37,2074.063,846.019,2086.151,839.032,2093.93z"/>
		<path fill="none" stroke="#FFFFFF" stroke-width="12" stroke-linecap="round" stroke-linejoin="round" stroke-miterlimit="10" d="
			M1387.304,2093.93l59.285,66.003c4.547,5.054,11.233,7.098,17.507,5.989v-162.678c-3.375,0.586-6.622,2.107-9.348,4.547
			l-66.003,59.285C1380.967,2074.063,1380.317,2086.151,1387.304,2093.93z"/>
		<g>
			
				<polyline fill="none" stroke="#FFFFFF" stroke-width="12" stroke-linecap="round" stroke-linejoin="round" stroke-miterlimit="10" points="
				809.77,1888.126 906.414,1980.017 1202.683,1675.827 			"/>
			
				<polyline fill="none" stroke="#FFFFFF" stroke-width="12" stroke-linecap="round" stroke-linejoin="round" stroke-miterlimit="10" points="
				1023.654,1675.827 1319.923,1980.017 1414.982,1888.126 			"/>
			
				<line fill="none" stroke="#FFFFFF" stroke-width="12" stroke-linecap="round" stroke-linejoin="round" stroke-miterlimit="10" x1="920.673" y1="1783.561" x2="1007.485" y2="1876.244"/>
			
				<line fill="none" stroke="#FFFFFF" stroke-width="12" stroke-linecap="round" stroke-linejoin="round" stroke-miterlimit="10" x1="1301.936" y1="1780.159" x2="1209.253" y2="1866.971"/>
		</g>
		<path fill="none" stroke="#FFFFFF" stroke-width="12" stroke-linecap="round" stroke-linejoin="round" stroke-miterlimit="10" d="
			M1083.162,2334.82l-172.778-172.778c-17.183-17.183-17.183-45.3,0-62.483l172.778-172.778c17.183-17.183,45.3-17.183,62.483,0
			l172.778,172.778c17.183,17.183,17.183,45.3,0,62.483l-172.778,172.778C1128.462,2352.002,1100.345,2352.002,1083.162,2334.82z"/>
		
			<circle fill="none" stroke="#FFFFFF" stroke-width="12" stroke-linecap="round" stroke-linejoin="round" stroke-miterlimit="10" cx="1114.404" cy="2130.801" r="91.891"/>
		
			<circle fill="none" stroke="#FFFFFF" stroke-width="12" stroke-linecap="round" stroke-linejoin="round" stroke-miterlimit="10" cx="1114.752" cy="1980.809" r="22.181"/>
	</g>
</g>
</svg>
