<?xml version="1.0" encoding="utf-8"?>
<!-- Generator: Adobe Illustrator 17.0.0, SVG Export Plug-In . SVG Version: 6.00 Build 0)  -->
<!DOCTYPE svg PUBLIC "-//W3C//DTD SVG 1.1//EN" "http://www.w3.org/Graphics/SVG/1.1/DTD/svg11.dtd">
<svg version="1.1" id="Layer_1" xmlns="http://www.w3.org/2000/svg" xmlns:xlink="http://www.w3.org/1999/xlink" x="0px" y="0px"
	 width="2082.5px" height="2292.377px" viewBox="0 0 2082.5 2292.377" enable-background="new 0 0 2082.5 2292.377"
	 xml:space="preserve">
<g>
	<g id="hand-2">
		
			<path fill="#97FDCB" stroke="#42DB90" stroke-width="6" stroke-linecap="round" stroke-linejoin="round" stroke-miterlimit="10" d="
			M1455.974,1240.913v594.925c0,10.102-0.287,20.128-0.861,30.063v0.045c-14.133,244.901-193.575,405.308-419.964,405.308
			c-235.584,0-432.304-176.489-432.304-435.417c0-6.734,0-24.779,0-27.179v-614.554c0-17.651,7.218-33.702,18.844-45.329
			c11.627-11.627,27.678-18.844,45.329-18.844c30.562,0,56.306,21.638,62.663,50.357c0,0,0.528,368.808,1.51,371.647
			c3.76,10.978,14.209,18.905,26.424,18.905c15.371,0,27.934-12.563,27.934-27.934l-1.51-650.793
			c0-17.651,7.218-33.702,18.844-45.329c11.627-11.627,27.678-18.844,45.329-18.844c31.739,0,58.284,23.344,63.313,53.709
			c-0.423,1.918-0.121,576.85,0.861,579.689c3.76,10.978,14.209,18.905,26.424,18.905c15.371,0,27.934-12.563,27.934-27.934
			l-1.51-684.012c0-17.651,7.218-33.702,18.844-45.329c11.627-11.627,27.678-18.844,45.329-18.844
			c35.303,0,64.173,28.87,64.173,64.173l-1.51,670.423c0,15.371,12.563,27.934,27.934,27.934c12.216,0,22.665-7.927,26.424-18.905
			c0.982-2.839,1.51-5.874,1.51-9.03V878.295c2.688-12.14,8.833-23.012,17.334-31.513c11.627-11.627,27.678-18.844,45.329-18.844
			c35.303,0,64.173,28.87,64.173,64.173l-1.51,650.793c0,15.371,12.563,27.934,27.934,27.934c12.216,0,22.665-7.927,26.424-18.905
			c0.982-2.839,1.51-5.874,1.51-9.03v-315.808c2.688-12.14,8.833-23.012,17.334-31.513c11.627-11.627,27.678-18.844,45.329-18.844
			C1427.103,1176.739,1455.974,1205.61,1455.974,1240.913z"/>
		
			<line fill="none" stroke="#FFFFFF" stroke-width="12" stroke-linecap="round" stroke-linejoin="round" stroke-miterlimit="10" x1="664.754" y1="1206.939" x2="664.754" y2="1608.588"/>
		
			<line fill="none" stroke="#FFFFFF" stroke-width="12" stroke-linecap="round" stroke-linejoin="round" stroke-miterlimit="10" x1="845.949" y1="935.146" x2="845.949" y2="1635.768"/>
		
			<line fill="none" stroke="#FFFFFF" stroke-width="12" stroke-linecap="round" stroke-linejoin="round" stroke-miterlimit="10" x1="1028.655" y1="806.799" x2="1028.655" y2="1619.158"/>
		
			<line fill="none" stroke="#FFFFFF" stroke-width="12" stroke-linecap="round" stroke-linejoin="round" stroke-miterlimit="10" x1="1208.345" y1="926.086" x2="1209.855" y2="1632.748"/>
		
			<line fill="none" stroke="#FFFFFF" stroke-width="12" stroke-linecap="round" stroke-linejoin="round" stroke-miterlimit="10" x1="1394.065" y1="1231.098" x2="1394.065" y2="1632.748"/>
		<path fill="none" stroke="#FFFFFF" stroke-width="12" stroke-linecap="round" stroke-linejoin="round" stroke-miterlimit="10" d="
			M678.423,1661.437h-28.849c-6.6,0-12-5.4-12-12v-28.849c0-6.6,5.4-12,12-12h28.849c6.6,0,12,5.4,12,12v28.849
			C690.423,1656.037,685.023,1661.437,678.423,1661.437z"/>
		<path fill="none" stroke="#FFFFFF" stroke-width="12" stroke-linecap="round" stroke-linejoin="round" stroke-miterlimit="10" d="
			M1409.245,1688.616h-28.849c-6.6,0-12-5.4-12-12v-28.849c0-6.6,5.4-12,12-12h28.849c6.6,0,12,5.4,12,12v28.849
			C1421.245,1683.216,1415.845,1688.616,1409.245,1688.616z"/>
		<path fill="none" stroke="#FFFFFF" stroke-width="12" stroke-linecap="round" stroke-linejoin="round" stroke-miterlimit="10" d="
			M768.141,1931.569l-56.503,62.905c-4.334,4.817-10.706,6.765-16.685,5.707v-155.043c3.216,0.559,6.312,2.008,8.909,4.334
			l62.905,56.503C774.181,1912.634,774.8,1924.155,768.141,1931.569z"/>
		<path fill="none" stroke="#FFFFFF" stroke-width="12" stroke-linecap="round" stroke-linejoin="round" stroke-miterlimit="10" d="
			M1290.678,1931.569l56.503,62.905c4.334,4.817,10.706,6.765,16.685,5.707v-155.043c-3.216,0.559-6.312,2.008-8.909,4.334
			l-62.905,56.503C1284.638,1912.634,1284.019,1924.155,1290.678,1931.569z"/>
		<g>
			
				<polyline fill="none" stroke="#FFFFFF" stroke-width="12" stroke-linecap="round" stroke-linejoin="round" stroke-miterlimit="10" points="
				740.252,1735.425 832.36,1823.003 1114.722,1533.09 			"/>
			
				<polyline fill="none" stroke="#FFFFFF" stroke-width="12" stroke-linecap="round" stroke-linejoin="round" stroke-miterlimit="10" points="
				944.097,1533.09 1226.46,1823.003 1317.057,1735.425 			"/>
			
				<line fill="none" stroke="#FFFFFF" stroke-width="12" stroke-linecap="round" stroke-linejoin="round" stroke-miterlimit="10" x1="845.949" y1="1635.768" x2="928.687" y2="1724.1"/>
			
				<line fill="none" stroke="#FFFFFF" stroke-width="12" stroke-linecap="round" stroke-linejoin="round" stroke-miterlimit="10" x1="1209.317" y1="1632.525" x2="1120.985" y2="1715.263"/>
		</g>
		<path fill="none" stroke="#FFFFFF" stroke-width="12" stroke-linecap="round" stroke-linejoin="round" stroke-miterlimit="10" d="
			M999.346,2159.685L837.611,1997.95c-17.183-17.183-17.183-45.3,0-62.483l161.735-161.735c17.183-17.183,45.3-17.183,62.483,0
			l161.735,161.735c17.183,17.183,17.183,45.3,0,62.483l-161.735,161.735C1044.646,2176.867,1016.528,2176.867,999.346,2159.685z"/>
		
			<circle fill="none" stroke="#FFFFFF" stroke-width="12" stroke-linecap="round" stroke-linejoin="round" stroke-miterlimit="10" cx="1030.587" cy="1966.708" r="87.578"/>
		
			<circle fill="none" stroke="#FFFFFF" stroke-width="12" stroke-linecap="round" stroke-linejoin="round" stroke-miterlimit="10" cx="1030.92" cy="1823.758" r="21.139"/>
	</g>
	<g id="hand-1" class="blinkWithOp">
		
			<path fill="#97FDCB" stroke="#42DB90" stroke-width="6" stroke-linecap="round" stroke-linejoin="round" stroke-miterlimit="10" d="
			M1458.225,1241.905v598.065c0,10.155-0.288,20.234-0.865,30.222v0.046c-14.208,246.193-193.421,402.86-421.005,402.86
			c-236.828,0-435.761-172.833-435.761-433.128c0-6.77,0-24.909,0-27.323v-617.798c0-17.745,7.256-33.88,18.944-45.568
			s27.824-18.944,45.568-18.944c30.723,0,56.604,21.752,62.994,50.623c0,0,0.531,370.755,1.518,373.608
			c3.78,11.035,14.284,19.005,26.564,19.005c15.453,0,28.082-12.629,28.082-28.082l-1.518-654.228
			c0-17.745,7.256-33.88,18.944-45.568c11.688-11.688,27.824-18.944,45.568-18.944c31.907,0,58.592,23.467,63.647,53.993
			c-0.425,1.928-0.121,579.895,0.865,582.749c3.78,11.035,14.284,19.005,26.564,19.005c15.453,0,28.082-12.629,28.082-28.082
			l-1.518-687.623c0-17.745,7.256-33.88,18.944-45.568s27.824-18.944,45.568-18.944c35.489,0,64.512,29.023,64.512,64.512
			l-1.518,673.961c0,15.453,12.629,28.082,28.082,28.082c12.28,0,22.784-7.969,26.564-19.005c0.987-2.854,1.518-5.905,1.518-9.077
			v-563.38c2.702-12.204,8.88-23.133,17.426-31.679c11.688-11.688,27.824-18.944,45.568-18.944
			c35.489,0,64.512,29.023,64.512,64.512l-1.518,654.228c0,15.453,12.629,28.082,28.082,28.082c12.28,0,22.784-7.969,26.564-19.005
			c0.987-2.854,1.518-5.905,1.518-9.077v-317.475c2.702-12.204,8.88-23.133,17.426-31.679
			c11.688-11.688,27.824-18.944,45.568-18.944C1429.202,1177.393,1458.225,1206.416,1458.225,1241.905z"/>
		<g>
			
				<line fill="none" stroke="#FFFFFF" stroke-width="12" stroke-linecap="round" stroke-linejoin="round" stroke-miterlimit="10" x1="665.694" y1="1206.234" x2="665.694" y2="1610.003"/>
			
				<line fill="none" stroke="#FFFFFF" stroke-width="12" stroke-linecap="round" stroke-linejoin="round" stroke-miterlimit="10" x1="847.846" y1="931.818" x2="847.846" y2="1666.574"/>
			
				<line fill="none" stroke="#FFFFFF" stroke-width="12" stroke-linecap="round" stroke-linejoin="round" stroke-miterlimit="10" x1="1209.113" y1="923.899" x2="1209.113" y2="1671.48"/>
			
				<line fill="none" stroke="#FFFFFF" stroke-width="12" stroke-linecap="round" stroke-linejoin="round" stroke-miterlimit="10" x1="1398.855" y1="1230.521" x2="1398.855" y2="1634.29"/>
			
				<path fill="none" stroke="#FFFFFF" stroke-width="12" stroke-linecap="round" stroke-linejoin="round" stroke-miterlimit="10" d="
				M679.499,1663.131h-29.128c-6.6,0-12-5.4-12-12v-29.128c0-6.6,5.4-12,12-12h29.128c6.6,0,12,5.4,12,12v29.128
				C691.499,1657.731,686.099,1663.131,679.499,1663.131z"/>
			
				<path fill="none" stroke="#FFFFFF" stroke-width="12" stroke-linecap="round" stroke-linejoin="round" stroke-miterlimit="10" d="
				M1414.178,1690.454h-29.128c-6.6,0-12-5.4-12-12v-29.128c0-6.6,5.4-12,12-12h29.128c6.6,0,12,5.4,12,12v29.128
				C1426.178,1685.054,1420.778,1690.454,1414.178,1690.454z"/>
			<g>
				
					<path fill="none" stroke="#FFFFFF" stroke-width="12" stroke-linecap="round" stroke-linejoin="round" stroke-miterlimit="10" d="
					M820.93,1910.344l-88.465-88.465c-14.19-14.19-14.19-37.41,0-51.6l88.465-88.465c14.19-14.19,37.41-14.19,51.6,0l88.465,88.465
					c14.19,14.19,14.19,37.41,0,51.6l-88.465,88.465C858.34,1924.535,835.12,1924.535,820.93,1910.344z"/>
				
					<circle fill="none" stroke="#FFFFFF" stroke-width="12" stroke-linecap="round" stroke-linejoin="round" stroke-miterlimit="10" cx="846.73" cy="1796.08" r="54.708"/>
				
					<circle fill="none" stroke="#FFFFFF" stroke-width="12" stroke-linecap="round" stroke-linejoin="round" stroke-miterlimit="10" cx="846.73" cy="1796.08" r="13.205"/>
			</g>
			<g>
				
					<path fill="none" stroke="#FFFFFF" stroke-width="12" stroke-linecap="round" stroke-linejoin="round" stroke-miterlimit="10" d="
					M1184.052,1910.344l-88.465-88.465c-14.19-14.19-14.19-37.41,0-51.6l88.465-88.465c14.19-14.19,37.41-14.19,51.6,0
					l88.465,88.465c14.19,14.19,14.19,37.41,0,51.6l-88.465,88.465C1221.462,1924.535,1198.242,1924.535,1184.052,1910.344z"/>
				
					<circle fill="none" stroke="#FFFFFF" stroke-width="12" stroke-linecap="round" stroke-linejoin="round" stroke-miterlimit="10" cx="1209.852" cy="1796.08" r="54.708"/>
				
					<circle fill="none" stroke="#FFFFFF" stroke-width="12" stroke-linecap="round" stroke-linejoin="round" stroke-miterlimit="10" cx="1209.852" cy="1796.08" r="13.205"/>
			</g>
			
				<path fill="none" stroke="#FFFFFF" stroke-width="12" stroke-linecap="round" stroke-linejoin="round" stroke-miterlimit="10" d="
				M664.176,1663.131c0,0-3.036,185.188,0,230.725c3.036,45.538,44.02,315.73,367.339,315.73V803.982"/>
			
				<path fill="none" stroke="#FFFFFF" stroke-width="12" stroke-linecap="round" stroke-linejoin="round" stroke-miterlimit="10" d="
				M1398.855,1690.454c0,0,0,136.614,0,182.152s-18.215,336.981-367.339,336.981"/>
			
				<path fill="none" stroke="#FFFFFF" stroke-width="12" stroke-linecap="round" stroke-linejoin="round" stroke-miterlimit="10" d="
				M1190.216,2116.992H875.851c-14.568,0-26.487-11.919-26.487-26.487v-30.512c0-14.568,11.919-26.487,26.487-26.487h314.365
				c14.568,0,26.487,11.919,26.487,26.487v30.512C1216.703,2105.073,1204.784,2116.992,1190.216,2116.992z"/>
			
				<path fill="none" stroke="#FFFFFF" stroke-width="12" stroke-linecap="round" stroke-linejoin="round" stroke-miterlimit="10" d="
				M706.51,2034.058c0,0,279.715-204.369,653.002,0"/>
			<path fill="#FFFFFF" d="M937.267,1586.717l-20.596-20.596c-4.667-4.667-4.667-12.304,0-16.971l20.596-20.596
				c4.667-4.667,12.304-4.667,16.971,0l20.596,20.596c4.667,4.667,4.667,12.304,0,16.971l-20.596,20.596
				C949.571,1591.383,941.934,1591.383,937.267,1586.717z"/>
			<path fill="#FFFFFF" d="M1111.829,1586.717l-20.596-20.596c-4.667-4.667-4.667-12.304,0-16.971l20.596-20.596
				c4.667-4.667,12.304-4.667,16.971,0l20.596,20.596c4.667,4.667,4.667,12.304,0,16.971l-20.596,20.596
				C1124.133,1591.383,1116.496,1591.383,1111.829,1586.717z"/>
			
				<line fill="none" stroke="#FFFFFF" stroke-width="12" stroke-linecap="round" stroke-linejoin="round" stroke-miterlimit="10" x1="849.364" y1="2072.972" x2="1216.703" y2="2072.972"/>
		</g>
		<style>
			.blinkWithOp{
				animation-name: blinkWithOpcity;
				animation-duration: 4s;
				animation-iteration-count: infinite;
			}
			@keyframes blinkWithOpcity {
				0%   { opacity: 1; }
				2%  { opacity: 0; }
				50%  { opacity: 0; }
				52% { opacity: 1; }
				100% { opacity: 1; }
			}
		</style>
	</g>
	<g id="Lines">
		<g>
			<g>
				<path fill="#42DB90" d="M1469.427,612.687l-4.094,4.391c-0.079,0.085-0.212,0.089-0.296,0.01
					c-0.085-0.079-0.089-0.211-0.01-0.296c0.003-0.003,0.007-0.007,0.01-0.01L1469.427,612.687z"/>
				<path fill="#42DB90" d="M1456.714,626.195l-8.637,9.099c-0.338,0.356-0.9,0.37-1.256,0.033c-0.356-0.338-0.37-0.9-0.033-1.256
					c0.01-0.01,0.022-0.023,0.033-0.033l9.099-8.637c0.225-0.214,0.581-0.204,0.794,0.021
					C1456.92,625.638,1456.917,625.979,1456.714,626.195z"/>
				<path fill="#42DB90" d="M1439.397,644.349l-8.706,9.03c-0.53,0.55-1.406,0.566-1.956,0.036s-0.566-1.406-0.036-1.956
					c0.01-0.011,0.025-0.025,0.036-0.036l9.03-8.706c0.459-0.443,1.19-0.429,1.633,0.03
					C1439.829,643.195,1439.825,643.904,1439.397,644.349z"/>
				<path fill="#42DB90" d="M1421.943,662.367l-8.758,8.978c-0.659,0.676-1.741,0.689-2.416,0.03
					c-0.676-0.659-0.689-1.741-0.03-2.416c0.008-0.008,0.022-0.022,0.03-0.03l8.978-8.758c0.614-0.599,1.597-0.587,2.196,0.027
					C1422.533,660.802,1422.529,661.766,1421.943,662.367z"/>
				<path fill="#42DB90" d="M1404.39,680.285l-8.795,8.94c-0.741,0.753-1.953,0.763-2.706,0.022s-0.763-1.953-0.022-2.706
					c0.005-0.005,0.017-0.017,0.022-0.022l8.94-8.795c0.713-0.701,1.86-0.692,2.561,0.021
					C1405.084,678.451,1405.081,679.582,1404.39,680.285z"/>
				<path fill="#42DB90" d="M1386.751,698.118l-8.844,8.892c-0.772,0.776-2.027,0.779-2.803,0.008s-0.779-2.027-0.008-2.803
					l0.008-0.008l8.892-8.844c0.763-0.759,1.996-0.755,2.755,0.008C1387.507,696.131,1387.506,697.358,1386.751,698.118z"/>
				<path fill="#42DB90" d="M1369.041,715.879l-8.892,8.844c-0.764,0.759-1.998,0.756-2.758-0.008c-0.757-0.761-0.756-1.99,0-2.75
					l8.844-8.892c0.773-0.777,2.029-0.78,2.806-0.008s0.78,2.029,0.008,2.806L1369.041,715.879z"/>
				<path fill="#42DB90" d="M1351.257,733.566l-8.938,8.797c-0.715,0.703-1.865,0.694-2.568-0.02c-0.696-0.708-0.693-1.842,0-2.548
					l8.797-8.938c0.742-0.754,1.955-0.764,2.709-0.022s0.764,1.955,0.022,2.709C1351.274,733.55,1351.261,733.562,1351.257,733.566z
					"/>
				<path fill="#42DB90" d="M1333.378,751.159l-8.977,8.759c-0.616,0.601-1.603,0.589-2.205-0.027c-0.592-0.607-0.588-1.574,0-2.177
					l8.759-8.977c0.661-0.677,1.745-0.69,2.422-0.03c0.677,0.661,0.69,1.745,0.03,2.422
					C1333.399,751.137,1333.386,751.151,1333.378,751.159z"/>
				<path fill="#42DB90" d="M1315.412,768.665l-9.03,8.706c-0.461,0.445-1.195,0.431-1.64-0.03c-0.434-0.45-0.43-1.163,0-1.61
					l8.706-9.03c0.532-0.552,1.411-0.568,1.963-0.036s0.568,1.411,0.036,1.963C1315.438,768.64,1315.423,768.655,1315.412,768.665z"
					/>
				<path fill="#42DB90" d="M1297.326,786.051l-9.1,8.636c-0.226,0.215-0.584,0.205-0.799-0.021c-0.208-0.219-0.205-0.561,0-0.778
					l8.636-9.1c0.34-0.358,0.905-0.373,1.263-0.033s0.373,0.905,0.033,1.263C1297.349,786.028,1297.337,786.041,1297.326,786.051z"
					/>
				<path fill="#42DB90" d="M1279.108,803.304l-4.392,4.094l4.094-4.392c0.079-0.085,0.213-0.09,0.298-0.01s0.09,0.213,0.01,0.298
					C1279.115,803.297,1279.112,803.301,1279.108,803.304z"/>
			</g>
			
				<animate  fill="remove" additive="replace" accumulate="none" restart="always" to="0" from="1" dur="1.0s" begin="0.0" attributeName="opacity" calcMode="linear" repeatCount="indefinite" attributeType="CSS">
				</animate>
		</g>
		<g>
			<g>
				<path fill="#42DB90" d="M628.453,612.687l4.391,4.095c0.085,0.079,0.089,0.211,0.01,0.296s-0.211,0.089-0.296,0.01
					c-0.003-0.003-0.007-0.007-0.01-0.01L628.453,612.687z"/>
				<path fill="#42DB90" d="M641.961,625.4l9.099,8.637c0.356,0.338,0.37,0.9,0.033,1.256c-0.338,0.356-0.9,0.37-1.256,0.033
					c-0.01-0.01-0.023-0.022-0.033-0.033l-8.637-9.099c-0.214-0.225-0.204-0.581,0.021-0.794
					C641.405,625.194,641.746,625.196,641.961,625.4z"/>
				<path fill="#42DB90" d="M660.116,642.717l9.03,8.706c0.55,0.53,0.566,1.406,0.036,1.956c-0.53,0.55-1.406,0.566-1.956,0.036
					c-0.011-0.01-0.025-0.025-0.036-0.036l-8.706-9.03c-0.443-0.459-0.429-1.19,0.03-1.633
					C658.961,642.285,659.671,642.289,660.116,642.717z"/>
				<path fill="#42DB90" d="M678.133,660.171l8.978,8.758c0.676,0.659,0.689,1.741,0.03,2.416s-1.741,0.689-2.416,0.03
					c-0.008-0.008-0.022-0.022-0.03-0.03l-8.758-8.978c-0.599-0.614-0.587-1.597,0.027-2.196
					C676.569,659.581,677.532,659.585,678.133,660.171z"/>
				<path fill="#42DB90" d="M696.052,677.724l8.94,8.795c0.753,0.741,0.763,1.953,0.022,2.706s-1.953,0.763-2.706,0.022
					c-0.005-0.005-0.017-0.017-0.022-0.022l-8.795-8.94c-0.701-0.713-0.692-1.86,0.021-2.561
					C694.217,677.03,695.348,677.033,696.052,677.724z"/>
				<path fill="#42DB90" d="M713.884,695.363l8.892,8.844c0.776,0.772,0.779,2.027,0.008,2.803
					c-0.772,0.776-2.027,0.779-2.803,0.008l-0.008-0.008l-8.844-8.892c-0.759-0.763-0.755-1.996,0.007-2.755
					C711.897,694.607,713.125,694.608,713.884,695.363z"/>
				<path fill="#42DB90" d="M731.645,713.073l8.844,8.892c0.759,0.764,0.756,1.998-0.008,2.758c-0.761,0.757-1.99,0.756-2.75,0
					l-8.892-8.844c-0.777-0.773-0.78-2.029-0.008-2.806c0.773-0.777,2.029-0.78,2.806-0.008L731.645,713.073z"/>
				<path fill="#42DB90" d="M749.333,730.857l8.797,8.938c0.703,0.715,0.694,1.865-0.02,2.568c-0.708,0.696-1.842,0.693-2.548,0
					l-8.938-8.797c-0.754-0.742-0.764-1.955-0.022-2.709c0.742-0.754,1.955-0.764,2.709-0.022
					C749.316,730.84,749.328,730.852,749.333,730.857z"/>
				<path fill="#42DB90" d="M766.925,748.736l8.759,8.977c0.601,0.616,0.589,1.603-0.027,2.205c-0.607,0.592-1.574,0.588-2.177,0
					l-8.977-8.759c-0.677-0.661-0.69-1.745-0.03-2.422c0.661-0.677,1.745-0.69,2.422-0.03
					C766.903,748.715,766.917,748.728,766.925,748.736z"/>
				<path fill="#42DB90" d="M784.431,766.702l8.706,9.03c0.445,0.461,0.431,1.195-0.03,1.64c-0.45,0.434-1.163,0.43-1.61,0
					l-9.029-8.706c-0.552-0.532-0.568-1.411-0.036-1.963s1.411-0.568,1.963-0.036C784.406,766.676,784.421,766.691,784.431,766.702z
					"/>
				<path fill="#42DB90" d="M801.817,784.788l8.636,9.1c0.215,0.226,0.205,0.584-0.021,0.799c-0.219,0.208-0.561,0.205-0.778,0
					l-9.1-8.636c-0.358-0.34-0.373-0.905-0.033-1.263c0.34-0.358,0.905-0.373,1.263-0.033
					C801.794,784.765,801.807,784.777,801.817,784.788z"/>
				<path fill="#42DB90" d="M819.07,803.006l4.094,4.392l-4.392-4.094c-0.085-0.079-0.09-0.213-0.01-0.298
					c0.079-0.085,0.213-0.09,0.298-0.01C819.063,802.999,819.067,803.002,819.07,803.006z"/>
			</g>
			
				<animate  fill="remove" additive="replace" accumulate="none" restart="always" to="0" from="1" dur="1.1s" begin="0.0" attributeName="opacity" calcMode="linear" repeatCount="indefinite" attributeType="CSS">
				</animate>
		</g>
		<g>
			<g>
				<path fill="#42DB90" d="M1033.237,268.403l0.142,6c0.002,0.078-0.06,0.143-0.138,0.145c-0.078,0.002-0.143-0.06-0.145-0.138
					c0-0.002,0-0.005,0-0.007L1033.237,268.403z"/>
				<path fill="#42DB90" d="M1033.633,286.36l0.211,11.957c0.006,0.335-0.261,0.611-0.596,0.617s-0.611-0.261-0.617-0.596
					c0-0.006,0-0.015,0-0.021l0.211-11.957c0.004-0.219,0.184-0.393,0.403-0.389C1033.458,285.975,1033.629,286.148,1033.633,286.36
					z"/>
				<path fill="#42DB90" d="M1034.054,310.274l0.203,11.957c0.01,0.563-0.439,1.028-1.003,1.037
					c-0.563,0.01-1.028-0.439-1.037-1.003c0-0.01,0-0.025,0-0.035l0.203-11.957c0.008-0.451,0.38-0.811,0.831-0.803
					C1033.692,309.478,1034.046,309.836,1034.054,310.274z"/>
				<path fill="#42DB90" d="M1034.409,334.188l0.152,11.957c0.009,0.731-0.576,1.331-1.307,1.341
					c-0.731,0.009-1.331-0.576-1.341-1.307c0-0.009,0-0.025,0-0.034l0.152-11.957c0.008-0.647,0.54-1.165,1.187-1.157
					C1033.888,333.039,1034.4,333.555,1034.409,334.188z"/>
				<path fill="#42DB90" d="M1034.682,358.102l0.109,11.957c0.008,0.859-0.682,1.561-1.541,1.569s-1.561-0.682-1.569-1.541
					c0-0.007,0-0.022,0-0.028l0.109-11.957c0.007-0.798,0.66-1.439,1.459-1.432C1034.039,356.677,1034.675,357.317,1034.682,358.102
					z"/>
				<path fill="#42DB90" d="M1034.901,382.016l0.075,11.957c0.006,0.961-0.768,1.745-1.729,1.751s-1.745-0.768-1.75-1.729
					c0-0.004,0-0.018,0-0.022l0.075-11.957c0.006-0.919,0.756-1.66,1.675-1.654C1034.159,380.368,1034.895,381.107,1034.901,382.016
					z"/>
				<path fill="#42DB90" d="M1035.043,405.931l0.066,11.957c0.006,1.034-0.828,1.876-1.862,1.882
					c-1.034,0.006-1.876-0.828-1.882-1.861c0-0.003,0-0.017,0-0.021l0.066-11.957c0.005-0.997,0.818-1.801,1.816-1.796
					C1034.237,404.14,1035.037,404.943,1035.043,405.931z"/>
				<path fill="#42DB90" d="M1035.159,429.845l0.022,11.957c0.002,1.074-0.867,1.946-1.94,1.948
					c-1.074,0.002-1.946-0.867-1.948-1.94v-0.007l0.022-11.957c0.002-1.061,0.864-1.92,1.926-1.918
					C1034.302,427.928,1035.161,428.783,1035.159,429.845z"/>
				<path fill="#42DB90" d="M1035.203,453.759l0.022,11.957c0.002,1.098-0.886,1.989-1.984,1.991
					c-1.098,0.002-1.989-0.886-1.991-1.984v-0.007l0.022-11.957c0.002-1.086,0.884-1.964,1.969-1.962
					S1035.205,452.673,1035.203,453.759z"/>
				<path fill="#42DB90" d="M1035.227,477.673l-0.022,11.957c-0.002,1.087-0.885,1.966-1.972,1.964s-1.966-0.878-1.964-1.964
					l-0.022-11.957c-0.002-1.099,0.887-1.992,1.986-1.994c1.099-0.002,1.992,0.887,1.994,1.986V477.673z"/>
				<path fill="#42DB90" d="M1035.183,501.587l-0.022,11.957c-0.002,1.063-0.865,1.922-1.927,1.92
					c-1.063-0.002-1.922-0.858-1.92-1.92l-0.022-11.957c-0.002-1.075,0.868-1.948,1.942-1.95s1.948,0.868,1.95,1.942
					L1035.183,501.587L1035.183,501.587z"/>
				<path fill="#42DB90" d="M1035.114,525.501l-0.067,11.957c-0.006,1-0.821,1.806-1.821,1.8c-0.993-0.005-1.795-0.81-1.801-1.8
					l-0.067-11.957c-0.006-1.037,0.83-1.882,1.867-1.888s1.882,0.83,1.888,1.867
					C1035.114,525.484,1035.114,525.498,1035.114,525.501z"/>
				<path fill="#42DB90" d="M1034.981,549.415l-0.073,11.957c-0.006,0.923-0.758,1.666-1.681,1.661
					c-0.916-0.006-1.655-0.748-1.661-1.661l-0.073-11.957c-0.006-0.963,0.77-1.749,1.733-1.755s1.749,0.77,1.755,1.733
					C1034.981,549.398,1034.981,549.412,1034.981,549.415z"/>
				<path fill="#42DB90" d="M1034.798,573.33l-0.11,11.957c-0.007,0.801-0.663,1.445-1.464,1.437
					c-0.792-0.007-1.429-0.649-1.437-1.437l-0.11-11.957c-0.008-0.862,0.684-1.567,1.546-1.575s1.567,0.684,1.575,1.546
					C1034.798,573.308,1034.798,573.323,1034.798,573.33z"/>
				<path fill="#42DB90" d="M1034.567,597.244l-0.153,11.957c-0.008,0.65-0.542,1.17-1.192,1.162
					c-0.64-0.008-1.153-0.526-1.162-1.162l-0.153-11.957c-0.009-0.735,0.578-1.338,1.313-1.347s1.338,0.578,1.347,1.313
					C1034.567,597.219,1034.567,597.235,1034.567,597.244z"/>
				<path fill="#42DB90" d="M1034.261,621.158l-0.203,11.957c-0.008,0.454-0.382,0.816-0.836,0.808
					c-0.444-0.008-0.8-0.367-0.808-0.808l-0.203-11.957c-0.01-0.566,0.441-1.032,1.007-1.042c0.566-0.01,1.032,0.441,1.042,1.007
					C1034.261,621.133,1034.261,621.148,1034.261,621.158z"/>
				<path fill="#42DB90" d="M1033.847,645.072l-0.212,11.957c-0.004,0.22-0.185,0.395-0.405,0.391
					c-0.215-0.004-0.387-0.178-0.391-0.391l-0.212-11.957c-0.006-0.337,0.262-0.615,0.599-0.621s0.615,0.262,0.621,0.599
					C1033.847,645.057,1033.847,645.066,1033.847,645.072z"/>
				<path fill="#42DB90" d="M1033.38,668.986l-0.143,6l-0.143-6c-0.002-0.079,0.06-0.144,0.139-0.146s0.144,0.06,0.146,0.139
					C1033.38,668.982,1033.38,668.984,1033.38,668.986z"/>
			</g>
			
				<animate  fill="remove" additive="replace" accumulate="none" restart="always" to="0" from="1" dur="1.2s" begin="0.0" attributeName="opacity" calcMode="linear" repeatCount="indefinite" attributeType="CSS">
				</animate>
		</g>
		<g>
			<g>
				<path fill="#42DB90" d="M288.071,1069.639c0,0,2.897,0.785,5.794,1.571c2.894,0.794,5.789,1.587,5.789,1.587
					c0.194,0.053,0.308,0.253,0.255,0.447s-0.253,0.308-0.447,0.255c-0.006-0.002-0.014-0.004-0.02-0.006
					c0,0-2.844-0.959-5.688-1.918C290.912,1070.607,288.071,1069.639,288.071,1069.639z"/>
				<path fill="#42DB90" d="M311.213,1076.031l11.56,3.234c0.496,0.139,0.785,0.653,0.647,1.149s-0.653,0.786-1.149,0.647
					c-0.013-0.004-0.029-0.009-0.042-0.013l-11.393-3.778c-0.34-0.113-0.524-0.479-0.411-0.819
					C310.533,1076.122,310.883,1075.939,311.213,1076.031z"/>
				<path fill="#42DB90" d="M334.315,1082.557l11.536,3.31c0.723,0.207,1.141,0.961,0.933,1.684
					c-0.207,0.723-0.961,1.14-1.684,0.933c-0.013-0.004-0.032-0.01-0.044-0.014l-11.417-3.702c-0.607-0.197-0.94-0.849-0.743-1.457
					C333.089,1082.717,333.719,1082.387,334.315,1082.557z"/>
				<path fill="#42DB90" d="M357.371,1089.23l11.52,3.365c0.879,0.257,1.384,1.178,1.127,2.057s-1.178,1.384-2.057,1.127
					c-0.01-0.003-0.029-0.009-0.039-0.012l-11.433-3.647c-0.795-0.254-1.234-1.104-0.98-1.898
					C355.758,1089.438,356.587,1089.001,357.371,1089.23z"/>
				<path fill="#42DB90" d="M380.397,1096.004l11.503,3.421c0.978,0.291,1.536,1.32,1.245,2.298
					c-0.291,0.979-1.32,1.536-2.299,1.245c-0.006-0.002-0.021-0.006-0.026-0.008l-11.45-3.591c-0.927-0.291-1.443-1.278-1.152-2.205
					C378.505,1096.245,379.477,1095.731,380.397,1096.004z"/>
				<path fill="#42DB90" d="M403.397,1102.86l11.485,3.478c1.032,0.312,1.615,1.402,1.302,2.433
					c-0.312,1.031-1.402,1.615-2.433,1.302l-0.009-0.003l-11.468-3.534c-1.014-0.313-1.583-1.388-1.271-2.403
					C401.316,1103.119,402.383,1102.547,403.397,1102.86z"/>
				<path fill="#42DB90" d="M426.367,1109.815l11.479,3.498c1.051,0.32,1.643,1.432,1.323,2.483s-1.432,1.643-2.483,1.323
					l-0.003-0.001l-11.474-3.514c-1.046-0.32-1.635-1.428-1.314-2.474C424.216,1110.083,425.321,1109.494,426.367,1109.815z"/>
				<path fill="#42DB90" d="M449.314,1116.847l11.468,3.534c1.018,0.314,1.59,1.394,1.276,2.412s-1.385,1.592-2.403,1.278
					l-11.485-3.477c-1.036-0.314-1.621-1.407-1.307-2.443s1.407-1.621,2.443-1.307L449.314,1116.847z"/>
				<path fill="#42DB90" d="M472.241,1123.943l11.45,3.592c0.939,0.294,1.461,1.294,1.167,2.233c-0.292,0.93-1.276,1.45-2.207,1.174
					l-11.503-3.42c-0.991-0.295-1.555-1.336-1.26-2.327c0.295-0.991,1.336-1.555,2.327-1.26
					C472.22,1123.937,472.235,1123.942,472.241,1123.943z"/>
				<path fill="#42DB90" d="M495.141,1131.127l11.434,3.646c0.813,0.259,1.262,1.129,1.003,1.942
					c-0.255,0.801-1.104,1.248-1.906,1.014l-11.519-3.366c-0.897-0.262-1.411-1.201-1.149-2.098
					c0.262-0.897,1.201-1.411,2.098-1.149C495.113,1131.118,495.131,1131.124,495.141,1131.127z"/>
				<path fill="#42DB90" d="M518.008,1138.421l11.419,3.692c0.632,0.204,0.978,0.882,0.774,1.513
					c-0.2,0.619-0.856,0.963-1.476,0.785l-11.533-3.319c-0.741-0.213-1.169-0.987-0.956-1.729c0.213-0.741,0.987-1.169,1.729-0.956
					C517.977,1138.411,517.996,1138.417,518.008,1138.421z"/>
				<path fill="#42DB90" d="M540.843,1145.818l11.393,3.779c0.371,0.123,0.572,0.524,0.449,0.895
					c-0.119,0.36-0.501,0.559-0.862,0.459l-11.56-3.232c-0.529-0.148-0.837-0.696-0.69-1.225c0.148-0.529,0.696-0.837,1.225-0.69
					C540.812,1145.808,540.83,1145.813,540.843,1145.818z"/>
				<path fill="#42DB90" d="M563.629,1153.377c0,0,2.847,0.95,5.693,1.901c2.841,0.968,5.682,1.936,5.682,1.936
					c0.039,0.013,0.06,0.056,0.047,0.095c-0.013,0.038-0.053,0.058-0.091,0.048c0,0-2.897-0.785-5.794-1.569
					c-2.892-0.802-5.783-1.605-5.783-1.605c-0.224-0.062-0.356-0.295-0.294-0.519s0.295-0.356,0.519-0.294
					C563.615,1153.372,563.623,1153.374,563.629,1153.377z"/>
			</g>
			
				<animate  fill="remove" additive="replace" accumulate="none" restart="always" to="0" from="1" dur="1.3s" begin="0.0" attributeName="opacity" calcMode="linear" repeatCount="indefinite" attributeType="CSS">
				</animate>
		</g>
		<g>
			<g>
				<path fill="#42DB90" d="M1489.245,1156.462c0,0,2.861-0.909,5.721-1.818c2.863-0.901,5.726-1.801,5.726-1.801
					c0.192-0.06,0.396,0.046,0.457,0.238c0.06,0.192-0.046,0.396-0.238,0.457c-0.006,0.002-0.014,0.004-0.02,0.006
					c0,0-2.91,0.734-5.82,1.468C1492.158,1155.736,1489.245,1156.462,1489.245,1156.462z"/>
				<path fill="#42DB90" d="M1512.161,1149.3l11.469-3.543c0.492-0.152,1.015,0.124,1.167,0.616s-0.124,1.015-0.616,1.167
					c-0.013,0.004-0.03,0.009-0.043,0.012l-11.624,2.995c-0.347,0.089-0.701-0.119-0.79-0.466
					C1511.637,1149.745,1511.833,1149.402,1512.161,1149.3z"/>
				<path fill="#42DB90" d="M1535.115,1142.273l11.49-3.466c0.72-0.217,1.48,0.19,1.698,0.911c0.217,0.72-0.19,1.48-0.911,1.698
					c-0.013,0.004-0.032,0.009-0.045,0.013l-11.602,3.072c-0.618,0.163-1.251-0.205-1.415-0.822
					C1534.17,1143.073,1534.521,1142.453,1535.115,1142.273z"/>
				<path fill="#42DB90" d="M1558.11,1135.394l11.506-3.411c0.879-0.26,1.802,0.241,2.062,1.119c0.26,0.879-0.241,1.802-1.119,2.063
					c-0.011,0.003-0.029,0.008-0.039,0.011l-11.586,3.127c-0.806,0.218-1.635-0.26-1.853-1.065
					C1556.867,1136.444,1557.328,1135.627,1558.11,1135.394z"/>
				<path fill="#42DB90" d="M1581.135,1128.617l11.522-3.355c0.98-0.285,2.007,0.278,2.292,1.258
					c0.286,0.98-0.278,2.007-1.258,2.292c-0.006,0.002-0.021,0.006-0.026,0.008l-11.571,3.183c-0.937,0.258-1.906-0.293-2.163-1.23
					C1579.675,1129.846,1580.214,1128.886,1581.135,1128.617z"/>
				<path fill="#42DB90" d="M1604.183,1121.923l11.538-3.297c1.036-0.296,2.117,0.304,2.413,1.34s-0.304,2.117-1.34,2.413
					l-0.009,0.003l-11.554,3.24c-1.022,0.287-2.083-0.31-2.37-1.332S1603.161,1122.21,1604.183,1121.923z"/>
				<path fill="#42DB90" d="M1627.26,1115.328l11.544-3.276c1.057-0.3,2.156,0.314,2.456,1.37c0.3,1.057-0.314,2.156-1.37,2.456
					l-0.002,0.001l-11.548,3.262c-1.053,0.297-2.148-0.315-2.445-1.368C1625.596,1116.72,1626.206,1115.626,1627.26,1115.328z"/>
				<path fill="#42DB90" d="M1650.358,1108.812l11.554-3.24c1.026-0.288,2.091,0.311,2.379,1.337
					c0.288,1.026-0.302,2.088-1.327,2.376l-11.538,3.298c-1.04,0.297-2.125-0.305-2.422-1.345c-0.297-1.04,0.305-2.125,1.345-2.422
					L1650.358,1108.812z"/>
				<path fill="#42DB90" d="M1673.475,1102.36l11.571-3.182c0.948-0.261,1.928,0.296,2.188,1.244
					c0.258,0.939-0.287,1.909-1.219,2.181l-11.522,3.355c-0.992,0.289-2.029-0.281-2.318-1.272s0.281-2.029,1.272-2.318
					C1673.453,1102.366,1673.469,1102.362,1673.475,1102.36z"/>
				<path fill="#42DB90" d="M1696.616,1095.995l11.586-3.127c0.823-0.222,1.67,0.265,1.892,1.088
					c0.219,0.81-0.252,1.644-1.051,1.882l-11.506,3.41c-0.895,0.265-1.835-0.245-2.101-1.14c-0.265-0.895,0.245-1.836,1.14-2.101
					C1696.587,1096.003,1696.605,1095.998,1696.616,1095.995z"/>
				<path fill="#42DB90" d="M1719.789,1089.742l11.6-3.08c0.64-0.17,1.296,0.211,1.466,0.851c0.166,0.626-0.197,1.269-0.813,1.455
					l-11.493,3.458c-0.737,0.222-1.515-0.196-1.737-0.934c-0.222-0.737,0.196-1.515,0.934-1.737
					C1719.758,1089.751,1719.776,1089.745,1719.789,1089.742z"/>
				<path fill="#42DB90" d="M1742.992,1083.595l11.624-2.994c0.375-0.097,0.758,0.129,0.855,0.505
					c0.094,0.364-0.118,0.736-0.473,0.846l-11.468,3.544c-0.522,0.161-1.075-0.131-1.237-0.653
					c-0.161-0.522,0.131-1.075,0.653-1.236C1742.96,1083.603,1742.978,1083.598,1742.992,1083.595z"/>
				<path fill="#42DB90" d="M1766.24,1077.608c0,0,2.908-0.742,5.816-1.484c2.913-0.725,5.825-1.45,5.825-1.45
					c0.036-0.009,0.072,0.013,0.081,0.049c0.009,0.034-0.011,0.069-0.045,0.08c0,0-2.86,0.91-5.721,1.819
					c-2.865,0.893-5.73,1.785-5.73,1.785c-0.219,0.068-0.452-0.054-0.521-0.273c-0.068-0.219,0.054-0.453,0.273-0.521
					C1766.226,1077.612,1766.234,1077.609,1766.24,1077.608z"/>
			</g>
			
				<animate  fill="remove" additive="replace" accumulate="none" restart="always" to="0" from="1" dur="1.4s" begin="0.0" attributeName="opacity" calcMode="linear" repeatCount="indefinite" attributeType="CSS">
				</animate>
		</g>
	</g>
	<circle fill="#FFCF00" cx="194.163" cy="668.12" r="32.174"/>
	<circle fill="#FFCF00" cx="694.146" cy="236.417" r="29.414"/>
	<circle fill="#FFCF00" cx="1378.652" cy="236.417" r="29.414"/>
	<circle fill="#FFCF00" cx="1881.37" cy="741.94" r="32.174"/>
	<g>
		<path fill="none" stroke="#42DB90" stroke-width="10" stroke-linecap="round" stroke-linejoin="round" stroke-miterlimit="10" d="
			M510.705,457.717c-15.259,43.502-62.844,66.379-106.283,51.098s-66.283-62.935-51.024-106.437s62.844-66.379,106.283-51.098
			S525.964,414.215,510.705,457.717z"/>
		
			<line fill="none" stroke="#42DB90" stroke-width="10" stroke-linecap="round" stroke-linejoin="round" stroke-miterlimit="10" x1="493.818" y1="490.997" x2="553.882" y2="550.407"/>
	</g>
	<g>
		<path fill="none" stroke="#42DB90" stroke-width="10" stroke-linecap="round" stroke-linejoin="round" stroke-miterlimit="10" d="
			M1701.842,425.069c0,40.769-67.948,114.757-67.948,114.757s-63.418-64.928-67.948-110.227
			c-3.734-37.336,30.426-72.478,67.948-72.478S1701.842,387.546,1701.842,425.069z"/>
		
			<circle fill="none" stroke="#42DB90" stroke-width="10" stroke-linecap="round" stroke-linejoin="round" stroke-miterlimit="10" cx="1633.446" cy="422.804" r="20.384"/>
	</g>
	<g>
		
			<polygon fill="none" stroke="#42DB90" stroke-width="10" stroke-linecap="round" stroke-linejoin="round" stroke-miterlimit="10" points="
			10.106,942.894 229.248,945.396 98.441,1121.233 72.781,1022.897 		"/>
		
			<line fill="none" stroke="#42DB90" stroke-width="10" stroke-linecap="round" stroke-linejoin="round" stroke-miterlimit="10" x1="72.781" y1="1022.897" x2="229.248" y2="945.396"/>
	</g>
	<path fill="none" stroke="#42DB90" stroke-width="10" stroke-linecap="round" stroke-linejoin="round" stroke-miterlimit="10" d="
		M1134.462,114.211c0,21.638-6.689,41.705-18.12,58.254v61.033l-62.663-17.365c0,0-15.039,0.755-21.895,0.755
		c-56.714,0-102.677-45.963-102.677-102.677S975.07,11.534,1031.784,11.534C1088.499,11.534,1134.462,57.497,1134.462,114.211z"/>
	<circle fill="#42DB90" cx="979.314" cy="111.569" r="15.477"/>
	<circle fill="#42DB90" cx="1030.904" cy="111.569" r="15.477"/>
	<circle fill="#42DB90" cx="1083.969" cy="111.569" r="15.477"/>
	<path fill="none" stroke="#42DB90" stroke-width="10" stroke-linecap="round" stroke-linejoin="round" stroke-miterlimit="10" d="
		M2036.121,1053.785l-87.789,78.971l-91.217-81.04c-14.722-12.08-24.295-31.724-24.295-53.906c0-36.692,26.198-66.438,58.511-66.438
		c27.194,0,50.07,21.079,56.624,49.633c6.553-28.554,29.429-49.633,56.624-49.633c32.313,0,56.619,29.795,58.511,66.438
		c1.851,35.848-18.119,47.368-26.892,55.914"/>
	<circle fill="#FFCF00" cx="140.817" cy="1359.967" r="29.414"/>
	<circle fill="#FFCF00" cx="1953.528" cy="1359.967" r="29.414"/>
	<path fill="none" stroke="#43200B" stroke-width="0.5" stroke-miterlimit="10" d="M51.748,1855.83"/>
</g>
</svg>
