<?xml version="1.0" encoding="utf-8"?>
<!-- Generator: Adobe Illustrator 17.0.0, SVG Export Plug-In . SVG Version: 6.00 Build 0)  -->
<!DOCTYPE svg PUBLIC "-//W3C//DTD SVG 1.1//EN" "http://www.w3.org/Graphics/SVG/1.1/DTD/svg11.dtd">
<svg version="1.1" id="Layer_1" xmlns="http://www.w3.org/2000/svg" xmlns:xlink="http://www.w3.org/1999/xlink" x="0px" y="0px"
	 width="2082.5px" height="2292.377px" viewBox="0 0 2082.5 2292.377" enable-background="new 0 0 2082.5 2292.377"
	 xml:space="preserve">
<rect x="575.055" fill="#FFFFFF" width="577.841" height="2292.377"/>
<g>
	<g id="hand-2">
		
			<path fill="#97FDCB" stroke="#42DB90" stroke-width="6" stroke-linecap="round" stroke-linejoin="round" stroke-miterlimit="10" d="
			M1388.337,1286.779v504.04c0,8.559-0.243,17.053-0.729,25.47v0.038c-11.974,207.488-164.003,343.391-355.808,343.391
			c-199.595,0-366.262-149.527-366.262-368.9c0-5.705,0-20.994,0-23.027v-520.671c0-14.954,6.115-28.553,15.965-38.404
			c9.851-9.851,23.45-15.965,38.404-15.965c25.893,0,47.704,18.333,53.09,42.664c0,0,0.447,312.467,1.279,314.872
			c3.186,9.301,12.038,16.017,22.387,16.017c13.023,0,23.667-10.644,23.667-23.667l-1.279-551.374
			c0-14.955,6.115-28.553,15.965-38.404c9.851-9.851,23.45-15.965,38.404-15.965c26.89,0,49.38,19.778,53.641,45.504
			c-0.358,1.625-0.103,488.727,0.729,491.132c3.186,9.301,12.038,16.017,22.387,16.017c13.023,0,23.667-10.644,23.667-23.667
			l-1.279-579.518c0-14.955,6.115-28.553,15.965-38.404c9.851-9.851,23.45-15.965,38.404-15.965c29.91,0,54.37,24.46,54.37,54.37
			l-1.279,568.005c0,13.023,10.644,23.667,23.667,23.667c10.35,0,19.203-6.716,22.387-16.017c0.832-2.405,1.279-4.977,1.279-7.651
			v-474.81c2.277-10.285,7.484-19.497,14.686-26.699c9.851-9.851,23.45-15.965,38.404-15.965c29.91,0,54.369,24.46,54.369,54.37
			l-1.279,551.374c0,13.023,10.644,23.667,23.667,23.667c10.35,0,19.203-6.716,22.387-16.017c0.832-2.405,1.279-4.977,1.279-7.651
			v-267.563c2.277-10.285,7.484-19.496,14.686-26.699c9.851-9.851,23.45-15.965,38.404-15.965
			C1363.877,1232.409,1388.337,1256.869,1388.337,1286.779z"/>
		
			<line fill="none" stroke="#FFFFFF" stroke-width="12" stroke-linecap="round" stroke-linejoin="round" stroke-miterlimit="10" x1="717.989" y1="1257.995" x2="717.989" y2="1598.286"/>
		
			<line fill="none" stroke="#FFFFFF" stroke-width="12" stroke-linecap="round" stroke-linejoin="round" stroke-miterlimit="10" x1="871.503" y1="1027.723" x2="871.503" y2="1621.313"/>
		
			<line fill="none" stroke="#FFFFFF" stroke-width="12" stroke-linecap="round" stroke-linejoin="round" stroke-miterlimit="10" x1="1026.298" y1="918.983" x2="1026.298" y2="1607.241"/>
		
			<line fill="none" stroke="#FFFFFF" stroke-width="12" stroke-linecap="round" stroke-linejoin="round" stroke-miterlimit="10" x1="1178.537" y1="1020.047" x2="1179.817" y2="1618.755"/>
		
			<line fill="none" stroke="#FFFFFF" stroke-width="12" stroke-linecap="round" stroke-linejoin="round" stroke-miterlimit="10" x1="1335.886" y1="1278.464" x2="1335.886" y2="1618.755"/>
		<path fill="none" stroke="#FFFFFF" stroke-width="12" stroke-linecap="round" stroke-linejoin="round" stroke-miterlimit="10" d="
			M729.57,1643.061h-24.442c-5.592,0-10.167-4.575-10.167-10.167v-24.442c0-5.592,4.575-10.167,10.167-10.167h24.442
			c5.592,0,10.167,4.575,10.167,10.167v24.442C739.737,1638.486,735.161,1643.061,729.57,1643.061z"/>
		<path fill="none" stroke="#FFFFFF" stroke-width="12" stroke-linecap="round" stroke-linejoin="round" stroke-miterlimit="10" d="
			M1348.747,1666.088h-24.442c-5.592,0-10.167-4.575-10.167-10.167v-24.442c0-5.592,4.575-10.167,10.167-10.167h24.442
			c5.592,0,10.167,4.575,10.167,10.167v24.442C1358.913,1661.513,1354.338,1666.088,1348.747,1666.088z"/>
		<path fill="none" stroke="#FFFFFF" stroke-width="12" stroke-linecap="round" stroke-linejoin="round" stroke-miterlimit="10" d="
			M805.582,1871.926l-47.871,53.295c-3.672,4.081-9.07,5.732-14.136,4.835v-131.358c2.725,0.474,5.348,1.701,7.548,3.672
			l53.295,47.871C810.699,1855.884,811.224,1865.645,805.582,1871.926z"/>
		<path fill="none" stroke="#FFFFFF" stroke-width="12" stroke-linecap="round" stroke-linejoin="round" stroke-miterlimit="10" d="
			M1248.293,1871.926l47.871,53.295c3.672,4.081,9.07,5.732,14.136,4.835v-131.358c-2.725,0.474-5.348,1.701-7.548,3.672
			l-53.295,47.871C1243.175,1855.884,1242.651,1865.645,1248.293,1871.926z"/>
		<g>
			
				<polyline fill="none" stroke="#FFFFFF" stroke-width="12" stroke-linecap="round" stroke-linejoin="round" stroke-miterlimit="10" points="
				781.953,1705.746 859.99,1779.945 1099.217,1534.321 			"/>
			
				<polyline fill="none" stroke="#FFFFFF" stroke-width="12" stroke-linecap="round" stroke-linejoin="round" stroke-miterlimit="10" points="
				954.658,1534.321 1193.885,1779.945 1270.642,1705.746 			"/>
			
				<line fill="none" stroke="#FFFFFF" stroke-width="12" stroke-linecap="round" stroke-linejoin="round" stroke-miterlimit="10" x1="871.503" y1="1621.313" x2="941.602" y2="1696.151"/>
			
				<line fill="none" stroke="#FFFFFF" stroke-width="12" stroke-linecap="round" stroke-linejoin="round" stroke-miterlimit="10" x1="1179.361" y1="1618.566" x2="1104.523" y2="1688.664"/>
		</g>
		<path fill="none" stroke="#FFFFFF" stroke-width="12" stroke-linecap="round" stroke-linejoin="round" stroke-miterlimit="10" d="
			M1001.466,2065.194l-137.027-137.027c-14.558-14.558-14.558-38.38,0-52.938l137.027-137.027c14.558-14.558,38.38-14.558,52.938,0
			l137.027,137.027c14.558,14.558,14.558,38.38,0,52.938l-137.027,137.027C1039.846,2079.751,1016.024,2079.751,1001.466,2065.194z"
			/>
		
			<circle fill="none" stroke="#FFFFFF" stroke-width="12" stroke-linecap="round" stroke-linejoin="round" stroke-miterlimit="10" cx="1027.935" cy="1901.697" r="74.199"/>
		
			<circle fill="none" stroke="#FFFFFF" stroke-width="12" stroke-linecap="round" stroke-linejoin="round" stroke-miterlimit="10" cx="1028.217" cy="1780.585" r="17.91"/>
	</g>
	<g id="hand-1">
		
			<path fill="#97FDCB" stroke="#42DB90" stroke-width="6" stroke-linecap="round" stroke-linejoin="round" stroke-miterlimit="10" d="
			M1390.244,1287.62v506.701c0,8.604-0.244,17.143-0.733,25.605v0.039c-12.037,208.583-163.873,341.317-356.69,341.317
			c-200.649,0-369.191-146.43-369.191-366.96c0-5.736,0-21.104,0-23.149v-523.419c0-15.034,6.148-28.704,16.05-38.607
			c9.902-9.902,23.573-16.05,38.607-16.05c26.03,0,47.957,18.429,53.371,42.89c0,0,0.45,314.116,1.286,316.533
			c3.203,9.349,12.102,16.102,22.506,16.102c13.092,0,23.792-10.7,23.792-23.792l-1.286-554.284c0-15.034,6.148-28.704,16.05-38.607
			c9.902-9.902,23.573-16.05,38.607-16.05c27.033,0,49.641,19.882,53.924,45.745c-0.36,1.633-0.103,491.307,0.733,493.725
			c3.203,9.349,12.102,16.102,22.506,16.102c13.092,0,23.792-10.7,23.792-23.792l-1.286-582.577c0-15.034,6.148-28.704,16.05-38.607
			c9.902-9.902,23.573-16.05,38.607-16.05c30.068,0,54.657,24.589,54.657,54.657l-1.286,571.002c0,13.092,10.7,23.792,23.792,23.792
			c10.404,0,19.303-6.752,22.506-16.102c0.836-2.418,1.286-5.003,1.286-7.69V978.777c2.289-10.34,7.523-19.599,14.764-26.84
			c9.902-9.902,23.573-16.05,38.607-16.05c30.068,0,54.657,24.589,54.657,54.657l-1.286,554.284c0,13.092,10.7,23.792,23.792,23.792
			c10.404,0,19.303-6.752,22.506-16.102c0.836-2.418,1.286-5.003,1.286-7.69v-268.975c2.289-10.34,7.523-19.599,14.764-26.839
			c9.902-9.902,23.573-16.05,38.607-16.05C1365.655,1232.963,1390.244,1257.552,1390.244,1287.62z"/>
		<g>
			
				<line fill="none" stroke="#FFFFFF" stroke-width="12" stroke-linecap="round" stroke-linejoin="round" stroke-miterlimit="10" x1="718.785" y1="1257.398" x2="718.785" y2="1599.485"/>
			
				<line fill="none" stroke="#FFFFFF" stroke-width="12" stroke-linecap="round" stroke-linejoin="round" stroke-miterlimit="10" x1="873.111" y1="1024.903" x2="873.111" y2="1647.413"/>
			
				<line fill="none" stroke="#FFFFFF" stroke-width="12" stroke-linecap="round" stroke-linejoin="round" stroke-miterlimit="10" x1="1179.188" y1="1018.194" x2="1179.188" y2="1651.57"/>
			
				<line fill="none" stroke="#FFFFFF" stroke-width="12" stroke-linecap="round" stroke-linejoin="round" stroke-miterlimit="10" x1="1339.944" y1="1277.975" x2="1339.944" y2="1620.061"/>
			
				<path fill="none" stroke="#FFFFFF" stroke-width="12" stroke-linecap="round" stroke-linejoin="round" stroke-miterlimit="10" d="
				M730.481,1644.496h-24.678c-5.592,0-10.167-4.575-10.167-10.167v-24.678c0-5.592,4.575-10.167,10.167-10.167h24.678
				c5.592,0,10.167,4.575,10.167,10.167v24.678C740.648,1639.921,736.073,1644.496,730.481,1644.496z"/>
			
				<path fill="none" stroke="#FFFFFF" stroke-width="12" stroke-linecap="round" stroke-linejoin="round" stroke-miterlimit="10" d="
				M1352.926,1667.645h-24.678c-5.592,0-10.167-4.575-10.167-10.167V1632.8c0-5.592,4.575-10.167,10.167-10.167h24.678
				c5.592,0,10.167,4.575,10.167,10.167v24.678C1363.093,1663.07,1358.518,1667.645,1352.926,1667.645z"/>
			<g>
				
					<path fill="none" stroke="#FFFFFF" stroke-width="12" stroke-linecap="round" stroke-linejoin="round" stroke-miterlimit="10" d="
					M850.306,1853.944l-74.951-74.951c-12.022-12.022-12.022-31.695,0-43.717l74.951-74.951c12.022-12.022,31.695-12.022,43.717,0
					l74.95,74.951c12.022,12.022,12.022,31.695,0,43.717l-74.95,74.951C882.002,1865.967,862.329,1865.967,850.306,1853.944z"/>
				
					<circle fill="none" stroke="#FFFFFF" stroke-width="12" stroke-linecap="round" stroke-linejoin="round" stroke-miterlimit="10" cx="872.165" cy="1757.135" r="46.35"/>
				
					<circle fill="none" stroke="#FFFFFF" stroke-width="12" stroke-linecap="round" stroke-linejoin="round" stroke-miterlimit="10" cx="872.165" cy="1757.135" r="11.188"/>
			</g>
			<g>
				
					<path fill="none" stroke="#FFFFFF" stroke-width="12" stroke-linecap="round" stroke-linejoin="round" stroke-miterlimit="10" d="
					M1157.956,1853.944l-74.951-74.951c-12.022-12.022-12.022-31.695,0-43.717l74.951-74.951c12.022-12.022,31.695-12.022,43.717,0
					l74.951,74.951c12.022,12.022,12.022,31.695,0,43.717l-74.951,74.951C1189.651,1865.967,1169.978,1865.967,1157.956,1853.944z"
					/>
				
					<circle fill="none" stroke="#FFFFFF" stroke-width="12" stroke-linecap="round" stroke-linejoin="round" stroke-miterlimit="10" cx="1179.814" cy="1757.135" r="46.35"/>
				
					<circle fill="none" stroke="#FFFFFF" stroke-width="12" stroke-linecap="round" stroke-linejoin="round" stroke-miterlimit="10" cx="1179.814" cy="1757.135" r="11.188"/>
			</g>
			
				<path fill="none" stroke="#FFFFFF" stroke-width="12" stroke-linecap="round" stroke-linejoin="round" stroke-miterlimit="10" d="
				M717.499,1644.496c0,0-2.572,156.897,0,195.478c2.572,38.581,37.295,267.497,311.222,267.497V916.597"/>
			
				<path fill="none" stroke="#FFFFFF" stroke-width="12" stroke-linecap="round" stroke-linejoin="round" stroke-miterlimit="10" d="
				M1339.944,1667.645c0,0,0,115.744,0,154.325c0,38.581-15.432,285.501-311.222,285.501"/>
			
				<path fill="none" stroke="#FFFFFF" stroke-width="12" stroke-linecap="round" stroke-linejoin="round" stroke-miterlimit="10" d="
				M1163.178,2029.023H896.837c-12.342,0-22.441-10.098-22.441-22.441v-25.851c0-12.343,10.098-22.441,22.441-22.441h266.341
				c12.343,0,22.441,10.098,22.441,22.441v25.851C1185.619,2018.925,1175.521,2029.023,1163.178,2029.023z"/>
			
				<path fill="none" stroke="#FFFFFF" stroke-width="12" stroke-linecap="round" stroke-linejoin="round" stroke-miterlimit="10" d="
				M753.366,1958.758c0,0,236.984-173.148,553.245,0"/>
			<path fill="#FFFFFF" d="M948.871,1579.756l-17.45-17.45c-3.954-3.954-3.954-10.424,0-14.378l17.45-17.45
				c3.954-3.954,10.424-3.954,14.378,0l17.45,17.45c3.954,3.954,3.954,10.424,0,14.378l-17.45,17.45
				C959.295,1583.709,952.825,1583.709,948.871,1579.756z"/>
			<path fill="#FFFFFF" d="M1096.766,1579.756l-17.45-17.45c-3.954-3.954-3.954-10.424,0-14.378l17.45-17.45
				c3.954-3.954,10.424-3.954,14.378,0l17.45,17.45c3.954,3.954,3.954,10.424,0,14.378l-17.45,17.45
				C1107.19,1583.709,1100.72,1583.709,1096.766,1579.756z"/>
			
				<line fill="none" stroke="#FFFFFF" stroke-width="12" stroke-linecap="round" stroke-linejoin="round" stroke-miterlimit="10" x1="874.397" y1="1991.727" x2="1185.619" y2="1991.727"/>
		</g>
	</g>
	<g id="Lines">
		<g>
			<g>
				<path fill="#42DB90" d="M1399.735,754.525l-3.469,3.72c-0.067,0.072-0.18,0.075-0.251,0.008
					c-0.072-0.067-0.075-0.179-0.008-0.251c0.003-0.003,0.006-0.006,0.008-0.008L1399.735,754.525z"/>
				<path fill="#42DB90" d="M1388.964,765.969l-7.318,7.709c-0.286,0.302-0.763,0.313-1.064,0.028
					c-0.302-0.286-0.313-0.763-0.028-1.064c0.009-0.008,0.019-0.019,0.028-0.028l7.709-7.318c0.191-0.181,0.492-0.173,0.673,0.018
					C1389.139,765.498,1389.136,765.786,1388.964,765.969z"/>
				<path fill="#42DB90" d="M1374.292,781.35l-7.376,7.651c-0.449,0.466-1.191,0.479-1.657,0.031
					c-0.466-0.449-0.479-1.191-0.031-1.657c0.009-0.009,0.021-0.021,0.031-0.03l7.651-7.376c0.389-0.375,1.008-0.363,1.384,0.025
					C1374.658,780.372,1374.655,780.973,1374.292,781.35z"/>
				<path fill="#42DB90" d="M1359.505,796.616l-7.42,7.606c-0.558,0.573-1.475,0.584-2.047,0.025
					c-0.573-0.558-0.584-1.475-0.026-2.047c0.007-0.007,0.019-0.019,0.026-0.025l7.606-7.42c0.52-0.508,1.353-0.497,1.861,0.023
					C1360.005,795.29,1360.001,796.106,1359.505,796.616z"/>
				<path fill="#42DB90" d="M1344.633,811.796l-7.452,7.574c-0.628,0.638-1.655,0.646-2.293,0.019s-0.646-1.655-0.019-2.293
					c0.004-0.004,0.014-0.014,0.019-0.019l7.574-7.451c0.604-0.594,1.576-0.586,2.17,0.018
					C1345.221,810.242,1345.219,811.201,1344.633,811.796z"/>
				<path fill="#42DB90" d="M1329.689,826.905l-7.493,7.534c-0.654,0.657-1.717,0.66-2.375,0.007
					c-0.657-0.653-0.66-1.717-0.007-2.375l0.007-0.007l7.534-7.493c0.646-0.643,1.691-0.64,2.334,0.007
					C1330.329,825.222,1330.329,826.261,1329.689,826.905z"/>
				<path fill="#42DB90" d="M1314.685,841.953l-7.534,7.493c-0.647,0.643-1.693,0.641-2.337-0.007c-0.641-0.645-0.641-1.686,0-2.33
					l7.493-7.534c0.655-0.658,1.719-0.661,2.377-0.007c0.658,0.654,0.661,1.719,0.007,2.377L1314.685,841.953z"/>
				<path fill="#42DB90" d="M1299.617,856.938l-7.573,7.453c-0.606,0.596-1.58,0.588-2.176-0.017c-0.59-0.6-0.587-1.561,0-2.159
					l7.453-7.573c0.629-0.639,1.656-0.647,2.295-0.019c0.639,0.629,0.647,1.656,0.019,2.295
					C1299.632,856.924,1299.621,856.934,1299.617,856.938z"/>
				<path fill="#42DB90" d="M1284.47,871.843l-7.606,7.421c-0.522,0.509-1.358,0.499-1.868-0.023c-0.502-0.514-0.498-1.333,0-1.844
					l7.421-7.606c0.56-0.574,1.478-0.585,2.052-0.025c0.574,0.56,0.584,1.478,0.025,2.052
					C1284.487,871.825,1284.476,871.836,1284.47,871.843z"/>
				<path fill="#42DB90" d="M1269.248,886.675l-7.651,7.376c-0.391,0.377-1.012,0.365-1.389-0.025c-0.368-0.381-0.364-0.985,0-1.364
					l7.376-7.651c0.451-0.468,1.196-0.481,1.663-0.031c0.468,0.451,0.481,1.195,0.031,1.663
					C1269.27,886.654,1269.258,886.666,1269.248,886.675z"/>
				<path fill="#42DB90" d="M1253.925,901.405l-7.71,7.317c-0.192,0.182-0.495,0.174-0.677-0.018c-0.176-0.186-0.174-0.475,0-0.659
					l7.317-7.71c0.288-0.303,0.767-0.316,1.07-0.028s0.316,0.767,0.028,1.07C1253.945,901.385,1253.935,901.396,1253.925,901.405z"
					/>
				<path fill="#42DB90" d="M1238.49,916.022l-3.721,3.469l3.469-3.721c0.067-0.072,0.181-0.076,0.253-0.008
					c0.072,0.068,0.076,0.18,0.008,0.252C1238.496,916.016,1238.494,916.02,1238.49,916.022z"/>
			</g>
			
				<animate  fill="remove" from="1" to="0" additive="replace" attributeType="CSS" dur="1.0s" attributeName="opacity" repeatCount="indefinite" accumulate="none" begin="0.0" calcMode="linear" restart="always">
				</animate>
		</g>
		<g>
			<g>
				<path fill="#42DB90" d="M687.234,754.525l3.72,3.469c0.072,0.067,0.075,0.179,0.008,0.251c-0.067,0.072-0.179,0.075-0.251,0.008
					c-0.003-0.003-0.006-0.006-0.008-0.008L687.234,754.525z"/>
				<path fill="#42DB90" d="M698.678,765.296l7.709,7.318c0.302,0.286,0.313,0.763,0.028,1.064
					c-0.286,0.302-0.763,0.313-1.064,0.028c-0.008-0.008-0.019-0.019-0.028-0.028l-7.318-7.709
					c-0.181-0.191-0.173-0.492,0.018-0.673C698.207,765.121,698.496,765.123,698.678,765.296z"/>
				<path fill="#42DB90" d="M714.06,779.967l7.651,7.376c0.466,0.449,0.48,1.191,0.031,1.657s-1.191,0.479-1.657,0.031
					c-0.009-0.008-0.021-0.021-0.031-0.031l-7.376-7.651c-0.375-0.389-0.363-1.008,0.025-1.384
					C713.081,779.601,713.682,779.605,714.06,779.967z"/>
				<path fill="#42DB90" d="M729.324,794.755l7.606,7.42c0.573,0.558,0.584,1.475,0.025,2.047c-0.558,0.572-1.475,0.584-2.047,0.025
					c-0.007-0.007-0.019-0.019-0.025-0.025l-7.42-7.606c-0.508-0.52-0.497-1.353,0.023-1.861
					C727.999,794.255,728.815,794.259,729.324,794.755z"/>
				<path fill="#42DB90" d="M744.506,809.627l7.574,7.451c0.638,0.628,0.646,1.655,0.019,2.293
					c-0.628,0.638-1.655,0.646-2.293,0.019c-0.004-0.004-0.014-0.014-0.019-0.019l-7.451-7.574c-0.594-0.604-0.586-1.576,0.018-2.17
					C742.951,809.039,743.909,809.041,744.506,809.627z"/>
				<path fill="#42DB90" d="M759.614,824.571l7.534,7.493c0.657,0.654,0.66,1.717,0.007,2.375c-0.654,0.657-1.717,0.66-2.375,0.007
					l-0.007-0.007l-7.493-7.534c-0.643-0.646-0.64-1.691,0.006-2.334C757.93,823.93,758.97,823.931,759.614,824.571z"/>
				<path fill="#42DB90" d="M774.661,839.575l7.493,7.534c0.643,0.647,0.641,1.693-0.007,2.337c-0.645,0.641-1.686,0.641-2.33,0
					l-7.534-7.493c-0.658-0.655-0.661-1.719-0.007-2.377c0.655-0.658,1.719-0.661,2.377-0.007L774.661,839.575z"/>
				<path fill="#42DB90" d="M789.647,854.643l7.453,7.573c0.596,0.606,0.588,1.58-0.017,2.176c-0.6,0.59-1.561,0.587-2.159,0
					l-7.573-7.453c-0.639-0.629-0.647-1.656-0.019-2.295s1.656-0.647,2.295-0.019C789.633,854.628,789.643,854.638,789.647,854.643z
					"/>
				<path fill="#42DB90" d="M804.552,869.79l7.421,7.606c0.509,0.522,0.499,1.358-0.023,1.868c-0.514,0.502-1.333,0.498-1.844,0
					l-7.606-7.421c-0.574-0.56-0.585-1.478-0.025-2.052c0.56-0.574,1.478-0.585,2.052-0.025
					C804.533,869.773,804.545,869.784,804.552,869.79z"/>
				<path fill="#42DB90" d="M819.383,885.012l7.376,7.651c0.377,0.391,0.365,1.012-0.025,1.39c-0.381,0.368-0.985,0.364-1.364,0
					l-7.65-7.376c-0.468-0.451-0.481-1.195-0.031-1.663c0.451-0.468,1.195-0.481,1.663-0.031
					C819.362,884.99,819.375,885.002,819.383,885.012z"/>
				<path fill="#42DB90" d="M834.113,900.335l7.317,7.71c0.182,0.192,0.174,0.495-0.018,0.677c-0.186,0.176-0.475,0.174-0.659,0
					l-7.71-7.317c-0.303-0.288-0.316-0.767-0.028-1.07c0.288-0.303,0.767-0.316,1.07-0.028
					C834.094,900.315,834.105,900.325,834.113,900.335z"/>
				<path fill="#42DB90" d="M848.731,915.77l3.469,3.721l-3.721-3.469c-0.072-0.067-0.076-0.18-0.008-0.252
					c0.067-0.072,0.18-0.076,0.252-0.008C848.725,915.764,848.728,915.766,848.731,915.77z"/>
			</g>
			
				<animate  fill="remove" from="1" to="0" additive="replace" attributeType="CSS" dur="1.1s" attributeName="opacity" repeatCount="indefinite" accumulate="none" begin="0.0" calcMode="linear" restart="always">
				</animate>
		</g>
		<g>
			<g>
				<path fill="#42DB90" d="M1030.18,462.836l0.12,5.083c0.002,0.066-0.051,0.121-0.117,0.123c-0.066,0.002-0.121-0.051-0.123-0.117
					c0-0.002,0-0.004,0-0.006L1030.18,462.836z"/>
				<path fill="#42DB90" d="M1030.516,478.05l0.179,10.13c0.005,0.284-0.221,0.518-0.505,0.523s-0.518-0.221-0.523-0.505
					c0-0.005,0-0.013,0-0.018l0.179-10.13c0.003-0.186,0.156-0.333,0.341-0.33C1030.367,477.724,1030.512,477.87,1030.516,478.05z"
					/>
				<path fill="#42DB90" d="M1030.872,498.311l0.172,10.13c0.009,0.477-0.372,0.871-0.85,0.879c-0.477,0.008-0.871-0.372-0.879-0.85
					c0-0.008,0-0.021,0-0.03l0.172-10.13c0.007-0.382,0.322-0.687,0.704-0.68C1030.566,497.636,1030.865,497.939,1030.872,498.311z"
					/>
				<path fill="#42DB90" d="M1031.173,518.571l0.129,10.13c0.008,0.619-0.488,1.128-1.107,1.136
					c-0.619,0.008-1.128-0.488-1.136-1.107c0-0.008,0-0.021,0-0.029l0.129-10.13c0.007-0.548,0.458-0.987,1.006-0.98
					C1030.732,517.598,1031.165,518.035,1031.173,518.571z"/>
				<path fill="#42DB90" d="M1031.404,538.832l0.092,10.13c0.007,0.728-0.578,1.323-1.306,1.329s-1.323-0.578-1.329-1.306
					c0-0.006,0-0.019,0-0.024l0.092-10.13c0.006-0.676,0.559-1.219,1.236-1.213C1030.859,537.625,1031.398,538.167,1031.404,538.832
					z"/>
				<path fill="#42DB90" d="M1031.59,559.093l0.064,10.13c0.005,0.814-0.651,1.478-1.465,1.484
					c-0.814,0.005-1.478-0.651-1.483-1.465c0-0.003,0-0.015,0-0.019l0.063-10.13c0.005-0.779,0.641-1.406,1.419-1.401
					C1030.961,557.697,1031.585,558.323,1031.59,559.093z"/>
				<path fill="#42DB90" d="M1031.71,579.354l0.056,10.13c0.005,0.876-0.702,1.589-1.578,1.594
					c-0.876,0.005-1.589-0.701-1.594-1.577c0-0.003,0-0.014,0-0.018l0.056-10.13c0.004-0.845,0.693-1.526,1.539-1.522
					C1031.027,577.837,1031.705,578.517,1031.71,579.354z"/>
				<path fill="#42DB90" d="M1031.809,599.615l0.019,10.13c0.002,0.91-0.734,1.649-1.644,1.65c-0.91,0.002-1.649-0.735-1.65-1.644
					v-0.006l0.019-10.13c0.002-0.899,0.732-1.627,1.632-1.625C1031.082,597.991,1031.81,598.715,1031.809,599.615z"/>
				<path fill="#42DB90" d="M1031.846,619.876l0.019,10.13c0.002,0.93-0.751,1.685-1.681,1.687s-1.685-0.751-1.687-1.681v-0.006
					l0.019-10.13c0.002-0.92,0.749-1.664,1.668-1.662C1031.103,618.215,1031.847,618.956,1031.846,619.876z"/>
				<path fill="#42DB90" d="M1031.866,640.137l-0.019,10.13c-0.002,0.921-0.75,1.666-1.671,1.664
					c-0.921-0.002-1.666-0.744-1.664-1.664l-0.019-10.13c-0.002-0.931,0.751-1.688,1.683-1.689c0.931-0.002,1.688,0.751,1.689,1.683
					V640.137z"/>
				<path fill="#42DB90" d="M1031.829,660.397l-0.019,10.13c-0.002,0.901-0.733,1.628-1.633,1.627
					c-0.901-0.002-1.628-0.727-1.627-1.627l-0.019-10.13c-0.002-0.911,0.735-1.65,1.645-1.652s1.65,0.735,1.652,1.645
					L1031.829,660.397L1031.829,660.397z"/>
				<path fill="#42DB90" d="M1031.77,680.658l-0.057,10.13c-0.005,0.847-0.696,1.53-1.543,1.525
					c-0.841-0.004-1.521-0.686-1.526-1.525l-0.057-10.13c-0.005-0.879,0.703-1.594,1.582-1.6s1.594,0.703,1.599,1.582
					C1031.77,680.644,1031.77,680.656,1031.77,680.658z"/>
				<path fill="#42DB90" d="M1031.658,700.919l-0.062,10.13c-0.005,0.782-0.642,1.411-1.424,1.407
					c-0.776-0.005-1.402-0.634-1.407-1.407l-0.062-10.13c-0.005-0.816,0.652-1.482,1.468-1.487s1.482,0.652,1.487,1.468
					C1031.658,700.904,1031.658,700.916,1031.658,700.919z"/>
				<path fill="#42DB90" d="M1031.503,721.18l-0.093,10.13c-0.006,0.679-0.562,1.224-1.24,1.217
					c-0.671-0.006-1.211-0.55-1.217-1.217l-0.093-10.13c-0.007-0.73,0.579-1.328,1.31-1.334c0.73-0.007,1.328,0.58,1.334,1.31
					C1031.503,721.162,1031.503,721.174,1031.503,721.18z"/>
				<path fill="#42DB90" d="M1031.307,741.441l-0.13,10.13c-0.007,0.551-0.459,0.991-1.01,0.984
					c-0.542-0.007-0.977-0.446-0.984-0.984l-0.13-10.13c-0.008-0.623,0.49-1.134,1.112-1.141s1.134,0.49,1.141,1.112
					C1031.307,741.42,1031.307,741.434,1031.307,741.441z"/>
				<path fill="#42DB90" d="M1031.048,761.702l-0.172,10.13c-0.007,0.385-0.324,0.691-0.708,0.685
					c-0.376-0.007-0.678-0.311-0.685-0.685l-0.172-10.13c-0.008-0.48,0.374-0.874,0.853-0.883s0.874,0.374,0.883,0.853
					C1031.048,761.681,1031.048,761.693,1031.048,761.702z"/>
				<path fill="#42DB90" d="M1030.697,781.963l-0.18,10.13c-0.003,0.186-0.157,0.335-0.343,0.331
					c-0.182-0.003-0.328-0.151-0.331-0.331l-0.18-10.13c-0.005-0.286,0.222-0.521,0.508-0.526s0.521,0.222,0.526,0.508
					C1030.697,781.95,1030.697,781.958,1030.697,781.963z"/>
				<path fill="#42DB90" d="M1030.301,802.223l-0.121,5.083l-0.121-5.083c-0.002-0.067,0.051-0.122,0.118-0.124
					s0.122,0.051,0.124,0.118C1030.301,802.22,1030.301,802.222,1030.301,802.223z"/>
			</g>
			
				<animate  fill="remove" from="1" to="0" additive="replace" attributeType="CSS" dur="1.2s" attributeName="opacity" repeatCount="indefinite" accumulate="none" begin="0.0" calcMode="linear" restart="always">
				</animate>
		</g>
		<g>
			<g>
				<path fill="#42DB90" d="M398.85,1141.67c0,0,2.454,0.665,4.909,1.331c2.452,0.673,4.905,1.345,4.905,1.345
					c0.164,0.045,0.261,0.214,0.216,0.379c-0.045,0.164-0.214,0.261-0.379,0.216c-0.005-0.002-0.012-0.003-0.017-0.005
					c0,0-2.41-0.813-4.819-1.625C401.257,1142.49,398.85,1141.67,398.85,1141.67z"/>
				<path fill="#42DB90" d="M418.457,1147.086l9.794,2.74c0.42,0.118,0.665,0.553,0.548,0.974c-0.117,0.42-0.553,0.666-0.973,0.548
					c-0.011-0.003-0.025-0.008-0.036-0.011l-9.653-3.201c-0.288-0.096-0.444-0.406-0.348-0.694
					C417.881,1147.163,418.178,1147.008,418.457,1147.086z"/>
				<path fill="#42DB90" d="M438.03,1152.615l9.774,2.804c0.613,0.175,0.967,0.814,0.79,1.427c-0.175,0.613-0.814,0.966-1.427,0.791
					c-0.011-0.003-0.027-0.009-0.037-0.012l-9.673-3.136c-0.514-0.167-0.796-0.719-0.629-1.234
					C436.991,1152.75,437.525,1152.471,438.03,1152.615z"/>
				<path fill="#42DB90" d="M457.564,1158.268l9.76,2.851c0.745,0.218,1.173,0.998,0.955,1.743
					c-0.218,0.745-0.998,1.173-1.743,0.955c-0.008-0.003-0.025-0.008-0.033-0.01l-9.686-3.09c-0.674-0.215-1.046-0.935-0.83-1.608
					C456.197,1158.444,456.9,1158.074,457.564,1158.268z"/>
				<path fill="#42DB90" d="M477.072,1164.007l9.746,2.898c0.829,0.246,1.301,1.118,1.055,1.947
					c-0.247,0.829-1.118,1.301-1.948,1.055c-0.005-0.002-0.018-0.005-0.022-0.007l-9.701-3.042
					c-0.785-0.247-1.223-1.083-0.976-1.868C475.469,1164.212,476.293,1163.776,477.072,1164.007z"/>
				<path fill="#42DB90" d="M496.559,1169.816l9.73,2.947c0.874,0.264,1.368,1.188,1.103,2.061
					c-0.264,0.874-1.188,1.368-2.061,1.103l-0.008-0.003l-9.716-2.994c-0.859-0.265-1.341-1.176-1.077-2.036
					C494.795,1170.036,495.699,1169.551,496.559,1169.816z"/>
				<path fill="#42DB90" d="M516.019,1175.708l9.725,2.964c0.89,0.271,1.392,1.213,1.121,2.104s-1.213,1.392-2.104,1.121
					l-0.003-0.001l-9.721-2.977c-0.886-0.271-1.385-1.21-1.113-2.096C514.197,1175.936,515.133,1175.437,516.019,1175.708z"/>
				<path fill="#42DB90" d="M535.461,1181.666l9.716,2.994c0.862,0.266,1.347,1.181,1.081,2.043
					c-0.266,0.862-1.173,1.349-2.036,1.083l-9.73-2.946c-0.878-0.266-1.373-1.192-1.107-2.07c0.266-0.878,1.192-1.373,2.07-1.107
					L535.461,1181.666z"/>
				<path fill="#42DB90" d="M554.885,1187.678l9.701,3.043c0.796,0.249,1.238,1.096,0.989,1.892
					c-0.247,0.788-1.081,1.229-1.87,0.995l-9.746-2.898c-0.84-0.25-1.317-1.132-1.068-1.972c0.25-0.839,1.132-1.317,1.971-1.068
					C554.868,1187.673,554.88,1187.677,554.885,1187.678z"/>
				<path fill="#42DB90" d="M574.287,1193.765l9.687,3.089c0.689,0.219,1.069,0.957,0.85,1.645
					c-0.216,0.679-0.935,1.057-1.615,0.859l-9.759-2.852c-0.76-0.222-1.195-1.018-0.973-1.777c0.222-0.76,1.018-1.196,1.777-0.974
					C574.263,1193.757,574.279,1193.762,574.287,1193.765z"/>
				<path fill="#42DB90" d="M593.661,1199.945l9.675,3.128c0.535,0.173,0.829,0.747,0.656,1.282
					c-0.169,0.524-0.725,0.816-1.25,0.665l-9.771-2.812c-0.628-0.181-0.99-0.836-0.81-1.465c0.18-0.628,0.836-0.99,1.465-0.81
					C593.635,1199.936,593.651,1199.941,593.661,1199.945z"/>
				<path fill="#42DB90" d="M613.007,1206.211l9.653,3.202c0.314,0.104,0.485,0.444,0.38,0.758c-0.101,0.305-0.424,0.474-0.73,0.389
					l-9.794-2.738c-0.448-0.125-0.709-0.59-0.585-1.038c0.125-0.448,0.59-0.709,1.038-0.584
					C612.981,1206.203,612.996,1206.207,613.007,1206.211z"/>
				<path fill="#42DB90" d="M632.312,1212.616c0,0,2.412,0.805,4.823,1.611c2.407,0.82,4.814,1.64,4.814,1.64
					c0.033,0.011,0.051,0.047,0.04,0.08c-0.011,0.032-0.045,0.049-0.077,0.041c0,0-2.454-0.665-4.909-1.329
					c-2.45-0.679-4.9-1.36-4.9-1.36c-0.19-0.052-0.302-0.25-0.249-0.44c0.053-0.19,0.25-0.302,0.44-0.249
					C632.301,1212.611,632.307,1212.613,632.312,1212.616z"/>
			</g>
			
				<animate  fill="remove" from="1" to="0" additive="replace" attributeType="CSS" dur="1.3s" attributeName="opacity" repeatCount="indefinite" accumulate="none" begin="0.0" calcMode="linear" restart="always">
				</animate>
		</g>
		<g>
			<g>
				<path fill="#42DB90" d="M1416.525,1215.229c0,0,2.424-0.77,4.847-1.54c2.426-0.763,4.851-1.526,4.851-1.526
					c0.163-0.051,0.335,0.039,0.387,0.202c0.051,0.163-0.039,0.335-0.202,0.387c-0.005,0.002-0.012,0.003-0.017,0.005
					c0,0-2.466,0.622-4.931,1.244C1418.993,1214.614,1416.525,1215.229,1416.525,1215.229z"/>
				<path fill="#42DB90" d="M1435.941,1209.162l9.717-3.002c0.417-0.129,0.86,0.105,0.989,0.522s-0.105,0.86-0.522,0.989
					c-0.011,0.003-0.026,0.008-0.036,0.01l-9.848,2.537c-0.294,0.075-0.594-0.101-0.669-0.395
					C1435.497,1209.539,1435.663,1209.248,1435.941,1209.162z"/>
				<path fill="#42DB90" d="M1455.388,1203.208l9.735-2.937c0.61-0.184,1.254,0.161,1.439,0.772c0.184,0.61-0.161,1.254-0.772,1.439
					c-0.011,0.003-0.027,0.008-0.038,0.011l-9.83,2.603c-0.524,0.138-1.06-0.174-1.199-0.697
					C1454.587,1203.886,1454.885,1203.361,1455.388,1203.208z"/>
				<path fill="#42DB90" d="M1474.87,1197.38l9.748-2.89c0.745-0.22,1.527,0.204,1.747,0.948c0.22,0.745-0.204,1.527-0.948,1.748
					c-0.009,0.003-0.025,0.007-0.033,0.009l-9.816,2.649c-0.683,0.185-1.385-0.22-1.57-0.902
					C1473.817,1198.27,1474.208,1197.577,1474.87,1197.38z"/>
				<path fill="#42DB90" d="M1494.378,1191.638l9.762-2.842c0.83-0.242,1.7,0.235,1.942,1.066c0.242,0.83-0.235,1.7-1.066,1.942
					c-0.005,0.002-0.018,0.005-0.022,0.007l-9.803,2.697c-0.794,0.219-1.615-0.248-1.833-1.042
					C1493.141,1192.679,1493.597,1191.866,1494.378,1191.638z"/>
				<path fill="#42DB90" d="M1513.905,1185.967l9.775-2.793c0.878-0.251,1.794,0.258,2.044,1.135
					c0.251,0.878-0.257,1.794-1.135,2.044l-0.008,0.003l-9.789,2.745c-0.866,0.243-1.765-0.263-2.008-1.129
					S1513.039,1186.21,1513.905,1185.967z"/>
				<path fill="#42DB90" d="M1533.456,1180.379l9.781-2.776c0.896-0.254,1.827,0.266,2.081,1.161
					c0.254,0.896-0.266,1.827-1.161,2.081l-0.002,0.001l-9.784,2.764c-0.892,0.252-1.82-0.267-2.072-1.159
					C1532.047,1181.559,1532.563,1180.632,1533.456,1180.379z"/>
				<path fill="#42DB90" d="M1553.026,1174.859l9.789-2.745c0.869-0.244,1.771,0.264,2.016,1.133s-0.256,1.769-1.124,2.013
					l-9.775,2.794c-0.881,0.252-1.8-0.258-2.052-1.14c-0.252-0.881,0.258-1.8,1.139-2.052L1553.026,1174.859z"/>
				<path fill="#42DB90" d="M1572.611,1169.392l9.803-2.696c0.803-0.221,1.634,0.251,1.854,1.054
					c0.219,0.796-0.243,1.617-1.033,1.848l-9.762,2.843c-0.84,0.245-1.719-0.238-1.964-1.078c-0.245-0.84,0.238-1.719,1.078-1.964
					C1572.593,1169.397,1572.606,1169.394,1572.611,1169.392z"/>
				<path fill="#42DB90" d="M1592.217,1164l9.816-2.649c0.697-0.188,1.415,0.225,1.603,0.922c0.186,0.686-0.214,1.393-0.891,1.594
					l-9.748,2.889c-0.758,0.224-1.555-0.208-1.78-0.966c-0.225-0.758,0.208-1.556,0.966-1.78
					C1592.193,1164.007,1592.208,1164.002,1592.217,1164z"/>
				<path fill="#42DB90" d="M1611.85,1158.702l9.828-2.609c0.542-0.144,1.098,0.179,1.242,0.721c0.141,0.53-0.167,1.075-0.689,1.233
					l-9.737,2.93c-0.625,0.188-1.284-0.166-1.472-0.791c-0.188-0.625,0.166-1.284,0.791-1.472
					C1611.824,1158.71,1611.839,1158.705,1611.85,1158.702z"/>
				<path fill="#42DB90" d="M1631.508,1153.494l9.848-2.537c0.318-0.082,0.642,0.109,0.724,0.428c0.08,0.308-0.1,0.624-0.401,0.717
					l-9.716,3.002c-0.442,0.136-0.911-0.111-1.048-0.553c-0.136-0.442,0.111-0.911,0.553-1.047
					C1631.481,1153.501,1631.497,1153.497,1631.508,1153.494z"/>
				<path fill="#42DB90" d="M1651.205,1148.422c0,0,2.464-0.629,4.928-1.257c2.468-0.614,4.935-1.229,4.935-1.229
					c0.031-0.008,0.061,0.011,0.069,0.042c0.008,0.029-0.009,0.058-0.038,0.068c0,0-2.423,0.771-4.847,1.541
					c-2.427,0.756-4.855,1.512-4.855,1.512c-0.186,0.058-0.383-0.046-0.441-0.231c-0.058-0.186,0.046-0.384,0.231-0.441
					C1651.193,1148.425,1651.2,1148.422,1651.205,1148.422z"/>
			</g>
			
				<animate  fill="remove" from="1" to="0" additive="replace" attributeType="CSS" dur="1.4s" attributeName="opacity" repeatCount="indefinite" accumulate="none" begin="0.0" calcMode="linear" restart="always">
				</animate>
		</g>
	</g>
	<circle fill="#FFCF00" cx="319.288" cy="801.49" r="27.259"/>
	<circle fill="#FFCF00" cx="742.891" cy="435.736" r="24.921"/>
	<circle fill="#FFCF00" cx="1322.827" cy="435.736" r="24.921"/>
	<circle fill="#FFCF00" cx="1748.747" cy="864.032" r="27.259"/>
	<g>
		<path fill="none" stroke="#42DB90" stroke-width="10" stroke-linecap="round" stroke-linejoin="round" stroke-miterlimit="10" d="
			M587.473,623.229c-12.928,36.856-53.244,56.239-90.047,43.292s-56.157-53.321-43.229-90.177
			c12.928-36.856,53.244-56.239,90.047-43.292C581.047,545.999,600.401,586.373,587.473,623.229z"/>
		
			<line fill="none" stroke="#42DB90" stroke-width="10" stroke-linecap="round" stroke-linejoin="round" stroke-miterlimit="10" x1="573.166" y1="651.425" x2="624.055" y2="701.759"/>
	</g>
	<g>
		<path fill="none" stroke="#42DB90" stroke-width="10" stroke-linecap="round" stroke-linejoin="round" stroke-miterlimit="10" d="
			M1596.645,595.569c0,34.541-57.568,97.226-57.568,97.226s-53.73-55.009-57.568-93.388c-3.164-31.632,25.778-61.406,57.568-61.406
			S1596.645,563.778,1596.645,595.569z"/>
		
			<circle fill="none" stroke="#42DB90" stroke-width="10" stroke-linecap="round" stroke-linejoin="round" stroke-miterlimit="10" cx="1538.697" cy="593.65" r="17.27"/>
	</g>
	<g>
		
			<polygon fill="none" stroke="#42DB90" stroke-width="10" stroke-linecap="round" stroke-linejoin="round" stroke-miterlimit="10" points="
			163.349,1034.287 349.014,1036.407 238.19,1185.382 216.45,1102.069 		"/>
		
			<line fill="none" stroke="#42DB90" stroke-width="10" stroke-linecap="round" stroke-linejoin="round" stroke-miterlimit="10" x1="216.45" y1="1102.069" x2="349.014" y2="1036.407"/>
	</g>
	<path fill="none" stroke="#42DB90" stroke-width="10" stroke-linecap="round" stroke-linejoin="round" stroke-miterlimit="10" d="
		M1115.941,332.199c0,18.332-5.667,35.334-15.352,49.355v51.709l-53.09-14.712c0,0-12.741,0.64-18.55,0.64
		c-48.05,0-86.991-38.941-86.991-86.991s38.941-86.991,86.991-86.991C1077,245.208,1115.941,284.149,1115.941,332.199z"/>
	<circle fill="#42DB90" cx="984.495" cy="329.961" r="13.113"/>
	<circle fill="#42DB90" cx="1028.204" cy="329.961" r="13.113"/>
	<circle fill="#42DB90" cx="1073.162" cy="329.961" r="13.113"/>
	<path fill="none" stroke="#42DB90" stroke-width="10" stroke-linecap="round" stroke-linejoin="round" stroke-miterlimit="10" d="
		M1879.857,1128.238l-74.378,66.907l-77.282-68.66c-12.473-10.235-20.583-26.878-20.583-45.671
		c0-31.087,22.196-56.288,49.572-56.288c23.04,0,42.421,17.859,47.974,42.051c5.552-24.192,24.933-42.051,47.974-42.051
		c27.377,0,47.969,25.243,49.573,56.288c1.568,30.372-15.351,40.132-22.784,47.372"/>
	<circle fill="#FFCF00" cx="274.092" cy="1387.646" r="24.92"/>
	<circle fill="#FFCF00" cx="1809.882" cy="1387.646" r="24.92"/>
	<path fill="none" stroke="#43200B" stroke-width="0.5" stroke-miterlimit="10" d="M198.63,1807.757"/>
</g>
<g>
	<g>
		<path fill="#FFCF00" d="M1812.573,1678.527c-16.545,17.64-110.188,140.263-88.502,184.182
			c34.454,69.776,145.484,69.642,181.652-0.216C1927.512,1820.412,1814.712,1676.247,1812.573,1678.527z"/>
		<path fill="#FDA803" d="M1757.615,1840.538c-2.104,2.701-2.168,7.661-2.427,11.076l-15.815,68.5
			c-0.436,5.735,1.99,11.314,6.479,14.907l50.427,40.36c5.039,4.033,11.895,4.947,17.814,2.374l52.932-23.006
			c5.919-2.573,9.928-8.209,10.417-14.645l5.131-67.547c0.296-3.9-0.73-7.787-2.914-11.033c0,0-37.098-78.984-68.108-115.913
			C1777.334,1797.738,1757.615,1840.538,1757.615,1840.538z"/>
		<g>
			<path fill="#20F086" stroke="#20F086" stroke-width="1.2" stroke-miterlimit="10" d="M1715.467,1819.006
				c0,0-35.352,156.123,87.796,167.067s123.447-127.374,109.129-167.138c0,0-65.38-3.637-99.635,101.552
				C1812.757,1920.488,1792.443,1832.558,1715.467,1819.006z"/>
			<path fill="#0EFDFD" stroke="#0EFDFD" stroke-width="2.5" stroke-miterlimit="10" d="M1714.977,1818.75
				c0,0-7.5,12.76-3.047,52.905c0,0,74.699,15.503,101.478,98.658c0,0,29.598-81.746,103.758-99.652c0,0,5.73-34.686-2.28-51.155
				c0,0-88.793,0-100.068,87.383C1814.817,1906.89,1800.723,1822.326,1714.977,1818.75z"/>
		</g>
	</g>
	<path fill="none" stroke="#43200B" stroke-width="0.5" stroke-miterlimit="10" d="M1671.762,1818.098"/>
</g>
<g>
	<path fill="#FFCF00" d="M280.048,1694.077c-16.545,17.641-110.188,140.263-88.502,184.183
		c34.454,69.776,145.484,69.642,181.652-0.215C394.986,1835.963,282.185,1691.798,280.048,1694.077z"/>
	<path fill="#FDA803" d="M225.089,1856.089c-2.104,2.701-2.168,7.661-2.427,11.076l-15.815,68.5
		c-0.436,5.734,1.99,11.314,6.479,14.907l50.428,40.36c5.039,4.034,11.895,4.947,17.814,2.374l52.932-23.007
		c5.919-2.573,9.928-8.208,10.417-14.644l5.131-67.547c0.296-3.9-0.73-7.787-2.914-11.033c0,0-37.098-78.984-68.109-115.913
		C244.808,1813.289,225.089,1856.089,225.089,1856.089z"/>
	<g>
		<path fill="#20F086" stroke="#20F086" stroke-width="1.2" stroke-miterlimit="10" d="M182.941,1834.557
			c0,0-35.352,156.123,87.796,167.067s123.447-127.374,109.129-167.138c0,0-65.38-3.637-99.636,101.553
			C280.23,1936.038,259.917,1848.108,182.941,1834.557z"/>
		<path fill="#0EFDFD" stroke="#0EFDFD" stroke-width="2.5" stroke-miterlimit="10" d="M182.451,1834.3c0,0-7.5,12.76-3.046,52.905
			c0,0,74.699,15.503,101.478,98.658c0,0,29.598-81.745,103.758-99.652c0,0,5.73-34.686-2.28-51.154c0,0-88.793,0-100.068,87.383
			C282.291,1922.441,268.197,1837.875,182.451,1834.3z"/>
	</g>
</g>
</svg>
