<?xml version="1.0" encoding="utf-8"?>
<!DOCTYPE svg PUBLIC "-//W3C//DTD SVG 1.1//EN" "http://www.w3.org/Graphics/SVG/1.1/DTD/svg11.dtd">
<svg version="1.1" xmlns="http://www.w3.org/2000/svg" xmlns:xlink="http://www.w3.org/1999/xlink" x="0px" y="0px" width="2232px"
	 height="2479.755px" viewBox="0 0 2232 2479.755" enable-background="new 0 0 2232 2479.755" xml:space="preserve">
<g id="Human_touch">
	<g>
		<g id="lines-doted">
			<g>
				<line id="dotted-line-5" fill="none" stroke="#40DD92" stroke-width="4" stroke-linecap="round" stroke-linejoin="round" stroke-miterlimit="10" stroke-dasharray="12" x1="326.504" y1="1156.633" x2="629.902" y2="1249.316"/>
				<animate attributeType="CSS" attributeName="opacity" 
				 from="1" to="0" dur="1.0s" begin="0.0" repeatCount="indefinite" />
			</g>
			<g id="dotted-line-4">
				<g>
					<path fill="#40DD92" d="M683.65,677.176l4.384,4.102c0.081,0.075,0.084,0.202,0.009,0.282
						c-0.075,0.081-0.202,0.085-0.282,0.009c-0.003-0.003-0.006-0.006-0.009-0.009L683.65,677.176z"/>
					<path fill="#40DD92" d="M696.778,689.56l8.725,8.303c0.33,0.314,0.343,0.837,0.029,1.167c-0.314,0.33-0.837,0.343-1.167,0.029
						c-0.009-0.009-0.02-0.02-0.029-0.029l-8.303-8.725c-0.201-0.211-0.192-0.544,0.019-0.745
						C696.256,689.365,696.577,689.368,696.778,689.56z"/>
					<path fill="#40DD92" d="M714.204,706.189l8.666,8.361c0.519,0.5,0.533,1.326,0.033,1.845c-0.5,0.519-1.326,0.533-1.845,0.033
						c-0.01-0.01-0.023-0.023-0.033-0.033l-8.361-8.666c-0.418-0.433-0.406-1.122,0.027-1.54
						C713.114,705.781,713.784,705.785,714.204,706.189z"/>
					<path fill="#40DD92" d="M731.505,722.942l8.623,8.404c0.646,0.629,0.659,1.663,0.03,2.308c-0.629,0.646-1.663,0.659-2.308,0.03
						c-0.008-0.008-0.021-0.022-0.03-0.03l-8.404-8.623c-0.569-0.584-0.558-1.519,0.027-2.089
						C730.018,722.382,730.934,722.386,731.505,722.942z"/>
					<path fill="#40DD92" d="M748.724,739.778l8.58,8.447c0.725,0.714,0.733,1.879,0.02,2.604s-1.879,0.734-2.604,0.02
						c-0.004-0.004-0.016-0.016-0.021-0.02l-8.447-8.58c-0.677-0.688-0.668-1.794,0.019-2.472
						C746.953,739.108,748.045,739.111,748.724,739.778z"/>
					<path fill="#40DD92" d="M765.874,756.683l8.536,8.492c0.764,0.76,0.768,1.996,0.007,2.761
						c-0.761,0.764-1.997,0.768-2.761,0.007l-0.007-0.007l-8.492-8.536c-0.749-0.752-0.745-1.969,0.007-2.717
						C763.914,755.937,765.125,755.938,765.874,756.683z"/>
					<path fill="#40DD92" d="M782.945,773.666l8.515,8.512c0.776,0.775,0.776,2.032,0,2.808c-0.775,0.776-2.032,0.776-2.808,0.001
						l0-0.001l-8.512-8.515c-0.774-0.775-0.774-2.03,0-2.805C780.916,772.892,782.171,772.892,782.945,773.666z"/>
					<path fill="#40DD92" d="M799.952,790.714l8.492,8.536c0.749,0.753,0.746,1.97-0.007,2.719c-0.75,0.747-1.963,0.745-2.712,0
						l-8.536-8.492c-0.765-0.761-0.769-1.999-0.007-2.764c0.761-0.765,1.999-0.768,2.764-0.007L799.952,790.714z"/>
					<path fill="#40DD92" d="M816.903,807.818l8.447,8.58c0.679,0.69,0.67,1.799-0.02,2.478c-0.683,0.672-1.778,0.669-2.458,0
						l-8.581-8.447c-0.727-0.716-0.736-1.885-0.021-2.611c0.715-0.727,1.885-0.736,2.611-0.02
						C816.888,807.802,816.899,807.813,816.903,807.818z"/>
					<path fill="#40DD92" d="M833.784,824.992l8.403,8.624c0.571,0.586,0.559,1.525-0.027,2.097c-0.577,0.562-1.496,0.558-2.069,0
						l-8.624-8.403c-0.648-0.632-0.662-1.669-0.03-2.317c0.631-0.648,1.669-0.662,2.317-0.03
						C833.762,824.97,833.775,824.984,833.784,824.992z"/>
					<path fill="#40DD92" d="M850.579,842.252l8.36,8.667c0.42,0.435,0.407,1.128-0.028,1.547c-0.425,0.41-1.097,0.406-1.519,0
						l-8.667-8.36c-0.521-0.503-0.536-1.332-0.033-1.853c0.502-0.521,1.333-0.536,1.854-0.033
						C850.556,842.228,850.569,842.242,850.579,842.252z"/>
					<path fill="#40DD92" d="M867.267,859.619l8.301,8.726c0.202,0.212,0.193,0.547-0.019,0.749c-0.205,0.195-0.527,0.193-0.73,0
						l-8.726-8.301c-0.332-0.316-0.345-0.841-0.029-1.174c0.316-0.332,0.842-0.345,1.174-0.029
						C867.247,859.598,867.258,859.61,867.267,859.619z"/>
					<path fill="#40DD92" d="M883.849,877.091l4.101,4.385l-4.385-4.101c-0.081-0.076-0.085-0.203-0.009-0.284
						c0.076-0.081,0.203-0.085,0.284-0.01C883.843,877.084,883.846,877.088,883.849,877.091z"/>
				</g>
				<animate attributeType="CSS" attributeName="opacity" 
				 from="1" to="0" dur="1.1s" begin="0.1" repeatCount="indefinite" />
			</g>
			<g id="dotted-line-3">
				<g>
					<path fill="#40DD92" d="M1108.369,315.936l0.135,6c0.002,0.075-0.057,0.136-0.132,0.138c-0.075,0.001-0.137-0.058-0.138-0.132
						c0-0.002,0-0.004,0-0.006L1108.369,315.936z"/>
					<path fill="#40DD92" d="M1108.748,333.781l0.199,11.846c0.005,0.319-0.249,0.582-0.568,0.587
						c-0.319,0.005-0.583-0.249-0.588-0.568c0-0.005,0-0.014,0-0.019l0.199-11.846c0.003-0.209,0.176-0.376,0.386-0.373
						C1108.58,333.412,1108.745,333.578,1108.748,333.781z"/>
					<path fill="#40DD92" d="M1109.146,357.473l0.199,11.846c0.009,0.539-0.42,0.983-0.959,0.992
						c-0.539,0.009-0.983-0.42-0.992-0.959c0-0.01,0-0.023,0-0.033l0.199-11.846c0.007-0.429,0.361-0.771,0.79-0.764
						C1108.802,356.716,1109.138,357.057,1109.146,357.473z"/>
					<path fill="#40DD92" d="M1109.495,381.165l0.143,11.846c0.009,0.701-0.553,1.276-1.254,1.285
						c-0.701,0.008-1.276-0.553-1.285-1.254c0-0.008,0-0.022,0-0.03l0.144-11.846c0.007-0.622,0.518-1.12,1.14-1.112
						C1108.995,380.06,1109.487,380.556,1109.495,381.165z"/>
					<path fill="#40DD92" d="M1109.769,404.857l0.104,11.846c0.007,0.831-0.66,1.509-1.49,1.517c-0.831,0.007-1.509-0.66-1.517-1.49
						c0-0.006,0-0.02,0-0.026l0.103-11.846c0.007-0.773,0.639-1.395,1.413-1.388
						C1109.146,403.476,1109.762,404.096,1109.769,404.857z"/>
					<path fill="#40DD92" d="M1109.976,428.549l0.095,11.846c0.007,0.94-0.748,1.708-1.688,1.715
						c-0.939,0.007-1.707-0.748-1.714-1.688c0-0.006,0-0.021,0-0.027l0.094-11.846c0.007-0.887,0.732-1.601,1.62-1.594
						C1109.26,426.962,1109.968,427.674,1109.976,428.549z"/>
					<path fill="#40DD92" d="M1110.133,452.241l0.062,11.846c0.005,1.009-0.808,1.831-1.816,1.836
						c-1.008,0.005-1.83-0.808-1.835-1.816v-0.02l0.063-11.846c0.005-0.974,0.799-1.759,1.773-1.754
						C1109.346,450.492,1110.127,451.276,1110.133,452.241z"/>
					<path fill="#40DD92" d="M1110.257,475.933l0.038,11.846c0.003,1.064-0.856,1.929-1.92,1.933
						c-1.063,0.003-1.929-0.856-1.932-1.92v-0.013l0.038-11.846c0.003-1.043,0.852-1.886,1.895-1.882
						C1109.414,474.053,1110.254,474.896,1110.257,475.933z"/>
					<path fill="#40DD92" d="M1110.316,499.625l0.021,11.846c0.002,1.087-0.878,1.969-1.964,1.971
						c-1.087,0.002-1.969-0.877-1.971-1.964v-0.007l0.021-11.846c0.002-1.075,0.875-1.946,1.951-1.944
						C1109.448,497.683,1110.318,498.549,1110.316,499.625z"/>
					<path fill="#40DD92" d="M1110.357,523.317l0.002,11.846c0,1.1-0.891,1.991-1.99,1.991c-1.1,0-1.991-0.891-1.991-1.99v-0.001
						l0.002-11.846c0-1.098,0.891-1.988,1.989-1.988C1109.468,521.329,1110.357,522.218,1110.357,523.317z"/>
					<path fill="#40DD92" d="M1110.339,547.008l-0.021,11.846c-0.001,1.077-0.876,1.948-1.952,1.946
						c-1.077-0.002-1.948-0.869-1.946-1.946l-0.021-11.846c-0.002-1.088,0.878-1.972,1.967-1.974
						c1.088-0.002,1.971,0.878,1.973,1.966V547.008z"/>
					<path fill="#40DD92" d="M1110.297,570.7l-0.035,11.846c-0.003,1.046-0.853,1.892-1.899,1.888
						c-1.042-0.003-1.885-0.848-1.888-1.888l-0.034-11.846c-0.003-1.065,0.857-1.931,1.922-1.934s1.931,0.858,1.934,1.923V570.7z"/>
					<path fill="#40DD92" d="M1110.2,594.392l-0.063,11.846c-0.005,0.977-0.801,1.764-1.777,1.759
						c-0.97-0.005-1.753-0.792-1.759-1.759l-0.063-11.846c-0.005-1.012,0.81-1.835,1.821-1.841s1.835,0.81,1.841,1.821V594.392z"/>
					<path fill="#40DD92" d="M1110.074,618.084l-0.092,11.846c-0.007,0.891-0.735,1.607-1.625,1.601
						c-0.882-0.007-1.593-0.722-1.601-1.601l-0.092-11.846c-0.007-0.941,0.75-1.711,1.692-1.718c0.942-0.007,1.711,0.75,1.719,1.692
						C1110.074,618.063,1110.074,618.078,1110.074,618.084z"/>
					<path fill="#40DD92" d="M1109.878,641.776l-0.104,11.846c-0.007,0.776-0.641,1.399-1.417,1.393
						c-0.767-0.007-1.385-0.628-1.393-1.393l-0.104-11.846c-0.007-0.833,0.663-1.515,1.496-1.522
						c0.833-0.007,1.515,0.662,1.522,1.496C1109.878,641.756,1109.878,641.77,1109.878,641.776z"/>
					<path fill="#40DD92" d="M1109.645,665.467l-0.145,11.846c-0.008,0.625-0.52,1.125-1.145,1.117
						c-0.615-0.008-1.109-0.506-1.117-1.117l-0.145-11.846c-0.009-0.704,0.555-1.282,1.26-1.291c0.704-0.009,1.282,0.555,1.291,1.26
						C1109.645,665.445,1109.645,665.459,1109.645,665.467z"/>
					<path fill="#40DD92" d="M1109.351,689.159l-0.2,11.846c-0.007,0.431-0.363,0.775-0.794,0.768
						c-0.422-0.007-0.761-0.349-0.768-0.768l-0.2-11.846c-0.009-0.542,0.423-0.989,0.965-0.998c0.542-0.009,0.989,0.423,0.998,0.965
						C1109.351,689.136,1109.351,689.15,1109.351,689.159z"/>
					<path fill="#40DD92" d="M1108.95,712.851l-0.2,11.846c-0.003,0.21-0.177,0.378-0.387,0.375
						c-0.206-0.003-0.371-0.17-0.375-0.375l-0.2-11.846c-0.005-0.321,0.25-0.585,0.572-0.591c0.321-0.005,0.585,0.25,0.591,0.571
						C1108.95,712.838,1108.95,712.846,1108.95,712.851z"/>
					<path fill="#40DD92" d="M1108.505,736.543l-0.136,6l-0.136-6c-0.001-0.075,0.058-0.137,0.133-0.139
						c0.075-0.001,0.138,0.058,0.139,0.133C1108.505,736.539,1108.505,736.541,1108.505,736.543z"/>
				</g>
				<animate attributeType="CSS" attributeName="opacity" 
				 from="1" to="0" dur="1.2s" begin="0.2" repeatCount="indefinite" />
			</g>
			<g id="dotted-line-2">
				<g>
					<path fill="#40DD92" d="M1566.042,677.176l-4.102,4.384c-0.075,0.081-0.202,0.085-0.282,0.009s-0.084-0.202-0.009-0.282
						c0.003-0.003,0.006-0.006,0.009-0.009L1566.042,677.176z"/>
					<path fill="#40DD92" d="M1553.658,690.304l-8.303,8.725c-0.314,0.33-0.837,0.343-1.167,0.029
						c-0.33-0.314-0.343-0.837-0.029-1.167c0.009-0.009,0.02-0.02,0.029-0.029l8.725-8.303c0.211-0.201,0.544-0.192,0.745,0.018
						C1553.852,689.782,1553.849,690.102,1553.658,690.304z"/>
					<path fill="#40DD92" d="M1537.028,707.729l-8.361,8.666c-0.5,0.519-1.326,0.533-1.845,0.033s-0.533-1.326-0.033-1.845
						c0.01-0.01,0.023-0.023,0.033-0.033l8.666-8.361c0.433-0.418,1.123-0.405,1.54,0.028
						C1537.436,706.64,1537.432,707.309,1537.028,707.729z"/>
					<path fill="#40DD92" d="M1520.275,725.031l-8.404,8.623c-0.629,0.646-1.663,0.659-2.308,0.03
						c-0.646-0.629-0.659-1.663-0.03-2.308c0.008-0.008,0.022-0.022,0.03-0.03l8.624-8.404c0.584-0.569,1.52-0.557,2.089,0.027
						C1520.835,723.544,1520.831,724.46,1520.275,725.031z"/>
					<path fill="#40DD92" d="M1503.439,742.25l-8.447,8.58c-0.714,0.725-1.88,0.734-2.604,0.02c-0.725-0.714-0.734-1.879-0.02-2.604
						c0.004-0.005,0.016-0.016,0.02-0.02l8.58-8.447c0.688-0.677,1.794-0.669,2.472,0.019
						C1504.109,740.479,1504.106,741.571,1503.439,742.25z"/>
					<path fill="#40DD92" d="M1486.534,759.4l-8.492,8.536c-0.76,0.764-1.997,0.768-2.761,0.007
						c-0.765-0.76-0.768-1.996-0.007-2.761l0.007-0.007l8.536-8.492c0.752-0.748,1.968-0.745,2.717,0.007
						C1487.28,757.44,1487.279,758.651,1486.534,759.4z"/>
					<path fill="#40DD92" d="M1469.551,776.471l-8.512,8.515c-0.775,0.776-2.032,0.776-2.808,0.001
						c-0.775-0.775-0.775-2.032,0-2.808l0-0.001l8.516-8.512c0.774-0.774,2.03-0.774,2.805,0.001S1470.325,775.697,1469.551,776.471
						z"/>
					<path fill="#40DD92" d="M1452.503,793.478l-8.536,8.492c-0.753,0.749-1.97,0.746-2.719-0.007c-0.747-0.75-0.746-1.963,0-2.712
						l8.492-8.536c0.761-0.765,1.999-0.768,2.764-0.007c0.765,0.761,0.768,1.999,0.007,2.764L1452.503,793.478z"/>
					<path fill="#40DD92" d="M1435.399,810.429l-8.581,8.447c-0.689,0.679-1.799,0.67-2.478-0.019c-0.672-0.683-0.669-1.778,0-2.459
						l8.447-8.58c0.715-0.727,1.884-0.736,2.611-0.02c0.727,0.715,0.736,1.885,0.021,2.611
						C1435.416,810.413,1435.404,810.425,1435.399,810.429z"/>
					<path fill="#40DD92" d="M1418.225,827.31l-8.624,8.403c-0.587,0.571-1.525,0.559-2.097-0.027c-0.562-0.577-0.558-1.496,0-2.069
						l8.403-8.624c0.631-0.648,1.669-0.662,2.317-0.03c0.648,0.632,0.662,1.669,0.03,2.317
						C1418.247,827.288,1418.233,827.302,1418.225,827.31z"/>
					<path fill="#40DD92" d="M1400.966,844.105l-8.667,8.36c-0.435,0.42-1.127,0.407-1.547-0.028c-0.41-0.425-0.406-1.097,0-1.519
						l8.361-8.667c0.502-0.521,1.332-0.536,1.854-0.033c0.521,0.503,0.536,1.332,0.033,1.854
						C1400.989,844.082,1400.976,844.095,1400.966,844.105z"/>
					<path fill="#40DD92" d="M1383.598,860.792l-8.726,8.301c-0.212,0.202-0.547,0.193-0.749-0.019c-0.195-0.205-0.193-0.527,0-0.73
						l8.301-8.726c0.316-0.332,0.841-0.345,1.173-0.029c0.333,0.316,0.346,0.841,0.029,1.174
						C1383.619,860.773,1383.607,860.784,1383.598,860.792z"/>
					<path fill="#40DD92" d="M1366.126,877.375l-4.384,4.101l4.101-4.385c0.076-0.081,0.203-0.085,0.284-0.01
						s0.085,0.203,0.01,0.284C1366.133,877.369,1366.129,877.372,1366.126,877.375z"/>
				</g>
				<animate attributeType="CSS" attributeName="opacity" 
				 from="1" to="0" dur="1.3s" begin="0.3" repeatCount="indefinite" />
			</g>
			<g id="dotted-line-1">
				<g>
					<path fill="#40DD92" d="M1586.835,1247.731l11.451-3.606c0.185-0.058,0.382,0.044,0.44,0.229
						c0.059,0.185-0.044,0.382-0.229,0.44c-0.006,0.002-0.014,0.004-0.02,0.006L1586.835,1247.731z"/>
					<path fill="#40DD92" d="M1609.758,1240.595l11.473-3.53c0.471-0.145,0.971,0.12,1.116,0.591
						c0.145,0.472-0.12,0.971-0.591,1.116c-0.012,0.004-0.027,0.008-0.039,0.011l-11.62,3.008c-0.333,0.086-0.672-0.114-0.758-0.446
						C1609.256,1241.023,1609.443,1240.693,1609.758,1240.595z"/>
					<path fill="#40DD92" d="M1632.716,1233.58l11.493-3.457c0.695-0.209,1.428,0.185,1.637,0.88
						c0.209,0.695-0.185,1.428-0.88,1.637c-0.012,0.004-0.029,0.008-0.041,0.012l-11.6,3.081c-0.597,0.159-1.209-0.197-1.368-0.794
						C1631.802,1234.353,1632.141,1233.753,1632.716,1233.58z"/>
					<path fill="#40DD92" d="M1655.712,1226.704l11.508-3.405c0.853-0.252,1.749,0.235,2.001,1.088
						c0.252,0.853-0.235,1.749-1.088,2.001c-0.009,0.003-0.027,0.008-0.036,0.01l-11.584,3.133
						c-0.784,0.212-1.591-0.251-1.803-1.035C1654.501,1227.725,1654.95,1226.93,1655.712,1226.704z"/>
					<path fill="#40DD92" d="M1678.735,1219.919l11.523-3.351c0.96-0.279,1.966,0.273,2.245,1.234s-0.273,1.966-1.233,2.245
						c-0.005,0.001-0.02,0.005-0.025,0.007l-11.569,3.187c-0.919,0.253-1.87-0.287-2.123-1.206
						C1677.302,1221.124,1677.831,1220.183,1678.735,1219.919z"/>
					<path fill="#40DD92" d="M1701.781,1213.218l11.535-3.307c1.028-0.295,2.101,0.3,2.396,1.328c0.294,1.028-0.3,2.1-1.328,2.395
						l-0.012,0.004l-11.557,3.23c-1.009,0.282-2.055-0.307-2.337-1.316C1700.196,1214.547,1700.78,1213.505,1701.781,1213.218z"/>
					<path fill="#40DD92" d="M1724.854,1206.614l11.539-3.296c1.058-0.302,2.161,0.311,2.463,1.369
						c0.303,1.058-0.311,2.161-1.369,2.464l-0.009,0.003l-11.554,3.242c-1.044,0.293-2.129-0.316-2.422-1.361
						C1723.209,1207.989,1723.81,1206.907,1724.854,1206.614z"/>
					<path fill="#40DD92" d="M1747.943,1200.063l11.554-3.242c1.037-0.291,2.113,0.314,2.404,1.351
						c0.291,1.037-0.305,2.111-1.342,2.402l-11.539,3.296c-1.051,0.3-2.146-0.308-2.446-1.359c-0.3-1.051,0.308-2.146,1.359-2.446
						L1747.943,1200.063z"/>
					<path fill="#40DD92" d="M1771.051,1193.58l11.565-3.202c0.985-0.273,2.006,0.305,2.278,1.291
						c0.271,0.978-0.297,1.991-1.27,2.273l-11.527,3.336c-1.02,0.295-2.085-0.292-2.38-1.312c-0.295-1.02,0.292-2.085,1.312-2.38
						C1771.033,1193.585,1771.047,1193.581,1771.051,1193.58z"/>
					<path fill="#40DD92" d="M1794.186,1187.192l11.571-3.182c0.893-0.245,1.815,0.279,2.06,1.171
						c0.243,0.884-0.271,1.797-1.147,2.053l-11.521,3.356c-0.937,0.273-1.917-0.265-2.189-1.202
						c-0.273-0.936,0.265-1.917,1.202-2.189C1794.166,1187.197,1794.18,1187.193,1794.186,1187.192z"/>
					<path fill="#40DD92" d="M1817.341,1180.877l11.585-3.133c0.742-0.201,1.506,0.238,1.707,0.981
						c0.198,0.731-0.227,1.484-0.949,1.698l-11.508,3.405c-0.812,0.24-1.666-0.223-1.906-1.036
						c-0.241-0.812,0.223-1.666,1.035-1.906C1817.315,1180.884,1817.332,1180.88,1817.341,1180.877z"/>
					<path fill="#40DD92" d="M1840.523,1174.656l11.6-3.08c0.538-0.143,1.09,0.178,1.233,0.716c0.14,0.527-0.166,1.068-0.684,1.224
						l-11.493,3.458c-0.637,0.192-1.31-0.169-1.501-0.807c-0.192-0.637,0.169-1.309,0.807-1.501
						C1840.496,1174.663,1840.512,1174.659,1840.523,1174.656z"/>
					<path fill="#40DD92" d="M1863.743,1168.567l11.621-3.006c0.249-0.064,0.503,0.085,0.567,0.334
						c0.063,0.242-0.078,0.489-0.314,0.562l-11.472,3.531c-0.39,0.12-0.803-0.099-0.923-0.489c-0.12-0.39,0.099-0.803,0.489-0.923
						C1863.72,1168.573,1863.733,1168.57,1863.743,1168.567z"/>
					<path fill="#40DD92" d="M1886.995,1162.594l4.824-1.208l-4.741,1.5c-0.08,0.025-0.166-0.019-0.19-0.099
						c-0.025-0.08,0.019-0.165,0.099-0.19C1886.989,1162.595,1886.992,1162.594,1886.995,1162.594z"/>
				</g>
				<animate attributeType="CSS" attributeName="opacity" 
				 from="1" to="0" dur="1.4s" begin="0.4" repeatCount="indefinite" />
			</g>
		</g>
		<g>
			<g>
				
					<path fill="none" stroke="#40DD92" stroke-width="10" stroke-linecap="round" stroke-linejoin="round" stroke-miterlimit="10" d="
					M560.102,501.299c-16.011,45.644-65.939,69.648-111.517,53.614s-69.548-66.034-53.537-111.678s65.939-69.648,111.517-53.614
					C552.144,405.654,576.113,455.655,560.102,501.299z"/>
				
					<line fill="none" stroke="#40DD92" stroke-width="10" stroke-linecap="round" stroke-linejoin="round" stroke-miterlimit="10" x1="542.384" y1="536.218" x2="605.406" y2="598.554"/>
			</g>
			<g>
				
					<path fill="none" stroke="#40DD92" stroke-width="10" stroke-linecap="round" stroke-linejoin="round" stroke-miterlimit="10" d="
					M1809.903,493.592c0,42.777-71.295,120.409-71.295,120.409s-66.542-68.126-71.295-115.656
					c-3.917-39.175,31.924-76.048,71.295-76.048S1809.903,454.221,1809.903,493.592z"/>
				
					<circle fill="none" stroke="#40DD92" stroke-width="10" stroke-linecap="round" stroke-linejoin="round" stroke-miterlimit="10" cx="1738.139" cy="491.216" r="21.388"/>
			</g>
			<g>
				
					<polygon fill="none" stroke="#40DD92" stroke-width="10" stroke-linecap="round" stroke-linejoin="round" stroke-miterlimit="10" points="
					34.85,1062.365 264.784,1064.99 127.535,1249.487 100.611,1146.308 				"/>
				
					<line fill="none" stroke="#40DD92" stroke-width="10" stroke-linecap="round" stroke-linejoin="round" stroke-miterlimit="10" x1="100.611" y1="1146.308" x2="264.784" y2="1064.99"/>
			</g>
			<g>
				
					<path fill="none" stroke="#40DD92" stroke-width="10" stroke-linecap="round" stroke-linejoin="round" stroke-miterlimit="10" d="
					M1214.58,154.15c0,22.703-7.018,43.759-19.012,61.123v64.039l-65.75-18.22c0,0-15.78,0.792-22.973,0.792
					c-59.507,0-107.734-48.227-107.734-107.734s48.227-107.734,107.734-107.734C1166.353,46.416,1214.58,94.643,1214.58,154.15z"/>
				<circle fill="#40DD92" cx="1051.791" cy="151.378" r="16.239"/>
				<circle fill="#40DD92" cx="1105.921" cy="151.378" r="16.239"/>
				<circle fill="#40DD92" cx="1161.599" cy="151.378" r="16.239"/>
			</g>
			
				<path fill="none" stroke="#40DD92" stroke-width="10" stroke-linecap="round" stroke-linejoin="round" stroke-miterlimit="10" d="
				M2160.645,1178.734l-92.113,82.86l-95.709-85.031c-15.447-12.675-25.492-33.287-25.492-56.56c0-38.499,27.488-69.71,61.393-69.71
				c28.534,0,52.536,22.117,59.412,52.077c6.876-29.96,30.878-52.077,59.412-52.077c33.905,0,59.408,31.262,61.393,69.71
				c1.942,37.613-19.012,49.701-28.217,58.668"/>
		</g>
		<g id="yellow-dots">
			<circle fill="#FFD000" cx="227.971" cy="812.795" r="33.758"/>
			<circle fill="#FFD000" cx="752.578" cy="282.374" r="30.862"/>
			<circle fill="#FFD000" cx="1470.796" cy="282.374" r="30.862"/>
			<circle fill="#FFD000" cx="1998.273" cy="812.795" r="33.758"/>
			<circle fill="#FFD000" cx="171.997" cy="1499.988" r="30.862"/>
			<circle fill="#FFD000" cx="2068.199" cy="1499.988" r="30.862"/>
		</g>
		<g id="hand-2">
			
				<path fill="#99FFCC" stroke="#40DD92" stroke-width="6" stroke-linecap="round" stroke-linejoin="round" stroke-miterlimit="10" d="
				M1553.494,1331.843v624.225c0,10.599-0.301,21.119-0.903,31.544v0.048c-14.829,256.962-209.131,460.342-446.669,460.342
				c-247.187,0-447.572-220.253-447.572-491.933c0-7.066,0-25.999,0-28.518v-644.821c0-18.521,7.573-35.362,19.772-47.562
				c12.199-12.199,29.041-19.772,47.561-19.772c32.067,0,59.079,22.703,65.75,52.837c0,0,0.555,386.972,1.584,389.95
				c3.945,11.518,14.908,19.836,27.726,19.836c16.128,0,29.31-13.182,29.31-29.31l-1.584-682.845
				c0-18.521,7.573-35.362,19.772-47.562c12.199-12.199,29.041-19.772,47.561-19.772c33.303,0,61.155,24.494,66.431,56.354
				c-0.444,2.012-0.127,605.26,0.903,608.239c3.945,11.518,14.908,19.836,27.726,19.836c16.128,0,29.31-13.182,29.31-29.31
				l-1.584-717.7c0-18.521,7.573-35.362,19.772-47.561c12.199-12.199,29.041-19.772,47.562-19.772
				c37.042,0,67.334,30.292,67.334,67.334l-1.584,703.441c0,16.128,13.182,29.31,29.31,29.31c12.817,0,23.781-8.318,27.726-19.836
				c1.03-2.979,1.584-6.163,1.584-9.474V951.367c2.82-12.738,9.268-24.145,18.188-33.065c12.199-12.199,29.041-19.772,47.562-19.772
				c37.042,0,67.334,30.292,67.334,67.334l-1.584,682.845c0,16.128,13.182,29.31,29.31,29.31c12.817,0,23.781-8.318,27.726-19.836
				c1.03-2.979,1.584-6.163,1.584-9.474v-331.362c2.82-12.738,9.268-24.145,18.188-33.065
				c12.199-12.199,29.041-19.772,47.562-19.772C1523.201,1264.509,1553.494,1294.801,1553.494,1331.843z"/>
			<g>
				
					<line fill="none" stroke="#FFFFFF" stroke-width="12" stroke-linecap="round" stroke-linejoin="round" stroke-miterlimit="10" x1="726.297" y1="1294.611" x2="726.297" y2="1716.042"/>
				
					<line fill="none" stroke="#FFFFFF" stroke-width="12" stroke-linecap="round" stroke-linejoin="round" stroke-miterlimit="10" x1="916.417" y1="1008.192" x2="916.417" y2="1785.752"/>
				
					<line fill="none" stroke="#FFFFFF" stroke-width="12" stroke-linecap="round" stroke-linejoin="round" stroke-miterlimit="10" x1="1293.486" y1="999.927" x2="1293.486" y2="1782.584"/>
				
					<line fill="none" stroke="#FFFFFF" stroke-width="12" stroke-linecap="round" stroke-linejoin="round" stroke-miterlimit="10" x1="1491.527" y1="1319.96" x2="1491.527" y2="1741.391"/>
				
					<path fill="none" stroke="#FFFFFF" stroke-width="12" stroke-linecap="round" stroke-linejoin="round" stroke-miterlimit="10" d="
					M741.294,1771.493h-31.577c-6.565,0-11.937-5.372-11.937-11.937v-31.577c0-6.565,5.372-11.937,11.937-11.937h31.577
					c6.565,0,11.937,5.372,11.937,11.937v31.577C753.231,1766.122,747.859,1771.493,741.294,1771.493z"/>
				
					<path fill="none" stroke="#FFFFFF" stroke-width="12" stroke-linecap="round" stroke-linejoin="round" stroke-miterlimit="10" d="
					M1508.108,1800.011h-31.577c-6.565,0-11.937-5.372-11.937-11.937v-31.578c0-6.565,5.372-11.937,11.937-11.937h31.577
					c6.565,0,11.937,5.372,11.937,11.937v31.578C1520.045,1794.64,1514.673,1800.011,1508.108,1800.011z"/>
				<g>
					
						<path fill="none" stroke="#FFFFFF" stroke-width="12" stroke-linecap="round" stroke-linejoin="round" stroke-miterlimit="10" d="
						M889.587,2030.784l-94.862-94.862c-14.116-14.116-14.116-37.214,0-51.329l94.862-94.862c14.116-14.116,37.214-14.116,51.329,0
						l94.862,94.862c14.116,14.116,14.116,37.214,0,51.329l-94.862,94.862C926.801,2044.9,903.702,2044.9,889.587,2030.784z"/>
					
						<circle fill="none" stroke="#FFFFFF" stroke-width="12" stroke-linecap="round" stroke-linejoin="round" stroke-miterlimit="10" cx="915.251" cy="1910.257" r="57.101"/>
					
						<circle fill="none" stroke="#FFFFFF" stroke-width="12" stroke-linecap="round" stroke-linejoin="round" stroke-miterlimit="10" cx="915.251" cy="1910.257" r="13.783"/>
				</g>
				<g>
					
						<path fill="none" stroke="#FFFFFF" stroke-width="12" stroke-linecap="round" stroke-linejoin="round" stroke-miterlimit="10" d="
						M1268.592,2030.784l-94.862-94.862c-14.116-14.116-14.116-37.214,0-51.329l94.862-94.862c14.115-14.116,37.214-14.116,51.329,0
						l94.862,94.862c14.116,14.116,14.116,37.214,0,51.329l-94.862,94.862C1305.806,2044.9,1282.707,2044.9,1268.592,2030.784z"/>
					
						<circle fill="none" stroke="#FFFFFF" stroke-width="12" stroke-linecap="round" stroke-linejoin="round" stroke-miterlimit="10" cx="1294.256" cy="1910.257" r="57.101"/>
					
						<circle fill="none" stroke="#FFFFFF" stroke-width="12" stroke-linecap="round" stroke-linejoin="round" stroke-miterlimit="10" cx="1294.256" cy="1910.257" r="13.783"/>
				</g>
				
					<path fill="none" stroke="#FFFFFF" stroke-width="12" stroke-linecap="round" stroke-linejoin="round" stroke-miterlimit="10" d="
					M724.713,1771.493c0,0-3.169,193.288,0,240.818c3.169,47.53,45.945,329.54,383.407,329.54V874.765"/>
				
					<path fill="none" stroke="#FFFFFF" stroke-width="12" stroke-linecap="round" stroke-linejoin="round" stroke-miterlimit="10" d="
					M1491.527,1800.011c0,0,0,142.589,0,190.119s-19.012,351.72-383.407,351.72"/>
				
					<path fill="none" stroke="#FFFFFF" stroke-width="12" stroke-linecap="round" stroke-linejoin="round" stroke-miterlimit="10" d="
					M1275.06,2245.207H944.349c-14.491,0-26.348-11.856-26.348-26.348v-34.442c0-14.491,11.857-26.348,26.348-26.348h330.711
					c14.491,0,26.348,11.856,26.348,26.348v34.442C1301.408,2233.351,1289.551,2245.207,1275.06,2245.207z"/>
				
					<path fill="none" stroke="#FFFFFF" stroke-width="12" stroke-linecap="round" stroke-linejoin="round" stroke-miterlimit="10" d="
					M768.898,2158.645c0,0,291.949-213.308,681.565,0"/>
				<path fill="#FFFFFF" d="M1010.165,1692.152l-22.329-22.329c-4.642-4.642-4.642-12.239,0-16.881l22.329-22.329
					c4.642-4.642,12.239-4.642,16.881,0l22.329,22.329c4.642,4.642,4.642,12.239,0,16.881l-22.329,22.329
					C1022.404,1696.795,1014.807,1696.795,1010.165,1692.152z"/>
				<path fill="#FFFFFF" d="M1192.362,1692.152l-22.329-22.329c-4.642-4.642-4.642-12.239,0-16.881l22.329-22.329
					c4.642-4.642,12.239-4.642,16.881,0l22.329,22.329c4.642,4.642,4.642,12.239,0,16.881l-22.329,22.329
					C1204.601,1696.795,1197.005,1696.795,1192.362,1692.152z"/>
				
					<line fill="none" stroke="#FFFFFF" stroke-width="12" stroke-linecap="round" stroke-linejoin="round" stroke-miterlimit="10" x1="918.001" y1="2199.261" x2="1301.408" y2="2199.261"/>
			</g>
		</g>
		<g id="hand-1">
			
				<path fill="#99FFCC" stroke="#40DD92" stroke-width="6" stroke-linecap="round" stroke-linejoin="round" stroke-miterlimit="10" d="
				M1553.494,1331.843v624.225c0,10.599-0.301,21.119-0.903,31.544v0.048c-14.829,256.962-209.131,460.342-446.669,460.342
				c-247.187,0-447.572-220.253-447.572-491.933c0-7.066,0-25.999,0-28.518v-644.821c0-18.521,7.573-35.362,19.772-47.562
				s29.041-19.772,47.561-19.772c32.067,0,59.08,22.703,65.75,52.837c0,0,0.554,386.972,1.584,389.95
				c3.945,11.518,14.908,19.836,27.726,19.836c16.128,0,29.31-13.182,29.31-29.31l-1.584-682.845
				c0-18.521,7.573-35.362,19.772-47.562c12.199-12.199,29.041-19.772,47.562-19.772c33.303,0,61.155,24.494,66.431,56.354
				c-0.444,2.012-0.127,605.26,0.903,608.239c3.945,11.518,14.908,19.836,27.726,19.836c16.128,0,29.31-13.182,29.31-29.31
				l-1.584-717.7c0-18.521,7.573-35.362,19.772-47.561c12.199-12.199,29.041-19.772,47.562-19.772
				c37.042,0,67.334,30.292,67.334,67.334l-1.584,703.441c0,16.128,13.182,29.31,29.31,29.31c12.817,0,23.781-8.318,27.726-19.836
				c1.03-2.979,1.584-6.163,1.584-9.474V951.367c2.82-12.738,9.268-24.145,18.188-33.065c12.199-12.199,29.041-19.772,47.562-19.772
				c37.042,0,67.334,30.292,67.334,67.334l-1.584,682.845c0,16.128,13.182,29.31,29.31,29.31c12.817,0,23.781-8.318,27.726-19.836
				c1.03-2.979,1.584-6.163,1.584-9.474v-331.362c2.82-12.738,9.268-24.145,18.188-33.065
				c12.199-12.199,29.041-19.772,47.562-19.772C1523.201,1264.509,1553.494,1294.801,1553.494,1331.843z"/>
			
				<line fill="none" stroke="#FFFFFF" stroke-width="12" stroke-linecap="round" stroke-linejoin="round" stroke-miterlimit="10" x1="723.307" y1="1296.196" x2="723.307" y2="1717.626"/>
			
				<line fill="none" stroke="#FFFFFF" stroke-width="12" stroke-linecap="round" stroke-linejoin="round" stroke-miterlimit="10" x1="913.426" y1="1011.017" x2="913.426" y2="1746.144"/>
			
				<line fill="none" stroke="#FFFFFF" stroke-width="12" stroke-linecap="round" stroke-linejoin="round" stroke-miterlimit="10" x1="1105.129" y1="876.349" x2="1105.129" y2="1728.717"/>
			
				<line fill="none" stroke="#FFFFFF" stroke-width="12" stroke-linecap="round" stroke-linejoin="round" stroke-miterlimit="10" x1="1293.669" y1="1001.511" x2="1295.254" y2="1742.976"/>
			
				<line fill="none" stroke="#FFFFFF" stroke-width="12" stroke-linecap="round" stroke-linejoin="round" stroke-miterlimit="10" x1="1488.536" y1="1321.545" x2="1488.536" y2="1742.976"/>
			
				<path fill="none" stroke="#FFFFFF" stroke-width="12" stroke-linecap="round" stroke-linejoin="round" stroke-miterlimit="10" d="
				M738.24,1773.078h-31.451c-6.6,0-12-5.4-12-12v-31.451c0-6.6,5.4-12,12-12h31.451c6.6,0,12,5.4,12,12v31.451
				C750.24,1767.678,744.84,1773.078,738.24,1773.078z"/>
			
				<path fill="none" stroke="#FFFFFF" stroke-width="12" stroke-linecap="round" stroke-linejoin="round" stroke-miterlimit="10" d="
				M1505.054,1801.596h-31.451c-6.6,0-12-5.4-12-12v-31.451c0-6.6,5.4-12,12-12h31.451c6.6,0,12,5.4,12,12v31.451
				C1517.054,1796.196,1511.654,1801.596,1505.054,1801.596z"/>
			
				<path fill="none" stroke="#FFFFFF" stroke-width="12" stroke-linecap="round" stroke-linejoin="round" stroke-miterlimit="10" d="
				M831.785,2056.514l-59.285,66.003c-4.547,5.054-11.233,7.098-17.507,5.989v-162.679c3.375,0.586,6.622,2.107,9.348,4.547
				l66.003,59.285C838.123,2036.646,838.772,2048.735,831.785,2056.514z"/>
			
				<path fill="none" stroke="#FFFFFF" stroke-width="12" stroke-linecap="round" stroke-linejoin="round" stroke-miterlimit="10" d="
				M1380.058,2056.514l59.285,66.003c4.547,5.054,11.233,7.098,17.507,5.989v-162.679c-3.375,0.586-6.622,2.107-9.348,4.547
				l-66.003,59.285C1373.72,2036.646,1373.071,2048.735,1380.058,2056.514z"/>
			<g>
				
					<polyline fill="none" stroke="#FFFFFF" stroke-width="12" stroke-linecap="round" stroke-linejoin="round" stroke-miterlimit="10" points="
					802.523,1850.71 899.167,1942.601 1195.436,1638.41 				"/>
				
					<polyline fill="none" stroke="#FFFFFF" stroke-width="12" stroke-linecap="round" stroke-linejoin="round" stroke-miterlimit="10" points="
					1016.407,1638.41 1312.676,1942.601 1407.736,1850.71 				"/>
				
					<line fill="none" stroke="#FFFFFF" stroke-width="12" stroke-linecap="round" stroke-linejoin="round" stroke-miterlimit="10" x1="913.426" y1="1746.144" x2="1000.238" y2="1838.827"/>
				
					<line fill="none" stroke="#FFFFFF" stroke-width="12" stroke-linecap="round" stroke-linejoin="round" stroke-miterlimit="10" x1="1294.689" y1="1742.742" x2="1202.006" y2="1829.554"/>
			</g>
			
				<path fill="none" stroke="#FFFFFF" stroke-width="12" stroke-linecap="round" stroke-linejoin="round" stroke-miterlimit="10" d="
				M1075.916,2297.403l-172.778-172.778c-17.183-17.183-17.183-45.3,0-62.483l172.778-172.778c17.183-17.183,45.3-17.183,62.483,0
				l172.778,172.778c17.183,17.183,17.183,45.3,0,62.483l-172.778,172.778C1121.216,2314.586,1093.098,2314.586,1075.916,2297.403z"
				/>
			
				<circle fill="none" stroke="#FFFFFF" stroke-width="12" stroke-linecap="round" stroke-linejoin="round" stroke-miterlimit="10" cx="1107.157" cy="2093.384" r="91.891"/>
			
				<circle fill="none" stroke="#FFFFFF" stroke-width="12" stroke-linecap="round" stroke-linejoin="round" stroke-miterlimit="10" cx="1107.506" cy="1943.393" r="22.181"/>
			<animate id="animation1"
			 attributeName="opacity"
			 from="0" to="1" dur="0.5s"
			 begin="0s;animation2.end+2s" />
			<animate id="animation2"
			 attributeName="opacity"
			 from="1" to="0" dur="0.5s" 
			 begin="animation1.end+2s" />
		</g>
	</g>
</g>
<g id="Creative">
</g>
<g id="Alternate_hand">
</g>
</svg>
