<?xml version="1.0" encoding="utf-8"?>
<!DOCTYPE svg PUBLIC "-//W3C//DTD SVG 1.1//EN" "http://www.w3.org/Graphics/SVG/1.1/DTD/svg11.dtd">
<svg version="1.1" xmlns="http://www.w3.org/2000/svg" xmlns:xlink="http://www.w3.org/1999/xlink" x="0px" y="0px" width="1904px"
	 height="718px" viewBox="0 0 1904 718" enable-background="new 0 0 1904 718" xml:space="preserve">
<g id="Followers">
	<g>
		<g id="instas">
			<g>
				<path fill="#40DD92" d="M188.992,506.866c-0.35,16.106-0.882,32.2-1.344,48.299c-0.225,8.05-0.485,16.097-0.769,24.144
					c-0.284,8.046-0.521,16.095-0.854,24.138c-0.625,16.089-1.31,32.174-1.669,48.279c-0.2,8.051-0.494,16.097-1.077,24.125
					c-0.572,8.028-1.307,16.047-2.178,24.057l-0.046,0.419c-0.245,2.249-2.21,3.898-4.439,3.798
					c-7.742-0.365-15.484-0.831-23.226-1.471c-3.871-0.352-7.742-0.656-11.613-1.091c-3.871-0.388-7.742-0.87-11.613-1.431v-1
					c3.871-0.561,7.742-1.043,11.613-1.431c3.871-0.435,7.742-0.739,11.613-1.091c7.742-0.64,15.484-1.106,23.226-1.471
					l-4.484,4.217c0.119-8.056,0.373-16.104,0.791-24.142c0.407-8.039,1.102-16.06,1.892-24.074
					c1.621-16.027,2.915-32.075,4.269-48.119c0.656-8.023,1.409-16.041,2.115-24.061c0.706-8.02,1.435-16.039,2.2-24.055
					c1.517-16.034,2.965-32.072,4.594-48.099L188.992,506.866z"/>
			</g>
			<g>
				<path fill="#40DD92" d="M357.339,506.804c1.629,16.027,3.077,32.065,4.594,48.099c0.765,8.016,1.494,16.035,2.2,24.055
					c0.706,8.02,1.458,16.038,2.115,24.061c1.354,16.044,2.648,32.091,4.269,48.119c0.79,8.015,1.485,16.036,1.892,24.074
					c0.417,8.038,0.672,16.086,0.791,24.142l-4.484-4.217c7.742,0.365,15.484,0.831,23.226,1.471
					c3.871,0.352,7.742,0.656,11.613,1.091c3.871,0.388,7.742,0.87,11.613,1.431v1c-3.871,0.561-7.742,1.043-11.613,1.431
					c-3.871,0.435-7.742,0.739-11.613,1.091c-7.742,0.64-15.484,1.106-23.226,1.471c-2.26,0.107-4.192-1.567-4.438-3.784
					l-0.047-0.432c-0.871-8.01-1.606-16.028-2.178-24.057c-0.582-8.028-0.877-16.073-1.077-24.125
					c-0.359-16.105-1.044-32.19-1.669-48.279c-0.333-8.043-0.57-16.092-0.854-24.138c-0.284-8.046-0.544-16.094-0.769-24.144
					c-0.462-16.099-0.993-32.193-1.344-48.299L357.339,506.804z"/>
			</g>
			
				<path fill="#99FFCC" stroke="#40DD92" stroke-width="6" stroke-linecap="round" stroke-linejoin="round" stroke-miterlimit="10" d="
				M429.126,469.57l-97.444,97.444c-32.502,32.502-85.686,32.502-118.188,0l-97.444-97.444c-32.502-32.502-32.502-85.686,0-118.188
				l97.444-97.444c32.502-32.502,85.686-32.502,118.188,0l97.444,97.444C461.628,383.884,461.628,437.068,429.126,469.57z"/>
				<circle fill="#FFFFFF" stroke="#40DD92" stroke-width="6" stroke-linecap="round" stroke-linejoin="round" stroke-miterlimit="10" cx="272.588" cy="276.429" r="19.646"/>
			<g id="instas-inner">
				<circle fill="#FFFFFF" stroke="#40DD92" stroke-width="6" stroke-linecap="round" stroke-linejoin="round" stroke-miterlimit="10" cx="272.588" cy="410.476" r="83.87"/>
			</g>
			
				<path fill="#99FFCC" stroke="#40DD92" stroke-width="6" stroke-linecap="round" stroke-linejoin="round" stroke-miterlimit="10" d="
				M535.608,209.648c-0.003-4.758-1.807-9.52-5.417-13.13c-7.221-7.221-19.039-7.221-26.26,0l-51.916,51.916l-68.427-68.427
				l51.916-51.916c3.61-3.61,5.417-8.369,5.417-13.13c-0.003-4.758-1.807-9.52-5.417-13.13c-7.221-7.221-19.039-7.221-26.26,0
				l-51.916,51.916L298.86,95.279l51.916-51.916c3.61-3.61,5.414-8.372,5.417-13.13c-0.003-4.758-1.807-9.52-5.417-13.13
				c-7.221-7.221-19.039-7.221-26.26,0L272.59,69.029L220.661,17.1c-3.61-3.61-8.372-5.414-13.13-5.417
				c-4.762,0-9.52,1.807-13.13,5.417c-7.221,7.221-7.221,19.039,0,26.26l51.919,51.919l-63.444,63.444l-51.919-51.919
				c-3.61-3.61-8.372-5.414-13.13-5.417c-4.762,0-9.52,1.807-13.13,5.417c-7.221,7.221-7.217,19.036,0.003,26.257l51.919,51.919
				l-63.457,63.457l-51.919-51.919c-3.61-3.61-8.369-5.417-13.13-5.417c-4.758-0.003-9.516,1.803-13.127,5.414
				c-7.221,7.221-7.221,19.039,0,26.26l65.07,65.07c0.157,0.157,0.318,0.311,0.482,0.461c0.342,0.321,0.693,0.625,1.059,0.915
				c0.099,0.079,0.195,0.154,0.294,0.232c0.102,0.075,0.205,0.157,0.311,0.229c0.072,0.058,0.15,0.109,0.225,0.164
				c0.089,0.061,0.181,0.126,0.27,0.188c0.195,0.133,0.386,0.263,0.587,0.383c0.099,0.065,0.202,0.126,0.304,0.188
				c0.161,0.099,0.324,0.195,0.492,0.287c0.021,0.014,0.041,0.027,0.061,0.034c0.102,0.061,0.205,0.116,0.311,0.167
				c0.164,0.089,0.328,0.178,0.495,0.256c0.543,0.263,1.096,0.502,1.66,0.717l0.003,0.003c0.42,0.154,0.851,0.297,1.277,0.424
				c0.003,0.003,0.003,0.003,0.003,0.003c0.287,0.082,0.577,0.161,0.864,0.229l0.003,0.003c0.208,0.051,0.413,0.099,0.625,0.14
				c0.229,0.051,0.461,0.092,0.69,0.13c0.297,0.044,0.587,0.089,0.885,0.126c0.143,0.02,0.294,0.034,0.447,0.051
				c0.297,0.024,0.591,0.044,0.885,0.058c0.147,0.01,0.297,0.017,0.451,0.02c0.167,0.003,0.335,0.007,0.502,0.003
				c0.502-0.003,1.001-0.024,1.506-0.065c0.331-0.031,0.666-0.065,0.997-0.109l1.428-0.253c0.003-0.003,0.003-0.003,0.003-0.003
				c0.219-0.048,0.434-0.099,0.652-0.154c0.488-0.126,0.973-0.27,1.452-0.434c0.161-0.051,0.318-0.113,0.478-0.171l0.003-0.003
				c0.28-0.109,0.557-0.222,0.833-0.335l0.003-0.003c0.277-0.12,0.55-0.249,0.823-0.379l0.003-0.003
				c0.543-0.27,1.076-0.564,1.595-0.885c0,0,0.007,0,0.007-0.007c0.256-0.161,0.512-0.328,0.765-0.499
				c0.003-0.003,0.003-0.003,0.007-0.007c0.249-0.174,0.495-0.359,0.741-0.543l1.773-1.561L272.59,121.57l166.274,166.274
				c0.14,0.14,0.284,0.277,0.424,0.41c0.143,0.137,0.29,0.27,0.437,0.396c0.103,0.089,0.202,0.181,0.307,0.266
				c0.031,0.024,0.062,0.055,0.096,0.082c0.195,0.161,0.393,0.318,0.591,0.468c0.215,0.167,0.434,0.325,0.656,0.478
				c0.219,0.15,0.441,0.297,0.663,0.437c0.338,0.215,0.676,0.417,1.021,0.605c0.342,0.191,0.693,0.366,1.049,0.529
				c0.157,0.075,0.314,0.144,0.475,0.215c0,0,0,0,0.007,0c0.143,0.062,0.284,0.12,0.424,0.178c0.997,0.396,2.019,0.707,3.057,0.932
				c0.574,0.123,1.148,0.219,1.732,0.29c0.581,0.061,1.158,0.106,1.739,0.12c0.386,0.01,0.775,0.01,1.168-0.007
				c0.485-0.021,0.97-0.055,1.452-0.113c0.482-0.058,0.967-0.133,1.441-0.225c0.574-0.109,1.144-0.249,1.708-0.417
				c0.331-0.099,0.666-0.208,0.994-0.325c0.328-0.116,0.652-0.242,0.977-0.383c0.321-0.137,0.639-0.283,0.956-0.437
				c0.205-0.103,0.41-0.205,0.608-0.314c0.161-0.085,0.318-0.174,0.475-0.263c0.079-0.044,0.16-0.092,0.236-0.14
				c0.133-0.079,0.26-0.157,0.389-0.239c0.195-0.12,0.383-0.246,0.574-0.376c0.154-0.106,0.307-0.219,0.458-0.328
				c0.007,0,0.01-0.003,0.01-0.01c0.126-0.092,0.253-0.184,0.376-0.28c0.202-0.154,0.4-0.311,0.591-0.475
				c0.106-0.085,0.205-0.178,0.307-0.266c0.147-0.126,0.294-0.26,0.437-0.396c0.14-0.133,0.283-0.27,0.423-0.41l65.07-65.07
				C533.801,219.167,535.605,214.406,535.608,209.648z"/>
		</g>
		<g id="instaf-5">
			<g>
				<path fill="#40DD92" d="M633.907,595.026c0.078,8.758,0.087,17.511,0.029,26.26c-0.013,4.376-0.05,8.75-0.105,13.123
					c-0.058,4.373-0.069,8.749-0.175,13.118c-0.173,8.742-0.405,17.48-0.311,26.239c0.028,4.378-0.045,8.75-0.389,13.105
					c-0.328,4.356-0.882,8.698-1.508,13.036l-0.108,0.746c-0.309,2.142-2.248,3.651-4.377,3.471
					c-4.202-0.364-8.404-0.833-12.605-1.469c-2.101-0.319-4.202-0.675-6.303-1.081c-2.101-0.413-4.202-0.877-6.303-1.444v-1
					c2.101-0.566,4.202-1.03,6.303-1.444c2.101-0.405,4.202-0.761,6.303-1.081c4.202-0.636,8.404-1.104,12.605-1.469l-4.484,4.217
					c-0.089-4.382-0.106-8.759,0.103-13.123c0.193-4.364,0.657-8.712,1.222-13.054c1.168-8.681,2.01-17.381,2.911-26.079
					c0.43-4.35,0.956-8.694,1.436-13.041c0.483-4.346,0.982-8.692,1.506-13.036c1.016-8.69,2.099-17.376,3.251-26.058
					L633.907,595.026z"/>
			</g>
			<g>
				<path fill="#40DD92" d="M725.273,594.965c1.153,8.682,2.235,17.368,3.251,26.058c0.524,4.344,1.024,8.69,1.506,13.036
					c0.479,4.347,1.005,8.691,1.436,13.041c0.902,8.697,1.743,17.398,2.911,26.079c0.566,4.342,1.029,8.689,1.223,13.054
					c0.209,4.364,0.192,8.741,0.103,13.123l-4.484-4.217c4.202,0.364,8.404,0.833,12.605,1.469c2.101,0.319,4.202,0.675,6.303,1.081
					c2.101,0.413,4.202,0.877,6.303,1.444v1c-2.101,0.567-4.202,1.031-6.303,1.444c-2.101,0.405-4.202,0.761-6.303,1.081
					c-4.202,0.636-8.404,1.104-12.605,1.469c-2.156,0.187-4.066-1.345-4.375-3.459l-0.109-0.758
					c-0.626-4.338-1.18-8.68-1.508-13.036c-0.344-4.355-0.417-8.727-0.389-13.105c0.094-8.758-0.139-17.497-0.311-26.239
					c-0.107-4.37-0.118-8.745-0.175-13.118c-0.055-4.373-0.092-8.747-0.105-13.123c-0.058-8.749-0.05-17.502,0.029-26.26
					L725.273,594.965z"/>
			</g>
			
				<path fill="#99FFCC" stroke="#40DD92" stroke-width="6" stroke-linecap="round" stroke-linejoin="round" stroke-miterlimit="10" d="
				M765.96,572.817l-56.793,56.793c-16.565,16.565-43.671,16.565-60.235,0l-56.793-56.793c-16.565-16.565-16.565-43.671,0-60.235
				l56.793-56.793c16.565-16.565,43.671-16.565,60.235,0l56.793,56.793C782.524,529.146,782.524,556.252,765.96,572.817z"/>
				
				<g>
					<circle fill="#FFFFFF" stroke="#40DD92" stroke-width="6" stroke-linecap="round" stroke-linejoin="round" stroke-miterlimit="10" cx="679.049" cy="542.699" r="45.518"/>
				</g>
			
				<circle fill="#FFFFFF" stroke="#40DD92" stroke-width="6" stroke-linecap="round" stroke-linejoin="round" stroke-miterlimit="10" cx="679.049" cy="469.948" r="10.662"/>
			<animate id="appearFollower5"
			 attributeName="opacity"
			 from="0" to="1" dur="0.01s"
			 begin="0s;jumpFollower5.end" />
			<animateTransform id="jumpFollower5"
			 attributeName="transform"
			 type="translate"
			 values="0,0; 0,-100; 0,0;"
			 dur="2.3s"
			 begin="appearFollower5.end" />
		</g>
		<g id="instaf-4">
			<g>
				<path fill="#40DD92" d="M914.056,595.026c0.078,8.758,0.087,17.511,0.029,26.26c-0.013,4.376-0.05,8.75-0.105,13.123
					c-0.058,4.373-0.069,8.749-0.175,13.118c-0.173,8.742-0.405,17.48-0.311,26.239c0.028,4.378-0.045,8.75-0.389,13.105
					c-0.328,4.356-0.882,8.698-1.508,13.036l-0.108,0.746c-0.309,2.142-2.248,3.651-4.377,3.471
					c-4.202-0.364-8.404-0.833-12.605-1.469c-2.101-0.319-4.202-0.675-6.303-1.081c-2.101-0.413-4.202-0.877-6.303-1.444v-1
					c2.101-0.566,4.202-1.03,6.303-1.444c2.101-0.405,4.202-0.761,6.303-1.081c4.202-0.636,8.404-1.104,12.605-1.469l-4.484,4.217
					c-0.089-4.382-0.106-8.759,0.103-13.123c0.193-4.364,0.657-8.712,1.222-13.054c1.168-8.681,2.01-17.381,2.911-26.079
					c0.43-4.35,0.956-8.694,1.436-13.041c0.482-4.346,0.982-8.692,1.506-13.036c1.016-8.69,2.099-17.376,3.251-26.058
					L914.056,595.026z"/>
			</g>
			<g>
				<path fill="#40DD92" d="M1005.422,594.965c1.153,8.682,2.235,17.368,3.251,26.058c0.524,4.344,1.024,8.69,1.506,13.036
					c0.479,4.347,1.005,8.691,1.436,13.041c0.902,8.697,1.743,17.398,2.911,26.079c0.566,4.342,1.03,8.689,1.223,13.054
					c0.209,4.364,0.192,8.741,0.103,13.123l-4.484-4.217c4.202,0.364,8.404,0.833,12.605,1.469c2.101,0.319,4.202,0.675,6.303,1.081
					c2.101,0.413,4.202,0.877,6.303,1.444v1c-2.101,0.567-4.202,1.031-6.303,1.444c-2.101,0.405-4.202,0.761-6.303,1.081
					c-4.202,0.636-8.404,1.104-12.605,1.469c-2.156,0.187-4.065-1.345-4.375-3.459l-0.109-0.758
					c-0.626-4.338-1.18-8.68-1.508-13.036c-0.344-4.355-0.417-8.727-0.389-13.105c0.094-8.758-0.139-17.497-0.311-26.239
					c-0.107-4.37-0.118-8.745-0.175-13.118c-0.055-4.373-0.092-8.747-0.105-13.123c-0.058-8.749-0.05-17.502,0.029-26.26
					L1005.422,594.965z"/>
			</g>
			
				<path fill="#99FFCC" stroke="#40DD92" stroke-width="6" stroke-linecap="round" stroke-linejoin="round" stroke-miterlimit="10" d="
				M1044.688,574.237l-53.952,53.952c-17.346,17.346-45.731,17.346-63.077,0l-53.952-53.952c-17.346-17.346-17.346-45.731,0-63.077
				l53.952-53.952c17.346-17.346,45.731-17.346,63.077,0l53.952,53.952C1062.034,528.507,1062.034,556.891,1044.688,574.237z"/>
			
				<g>
					<circle fill="#FFFFFF" stroke="#40DD92" stroke-width="6" stroke-linecap="round" stroke-linejoin="round" stroke-miterlimit="10" cx="959.198" cy="542.699" r="45.518"/>
				</g>
			
				<circle fill="#FFFFFF" stroke="#40DD92" stroke-width="6" stroke-linecap="round" stroke-linejoin="round" stroke-miterlimit="10" cx="959.198" cy="469.948" r="10.662"/>
			<animate id="appearFollower4"
			 attributeName="opacity"
			 from="0" to="1" dur="0.01s"
			 begin="2s;jumpFollower4.end" />
			<animateTransform id="jumpFollower4"
			 attributeName="transform"
			 type="translate"
			 values="0,0; 0,-100; 0,0;"
			 dur="2.3s"
			 begin="appearFollower4.end" />
		</g>
		<g id="instaf-3">
			<g>
				<path fill="#40DD92" d="M1194.206,595.026c0.078,8.758,0.087,17.511,0.029,26.26c-0.013,4.376-0.05,8.75-0.105,13.123
					c-0.058,4.373-0.068,8.749-0.175,13.118c-0.173,8.742-0.405,17.48-0.311,26.239c0.028,4.378-0.045,8.75-0.389,13.105
					c-0.328,4.356-0.882,8.698-1.508,13.036l-0.108,0.746c-0.309,2.142-2.248,3.651-4.377,3.471
					c-4.202-0.364-8.404-0.833-12.605-1.469c-2.101-0.319-4.202-0.675-6.303-1.081c-2.101-0.413-4.202-0.877-6.303-1.444v-1
					c2.101-0.566,4.202-1.03,6.303-1.444c2.101-0.405,4.202-0.761,6.303-1.081c4.202-0.636,8.403-1.104,12.605-1.469l-4.484,4.217
					c-0.089-4.382-0.106-8.759,0.103-13.123c0.193-4.364,0.657-8.712,1.223-13.054c1.168-8.681,2.01-17.381,2.911-26.079
					c0.43-4.35,0.956-8.694,1.436-13.041c0.483-4.346,0.982-8.692,1.506-13.036c1.016-8.69,2.099-17.376,3.251-26.058
					L1194.206,595.026z"/>
			</g>
			<g>
				<path fill="#40DD92" d="M1285.572,594.965c1.152,8.682,2.235,17.368,3.251,26.058c0.524,4.344,1.024,8.69,1.506,13.036
					c0.479,4.347,1.006,8.691,1.436,13.041c0.901,8.697,1.743,17.398,2.911,26.079c0.565,4.342,1.029,8.689,1.223,13.054
					c0.209,4.364,0.192,8.741,0.103,13.123l-4.484-4.217c4.202,0.364,8.404,0.833,12.605,1.469c2.101,0.319,4.202,0.675,6.303,1.081
					c2.101,0.413,4.202,0.877,6.303,1.444v1c-2.101,0.567-4.202,1.031-6.303,1.444c-2.101,0.405-4.202,0.761-6.303,1.081
					c-4.202,0.636-8.404,1.104-12.605,1.469c-2.156,0.187-4.066-1.345-4.375-3.459l-0.109-0.758
					c-0.626-4.338-1.18-8.68-1.508-13.036c-0.344-4.355-0.417-8.727-0.389-13.105c0.094-8.758-0.139-17.497-0.311-26.239
					c-0.107-4.37-0.118-8.745-0.176-13.118c-0.054-4.373-0.092-8.747-0.105-13.123c-0.058-8.749-0.05-17.502,0.029-26.26
					L1285.572,594.965z"/>
			</g>
			
				<path fill="#99FFCC" stroke="#40DD92" stroke-width="6" stroke-linecap="round" stroke-linejoin="round" stroke-miterlimit="10" d="
				M1322.078,576.997l-48.433,48.433c-18.864,18.864-49.732,18.864-68.596,0l-48.433-48.433c-18.864-18.864-18.864-49.732,0-68.596
				l48.433-48.433c18.864-18.864,49.732-18.864,68.596,0l48.433,48.433C1340.942,527.265,1340.942,558.133,1322.078,576.997z"/>
			
				<g>
					<circle fill="#FFFFFF" stroke="#40DD92" stroke-width="6" stroke-linecap="round" stroke-linejoin="round" stroke-miterlimit="10" cx="1239.347" cy="542.699" r="45.518"/>
				</g>
			
				<circle fill="#FFFFFF" stroke="#40DD92" stroke-width="6" stroke-linecap="round" stroke-linejoin="round" stroke-miterlimit="10" cx="1239.347" cy="469.948" r="10.662"/>
			<animate id="appearFollower3"
			 attributeName="opacity"
			 from="0" to="1" dur="0.01s"
			 begin="4s;jumpFollower3.end" />
			<animateTransform id="jumpFollower3"
			 attributeName="transform"
			 type="translate"
			 values="0,0; 0,-100; 0,0;"
			 dur="2.3s"
			 begin="appearFollower3.end" />
		</g>
		<g id="instaf-2">
			<g>
				<path fill="#40DD92" d="M1474.355,595.026c0.079,8.758,0.087,17.511,0.029,26.26c-0.013,4.376-0.05,8.75-0.105,13.123
					c-0.058,4.373-0.068,8.749-0.175,13.118c-0.173,8.742-0.405,17.48-0.311,26.239c0.028,4.378-0.045,8.75-0.389,13.105
					c-0.328,4.356-0.881,8.698-1.508,13.036l-0.108,0.746c-0.309,2.142-2.248,3.651-4.377,3.471
					c-4.202-0.364-8.403-0.833-12.605-1.469c-2.101-0.319-4.202-0.675-6.303-1.081c-2.101-0.413-4.202-0.877-6.303-1.444v-1
					c2.101-0.566,4.202-1.03,6.303-1.444c2.101-0.405,4.202-0.761,6.303-1.081c4.202-0.636,8.403-1.104,12.605-1.469l-4.484,4.217
					c-0.089-4.382-0.106-8.759,0.103-13.123c0.193-4.364,0.657-8.712,1.222-13.054c1.168-8.681,2.01-17.381,2.911-26.079
					c0.43-4.35,0.956-8.694,1.436-13.041c0.482-4.346,0.982-8.692,1.506-13.036c1.016-8.69,2.099-17.376,3.251-26.058
					L1474.355,595.026z"/>
			</g>
			<g>
				<path fill="#40DD92" d="M1565.721,594.965c1.152,8.682,2.235,17.368,3.251,26.058c0.524,4.344,1.024,8.69,1.506,13.036
					c0.479,4.347,1.005,8.691,1.436,13.041c0.901,8.697,1.743,17.398,2.911,26.079c0.566,4.342,1.029,8.689,1.223,13.054
					c0.209,4.364,0.192,8.741,0.103,13.123l-4.484-4.217c4.202,0.364,8.404,0.833,12.605,1.469c2.101,0.319,4.202,0.675,6.303,1.081
					c2.101,0.413,4.202,0.877,6.303,1.444v1c-2.101,0.567-4.202,1.031-6.303,1.444c-2.101,0.405-4.202,0.761-6.303,1.081
					c-4.202,0.636-8.404,1.104-12.605,1.469c-2.157,0.187-4.065-1.345-4.375-3.459l-0.109-0.758
					c-0.626-4.338-1.181-8.68-1.508-13.036c-0.344-4.355-0.417-8.727-0.389-13.105c0.094-8.758-0.139-17.497-0.311-26.239
					c-0.107-4.37-0.118-8.745-0.176-13.118c-0.054-4.373-0.092-8.747-0.105-13.123c-0.058-8.749-0.049-17.502,0.029-26.26
					L1565.721,594.965z"/>
			</g>
			
				<path fill="#99FFCC" stroke="#40DD92" stroke-width="6" stroke-linecap="round" stroke-linejoin="round" stroke-miterlimit="10" d="
				M1601.416,577.809l-46.81,46.81c-19.31,19.31-50.909,19.31-70.219,0l-46.81-46.81c-19.31-19.31-19.31-50.909,0-70.219
				l46.81-46.81c19.31-19.31,50.909-19.31,70.219,0l46.81,46.81C1620.726,526.9,1620.726,558.498,1601.416,577.809z"/>
			
				<g>
					<circle fill="#FFFFFF" stroke="#40DD92" stroke-width="6" stroke-linecap="round" stroke-linejoin="round" stroke-miterlimit="10" cx="1519.497" cy="542.699" r="45.518"/>
				</g>
			
				<circle fill="#FFFFFF" stroke="#40DD92" stroke-width="6" stroke-linecap="round" stroke-linejoin="round" stroke-miterlimit="10" cx="1519.497" cy="469.948" r="10.662"/>
			<animate id="appearFollower2"
			 attributeName="opacity"
			 from="0" to="1" dur="0.01s"
			 begin="6s;jumpFollower2.end" />
			<animateTransform id="jumpFollower2"
			 attributeName="transform"
			 type="translate"
			 values="0,0; 0,-100; 0,0;"
			 dur="2.3s"
			 begin="appearFollower2.end" />
		</g>
		<g id="instaf-1">
			<g>
				<path fill="#40DD92" d="M1754.504,595.026c0.078,8.758,0.087,17.511,0.029,26.26c-0.013,4.376-0.05,8.75-0.105,13.123
					c-0.058,4.373-0.069,8.749-0.175,13.118c-0.173,8.742-0.405,17.48-0.311,26.239c0.029,4.378-0.045,8.75-0.389,13.105
					c-0.328,4.356-0.882,8.698-1.508,13.036l-0.108,0.746c-0.309,2.142-2.248,3.651-4.377,3.471
					c-4.202-0.364-8.403-0.833-12.605-1.469c-2.101-0.319-4.202-0.675-6.303-1.081c-2.101-0.413-4.202-0.877-6.303-1.444v-1
					c2.101-0.566,4.202-1.03,6.303-1.444c2.101-0.405,4.202-0.761,6.303-1.081c4.202-0.636,8.404-1.104,12.605-1.469l-4.484,4.217
					c-0.089-4.382-0.106-8.759,0.103-13.123c0.193-4.364,0.657-8.712,1.222-13.054c1.168-8.681,2.01-17.381,2.911-26.079
					c0.43-4.35,0.956-8.694,1.436-13.041c0.482-4.346,0.982-8.692,1.506-13.036c1.016-8.69,2.099-17.376,3.251-26.058
					L1754.504,595.026z"/>
			</g>
			<g>
				<path fill="#40DD92" d="M1845.87,594.965c1.153,8.682,2.235,17.368,3.251,26.058c0.524,4.344,1.024,8.69,1.506,13.036
					c0.479,4.347,1.005,8.691,1.436,13.041c0.902,8.697,1.744,17.398,2.911,26.079c0.565,4.342,1.029,8.689,1.222,13.054
					c0.209,4.364,0.192,8.741,0.103,13.123l-4.484-4.217c4.202,0.364,8.403,0.833,12.605,1.469c2.101,0.319,4.202,0.675,6.303,1.081
					c2.101,0.413,4.202,0.877,6.303,1.444v1c-2.101,0.567-4.202,1.031-6.303,1.444c-2.101,0.405-4.202,0.761-6.303,1.081
					c-4.202,0.636-8.404,1.104-12.605,1.469c-2.157,0.187-4.065-1.345-4.375-3.459l-0.109-0.758
					c-0.626-4.338-1.181-8.68-1.508-13.036c-0.344-4.355-0.417-8.727-0.389-13.105c0.094-8.758-0.139-17.497-0.311-26.239
					c-0.107-4.37-0.118-8.745-0.175-13.118c-0.055-4.373-0.092-8.747-0.105-13.123c-0.058-8.749-0.049-17.502,0.029-26.26
					L1845.87,594.965z"/>
			</g>
			
				<path fill="#99FFCC" stroke="#40DD92" stroke-width="6" stroke-linecap="round" stroke-linejoin="round" stroke-miterlimit="10" d="
				M1880.449,578.925l-44.577,44.577c-19.924,19.924-52.528,19.924-72.452,0l-44.577-44.577c-19.924-19.924-19.924-52.528,0-72.452
				l44.577-44.577c19.924-19.924,52.528-19.924,72.452,0l44.577,44.577C1900.373,526.397,1900.373,559.001,1880.449,578.925z"/>
			
				<g>
					<circle fill="#FFFFFF" stroke="#40DD92" stroke-width="6" stroke-linecap="round" stroke-linejoin="round" stroke-miterlimit="10" cx="1799.646" cy="542.699" r="45.518"/>
				</g>
			
				<circle fill="#FFFFFF" stroke="#40DD92" stroke-width="6" stroke-linecap="round" stroke-linejoin="round" stroke-miterlimit="10" cx="1799.646" cy="469.948" r="10.662"/>
			<animate id="appearFollower1"
			 attributeName="opacity"
			 from="0" to="1" dur="0.01s"
			 begin="8s;jumpFollower1.end" />
			<animateTransform id="jumpFollower1"
			 attributeName="transform"
			 type="translate"
			 values="0,0; 0,-100; 0,0;"
			 dur="2.3s"
			 begin="appearFollower1.end" />
		</g>
	</g>
</g>
</svg>
