<?xml version="1.0" encoding="iso-8859-1"?>
<!-- Generator: Adobe Illustrator 17.0.0, SVG Export Plug-In . SVG Version: 6.00 Build 0)  -->
<!DOCTYPE svg PUBLIC "-//W3C//DTD SVG 1.1//EN" "http://www.w3.org/Graphics/SVG/1.1/DTD/svg11.dtd">
<svg version="1.1" xmlns="http://www.w3.org/2000/svg" xmlns:xlink="http://www.w3.org/1999/xlink" x="0px" y="0px"
	 width="544.378px" height="709.988px" viewBox="0 0 544.378 709.988" style="enable-background:new 0 0 544.378 709.988;"
	 xml:space="preserve">
<g id="Comments">
</g>
<g id="Human_touch">
</g>
<g id="Bees">
</g>
<g id="Creative">
</g>
<g id="Followers">
	<g>
		<g>
			<g>
				<path style="fill:#40DD92;" d="M5289.372-135.168l-0.292,12.077l-0.339,12.075l-0.713,24.147
					c-0.225,8.05-0.485,16.097-0.769,24.143c-0.284,8.046-0.521,16.095-0.854,24.138l-0.938,24.133
					c-0.318,8.044-0.514,16.095-0.73,24.146c-0.094,4.026-0.235,8.049-0.394,12.071l-0.298,6.029l-0.385,6.024
					c-0.265,4.016-0.626,8.025-0.976,12.035c-0.37,4.009-0.776,8.016-1.202,12.021l-0.044,0.409
					c-0.24,2.253-2.207,3.908-4.441,3.808c-7.742-0.365-15.484-0.83-23.226-1.471l-5.807-0.515
					c-1.936-0.158-3.871-0.374-5.807-0.576c-1.936-0.193-3.871-0.411-5.806-0.655c-1.936-0.227-3.871-0.488-5.807-0.776v-1
					c1.936-0.287,3.871-0.549,5.807-0.776c1.936-0.244,3.871-0.462,5.806-0.656c1.936-0.202,3.871-0.418,5.807-0.576l5.807-0.515
					c7.742-0.64,15.484-1.106,23.226-1.471l-4.484,4.217c0.068-4.028,0.157-8.054,0.282-12.078
					c0.145-4.023,0.278-8.046,0.509-12.064l0.357-6.026l0.445-6.02c0.336-4.011,0.689-8.021,1.09-12.028
					c0.773-8.016,1.567-16.031,2.238-24.053l2.03-24.066c0.657-8.023,1.409-16.041,2.115-24.061c0.706-8.02,1.436-16.039,2.2-24.055
					l2.256-24.052l1.146-12.025l1.192-12.022L5289.372-135.168z"/>
			</g>
			<g>
				<path style="fill:#40DD92;" d="M5457.719-135.23l1.192,12.022l1.146,12.025l2.256,24.052c0.765,8.017,1.495,16.035,2.2,24.055
					c0.706,8.02,1.458,16.037,2.115,24.061l2.03,24.066c0.672,8.022,1.466,16.037,2.239,24.053c0.401,4.007,0.754,8.017,1.09,12.028
					l0.445,6.02l0.357,6.026c0.23,4.018,0.364,8.041,0.509,12.064c0.125,4.024,0.214,8.051,0.282,12.078l-4.484-4.217
					c7.742,0.365,15.484,0.831,23.227,1.471l5.807,0.515c1.936,0.158,3.871,0.374,5.806,0.576c1.936,0.193,3.871,0.411,5.807,0.656
					c1.936,0.227,3.871,0.488,5.807,0.776v1c-1.936,0.287-3.871,0.549-5.807,0.776c-1.936,0.244-3.871,0.462-5.807,0.655
					c-1.936,0.202-3.871,0.418-5.806,0.576l-5.807,0.515c-7.742,0.64-15.484,1.106-23.227,1.471
					c-2.264,0.107-4.198-1.572-4.439-3.795l-0.045-0.422c-0.426-4.006-0.832-8.012-1.202-12.021c-0.35-4.01-0.711-8.02-0.976-12.035
					l-0.385-6.024l-0.297-6.029c-0.159-4.022-0.3-8.045-0.394-12.071c-0.216-8.05-0.412-16.102-0.73-24.146l-0.938-24.133
					c-0.333-8.043-0.57-16.092-0.854-24.138c-0.284-8.046-0.543-16.094-0.769-24.143l-0.713-24.147l-0.339-12.075l-0.292-12.077
					L5457.719-135.23z"/>
			</g>
			<path style="fill:#99FFCC;stroke:#40DD92;stroke-width:6;stroke-linecap:round;stroke-linejoin:round;stroke-miterlimit:10;" d="
				M5529.506-172.464l-97.444,97.444c-32.501,32.502-85.686,32.502-118.188,0l-97.443-97.444
				c-32.502-32.502-32.502-85.686,0-118.188l97.443-97.444c32.502-32.502,85.687-32.502,118.188,0l97.444,97.444
				C5562.008-258.15,5562.008-204.965,5529.506-172.464z"/>
			
				<circle style="fill:#FFFFFF;stroke:#40DD92;stroke-width:6;stroke-linecap:round;stroke-linejoin:round;stroke-miterlimit:10;" cx="5372.969" cy="-231.557" r="83.87"/>
			
				<circle style="fill:#FFFFFF;stroke:#40DD92;stroke-width:6;stroke-linecap:round;stroke-linejoin:round;stroke-miterlimit:10;" cx="5372.969" cy="-365.605" r="19.646"/>
			<path style="fill:#99FFCC;stroke:#40DD92;stroke-width:6;stroke-linecap:round;stroke-linejoin:round;stroke-miterlimit:10;" d="
				M5635.988-432.386c-0.003-4.758-1.807-9.52-5.417-13.13c-7.221-7.221-19.04-7.221-26.26,0l-51.916,51.916l-68.428-68.427
				l51.916-51.916c3.61-3.61,5.417-8.369,5.417-13.13c-0.003-4.758-1.807-9.52-5.417-13.13c-7.221-7.221-19.04-7.221-26.26,0
				l-51.916,51.916l-58.467-58.467l51.916-51.916c3.61-3.61,5.414-8.372,5.417-13.13c-0.003-4.758-1.807-9.52-5.417-13.13
				c-7.221-7.221-19.039-7.221-26.26,0l-51.926,51.926l-51.929-51.929c-3.61-3.61-8.372-5.414-13.13-5.417
				c-4.761,0-9.52,1.807-13.13,5.417c-7.221,7.221-7.221,19.039,0,26.26l51.919,51.919l-63.444,63.444l-51.919-51.919
				c-3.61-3.61-8.372-5.414-13.13-5.417c-4.762,0-9.52,1.807-13.13,5.417c-7.221,7.221-7.217,19.036,0.003,26.257L5257-457.054
				l-63.458,63.457l-51.919-51.919c-3.61-3.61-8.368-5.417-13.13-5.417c-4.758-0.003-9.516,1.803-13.126,5.414
				c-7.221,7.221-7.221,19.039,0,26.26l65.069,65.07c0.157,0.157,0.318,0.311,0.482,0.461c0.341,0.321,0.693,0.625,1.059,0.915
				c0.099,0.079,0.195,0.154,0.294,0.232c0.103,0.075,0.205,0.157,0.311,0.229c0.071,0.058,0.15,0.109,0.225,0.164
				c0.089,0.061,0.181,0.126,0.27,0.188c0.195,0.133,0.386,0.263,0.587,0.383c0.099,0.065,0.202,0.126,0.304,0.188
				c0.16,0.099,0.324,0.195,0.492,0.287c0.021,0.014,0.041,0.027,0.062,0.034c0.103,0.061,0.205,0.116,0.311,0.167
				c0.164,0.089,0.328,0.178,0.495,0.256c0.543,0.263,1.096,0.502,1.66,0.717l0.003,0.003c0.42,0.154,0.851,0.297,1.277,0.424
				c0.003,0.003,0.003,0.003,0.003,0.003c0.287,0.082,0.577,0.161,0.864,0.229l0.003,0.003c0.208,0.051,0.413,0.099,0.625,0.14
				c0.229,0.051,0.461,0.092,0.69,0.13c0.297,0.044,0.587,0.089,0.885,0.126c0.144,0.021,0.293,0.034,0.447,0.051
				c0.297,0.024,0.591,0.044,0.885,0.058c0.147,0.01,0.297,0.017,0.451,0.02c0.167,0.003,0.335,0.007,0.502,0.003
				c0.502-0.003,1-0.024,1.506-0.065c0.331-0.031,0.666-0.065,0.997-0.109l1.428-0.253c0.003-0.003,0.003-0.003,0.003-0.003
				c0.219-0.048,0.434-0.099,0.653-0.154c0.488-0.126,0.973-0.27,1.452-0.434c0.16-0.051,0.317-0.113,0.478-0.171l0.003-0.003
				c0.28-0.109,0.557-0.222,0.833-0.335l0.003-0.003c0.276-0.12,0.55-0.249,0.823-0.379l0.003-0.003
				c0.543-0.27,1.076-0.564,1.595-0.885c0,0,0.007,0,0.007-0.007c0.256-0.161,0.512-0.328,0.765-0.499
				c0.003-0.003,0.003-0.003,0.007-0.007c0.249-0.174,0.495-0.359,0.741-0.543l1.772-1.561l166.274-166.274l166.274,166.274
				c0.14,0.14,0.284,0.277,0.424,0.41c0.143,0.137,0.29,0.27,0.437,0.396c0.103,0.089,0.202,0.181,0.308,0.266
				c0.031,0.024,0.062,0.055,0.095,0.082c0.195,0.161,0.393,0.318,0.591,0.468c0.215,0.167,0.434,0.325,0.656,0.478
				c0.218,0.15,0.44,0.297,0.663,0.437c0.338,0.215,0.676,0.417,1.021,0.605c0.342,0.191,0.694,0.365,1.049,0.529
				c0.157,0.075,0.314,0.144,0.475,0.215c0,0,0,0,0.007,0c0.144,0.061,0.284,0.12,0.424,0.178c0.998,0.396,2.019,0.707,3.057,0.932
				c0.574,0.123,1.147,0.219,1.731,0.29c0.581,0.061,1.158,0.106,1.739,0.12c0.386,0.01,0.775,0.01,1.168-0.007
				c0.485-0.021,0.97-0.055,1.452-0.113c0.481-0.058,0.966-0.133,1.441-0.225c0.574-0.109,1.144-0.249,1.708-0.417
				c0.332-0.099,0.667-0.208,0.994-0.325c0.328-0.116,0.652-0.242,0.977-0.383c0.321-0.137,0.639-0.283,0.957-0.437
				c0.205-0.103,0.41-0.205,0.608-0.314c0.161-0.085,0.317-0.174,0.475-0.263c0.079-0.044,0.161-0.092,0.236-0.14
				c0.133-0.079,0.259-0.157,0.389-0.239c0.195-0.119,0.383-0.246,0.574-0.376c0.154-0.106,0.308-0.219,0.458-0.328
				c0.007,0,0.01-0.003,0.01-0.01c0.126-0.092,0.252-0.184,0.375-0.28c0.202-0.154,0.4-0.311,0.591-0.475
				c0.106-0.085,0.205-0.178,0.308-0.266c0.147-0.126,0.294-0.26,0.438-0.396c0.14-0.133,0.283-0.27,0.423-0.41l65.07-65.07
				C5634.182-422.866,5635.985-427.628,5635.988-432.386z"/>
		</g>
		<g>
			<g>
				<path style="fill:#40DD92;" d="M5764.287-47.007c0.031,4.378,0.073,8.757,0.063,13.133l-0.035,13.127
					c-0.013,4.375-0.05,8.75-0.105,13.122c-0.058,4.373-0.068,8.749-0.175,13.118l-0.26,13.113
					c-0.092,4.371-0.061,8.749-0.051,13.126c0.02,2.189-0.011,4.375-0.053,6.561c-0.055,2.185-0.172,4.366-0.335,6.544
					c-0.16,2.178-0.384,4.353-0.646,6.525c-0.257,2.172-0.549,4.343-0.863,6.511l-0.108,0.746c-0.31,2.142-2.248,3.65-4.376,3.47
					c-4.202-0.364-8.404-0.833-12.605-1.468c-2.101-0.319-4.202-0.676-6.303-1.081c-1.05-0.204-2.101-0.427-3.151-0.668
					c-1.05-0.227-2.101-0.488-3.151-0.776v-1c1.05-0.287,2.101-0.549,3.151-0.776c1.05-0.242,2.101-0.464,3.151-0.668
					c2.101-0.405,4.202-0.761,6.303-1.081c4.202-0.635,8.404-1.104,12.605-1.469l-4.484,4.217c-0.045-2.191-0.069-4.381-0.057-6.568
					c0.007-2.188,0.051-4.373,0.16-6.554c0.104-2.182,0.256-4.361,0.47-6.536c0.226-2.174,0.464-4.348,0.752-6.518
					c0.546-4.343,1.114-8.684,1.56-13.033l1.352-13.046c0.43-4.35,0.957-8.694,1.436-13.041c0.482-4.347,0.982-8.692,1.506-13.036
					l1.577-13.032c0.528-4.344,1.106-8.685,1.674-13.026L5764.287-47.007z"/>
			</g>
			<g>
				<path style="fill:#40DD92;" d="M5855.653-47.069c0.568,4.341,1.146,8.682,1.675,13.026l1.577,13.032
					c0.524,4.344,1.023,8.69,1.506,13.036c0.479,4.347,1.006,8.691,1.436,13.041l1.352,13.046c0.445,4.349,1.013,8.69,1.56,13.033
					c0.288,2.17,0.526,4.344,0.752,6.518c0.214,2.175,0.366,4.354,0.47,6.536c0.109,2.181,0.153,4.367,0.16,6.554
					c0.012,2.188-0.012,4.377-0.057,6.568l-4.484-4.217c4.202,0.364,8.404,0.833,12.605,1.469c2.101,0.319,4.202,0.675,6.303,1.081
					c1.05,0.204,2.101,0.427,3.151,0.668c1.05,0.227,2.101,0.488,3.151,0.776v1c-1.05,0.287-2.101,0.549-3.151,0.776
					c-1.05,0.241-2.101,0.464-3.151,0.668c-2.101,0.405-4.202,0.761-6.303,1.081c-4.202,0.635-8.403,1.104-12.605,1.468
					c-2.156,0.187-4.065-1.344-4.375-3.458l-0.109-0.758c-0.313-2.169-0.606-4.339-0.863-6.511
					c-0.262-2.172-0.486-4.346-0.646-6.525c-0.164-2.178-0.281-4.359-0.335-6.544c-0.042-2.186-0.073-4.372-0.053-6.561
					c0.01-4.377,0.041-8.755-0.051-13.126l-0.26-13.113c-0.107-4.37-0.118-8.746-0.175-13.118
					c-0.055-4.373-0.092-8.747-0.105-13.122l-0.035-13.127c-0.009-4.376,0.033-8.755,0.063-13.133L5855.653-47.069z"/>
			</g>
			<path style="fill:#99FFCC;stroke:#40DD92;stroke-width:6;stroke-linecap:round;stroke-linejoin:round;stroke-miterlimit:10;" d="
				M5896.34-69.217l-56.793,56.793c-16.565,16.565-43.671,16.565-60.235,0l-56.793-56.793c-16.565-16.565-16.565-43.671,0-60.235
				l56.793-56.793c16.564-16.565,43.67-16.565,60.235,0l56.793,56.793C5912.905-112.887,5912.905-85.782,5896.34-69.217z"/>
			
				<circle style="fill:#FFFFFF;stroke:#40DD92;stroke-width:6;stroke-linecap:round;stroke-linejoin:round;stroke-miterlimit:10;" cx="5809.429" cy="-99.335" r="45.518"/>
			
				<circle style="fill:#FFFFFF;stroke:#40DD92;stroke-width:6;stroke-linecap:round;stroke-linejoin:round;stroke-miterlimit:10;" cx="5809.429" cy="-172.086" r="10.662"/>
		</g>
		<g>
			<g>
				<path style="fill:#40DD92;" d="M6074.437-47.007c0.031,4.378,0.073,8.757,0.063,13.133l-0.035,13.127
					c-0.013,4.375-0.05,8.75-0.105,13.122c-0.058,4.373-0.068,8.749-0.175,13.118l-0.26,13.113
					c-0.092,4.371-0.061,8.749-0.051,13.126c0.02,2.189-0.011,4.375-0.053,6.561c-0.055,2.185-0.172,4.366-0.335,6.544
					c-0.16,2.178-0.384,4.353-0.646,6.525c-0.257,2.172-0.549,4.343-0.863,6.511l-0.108,0.746c-0.31,2.142-2.248,3.65-4.376,3.47
					c-4.202-0.364-8.404-0.833-12.605-1.468c-2.101-0.319-4.202-0.676-6.303-1.081c-1.051-0.204-2.101-0.427-3.151-0.668
					c-1.051-0.227-2.101-0.488-3.151-0.776v-1c1.05-0.287,2.101-0.549,3.151-0.776c1.05-0.242,2.101-0.464,3.151-0.668
					c2.101-0.405,4.202-0.761,6.303-1.081c4.202-0.635,8.403-1.104,12.605-1.469l-4.484,4.217c-0.045-2.191-0.069-4.381-0.057-6.568
					c0.006-2.188,0.051-4.373,0.16-6.554c0.104-2.182,0.256-4.361,0.47-6.536c0.227-2.174,0.464-4.348,0.753-6.518
					c0.546-4.343,1.114-8.684,1.56-13.033l1.352-13.046c0.43-4.35,0.957-8.694,1.436-13.041c0.483-4.347,0.982-8.692,1.506-13.036
					l1.577-13.032c0.528-4.344,1.107-8.685,1.675-13.026L6074.437-47.007z"/>
			</g>
			<g>
				<path style="fill:#40DD92;" d="M6165.803-47.069c0.568,4.341,1.146,8.682,1.674,13.026l1.577,13.032
					c0.524,4.344,1.024,8.69,1.506,13.036c0.479,4.347,1.006,8.691,1.436,13.041l1.351,13.046c0.446,4.349,1.013,8.69,1.56,13.033
					c0.288,2.17,0.526,4.344,0.752,6.518c0.214,2.175,0.365,4.354,0.47,6.536c0.109,2.181,0.153,4.367,0.16,6.554
					c0.012,2.188-0.012,4.377-0.057,6.568l-4.484-4.217c4.202,0.364,8.404,0.833,12.605,1.469c2.101,0.319,4.202,0.675,6.303,1.081
					c1.05,0.204,2.101,0.427,3.151,0.668c1.05,0.227,2.101,0.488,3.151,0.776v1c-1.05,0.287-2.101,0.549-3.151,0.776
					c-1.05,0.241-2.101,0.464-3.151,0.668c-2.101,0.405-4.202,0.761-6.303,1.081c-4.202,0.635-8.404,1.104-12.605,1.468
					c-2.156,0.187-4.065-1.344-4.375-3.458l-0.109-0.758c-0.313-2.169-0.606-4.339-0.863-6.511
					c-0.262-2.172-0.486-4.346-0.646-6.525c-0.164-2.178-0.281-4.359-0.335-6.544c-0.042-2.186-0.073-4.372-0.053-6.561
					c0.01-4.377,0.04-8.755-0.051-13.126l-0.26-13.113c-0.107-4.37-0.118-8.746-0.176-13.118c-0.054-4.373-0.092-8.747-0.104-13.122
					l-0.035-13.127c-0.009-4.376,0.033-8.755,0.063-13.133L6165.803-47.069z"/>
			</g>
			<path style="fill:#99FFCC;stroke:#40DD92;stroke-width:6;stroke-linecap:round;stroke-linejoin:round;stroke-miterlimit:10;" d="
				M6205.069-67.796l-53.952,53.952c-17.346,17.346-45.73,17.346-63.077,0l-53.952-53.952c-17.346-17.346-17.346-45.731,0-63.077
				l53.952-53.952c17.346-17.346,45.73-17.346,63.077,0l53.952,53.952C6222.415-113.527,6222.415-85.142,6205.069-67.796z"/>
			
				<circle style="fill:#FFFFFF;stroke:#40DD92;stroke-width:6;stroke-linecap:round;stroke-linejoin:round;stroke-miterlimit:10;" cx="6119.578" cy="-99.335" r="45.518"/>
			
				<circle style="fill:#FFFFFF;stroke:#40DD92;stroke-width:6;stroke-linecap:round;stroke-linejoin:round;stroke-miterlimit:10;" cx="6119.578" cy="-172.086" r="10.662"/>
		</g>
		<g>
			<g>
				<path style="fill:#40DD92;" d="M6384.586-47.007c0.031,4.378,0.072,8.757,0.063,13.133l-0.035,13.127
					c-0.013,4.375-0.05,8.75-0.105,13.122c-0.058,4.373-0.069,8.749-0.175,13.118l-0.26,13.113
					c-0.091,4.371-0.061,8.749-0.051,13.126c0.02,2.189-0.01,4.375-0.053,6.561c-0.055,2.185-0.172,4.366-0.336,6.544
					c-0.16,2.178-0.383,4.353-0.645,6.525c-0.257,2.172-0.549,4.343-0.863,6.511l-0.108,0.746c-0.31,2.142-2.248,3.65-4.377,3.47
					c-4.202-0.364-8.403-0.833-12.605-1.468c-2.101-0.319-4.202-0.676-6.303-1.081c-1.05-0.204-2.101-0.427-3.151-0.668
					c-1.05-0.227-2.101-0.488-3.151-0.776v-1c1.05-0.287,2.101-0.549,3.151-0.776c1.051-0.242,2.101-0.464,3.151-0.668
					c2.101-0.405,4.202-0.761,6.303-1.081c4.202-0.635,8.404-1.104,12.605-1.469l-4.484,4.217c-0.045-2.191-0.069-4.381-0.058-6.568
					c0.007-2.188,0.052-4.373,0.161-6.554c0.104-2.182,0.256-4.361,0.47-6.536c0.226-2.174,0.464-4.348,0.752-6.518
					c0.547-4.343,1.115-8.684,1.56-13.033l1.352-13.046c0.43-4.35,0.956-8.694,1.436-13.041c0.482-4.347,0.982-8.692,1.506-13.036
					l1.577-13.032c0.528-4.344,1.107-8.685,1.675-13.026L6384.586-47.007z"/>
			</g>
			<g>
				<path style="fill:#40DD92;" d="M6475.952-47.069c0.568,4.341,1.147,8.682,1.675,13.026l1.577,13.032
					c0.524,4.344,1.024,8.69,1.506,13.036c0.479,4.347,1.005,8.691,1.436,13.041l1.351,13.046c0.446,4.349,1.013,8.69,1.56,13.033
					c0.288,2.17,0.526,4.344,0.752,6.518c0.214,2.175,0.365,4.354,0.47,6.536c0.109,2.181,0.154,4.367,0.161,6.554
					c0.012,2.188-0.012,4.377-0.057,6.568l-4.484-4.217c4.202,0.364,8.403,0.833,12.605,1.469c2.101,0.319,4.202,0.675,6.303,1.081
					c1.05,0.204,2.101,0.427,3.151,0.668c1.05,0.227,2.101,0.488,3.151,0.776v1c-1.051,0.287-2.101,0.549-3.151,0.776
					c-1.051,0.241-2.101,0.464-3.151,0.668c-2.101,0.405-4.202,0.761-6.303,1.081c-4.202,0.635-8.404,1.104-12.605,1.468
					c-2.156,0.187-4.065-1.344-4.375-3.458l-0.109-0.758c-0.313-2.169-0.606-4.339-0.863-6.511
					c-0.262-2.172-0.486-4.346-0.646-6.525c-0.164-2.178-0.281-4.359-0.336-6.544c-0.042-2.186-0.072-4.372-0.053-6.561
					c0.01-4.377,0.04-8.755-0.051-13.126l-0.26-13.113c-0.106-4.37-0.118-8.746-0.175-13.118c-0.055-4.373-0.092-8.747-0.105-13.122
					l-0.034-13.127c-0.009-4.376,0.032-8.755,0.063-13.133L6475.952-47.069z"/>
			</g>
			<path style="fill:#99FFCC;stroke:#40DD92;stroke-width:6;stroke-linecap:round;stroke-linejoin:round;stroke-miterlimit:10;" d="
				M6512.458-65.037l-48.433,48.433c-18.864,18.864-49.732,18.864-68.596,0l-48.433-48.433c-18.864-18.864-18.864-49.732,0-68.596
				l48.433-48.433c18.864-18.864,49.732-18.864,68.596,0l48.433,48.433C6531.322-114.769,6531.322-83.9,6512.458-65.037z"/>
			
				<circle style="fill:#FFFFFF;stroke:#40DD92;stroke-width:6;stroke-linecap:round;stroke-linejoin:round;stroke-miterlimit:10;" cx="6429.728" cy="-99.335" r="45.518"/>
			
				<circle style="fill:#FFFFFF;stroke:#40DD92;stroke-width:6;stroke-linecap:round;stroke-linejoin:round;stroke-miterlimit:10;" cx="6429.728" cy="-172.086" r="10.662"/>
		</g>
		<g>
			<g>
				<path style="fill:#40DD92;" d="M6694.735-47.007c0.031,4.378,0.072,8.757,0.063,13.133l-0.034,13.127
					c-0.013,4.375-0.051,8.75-0.105,13.122c-0.058,4.373-0.069,8.749-0.175,13.118l-0.26,13.113
					c-0.091,4.371-0.061,8.749-0.051,13.126c0.02,2.189-0.011,4.375-0.053,6.561c-0.054,2.185-0.171,4.366-0.335,6.544
					c-0.16,2.178-0.383,4.353-0.646,6.525c-0.256,2.172-0.549,4.343-0.863,6.511l-0.108,0.746c-0.31,2.142-2.248,3.65-4.376,3.47
					c-4.202-0.364-8.403-0.833-12.605-1.468c-2.101-0.319-4.202-0.676-6.303-1.081c-1.05-0.204-2.101-0.427-3.151-0.668
					c-1.05-0.227-2.101-0.488-3.151-0.776v-1c1.051-0.287,2.101-0.549,3.151-0.776c1.051-0.242,2.101-0.464,3.151-0.668
					c2.101-0.405,4.202-0.761,6.303-1.081c4.202-0.635,8.404-1.104,12.605-1.469l-4.484,4.217c-0.045-2.191-0.069-4.381-0.057-6.568
					c0.007-2.188,0.052-4.373,0.16-6.554c0.105-2.182,0.256-4.361,0.47-6.536c0.226-2.174,0.464-4.348,0.752-6.518
					c0.547-4.343,1.114-8.684,1.56-13.033l1.351-13.046c0.431-4.35,0.957-8.694,1.436-13.041c0.482-4.347,0.982-8.692,1.506-13.036
					l1.577-13.032c0.528-4.344,1.107-8.685,1.674-13.026L6694.735-47.007z"/>
			</g>
			<g>
				<path style="fill:#40DD92;" d="M6786.101-47.069c0.568,4.341,1.147,8.682,1.675,13.026l1.577,13.032
					c0.524,4.344,1.024,8.69,1.506,13.036c0.479,4.347,1.005,8.691,1.436,13.041l1.352,13.046c0.445,4.349,1.013,8.69,1.56,13.033
					c0.288,2.17,0.526,4.344,0.752,6.518c0.214,2.175,0.365,4.354,0.47,6.536c0.109,2.181,0.154,4.367,0.16,6.554
					c0.012,2.188-0.012,4.377-0.057,6.568l-4.484-4.217c4.202,0.364,8.403,0.833,12.605,1.469c2.101,0.319,4.202,0.675,6.302,1.081
					c1.051,0.204,2.101,0.427,3.151,0.668c1.051,0.227,2.101,0.488,3.151,0.776v1c-1.05,0.287-2.101,0.549-3.151,0.776
					c-1.05,0.241-2.101,0.464-3.151,0.668c-2.101,0.405-4.202,0.761-6.302,1.081c-4.202,0.635-8.404,1.104-12.605,1.468
					c-2.156,0.187-4.065-1.344-4.375-3.458l-0.11-0.758c-0.313-2.169-0.606-4.339-0.863-6.511c-0.262-2.172-0.485-4.346-0.645-6.525
					c-0.164-2.178-0.281-4.359-0.336-6.544c-0.042-2.186-0.073-4.372-0.053-6.561c0.009-4.377,0.04-8.755-0.052-13.126l-0.26-13.113
					c-0.107-4.37-0.118-8.746-0.175-13.118c-0.055-4.373-0.092-8.747-0.105-13.122l-0.035-13.127
					c-0.009-4.376,0.033-8.755,0.063-13.133L6786.101-47.069z"/>
			</g>
			<path style="fill:#99FFCC;stroke:#40DD92;stroke-width:6;stroke-linecap:round;stroke-linejoin:round;stroke-miterlimit:10;" d="
				M6821.796-64.225l-46.81,46.81c-19.31,19.31-50.909,19.31-70.219,0l-46.81-46.81c-19.31-19.31-19.31-50.909,0-70.219l46.81-46.81
				c19.31-19.31,50.909-19.31,70.219,0l46.81,46.81C6841.106-115.134,6841.106-83.535,6821.796-64.225z"/>
			
				<circle style="fill:#FFFFFF;stroke:#40DD92;stroke-width:6;stroke-linecap:round;stroke-linejoin:round;stroke-miterlimit:10;" cx="6739.877" cy="-99.335" r="45.518"/>
			
				<circle style="fill:#FFFFFF;stroke:#40DD92;stroke-width:6;stroke-linecap:round;stroke-linejoin:round;stroke-miterlimit:10;" cx="6739.877" cy="-172.086" r="10.662"/>
		</g>
		<g>
			<g>
				<path style="fill:#40DD92;" d="M7004.884-47.007c0.031,4.378,0.073,8.757,0.063,13.133l-0.035,13.127
					c-0.013,4.375-0.05,8.75-0.104,13.122c-0.058,4.373-0.069,8.749-0.176,13.118l-0.26,13.113
					c-0.091,4.371-0.061,8.749-0.051,13.126c0.02,2.189-0.011,4.375-0.053,6.561c-0.055,2.185-0.172,4.366-0.335,6.544
					c-0.16,2.178-0.384,4.353-0.646,6.525c-0.257,2.172-0.549,4.343-0.863,6.511l-0.108,0.746c-0.31,2.142-2.248,3.65-4.376,3.47
					c-4.202-0.364-8.404-0.833-12.605-1.468c-2.101-0.319-4.202-0.676-6.303-1.081c-1.05-0.204-2.101-0.427-3.151-0.668
					c-1.05-0.227-2.101-0.488-3.151-0.776v-1c1.05-0.287,2.101-0.549,3.151-0.776c1.05-0.242,2.101-0.464,3.151-0.668
					c2.101-0.405,4.202-0.761,6.303-1.081c4.202-0.635,8.404-1.104,12.605-1.469l-4.484,4.217c-0.045-2.191-0.069-4.381-0.057-6.568
					c0.007-2.188,0.051-4.373,0.16-6.554c0.105-2.182,0.256-4.361,0.47-6.536c0.226-2.174,0.464-4.348,0.752-6.518
					c0.547-4.343,1.114-8.684,1.56-13.033l1.351-13.046c0.43-4.35,0.957-8.694,1.436-13.041c0.482-4.347,0.982-8.692,1.506-13.036
					l1.577-13.032c0.528-4.344,1.106-8.685,1.674-13.026L7004.884-47.007z"/>
			</g>
			<g>
				<path style="fill:#40DD92;" d="M7096.25-47.069c0.568,4.341,1.147,8.682,1.675,13.026l1.577,13.032
					c0.524,4.344,1.023,8.69,1.506,13.036c0.479,4.347,1.005,8.691,1.436,13.041l1.352,13.046c0.445,4.349,1.013,8.69,1.56,13.033
					c0.289,2.17,0.526,4.344,0.753,6.518c0.214,2.175,0.365,4.354,0.47,6.536c0.109,2.181,0.154,4.367,0.16,6.554
					c0.012,2.188-0.012,4.377-0.057,6.568l-4.484-4.217c4.202,0.364,8.404,0.833,12.605,1.469c2.101,0.319,4.202,0.675,6.303,1.081
					c1.051,0.204,2.101,0.427,3.151,0.668c1.051,0.227,2.101,0.488,3.151,0.776v1c-1.05,0.287-2.101,0.549-3.151,0.776
					c-1.05,0.241-2.101,0.464-3.151,0.668c-2.101,0.405-4.202,0.761-6.303,1.081c-4.202,0.635-8.403,1.104-12.605,1.468
					c-2.156,0.187-4.065-1.344-4.375-3.458l-0.109-0.758c-0.313-2.169-0.606-4.339-0.863-6.511
					c-0.262-2.172-0.486-4.346-0.646-6.525c-0.164-2.178-0.281-4.359-0.335-6.544c-0.042-2.186-0.073-4.372-0.053-6.561
					c0.01-4.377,0.041-8.755-0.051-13.126l-0.26-13.113c-0.107-4.37-0.118-8.746-0.175-13.118
					c-0.055-4.373-0.092-8.747-0.105-13.122l-0.035-13.127c-0.009-4.376,0.033-8.755,0.063-13.133L7096.25-47.069z"/>
			</g>
			<path style="fill:#99FFCC;stroke:#40DD92;stroke-width:6;stroke-linecap:round;stroke-linejoin:round;stroke-miterlimit:10;" d="
				M7130.829-63.109l-44.577,44.577c-19.924,19.924-52.528,19.924-72.452,0l-44.577-44.577c-19.924-19.924-19.924-52.528,0-72.452
				l44.577-44.577c19.924-19.924,52.528-19.924,72.452,0l44.577,44.577C7150.753-115.636,7150.753-83.033,7130.829-63.109z"/>
			
				<circle style="fill:#FFFFFF;stroke:#40DD92;stroke-width:6;stroke-linecap:round;stroke-linejoin:round;stroke-miterlimit:10;" cx="7050.026" cy="-99.335" r="45.518"/>
			
				<circle style="fill:#FFFFFF;stroke:#40DD92;stroke-width:6;stroke-linecap:round;stroke-linejoin:round;stroke-miterlimit:10;" cx="7050.026" cy="-172.086" r="10.662"/>
		</g>
	</g>
	<g>
		<g>
			<path style="fill:#40DD92;" d="M189.421,505.183l-0.292,12.077l-0.339,12.074l-0.713,24.147
				c-0.225,8.05-0.485,16.097-0.769,24.144s-0.521,16.095-0.854,24.138l-0.939,24.133c-0.317,8.044-0.513,16.096-0.73,24.146
				c-0.094,4.026-0.235,8.049-0.394,12.071l-0.297,6.029l-0.385,6.024c-0.264,4.016-0.626,8.025-0.976,12.035
				c-0.37,4.009-0.775,8.016-1.202,12.021l-0.043,0.409c-0.24,2.253-2.207,3.908-4.441,3.808
				c-7.742-0.365-15.484-0.831-23.226-1.471l-5.807-0.515c-1.936-0.158-3.871-0.374-5.807-0.576
				c-1.936-0.193-3.871-0.411-5.807-0.656c-1.936-0.227-3.871-0.488-5.807-0.776v-1c1.936-0.287,3.871-0.549,5.807-0.776
				c1.936-0.245,3.871-0.462,5.807-0.656c1.936-0.202,3.871-0.418,5.807-0.576l5.807-0.515c7.742-0.64,15.484-1.106,23.226-1.471
				l-4.484,4.217c0.068-4.028,0.157-8.054,0.282-12.078c0.146-4.023,0.278-8.047,0.509-12.064l0.357-6.026l0.445-6.02
				c0.336-4.011,0.69-8.021,1.09-12.028c0.773-8.016,1.567-16.031,2.239-24.053l2.03-24.066c0.656-8.023,1.409-16.041,2.114-24.061
				c0.706-8.02,1.436-16.039,2.2-24.055l2.256-24.052l1.146-12.025l1.192-12.022L189.421,505.183z"/>
		</g>
		<g>
			<path style="fill:#40DD92;" d="M357.769,505.122l1.192,12.022l1.145,12.025l2.256,24.052c0.765,8.016,1.494,16.035,2.2,24.055
				c0.706,8.02,1.458,16.037,2.114,24.061l2.03,24.066c0.672,8.022,1.466,16.037,2.239,24.053c0.4,4.007,0.754,8.017,1.09,12.028
				l0.445,6.02l0.357,6.026c0.23,4.018,0.363,8.041,0.509,12.064c0.125,4.024,0.214,8.05,0.282,12.078l-4.484-4.217
				c7.742,0.365,15.484,0.831,23.226,1.471l5.807,0.515c1.936,0.158,3.871,0.374,5.807,0.576c1.936,0.193,3.871,0.411,5.807,0.656
				c1.936,0.227,3.871,0.488,5.807,0.776v1c-1.936,0.287-3.871,0.549-5.807,0.776c-1.936,0.245-3.871,0.462-5.807,0.656
				c-1.936,0.202-3.871,0.418-5.807,0.576l-5.807,0.515c-7.742,0.64-15.484,1.106-23.226,1.471
				c-2.264,0.107-4.198-1.572-4.439-3.795l-0.045-0.422c-0.427-4.005-0.833-8.012-1.202-12.021c-0.35-4.01-0.711-8.02-0.976-12.035
				l-0.385-6.024l-0.297-6.029c-0.159-4.022-0.3-8.045-0.394-12.071c-0.217-8.05-0.413-16.102-0.73-24.146l-0.938-24.133
				c-0.333-8.043-0.57-16.092-0.854-24.138s-0.544-16.094-0.769-24.144l-0.712-24.147l-0.339-12.074l-0.292-12.077L357.769,505.122z
				"/>
		</g>
		<path style="fill:#99FFCC;stroke:#40DD92;stroke-width:6;stroke-linecap:round;stroke-linejoin:round;stroke-miterlimit:10;" d="
			M429.556,467.888l-97.444,97.444c-32.502,32.502-85.686,32.502-118.188,0l-97.444-97.444c-32.502-32.502-32.502-85.686,0-118.188
			l97.444-97.444c32.502-32.502,85.686-32.502,118.188,0l97.444,97.444C462.057,382.202,462.057,435.386,429.556,467.888z"/>
		
			<circle style="fill:#FFFFFF;stroke:#40DD92;stroke-width:6;stroke-linecap:round;stroke-linejoin:round;stroke-miterlimit:10;" cx="273.018" cy="408.794" r="83.87"/>
		
			<circle style="fill:#FFFFFF;stroke:#40DD92;stroke-width:6;stroke-linecap:round;stroke-linejoin:round;stroke-miterlimit:10;" cx="273.018" cy="274.746" r="19.646"/>
		<path style="fill:#99FFCC;stroke:#40DD92;stroke-width:6;stroke-linecap:round;stroke-linejoin:round;stroke-miterlimit:10;" d="
			M536.038,207.966c-0.003-4.758-1.807-9.52-5.417-13.13c-7.221-7.221-19.039-7.221-26.26,0l-51.916,51.916l-68.427-68.427
			l51.916-51.916c3.61-3.61,5.417-8.369,5.417-13.13c-0.003-4.758-1.807-9.52-5.417-13.13c-7.221-7.221-19.039-7.221-26.26,0
			l-51.916,51.916L299.29,93.597l51.916-51.916c3.61-3.61,5.414-8.372,5.417-13.13c-0.003-4.758-1.807-9.52-5.417-13.13
			c-7.221-7.221-19.039-7.221-26.26,0L273.02,67.347L221.09,15.417c-3.61-3.61-8.372-5.414-13.13-5.417
			c-4.762,0-9.52,1.807-13.13,5.417c-7.221,7.221-7.221,19.039,0,26.26l51.919,51.919l-63.444,63.444l-51.919-51.919
			c-3.61-3.61-8.372-5.414-13.13-5.417c-4.762,0-9.52,1.807-13.13,5.417c-7.221,7.221-7.217,19.036,0.003,26.257l51.919,51.919
			l-63.457,63.457l-51.919-51.919c-3.61-3.61-8.369-5.417-13.13-5.417c-4.758-0.003-9.516,1.803-13.127,5.414
			c-7.221,7.221-7.221,19.039,0,26.26l65.07,65.07c0.157,0.157,0.318,0.311,0.482,0.461c0.342,0.321,0.693,0.625,1.059,0.915
			c0.099,0.079,0.195,0.154,0.294,0.232c0.102,0.075,0.205,0.157,0.311,0.229c0.072,0.058,0.15,0.109,0.225,0.164
			c0.089,0.061,0.181,0.126,0.27,0.188c0.195,0.133,0.386,0.263,0.587,0.383c0.099,0.065,0.202,0.126,0.304,0.188
			c0.161,0.099,0.324,0.195,0.492,0.287c0.021,0.014,0.041,0.027,0.061,0.034c0.102,0.061,0.205,0.116,0.311,0.167
			c0.164,0.089,0.328,0.178,0.495,0.256c0.543,0.263,1.096,0.502,1.66,0.717l0.003,0.003c0.42,0.154,0.851,0.297,1.277,0.424
			c0.003,0.003,0.003,0.003,0.003,0.003c0.287,0.082,0.577,0.161,0.864,0.229l0.003,0.003c0.208,0.051,0.413,0.099,0.625,0.14
			c0.229,0.051,0.461,0.092,0.69,0.13c0.297,0.044,0.587,0.089,0.885,0.126c0.143,0.02,0.294,0.034,0.447,0.051
			c0.297,0.024,0.591,0.044,0.885,0.058c0.147,0.01,0.297,0.017,0.451,0.02c0.167,0.003,0.335,0.007,0.502,0.003
			c0.502-0.003,1.001-0.024,1.506-0.065c0.331-0.031,0.666-0.065,0.997-0.109l1.428-0.253c0.003-0.003,0.003-0.003,0.003-0.003
			c0.219-0.048,0.434-0.099,0.652-0.154c0.488-0.126,0.973-0.27,1.452-0.434c0.161-0.051,0.318-0.113,0.478-0.171l0.003-0.003
			c0.28-0.109,0.557-0.222,0.833-0.335l0.003-0.003c0.277-0.12,0.55-0.249,0.823-0.379l0.003-0.003
			c0.543-0.27,1.076-0.564,1.595-0.885c0,0,0.007,0,0.007-0.007c0.256-0.161,0.512-0.328,0.765-0.499
			c0.003-0.003,0.003-0.003,0.007-0.007c0.249-0.174,0.495-0.359,0.741-0.543l1.773-1.561L273.02,119.887l166.274,166.274
			c0.14,0.14,0.284,0.277,0.424,0.41c0.143,0.137,0.29,0.27,0.437,0.396c0.103,0.089,0.202,0.181,0.307,0.266
			c0.031,0.024,0.062,0.055,0.096,0.082c0.195,0.161,0.393,0.318,0.591,0.468c0.215,0.167,0.434,0.324,0.656,0.478
			c0.219,0.15,0.441,0.297,0.663,0.437c0.338,0.215,0.676,0.417,1.021,0.605c0.342,0.191,0.693,0.366,1.049,0.529
			c0.157,0.075,0.314,0.144,0.475,0.215c0,0,0,0,0.007,0c0.143,0.062,0.284,0.12,0.424,0.178c0.997,0.396,2.019,0.707,3.057,0.932
			c0.574,0.123,1.148,0.219,1.732,0.29c0.581,0.061,1.158,0.106,1.739,0.12c0.386,0.01,0.775,0.01,1.168-0.007
			c0.485-0.021,0.97-0.055,1.452-0.113c0.482-0.058,0.967-0.133,1.441-0.225c0.574-0.109,1.144-0.249,1.708-0.417
			c0.331-0.099,0.666-0.208,0.994-0.324c0.328-0.116,0.652-0.242,0.977-0.383c0.321-0.137,0.639-0.283,0.956-0.437
			c0.205-0.103,0.41-0.205,0.608-0.314c0.161-0.085,0.318-0.174,0.475-0.263c0.079-0.044,0.16-0.092,0.236-0.14
			c0.133-0.079,0.26-0.157,0.389-0.239c0.195-0.12,0.383-0.246,0.574-0.376c0.154-0.106,0.307-0.219,0.458-0.328
			c0.007,0,0.01-0.003,0.01-0.01c0.126-0.092,0.253-0.184,0.376-0.28c0.202-0.154,0.4-0.311,0.591-0.475
			c0.106-0.085,0.205-0.178,0.307-0.266c0.147-0.126,0.294-0.26,0.437-0.396c0.14-0.133,0.283-0.27,0.423-0.41l65.07-65.07
			C534.231,217.485,536.035,212.724,536.038,207.966z"/>
	</g>
</g>
</svg>
