<?xml version="1.0" encoding="utf-8"?>
<!-- Generator: Adobe Illustrator 17.0.0, SVG Export Plug-In . SVG Version: 6.00 Build 0)  -->
<!DOCTYPE svg PUBLIC "-//W3C//DTD SVG 1.0//EN" "http://www.w3.org/TR/2001/REC-SVG-20010904/DTD/svg10.dtd">
<svg version="1.0" id="Layer_1" xmlns="http://www.w3.org/2000/svg" xmlns:xlink="http://www.w3.org/1999/xlink" x="0px" y="0px"
	 width="953.659px" height="1885.998px" viewBox="0 0 953.659 1885.998" enable-background="new 0 0 953.659 1885.998"
	 xml:space="preserve">
<g>
	<path fill="none" stroke="#40DD92" stroke-width="8" stroke-miterlimit="10" d="M825.603,1246.905"/>
	<path fill="none" stroke="#40DD92" stroke-width="8" stroke-miterlimit="10" d="M825.35,1146.158"/>
	
		<rect x="50.85" y="142.79" fill="#EBFFF5" stroke="#40DD92" stroke-linecap="round" stroke-linejoin="round" stroke-miterlimit="10" width="859" height="1582"/>
	
		<rect x="58.85" y="142.79" fill="#CAFFE3" stroke="#D9F8E9" stroke-linecap="round" stroke-linejoin="round" stroke-miterlimit="10" width="295" height="1563"/>
	
		<rect x="603.85" y="152.79" fill="#CAFFE3" stroke="#D9F8E9" stroke-linecap="round" stroke-linejoin="round" stroke-miterlimit="10" width="295" height="1563"/>
	<g>
		
			<path fill="#FFFFFF" stroke="#40DD92" stroke-width="2" stroke-linecap="round" stroke-linejoin="round" stroke-miterlimit="10" d="
			M49.389,152.175V1716.03l881.972-5.255l-10.51-1558.6H49.389z M370.005,1631.493c-0.392,0-0.716-0.324-0.716-0.716v-217.405
			c0-0.409,0.324-0.716,0.716-0.716h217.405c0.392,0,0.716,0.307,0.716,0.716v217.405c0,0.392-0.324,0.716-0.716,0.716H370.005z
			 M131.811,947.746c0-0.392,0.324-0.716,0.716-0.716h217.405c0.409,0,0.733,0.324,0.733,0.716v217.405
			c0,0.392-0.324,0.716-0.733,0.716H132.527c-0.392,0-0.716-0.324-0.716-0.716V947.746z M131.811,1180.551
			c0-0.392,0.324-0.716,0.716-0.716h217.405c0.409,0,0.733,0.324,0.733,0.716v217.405c0,0.409-0.324,0.716-0.733,0.716H132.527
			c-0.392,0-0.716-0.307-0.716-0.716V1180.551z M131.811,1413.372c0-0.409,0.324-0.716,0.716-0.716h217.405
			c0.409,0,0.733,0.307,0.733,0.716v217.405c0,0.392-0.324,0.716-0.733,0.716H132.527c-0.392,0-0.716-0.324-0.716-0.716V1413.372z
			 M131.811,249.298c0-0.392,0.324-0.716,0.716-0.716h217.405c0.409,0,0.733,0.324,0.733,0.716v217.405
			c0,0.409-0.324,0.733-0.733,0.733H132.527c-0.392,0-0.716-0.324-0.716-0.733V249.298z M370.005,467.436
			c-0.392,0-0.716-0.324-0.716-0.733V249.298c0-0.392,0.324-0.716,0.716-0.716h217.405c0.392,0,0.716,0.324,0.716,0.716v217.405
			c0,0.409-0.324,0.733-0.716,0.733H370.005z M606.749,482.12c0-0.392,0.324-0.716,0.716-0.716H824.87
			c0.409,0,0.733,0.324,0.733,0.716v217.405c0,0.392-0.324,0.716-0.733,0.716H607.465c-0.392,0-0.716-0.324-0.716-0.716V482.12z
			 M825.603,466.703c0,0.409-0.324,0.733-0.733,0.733H607.465c-0.392,0-0.716-0.324-0.716-0.733V249.298
			c0-0.392,0.324-0.716,0.716-0.716H824.87c0.409,0,0.733,0.324,0.733,0.716V466.703z M369.288,482.12
			c0-0.392,0.324-0.716,0.716-0.716h217.405c0.392,0,0.716,0.324,0.716,0.716v217.405c0,0.392-0.324,0.716-0.716,0.716H370.005
			c-0.392,0-0.716-0.324-0.716-0.716V482.12z M369.288,714.924c0-0.392,0.324-0.716,0.716-0.716h217.405
			c0.392,0,0.716,0.324,0.716,0.716v217.405c0,0.409-0.324,0.733-0.716,0.733H370.005c-0.392,0-0.716-0.324-0.716-0.733V714.924z
			 M587.409,1165.867H370.005c-0.392,0-0.716-0.324-0.716-0.716V947.746c0-0.392,0.324-0.716,0.716-0.716h217.405
			c0.392,0,0.716,0.324,0.716,0.716v217.405C588.126,1165.543,587.802,1165.867,587.409,1165.867z M588.126,1180.551v217.405
			c0,0.409-0.324,0.716-0.716,0.716H370.005c-0.392,0-0.716-0.307-0.716-0.716v-217.405c0-0.392,0.324-0.716,0.716-0.716h217.405
			C587.802,1179.834,588.126,1180.158,588.126,1180.551z M606.749,1413.372c0-0.409,0.324-0.716,0.716-0.716H824.87
			c0.409,0,0.733,0.307,0.733,0.716v217.405c0,0.392-0.324,0.716-0.733,0.716H607.465c-0.392,0-0.716-0.324-0.716-0.716V1413.372z
			 M824.87,1398.672H607.465c-0.392,0-0.716-0.307-0.716-0.716v-217.405c0-0.392,0.324-0.716,0.716-0.716H824.87
			c0.409,0,0.733,0.324,0.733,0.716v217.405C825.603,1398.365,825.279,1398.672,824.87,1398.672z M825.603,1165.151
			c0,0.392-0.324,0.716-0.733,0.716H607.465c-0.392,0-0.716-0.324-0.716-0.716V947.746c0-0.392,0.324-0.716,0.716-0.716H824.87
			c0.409,0,0.733,0.324,0.733,0.716V1165.151z M825.603,932.329c0,0.409-0.324,0.733-0.733,0.733H607.465
			c-0.392,0-0.716-0.324-0.716-0.733V714.924c0-0.392,0.324-0.716,0.716-0.716H824.87c0.409,0,0.733,0.324,0.733,0.716V932.329z
			 M132.527,700.241c-0.392,0-0.716-0.324-0.716-0.716V482.12c0-0.392,0.324-0.716,0.716-0.716h217.405
			c0.409,0,0.733,0.324,0.733,0.716v217.405c0,0.392-0.324,0.716-0.733,0.716H132.527z M131.811,714.924
			c0-0.392,0.324-0.716,0.716-0.716h217.405c0.409,0,0.733,0.324,0.733,0.716v159.086v58.318c0,0.409-0.324,0.733-0.733,0.733
			H132.527c-0.392,0-0.716-0.324-0.716-0.733V714.924z"/>
		
			<path fill="#99FFCC" stroke="#40DD92" stroke-width="4" stroke-linecap="round" stroke-linejoin="round" stroke-miterlimit="10" d="
			M821.991,12.364H143.387c-67.529,0-122.779,55.232-122.779,122.761v174.42c-6.534,0.648-11.702,6.201-11.702,12.91v99.551
			c0,6.727,5.168,12.28,11.702,12.928v46.193c-6.534,0.666-11.702,6.201-11.702,12.928v99.551c0,6.727,5.168,12.28,11.702,12.928
			v1144.338c0,67.512,55.25,122.761,122.779,122.761h678.604c67.512,0,122.762-55.25,122.762-122.761V135.126
			C944.752,67.596,889.503,12.364,821.991,12.364z M59.812,165.921c0-5.01,4.082-9.091,9.092-9.091h817.236
			c5.027,0,9.091,4.082,9.091,9.091v1535.29c0,5.027-4.064,9.109-9.091,9.109H68.903c-5.01,0-9.092-4.082-9.092-9.109V165.921z"/>
		<g>
			
				<path fill="#99FFCC" stroke="#40DD92" stroke-width="4" stroke-linecap="round" stroke-linejoin="round" stroke-miterlimit="10" d="
				M834.761,29.636H130.617c-52.534,0-95.505,42.97-95.505,95.505v1635.734c0,52.517,42.97,95.487,95.505,95.487h704.144
				c52.517,0,95.487-42.97,95.487-95.487V124.58C929.933,72.308,887.085,29.636,834.761,29.636z M895.231,1701.211
				c0,5.027-4.064,9.109-9.091,9.109H68.903c-5.01,0-9.092-4.082-9.092-9.109V165.921c0-5.01,4.082-9.091,9.092-9.091h817.236
				c5.027,0,9.091,4.082,9.091,9.091V1701.211z"/>
			
				<path fill="#FFFFFF" stroke="#40DD92" stroke-width="4" stroke-linecap="round" stroke-linejoin="round" stroke-miterlimit="10" d="
				M553.485,1817.117H405.894c-16.549,0-30.09-13.54-30.09-30.09v0c0-16.549,13.54-30.09,30.09-30.09h147.591
				c16.549,0,30.09,13.54,30.09,30.09v0C583.575,1803.576,570.034,1817.117,553.485,1817.117z"/>
			
				<circle fill="#FFFFFF" stroke="#40DD92" stroke-width="4" stroke-linecap="round" stroke-linejoin="round" stroke-miterlimit="10" cx="291.254" cy="91.961" r="22.825"/>
			
				<path fill="#FFFFFF" stroke="#40DD92" stroke-width="4" stroke-linecap="round" stroke-linejoin="round" stroke-miterlimit="10" d="
				M547.864,111.666H413.679c-6.547,0-11.904-5.357-11.904-11.904v0c0-6.547,5.357-11.904,11.904-11.904h134.185
				c6.547,0,11.904,5.357,11.904,11.904v0C559.768,106.31,554.411,111.666,547.864,111.666z"/>
			
				<path fill="#FFFFFF" stroke="#40DD92" stroke-width="4" stroke-linecap="round" stroke-linejoin="round" stroke-miterlimit="10" d="
				M658.242,103.009h-34.628c-6.547,0-11.904-5.357-11.904-11.904v0c0-6.547,5.357-11.904,11.904-11.904h34.628
				c6.547,0,11.904,5.357,11.904,11.904v0C670.146,97.653,664.789,103.009,658.242,103.009z"/>
		</g>
	</g>
</g>
</svg>
