<?xml version="1.0" encoding="utf-8"?>
<!-- Generator: Adobe Illustrator 17.0.0, SVG Export Plug-In . SVG Version: 6.00 Build 0)  -->
<!DOCTYPE svg PUBLIC "-//W3C//DTD SVG 1.0//EN" "http://www.w3.org/TR/2001/REC-SVG-20010904/DTD/svg10.dtd">
<svg version="1.0" id="Layer_1" xmlns="http://www.w3.org/2000/svg" xmlns:xlink="http://www.w3.org/1999/xlink" x="0px" y="0px"
	 width="2190.475px" height="2483.12px" viewBox="0 0 2190.475 2483.12" enable-background="new 0 0 2190.475 2483.12"
	 xml:space="preserve">
<g>
	<g>
		<g>
			<path fill="#40DD92" d="M1549.32,650.218l-4.102,4.384c-0.075,0.081-0.202,0.085-0.282,0.009
				c-0.081-0.075-0.085-0.202-0.01-0.282c0.003-0.003,0.006-0.006,0.01-0.009L1549.32,650.218z"/>
			<path fill="#40DD92" d="M1536.937,663.347l-8.303,8.725c-0.314,0.33-0.836,0.343-1.167,0.029
				c-0.331-0.314-0.343-0.837-0.029-1.167c0.009-0.009,0.02-0.02,0.029-0.029l8.725-8.303c0.21-0.201,0.544-0.192,0.745,0.018
				C1537.131,662.824,1537.129,663.145,1536.937,663.347z"/>
			<path fill="#40DD92" d="M1520.307,680.772l-8.362,8.666c-0.5,0.519-1.326,0.533-1.845,0.033c-0.518-0.5-0.533-1.326-0.033-1.845
				c0.009-0.01,0.023-0.023,0.033-0.033l8.666-8.361c0.433-0.418,1.123-0.405,1.541,0.028
				C1520.715,679.682,1520.712,680.352,1520.307,680.772z"/>
			<path fill="#40DD92" d="M1503.554,698.073l-8.404,8.623c-0.629,0.646-1.663,0.659-2.308,0.03s-0.659-1.663-0.03-2.308
				c0.008-0.008,0.021-0.022,0.03-0.03l8.623-8.404c0.584-0.569,1.52-0.557,2.089,0.027
				C1504.114,696.586,1504.11,697.502,1503.554,698.073z"/>
			<path fill="#40DD92" d="M1486.718,715.292l-8.447,8.58c-0.713,0.725-1.879,0.734-2.604,0.02
				c-0.725-0.714-0.734-1.879-0.021-2.604c0.004-0.005,0.016-0.016,0.021-0.02l8.58-8.448c0.688-0.677,1.794-0.669,2.472,0.019
				C1487.389,713.521,1487.386,714.613,1486.718,715.292z"/>
			<path fill="#40DD92" d="M1469.813,732.442l-8.492,8.536c-0.76,0.764-1.996,0.767-2.761,0.007
				c-0.764-0.76-0.768-1.996-0.007-2.761l0.007-0.007l8.536-8.492c0.752-0.748,1.969-0.745,2.717,0.007
				C1470.559,730.482,1470.558,731.693,1469.813,732.442z"/>
			<path fill="#40DD92" d="M1452.83,749.513l-8.512,8.515c-0.775,0.776-2.033,0.776-2.808,0.001s-0.776-2.032,0-2.808l0-0.001
				l8.515-8.512c0.775-0.774,2.03-0.774,2.805,0.001S1453.605,748.739,1452.83,749.513z"/>
			<path fill="#40DD92" d="M1435.782,766.52l-8.536,8.492c-0.753,0.749-1.971,0.746-2.72-0.007c-0.746-0.75-0.745-1.963,0-2.712
				l8.492-8.536c0.761-0.765,1.999-0.768,2.764-0.007c0.765,0.761,0.769,1.999,0.007,2.764L1435.782,766.52z"/>
			<path fill="#40DD92" d="M1418.678,783.471l-8.58,8.447c-0.69,0.679-1.799,0.67-2.478-0.019c-0.672-0.683-0.669-1.778,0-2.459
				l8.447-8.58c0.715-0.727,1.885-0.736,2.611-0.021c0.727,0.715,0.736,1.885,0.021,2.611
				C1418.694,783.456,1418.683,783.467,1418.678,783.471z"/>
			<path fill="#40DD92" d="M1401.504,800.352l-8.624,8.403c-0.586,0.571-1.525,0.559-2.097-0.027c-0.562-0.577-0.558-1.496,0-2.069
				l8.403-8.624c0.632-0.648,1.669-0.662,2.317-0.03c0.648,0.632,0.662,1.669,0.03,2.317
				C1401.526,800.33,1401.512,800.344,1401.504,800.352z"/>
			<path fill="#40DD92" d="M1384.245,817.147l-8.667,8.361c-0.435,0.419-1.127,0.407-1.547-0.028c-0.41-0.425-0.406-1.097,0-1.519
				l8.36-8.667c0.502-0.521,1.333-0.536,1.854-0.033c0.521,0.503,0.536,1.333,0.033,1.854
				C1384.269,817.124,1384.255,817.138,1384.245,817.147z"/>
			<path fill="#40DD92" d="M1366.878,833.835l-8.726,8.301c-0.212,0.202-0.547,0.193-0.749-0.019c-0.195-0.205-0.192-0.527,0-0.73
				l8.301-8.726c0.316-0.332,0.842-0.345,1.174-0.029c0.332,0.316,0.345,0.841,0.029,1.174
				C1366.898,833.815,1366.887,833.826,1366.878,833.835z"/>
			<path fill="#40DD92" d="M1349.405,850.417l-4.385,4.101l4.101-4.385c0.076-0.081,0.203-0.085,0.284-0.01
				c0.081,0.076,0.085,0.203,0.009,0.284C1349.412,850.411,1349.408,850.414,1349.405,850.417z"/>
		</g>
	</g>
	<g>
		<g>
			<path fill="#40DD92" d="M666.929,650.218l4.384,4.102c0.081,0.075,0.085,0.202,0.009,0.282c-0.075,0.081-0.202,0.085-0.282,0.009
				c-0.003-0.003-0.007-0.006-0.01-0.009L666.929,650.218z"/>
			<path fill="#40DD92" d="M680.058,662.602l8.725,8.303c0.33,0.314,0.343,0.837,0.029,1.167c-0.314,0.33-0.836,0.343-1.167,0.029
				c-0.009-0.009-0.021-0.02-0.029-0.029l-8.303-8.725c-0.2-0.211-0.192-0.544,0.019-0.745
				C679.535,662.408,679.856,662.41,680.058,662.602z"/>
			<path fill="#40DD92" d="M697.482,679.231l8.666,8.361c0.519,0.5,0.533,1.326,0.033,1.845c-0.5,0.519-1.326,0.533-1.845,0.033
				c-0.01-0.01-0.023-0.023-0.033-0.033l-8.361-8.666c-0.417-0.433-0.405-1.123,0.027-1.54
				C696.393,678.823,697.063,678.827,697.482,679.231z"/>
			<path fill="#40DD92" d="M714.784,695.984l8.624,8.404c0.646,0.629,0.659,1.663,0.03,2.308c-0.629,0.646-1.663,0.659-2.308,0.03
				c-0.008-0.008-0.022-0.022-0.03-0.03l-8.404-8.623c-0.569-0.584-0.557-1.519,0.027-2.089
				C713.297,695.425,714.213,695.428,714.784,695.984z"/>
			<path fill="#40DD92" d="M732.003,712.82l8.58,8.448c0.725,0.714,0.734,1.879,0.021,2.604c-0.714,0.725-1.88,0.734-2.604,0.02
				c-0.004-0.004-0.016-0.016-0.02-0.02l-8.448-8.58c-0.677-0.688-0.668-1.794,0.02-2.472
				C730.232,712.15,731.324,712.153,732.003,712.82z"/>
			<path fill="#40DD92" d="M749.153,729.725l8.536,8.492c0.765,0.76,0.768,1.996,0.007,2.761c-0.76,0.764-1.997,0.767-2.761,0.007
				l-0.007-0.007l-8.492-8.536c-0.748-0.752-0.745-1.969,0.007-2.717C747.193,728.979,748.404,728.981,749.153,729.725z"/>
			<path fill="#40DD92" d="M766.225,746.709l8.515,8.512c0.775,0.775,0.776,2.032,0,2.808c-0.775,0.776-2.032,0.776-2.808,0.001
				l0-0.001l-8.512-8.515c-0.774-0.775-0.774-2.03,0-2.805C764.195,745.934,765.45,745.934,766.225,746.709z"/>
			<path fill="#40DD92" d="M783.232,763.757l8.491,8.536c0.749,0.753,0.746,1.97-0.007,2.719c-0.75,0.746-1.963,0.745-2.712,0
				l-8.536-8.492c-0.765-0.761-0.768-1.999-0.007-2.764c0.761-0.765,1.999-0.768,2.764-0.007L783.232,763.757z"/>
			<path fill="#40DD92" d="M800.183,780.86l8.447,8.58c0.679,0.69,0.67,1.799-0.02,2.478c-0.683,0.672-1.778,0.669-2.458,0
				l-8.581-8.447c-0.727-0.715-0.736-1.885-0.02-2.611c0.715-0.727,1.884-0.736,2.611-0.021
				C800.167,780.844,800.178,780.856,800.183,780.86z"/>
			<path fill="#40DD92" d="M817.063,798.034l8.403,8.624c0.571,0.586,0.559,1.525-0.027,2.097c-0.577,0.562-1.496,0.558-2.069,0
				l-8.624-8.403c-0.648-0.632-0.662-1.669-0.03-2.317c0.632-0.648,1.669-0.662,2.317-0.03
				C817.041,798.013,817.055,798.026,817.063,798.034z"/>
			<path fill="#40DD92" d="M833.858,815.294l8.36,8.667c0.419,0.435,0.407,1.128-0.028,1.547c-0.425,0.41-1.098,0.406-1.52,0
				l-8.667-8.361c-0.521-0.503-0.536-1.332-0.034-1.854c0.503-0.521,1.333-0.536,1.854-0.033
				C833.835,815.27,833.849,815.284,833.858,815.294z"/>
			<path fill="#40DD92" d="M850.546,832.661l8.301,8.726c0.202,0.212,0.193,0.547-0.019,0.749c-0.205,0.195-0.527,0.193-0.73,0
				l-8.726-8.301c-0.332-0.316-0.345-0.841-0.029-1.174c0.316-0.332,0.841-0.345,1.174-0.029
				C850.526,832.641,850.537,832.652,850.546,832.661z"/>
			<path fill="#40DD92" d="M867.128,850.133l4.101,4.385l-4.385-4.101c-0.081-0.076-0.085-0.203-0.01-0.284
				c0.076-0.081,0.203-0.085,0.284-0.01C867.122,850.127,867.126,850.13,867.128,850.133z"/>
		</g>
	</g>
	<g>
		<g>
			<path fill="#40DD92" d="M1091.648,288.978l0.135,6c0.001,0.075-0.058,0.136-0.132,0.138c-0.074,0.002-0.136-0.057-0.138-0.132
				c0-0.002,0-0.004,0-0.006L1091.648,288.978z"/>
			<path fill="#40DD92" d="M1092.027,306.824l0.199,11.846c0.005,0.319-0.249,0.582-0.568,0.588s-0.583-0.249-0.587-0.568
				c0-0.006,0-0.014,0-0.019l0.199-11.846c0.003-0.209,0.176-0.376,0.385-0.373C1091.859,306.454,1092.024,306.62,1092.027,306.824z
				"/>
			<path fill="#40DD92" d="M1092.425,330.516l0.199,11.846c0.009,0.539-0.42,0.983-0.959,0.992c-0.539,0.009-0.983-0.42-0.992-0.959
				c0-0.01,0-0.023,0-0.033l0.199-11.846c0.007-0.429,0.361-0.771,0.79-0.764C1092.081,329.759,1092.418,330.099,1092.425,330.516z"
				/>
			<path fill="#40DD92" d="M1092.774,354.207l0.144,11.846c0.008,0.701-0.553,1.276-1.254,1.285
				c-0.701,0.008-1.276-0.553-1.285-1.254c0-0.008,0-0.023,0-0.031l0.143-11.846c0.008-0.622,0.518-1.12,1.14-1.112
				C1092.274,353.103,1092.766,353.599,1092.774,354.207z"/>
			<path fill="#40DD92" d="M1093.048,377.899l0.104,11.846c0.007,0.83-0.66,1.509-1.49,1.516c-0.83,0.007-1.509-0.66-1.517-1.49
				c0-0.006,0-0.02,0-0.026l0.104-11.846c0.007-0.773,0.639-1.395,1.412-1.388C1092.425,376.518,1093.041,377.138,1093.048,377.899z
				"/>
			<path fill="#40DD92" d="M1093.255,401.591l0.094,11.846c0.007,0.939-0.748,1.707-1.688,1.715
				c-0.939,0.007-1.707-0.748-1.715-1.688c0-0.006,0-0.021,0-0.027l0.095-11.846c0.007-0.887,0.732-1.601,1.619-1.594
				C1092.539,400.004,1093.247,400.716,1093.255,401.591z"/>
			<path fill="#40DD92" d="M1093.412,425.283l0.063,11.846c0.005,1.008-0.808,1.83-1.816,1.836
				c-1.008,0.005-1.831-0.808-1.835-1.816v-0.019l0.062-11.846c0.005-0.974,0.799-1.759,1.773-1.754
				C1092.625,423.534,1093.406,424.318,1093.412,425.283z"/>
			<path fill="#40DD92" d="M1093.537,448.975l0.038,11.846c0.003,1.064-0.856,1.929-1.92,1.932s-1.929-0.856-1.933-1.92v-0.012
				l0.038-11.846c0.003-1.043,0.852-1.886,1.895-1.882C1092.693,447.096,1093.533,447.938,1093.537,448.975z"/>
			<path fill="#40DD92" d="M1093.595,472.667l0.021,11.846c0.002,1.087-0.877,1.969-1.964,1.971
				c-1.086,0.002-1.969-0.878-1.971-1.964v-0.007l0.021-11.846c0.002-1.075,0.875-1.945,1.95-1.944
				C1092.727,470.725,1093.597,471.591,1093.595,472.667z"/>
			<path fill="#40DD92" d="M1093.637,496.359l0.002,11.846c0,1.099-0.891,1.991-1.99,1.991c-1.1,0-1.991-0.891-1.991-1.99v-0.001
				l0.002-11.846c0-1.098,0.891-1.988,1.989-1.988S1093.637,495.26,1093.637,496.359z"/>
			<path fill="#40DD92" d="M1093.618,520.051l-0.021,11.846c-0.002,1.076-0.876,1.948-1.953,1.946
				c-1.076-0.002-1.947-0.869-1.945-1.946l-0.021-11.846c-0.002-1.088,0.878-1.972,1.966-1.973c1.088-0.002,1.972,0.878,1.974,1.966
				V520.051z"/>
			<path fill="#40DD92" d="M1093.576,543.742l-0.034,11.846c-0.003,1.046-0.854,1.891-1.899,1.888
				c-1.042-0.003-1.885-0.848-1.888-1.888l-0.035-11.846c-0.003-1.065,0.858-1.931,1.923-1.934s1.931,0.858,1.934,1.923V543.742z"/>
			<path fill="#40DD92" d="M1093.479,567.434l-0.063,11.846c-0.005,0.977-0.801,1.764-1.777,1.759
				c-0.97-0.005-1.753-0.791-1.759-1.759l-0.063-11.846c-0.005-1.011,0.81-1.835,1.821-1.841s1.835,0.81,1.841,1.821V567.434z"/>
			<path fill="#40DD92" d="M1093.354,591.126l-0.092,11.846c-0.007,0.891-0.735,1.607-1.626,1.6c-0.882-0.007-1.593-0.722-1.6-1.6
				l-0.092-11.846c-0.007-0.942,0.75-1.711,1.692-1.719s1.711,0.75,1.719,1.692C1093.354,591.105,1093.354,591.12,1093.354,591.126z
				"/>
			<path fill="#40DD92" d="M1093.157,614.818l-0.104,11.846c-0.007,0.776-0.642,1.399-1.417,1.393
				c-0.767-0.007-1.386-0.629-1.393-1.393l-0.104-11.846c-0.007-0.833,0.662-1.515,1.496-1.522s1.515,0.662,1.522,1.496
				C1093.157,614.798,1093.157,614.812,1093.157,614.818z"/>
			<path fill="#40DD92" d="M1092.923,638.51l-0.145,11.846c-0.007,0.625-0.52,1.125-1.145,1.117
				c-0.615-0.007-1.109-0.506-1.117-1.117l-0.145-11.846c-0.008-0.704,0.556-1.282,1.26-1.291c0.705-0.009,1.283,0.555,1.291,1.26
				C1092.923,638.487,1092.923,638.502,1092.923,638.51z"/>
			<path fill="#40DD92" d="M1092.63,662.202l-0.2,11.846c-0.007,0.432-0.363,0.775-0.794,0.768c-0.422-0.007-0.76-0.349-0.768-0.768
				l-0.2-11.846c-0.009-0.542,0.423-0.989,0.965-0.998s0.989,0.423,0.998,0.965C1092.63,662.178,1092.63,662.192,1092.63,662.202z"
				/>
			<path fill="#40DD92" d="M1092.229,685.894l-0.2,11.846c-0.004,0.21-0.177,0.378-0.388,0.375c-0.206-0.004-0.371-0.17-0.375-0.375
				l-0.2-11.846c-0.005-0.321,0.25-0.586,0.571-0.591c0.321-0.005,0.585,0.25,0.591,0.571
				C1092.23,685.88,1092.23,685.888,1092.229,685.894z"/>
			<path fill="#40DD92" d="M1091.784,709.585l-0.136,6l-0.136-6c-0.002-0.075,0.058-0.137,0.133-0.139
				c0.075-0.002,0.137,0.058,0.139,0.133C1091.784,709.581,1091.784,709.583,1091.784,709.585z"/>
		</g>
	</g>
	<g>
		<g>
			<path fill="#40DD92" d="M309.783,1129.675l11.579,3.171c0.187,0.051,0.297,0.244,0.246,0.431s-0.244,0.297-0.431,0.246
				c-0.006-0.002-0.014-0.004-0.02-0.006L309.783,1129.675z"/>
			<path fill="#40DD92" d="M332.918,1136.092l11.556,3.247c0.474,0.133,0.751,0.626,0.618,1.101s-0.626,0.751-1.101,0.618
				c-0.012-0.003-0.027-0.008-0.039-0.012l-11.397-3.765c-0.326-0.108-0.502-0.459-0.395-0.785
				C332.264,1136.179,332.6,1136.004,332.918,1136.092z"/>
			<path fill="#40DD92" d="M356.015,1142.629l11.534,3.319c0.697,0.201,1.1,0.928,0.899,1.625c-0.201,0.697-0.928,1.099-1.625,0.899
				c-0.012-0.003-0.029-0.009-0.041-0.013l-11.419-3.693c-0.587-0.19-0.91-0.82-0.72-1.407
				C354.829,1142.785,355.439,1142.464,356.015,1142.629z"/>
			<path fill="#40DD92" d="M379.071,1149.305l11.518,3.371c0.854,0.25,1.343,1.144,1.093,1.997c-0.25,0.853-1.144,1.343-1.997,1.093
				c-0.01-0.003-0.027-0.008-0.036-0.011l-11.436-3.641c-0.773-0.246-1.2-1.072-0.954-1.845
				C377.501,1149.508,378.308,1149.083,379.071,1149.305z"/>
			<path fill="#40DD92" d="M402.099,1156.071l11.501,3.425c0.958,0.285,1.504,1.294,1.219,2.252
				c-0.286,0.958-1.294,1.504-2.252,1.219c-0.005-0.001-0.02-0.006-0.024-0.007l-11.452-3.587c-0.909-0.285-1.416-1.253-1.131-2.163
				C400.242,1156.308,401.196,1155.803,402.099,1156.071z"/>
			<path fill="#40DD92" d="M425.102,1162.92l11.488,3.467c1.023,0.309,1.603,1.389,1.294,2.413
				c-0.309,1.024-1.389,1.603-2.413,1.294l-0.012-0.004l-11.465-3.545c-1-0.309-1.561-1.371-1.251-2.371
				C423.05,1163.179,424.105,1162.62,425.102,1162.92z"/>
			<path fill="#40DD92" d="M448.074,1169.866l11.485,3.479c1.053,0.319,1.648,1.432,1.329,2.485
				c-0.319,1.053-1.431,1.648-2.484,1.329l-0.009-0.003l-11.468-3.533c-1.037-0.319-1.618-1.419-1.299-2.456
				S447.038,1169.547,448.074,1169.866z"/>
			<path fill="#40DD92" d="M471.031,1176.864l11.468,3.533c1.03,0.317,1.607,1.409,1.29,2.438c-0.317,1.03-1.4,1.61-2.43,1.292
				l-11.485-3.479c-1.046-0.317-1.637-1.422-1.32-2.468c0.317-1.046,1.422-1.637,2.468-1.32L471.031,1176.864z"/>
			<path fill="#40DD92" d="M493.968,1183.93l11.456,3.572c0.977,0.305,1.522,1.344,1.218,2.32c-0.303,0.97-1.33,1.514-2.3,1.224
				l-11.497-3.44c-1.017-0.304-1.595-1.375-1.291-2.393c0.304-1.017,1.375-1.595,2.393-1.291
				C493.95,1183.925,493.964,1183.929,493.968,1183.93z"/>
			<path fill="#40DD92" d="M516.876,1191.09l11.45,3.591c0.884,0.277,1.376,1.219,1.099,2.103c-0.275,0.876-1.203,1.366-2.08,1.106
				l-11.502-3.42c-0.936-0.278-1.469-1.262-1.19-2.198c0.278-0.936,1.262-1.469,2.198-1.19
				C516.856,1191.084,516.87,1191.089,516.876,1191.09z"/>
			<path fill="#40DD92" d="M539.761,1198.323l11.435,3.641c0.734,0.234,1.14,1.018,0.906,1.752c-0.23,0.723-0.996,1.127-1.721,0.915
				l-11.518-3.37c-0.814-0.238-1.281-1.092-1.043-1.906c0.238-0.814,1.091-1.281,1.906-1.043
				C539.735,1198.315,539.752,1198.32,539.761,1198.323z"/>
			<path fill="#40DD92" d="M562.618,1205.648l11.419,3.694c0.532,0.172,0.823,0.743,0.651,1.274
				c-0.168,0.521-0.721,0.811-1.243,0.661l-11.534-3.318c-0.641-0.185-1.012-0.854-0.827-1.496s0.854-1.012,1.496-0.828
				C562.591,1205.64,562.607,1205.645,562.618,1205.648z"/>
			<path fill="#40DD92" d="M585.435,1213.104l11.397,3.767c0.247,0.082,0.381,0.348,0.299,0.595
				c-0.079,0.24-0.334,0.373-0.575,0.306l-11.556-3.245c-0.396-0.111-0.626-0.522-0.515-0.917s0.522-0.626,0.917-0.515
				C585.413,1213.097,585.425,1213.101,585.435,1213.104z"/>
			<path fill="#40DD92" d="M608.217,1220.674l4.964,1.683l-5.058-1.378c-0.085-0.023-0.135-0.111-0.112-0.196
				c0.023-0.085,0.111-0.135,0.196-0.112C608.211,1220.672,608.214,1220.673,608.217,1220.674z"/>
		</g>
	</g>
	<g>
		<g>
			<path fill="#40DD92" d="M1570.115,1220.774l11.451-3.606c0.185-0.058,0.382,0.044,0.44,0.229s-0.044,0.382-0.229,0.44
				c-0.006,0.002-0.013,0.004-0.02,0.006L1570.115,1220.774z"/>
			<path fill="#40DD92" d="M1593.038,1213.637l11.472-3.53c0.472-0.145,0.971,0.12,1.116,0.591s-0.119,0.971-0.591,1.116
				c-0.012,0.004-0.027,0.008-0.039,0.011l-11.62,3.008c-0.333,0.086-0.672-0.114-0.758-0.446
				C1592.535,1214.065,1592.722,1213.735,1593.038,1213.637z"/>
			<path fill="#40DD92" d="M1615.995,1206.622l11.493-3.457c0.695-0.209,1.428,0.185,1.637,0.88s-0.185,1.428-0.88,1.637
				c-0.012,0.004-0.029,0.008-0.041,0.012l-11.6,3.081c-0.597,0.159-1.209-0.197-1.368-0.794
				C1615.081,1207.396,1615.42,1206.796,1615.995,1206.622z"/>
			<path fill="#40DD92" d="M1638.991,1199.746l11.508-3.404c0.853-0.252,1.749,0.234,2.001,1.088s-0.234,1.749-1.087,2.001
				c-0.01,0.003-0.027,0.008-0.037,0.01l-11.584,3.133c-0.784,0.212-1.59-0.251-1.803-1.035
				C1637.781,1200.767,1638.229,1199.972,1638.991,1199.746z"/>
			<path fill="#40DD92" d="M1662.014,1192.961l11.523-3.351c0.961-0.279,1.966,0.273,2.245,1.234s-0.273,1.966-1.233,2.245
				c-0.005,0.001-0.02,0.006-0.025,0.007l-11.569,3.187c-0.919,0.253-1.869-0.287-2.123-1.206
				C1660.581,1194.167,1661.11,1193.225,1662.014,1192.961z"/>
			<path fill="#40DD92" d="M1685.06,1186.26l11.536-3.307c1.028-0.295,2.1,0.3,2.395,1.328s-0.3,2.1-1.328,2.395l-0.013,0.004
				l-11.557,3.23c-1.008,0.282-2.055-0.307-2.337-1.316C1683.475,1187.589,1684.059,1186.547,1685.06,1186.26z"/>
			<path fill="#40DD92" d="M1708.133,1179.656l11.539-3.296c1.059-0.302,2.162,0.311,2.464,1.369s-0.311,2.161-1.369,2.464
				l-0.009,0.003l-11.554,3.242c-1.045,0.293-2.129-0.316-2.422-1.361C1706.488,1181.031,1707.089,1179.949,1708.133,1179.656z"/>
			<path fill="#40DD92" d="M1731.222,1173.105l11.554-3.242c1.037-0.291,2.114,0.314,2.405,1.351
				c0.291,1.037-0.305,2.111-1.342,2.402l-11.538,3.296c-1.051,0.3-2.146-0.308-2.446-1.359c-0.3-1.051,0.308-2.146,1.359-2.446
				L1731.222,1173.105z"/>
			<path fill="#40DD92" d="M1754.33,1166.622l11.565-3.202c0.986-0.273,2.006,0.305,2.279,1.291c0.271,0.978-0.298,1.991-1.27,2.273
				l-11.527,3.336c-1.02,0.295-2.085-0.292-2.38-1.312s0.292-2.085,1.312-2.38
				C1754.312,1166.627,1754.326,1166.623,1754.33,1166.622z"/>
			<path fill="#40DD92" d="M1777.465,1160.234l11.571-3.182c0.892-0.245,1.814,0.279,2.06,1.171
				c0.243,0.884-0.271,1.797-1.147,2.053l-11.521,3.356c-0.937,0.273-1.917-0.265-2.189-1.202c-0.272-0.936,0.265-1.917,1.202-2.189
				C1777.445,1160.24,1777.459,1160.235,1777.465,1160.234z"/>
			<path fill="#40DD92" d="M1800.62,1153.919l11.585-3.132c0.742-0.201,1.507,0.238,1.708,0.98c0.197,0.731-0.227,1.484-0.949,1.698
				l-11.507,3.405c-0.813,0.24-1.666-0.223-1.906-1.036s0.223-1.666,1.036-1.906
				C1800.595,1153.927,1800.611,1153.922,1800.62,1153.919z"/>
			<path fill="#40DD92" d="M1823.802,1147.698l11.6-3.079c0.539-0.143,1.09,0.177,1.233,0.716c0.14,0.527-0.166,1.068-0.684,1.224
				l-11.493,3.458c-0.637,0.192-1.309-0.169-1.501-0.807c-0.192-0.637,0.169-1.309,0.807-1.501
				C1823.776,1147.706,1823.792,1147.701,1823.802,1147.698z"/>
			<path fill="#40DD92" d="M1847.022,1141.609l11.62-3.006c0.249-0.064,0.503,0.085,0.567,0.334
				c0.063,0.242-0.078,0.489-0.313,0.562l-11.472,3.531c-0.39,0.12-0.803-0.099-0.923-0.489s0.099-0.803,0.488-0.923
				C1847,1141.615,1847.012,1141.612,1847.022,1141.609z"/>
			<path fill="#40DD92" d="M1870.274,1135.636l4.824-1.208l-4.741,1.5c-0.08,0.025-0.165-0.019-0.19-0.099
				c-0.025-0.08,0.019-0.165,0.099-0.19C1870.268,1135.637,1870.271,1135.637,1870.274,1135.636z"/>
		</g>
	</g>
	<circle fill="#FFD000" cx="211.25" cy="785.837" r="33.758"/>
	<circle fill="#FFD000" cx="735.857" cy="255.416" r="30.862"/>
	<circle fill="#FFD000" cx="1454.075" cy="255.416" r="30.862"/>
	<circle fill="#FFD000" cx="1981.552" cy="785.837" r="33.758"/>
	<path fill="none" stroke="#40DD92" stroke-width="10" stroke-linecap="round" stroke-linejoin="round" stroke-miterlimit="10" d="
		M543.381,474.341c-16.011,45.644-65.939,69.648-111.517,53.614c-45.578-16.034-69.548-66.034-53.537-111.678
		s65.939-69.648,111.517-53.614C535.423,378.697,559.392,428.697,543.381,474.341z"/>
	
		<line fill="none" stroke="#40DD92" stroke-width="10" stroke-linecap="round" stroke-linejoin="round" stroke-miterlimit="10" x1="525.663" y1="509.26" x2="588.686" y2="571.596"/>
	<path fill="none" stroke="#40DD92" stroke-width="10" stroke-linecap="round" stroke-linejoin="round" stroke-miterlimit="10" d="
		M1793.182,466.634c0,42.777-71.295,120.409-71.295,120.409s-66.542-68.126-71.295-115.656
		c-3.917-39.175,31.924-76.048,71.295-76.048S1793.182,427.264,1793.182,466.634z"/>
	
		<circle fill="none" stroke="#40DD92" stroke-width="10" stroke-linecap="round" stroke-linejoin="round" stroke-miterlimit="10" cx="1721.418" cy="464.258" r="21.388"/>
	<g>
		
			<polygon fill="none" stroke="#40DD92" stroke-width="10" stroke-linecap="round" stroke-linejoin="round" stroke-miterlimit="10" points="
			18.129,1035.407 248.063,1038.032 110.814,1222.529 83.89,1119.35 		"/>
		
			<line fill="none" stroke="#40DD92" stroke-width="10" stroke-linecap="round" stroke-linejoin="round" stroke-miterlimit="10" x1="83.89" y1="1119.35" x2="248.063" y2="1038.032"/>
	</g>
	<path fill="none" stroke="#40DD92" stroke-width="10" stroke-linecap="round" stroke-linejoin="round" stroke-miterlimit="10" d="
		M1197.859,127.192c0,22.703-7.018,43.759-19.012,61.123v64.039l-65.75-18.22c0,0-15.78,0.792-22.973,0.792
		c-59.507,0-107.734-48.227-107.734-107.734s48.227-107.734,107.734-107.734C1149.632,19.458,1197.859,67.685,1197.859,127.192z"/>
	<circle fill="#40DD92" cx="1035.07" cy="124.42" r="16.239"/>
	<circle fill="#40DD92" cx="1089.201" cy="124.42" r="16.239"/>
	<circle fill="#40DD92" cx="1144.878" cy="124.42" r="16.239"/>
	<path fill="none" stroke="#40DD92" stroke-width="10" stroke-linecap="round" stroke-linejoin="round" stroke-miterlimit="10" d="
		M2143.924,1151.776l-92.113,82.86l-95.709-85.031c-15.447-12.675-25.492-33.287-25.492-56.56c0-38.499,27.488-69.71,61.393-69.71
		c28.534,0,52.536,22.117,59.412,52.077c6.876-29.96,30.879-52.077,59.412-52.077c33.904,0,59.408,31.263,61.393,69.71
		c1.942,37.613-19.012,49.701-28.217,58.668"/>
	<circle fill="#FFD000" cx="155.276" cy="1473.03" r="30.862"/>
	<circle fill="#FFD000" cx="2051.478" cy="1473.03" r="30.862"/>
</g>
<g>
	
		<path fill="#99FFCC" stroke="#40DD92" stroke-width="6" stroke-linecap="round" stroke-linejoin="round" stroke-miterlimit="10" d="
		M1545.172,1341.853v627.519c0,10.655-0.302,21.23-0.908,31.71v0.048c-14.907,258.318-210.235,462.772-449.027,462.772
		c-248.491,0-449.935-221.416-449.935-494.53c0-7.103,0-26.136,0-28.668v-648.224c0-18.619,7.613-35.549,19.877-47.813
		c12.264-12.264,29.194-19.877,47.813-19.877c32.236,0,59.391,22.823,66.097,53.116c0,0,0.557,389.014,1.593,392.009
		c3.966,11.579,14.987,19.94,27.872,19.94c16.214,0,29.465-13.251,29.465-29.465l-1.593-686.449
		c0-18.619,7.613-35.549,19.877-47.813c12.264-12.264,29.194-19.877,47.813-19.877c33.478,0,61.478,24.623,66.781,56.652
		c-0.446,2.023-0.127,608.455,0.908,611.449c3.966,11.579,14.987,19.941,27.872,19.941c16.214,0,29.465-13.251,29.465-29.465
		l-1.593-721.488c0-18.619,7.613-35.549,19.877-47.813s29.194-19.877,47.813-19.877c37.237,0,67.689,30.452,67.689,67.689
		l-1.593,707.154c0,16.214,13.251,29.465,29.465,29.465c12.885,0,23.906-8.362,27.872-19.94c1.035-2.994,1.593-6.196,1.593-9.524
		V959.368c2.835-12.805,9.317-24.273,18.284-33.239c12.264-12.264,29.194-19.877,47.813-19.877
		c37.237,0,67.689,30.452,67.689,67.689l-1.593,686.449c0,16.214,13.251,29.465,29.465,29.465c12.885,0,23.906-8.362,27.872-19.94
		c1.035-2.994,1.593-6.196,1.593-9.524v-333.111c2.835-12.805,9.317-24.273,18.284-33.239
		c12.264-12.264,29.194-19.877,47.813-19.877C1514.72,1274.163,1545.172,1304.615,1545.172,1341.853z"/>
	<g>
		
			<line fill="none" stroke="#FFFFFF" stroke-width="12" stroke-linecap="round" stroke-linejoin="round" stroke-miterlimit="10" x1="713.609" y1="1304.424" x2="713.609" y2="1728.08"/>
		
			<line fill="none" stroke="#FFFFFF" stroke-width="12" stroke-linecap="round" stroke-linejoin="round" stroke-miterlimit="10" x1="904.732" y1="1016.493" x2="904.732" y2="1798.158"/>
		
			<line fill="none" stroke="#FFFFFF" stroke-width="12" stroke-linecap="round" stroke-linejoin="round" stroke-miterlimit="10" x1="1283.792" y1="1008.185" x2="1283.792" y2="1794.972"/>
		
			<line fill="none" stroke="#FFFFFF" stroke-width="12" stroke-linecap="round" stroke-linejoin="round" stroke-miterlimit="10" x1="1482.878" y1="1329.907" x2="1482.878" y2="1753.563"/>
		<path fill="none" stroke="#FFFFFF" stroke-width="12" stroke-linecap="round" stroke-linejoin="round" stroke-miterlimit="10" d="
			M728.685,1783.824h-31.744c-6.6,0-12-5.4-12-12v-31.744c0-6.6,5.4-12,12-12h31.744c6.6,0,12,5.4,12,12v31.744
			C740.685,1778.424,735.285,1783.824,728.685,1783.824z"/>
		<path fill="none" stroke="#FFFFFF" stroke-width="12" stroke-linecap="round" stroke-linejoin="round" stroke-miterlimit="10" d="
			M1499.546,1812.492h-31.744c-6.6,0-12-5.4-12-12v-31.744c0-6.6,5.4-12,12-12h31.744c6.6,0,12,5.4,12,12v31.744
			C1511.546,1807.092,1506.146,1812.492,1499.546,1812.492z"/>
		<g>
			
				<path fill="none" stroke="#FFFFFF" stroke-width="12" stroke-linecap="round" stroke-linejoin="round" stroke-miterlimit="10" d="
				M877.761,2044.483l-95.363-95.363c-14.19-14.19-14.19-37.41,0-51.6l95.363-95.363c14.19-14.19,37.41-14.19,51.6,0l95.363,95.363
				c14.19,14.19,14.19,37.41,0,51.6l-95.363,95.363C915.171,2058.673,891.951,2058.673,877.761,2044.483z"/>
			
				<circle fill="none" stroke="#FFFFFF" stroke-width="12" stroke-linecap="round" stroke-linejoin="round" stroke-miterlimit="10" cx="903.561" cy="1923.32" r="57.403"/>
			
				<circle fill="none" stroke="#FFFFFF" stroke-width="12" stroke-linecap="round" stroke-linejoin="round" stroke-miterlimit="10" cx="903.561" cy="1923.32" r="13.856"/>
		</g>
		<g>
			
				<path fill="none" stroke="#FFFFFF" stroke-width="12" stroke-linecap="round" stroke-linejoin="round" stroke-miterlimit="10" d="
				M1258.766,2044.483l-95.363-95.363c-14.19-14.19-14.19-37.41,0-51.6l95.363-95.363c14.19-14.19,37.41-14.19,51.6,0l95.363,95.363
				c14.19,14.19,14.19,37.41,0,51.6l-95.363,95.363C1296.177,2058.673,1272.956,2058.673,1258.766,2044.483z"/>
			
				<circle fill="none" stroke="#FFFFFF" stroke-width="12" stroke-linecap="round" stroke-linejoin="round" stroke-miterlimit="10" cx="1284.566" cy="1923.32" r="57.403"/>
			
				<circle fill="none" stroke="#FFFFFF" stroke-width="12" stroke-linecap="round" stroke-linejoin="round" stroke-miterlimit="10" cx="1284.566" cy="1923.32" r="13.856"/>
		</g>
		<path fill="none" stroke="#FFFFFF" stroke-width="12" stroke-linecap="round" stroke-linejoin="round" stroke-miterlimit="10" d="
			M712.017,1783.824c0,0-3.185,194.308,0,242.089c3.185,47.781,46.188,331.279,385.431,331.279V882.362"/>
		<path fill="none" stroke="#FFFFFF" stroke-width="12" stroke-linecap="round" stroke-linejoin="round" stroke-miterlimit="10" d="
			M1482.878,1812.492c0,0,0,143.342,0,191.123c0,47.781-19.112,353.577-385.431,353.577"/>
		<path fill="none" stroke="#FFFFFF" stroke-width="12" stroke-linecap="round" stroke-linejoin="round" stroke-miterlimit="10" d="
			M1265.268,2260.038H932.812c-14.568,0-26.487-11.919-26.487-26.487v-34.624c0-14.568,11.919-26.487,26.487-26.487h332.457
			c14.568,0,26.487,11.919,26.487,26.487v34.624C1291.755,2248.118,1279.836,2260.038,1265.268,2260.038z"/>
		<path fill="none" stroke="#FFFFFF" stroke-width="12" stroke-linecap="round" stroke-linejoin="round" stroke-miterlimit="10" d="
			M756.435,2173.018c0,0,293.49-214.434,685.162,0"/>
		<path fill="#FFFFFF" d="M998.975,1704.064l-22.446-22.447c-4.667-4.667-4.667-12.304,0-16.971l22.446-22.446
			c4.667-4.667,12.304-4.667,16.971,0l22.446,22.446c4.667,4.667,4.667,12.304,0,16.971l-22.446,22.447
			C1011.279,1708.73,1003.642,1708.73,998.975,1704.064z"/>
		<path fill="#FFFFFF" d="M1182.134,1704.064l-22.447-22.447c-4.667-4.667-4.667-12.304,0-16.971l22.447-22.446
			c4.667-4.667,12.304-4.667,16.971,0l22.446,22.446c4.667,4.667,4.667,12.304,0,16.971l-22.446,22.447
			C1194.438,1708.73,1186.801,1708.73,1182.134,1704.064z"/>
		
			<line fill="none" stroke="#FFFFFF" stroke-width="12" stroke-linecap="round" stroke-linejoin="round" stroke-miterlimit="10" x1="906.325" y1="2213.85" x2="1291.755" y2="2213.85"/>
	</g>
</g>
</svg>
