<?xml version="1.0" encoding="utf-8"?>
<!-- Generator: Adobe Illustrator 17.0.0, SVG Export Plug-In . SVG Version: 6.00 Build 0)  -->
<!DOCTYPE svg PUBLIC "-//W3C//DTD SVG 1.1//EN" "http://www.w3.org/Graphics/SVG/1.1/DTD/svg11.dtd">
<svg version="1.1" id="Layer_1" xmlns="http://www.w3.org/2000/svg" xmlns:xlink="http://www.w3.org/1999/xlink" x="0px" y="0px"
	 width="2336.364px" height="1905.662px" viewBox="0 0 2336.364 1905.662" enable-background="new 0 0 2336.364 1905.662"
	 xml:space="preserve">
<g>
	
		<rect id="back-col-2" x="754.056" y="152.5" fill="#EBFFF5" stroke="#40DD92" stroke-linecap="round" stroke-linejoin="round" stroke-miterlimit="10" width="859" height="1582"/>
	
		<rect id="back-col-3" x="762.056" y="152.5" fill="#CAFFE3" stroke="#D9F8E9" stroke-linecap="round" stroke-linejoin="round" stroke-miterlimit="10" width="295" height="1563"/>
	
		<rect id="back-col-1" x="1307.056" y="162.5" fill="#CAFFE3" stroke="#D9F8E9" stroke-linecap="round" stroke-linejoin="round" stroke-miterlimit="10" width="295" height="1563"/>
	<g id="lines_1_">
		<path fill="none" stroke="#40DD92" stroke-width="10" stroke-miterlimit="10" d="M1647.556,311c0,0-81,36-120,55"/>
		<path fill="none" stroke="#40DD92" stroke-width="10" stroke-miterlimit="10" d="M908.898,62.477
			C1095.274,358.712,1245.064,610.01,1738.556,660c385,39,608-102,549-294c-41.257-134.26-187-156-349-135
			c-230.046,29.821-761,225-744,549c4.497,85.715-1,135,29,220c11.481,32.53,33,228-122.085,305.703
			C928.547,1392.344,683.528,1509.604,370.556,1515c-519.201,8.952-323.906-592.462,8-424
			c414.589,210.429,760.153,503.373,1254.067,630.963"/>
	</g>
	<g id="patel_4_">
		<g>
			<path fill="#FFD000" d="M1140.891,774.43c-7.962,18.026-47.312,141.901-18.789,169.818
				c45.315,44.353,130.645,14.296,139.608-49.173C1267.108,856.843,1141.919,772.101,1140.891,774.43z"/>
			<path fill="#FFAA00" d="M1141.911,918.152c-0.889,2.645,0.4,6.476,1.122,9.171l6.32,56.933c1.212,4.526,4.582,8.162,9.003,9.714
				l49.661,17.427c4.962,1.741,10.48,0.594,14.337-2.981l34.491-31.969c3.857-3.575,5.419-8.99,4.058-14.07l-14.278-53.319
				c-0.824-3.079-2.662-5.79-5.217-7.697c0,0-48.138-53.971-81.944-73.999C1147.219,876.674,1141.911,918.152,1141.911,918.152z"/>
			<g>
				<path fill="#1DF288" stroke="#1DF288" stroke-width="1.2" stroke-miterlimit="10" d="M1103.695,912.968
					c0,0,14.939,129.575,112.575,104.766c97.636-24.809,60.55-131.238,38.815-157.948c0,0-51.25,14.842-49.209,104.96
					C1205.876,964.746,1166.536,902.62,1103.695,912.968z"/>
				<path fill="#00FFFF" stroke="#00FFFF" stroke-width="2.5" stroke-miterlimit="10" d="M1103.249,912.903
					c0,0-2.324,11.834,11.931,41.499c0,0,61.616-8.232,104.639,48.478c0,0,0.703-70.836,52.891-104.611
					c0,0-4.952-28.215-15.554-38.716c0,0-68.27,23.955-53.364,94.183C1203.792,953.736,1170.141,892.519,1103.249,912.903z"/>
			</g>
		</g>
	</g>
	<g id="Phone">
		
			<path fill="#FFFFFF" stroke="#40DD92" stroke-width="2" stroke-linecap="round" stroke-linejoin="round" stroke-miterlimit="10" d="
			M752.595,161.885V1725.74l881.972-5.255l-10.51-1558.6L752.595,161.885L752.595,161.885z M1073.211,1641.203
			c-0.392,0-0.716-0.324-0.716-0.716v-217.405c0-0.409,0.324-0.716,0.716-0.716h217.405c0.392,0,0.716,0.307,0.716,0.716v217.405
			c0,0.392-0.324,0.716-0.716,0.716H1073.211z M835.017,957.456c0-0.392,0.324-0.716,0.716-0.716h217.405
			c0.409,0,0.734,0.324,0.734,0.716v217.405c0,0.392-0.324,0.716-0.734,0.716H835.734c-0.392,0-0.716-0.324-0.716-0.716
			L835.017,957.456L835.017,957.456z M835.017,1190.26c0-0.392,0.324-0.716,0.716-0.716h217.405c0.409,0,0.734,0.324,0.734,0.716
			v217.405c0,0.409-0.324,0.716-0.734,0.716H835.734c-0.392,0-0.716-0.307-0.716-0.716L835.017,1190.26L835.017,1190.26z
			 M835.017,1423.082c0-0.409,0.324-0.716,0.716-0.716h217.405c0.409,0,0.734,0.307,0.734,0.716v217.405
			c0,0.392-0.324,0.716-0.734,0.716H835.734c-0.392,0-0.716-0.324-0.716-0.716L835.017,1423.082L835.017,1423.082z M835.017,259.008
			c0-0.392,0.324-0.716,0.716-0.716h217.405c0.409,0,0.734,0.324,0.734,0.716v217.405c0,0.409-0.324,0.733-0.734,0.733H835.734
			c-0.392,0-0.716-0.324-0.716-0.733L835.017,259.008L835.017,259.008z M1073.211,477.146c-0.392,0-0.716-0.324-0.716-0.733V259.008
			c0-0.392,0.324-0.716,0.716-0.716h217.405c0.392,0,0.716,0.324,0.716,0.716v217.405c0,0.409-0.324,0.733-0.716,0.733H1073.211z
			 M1309.955,491.829c0-0.392,0.324-0.716,0.716-0.716h217.405c0.409,0,0.733,0.324,0.733,0.716v217.405
			c0,0.392-0.324,0.716-0.733,0.716h-217.405c-0.392,0-0.716-0.324-0.716-0.716V491.829z M1528.81,476.413
			c0,0.409-0.324,0.733-0.733,0.733h-217.405c-0.392,0-0.716-0.324-0.716-0.733V259.008c0-0.392,0.324-0.716,0.716-0.716h217.405
			c0.409,0,0.733,0.324,0.733,0.716V476.413z M1072.495,491.829c0-0.392,0.324-0.716,0.716-0.716h217.405
			c0.392,0,0.716,0.324,0.716,0.716v217.405c0,0.392-0.324,0.716-0.716,0.716h-217.405c-0.392,0-0.716-0.324-0.716-0.716V491.829z
			 M1072.495,724.634c0-0.392,0.324-0.716,0.716-0.716h217.405c0.392,0,0.716,0.324,0.716,0.716v217.405
			c0,0.409-0.324,0.733-0.716,0.733h-217.405c-0.392,0-0.716-0.324-0.716-0.733V724.634z M1290.616,1175.577h-217.405
			c-0.392,0-0.716-0.324-0.716-0.716V957.456c0-0.392,0.324-0.716,0.716-0.716h217.405c0.392,0,0.716,0.324,0.716,0.716v217.405
			C1291.332,1175.253,1291.008,1175.577,1290.616,1175.577z M1291.332,1190.26v217.405c0,0.409-0.324,0.716-0.716,0.716h-217.405
			c-0.392,0-0.716-0.307-0.716-0.716V1190.26c0-0.392,0.324-0.716,0.716-0.716h217.405
			C1291.008,1189.544,1291.332,1189.868,1291.332,1190.26z M1309.955,1423.082c0-0.409,0.324-0.716,0.716-0.716h217.405
			c0.409,0,0.733,0.307,0.733,0.716v217.405c0,0.392-0.324,0.716-0.733,0.716h-217.405c-0.392,0-0.716-0.324-0.716-0.716V1423.082z
			 M1528.077,1408.381h-217.405c-0.392,0-0.716-0.307-0.716-0.716V1190.26c0-0.392,0.324-0.716,0.716-0.716h217.405
			c0.409,0,0.733,0.324,0.733,0.716v217.405C1528.81,1408.074,1528.486,1408.381,1528.077,1408.381z M1528.81,1174.861
			c0,0.392-0.324,0.716-0.733,0.716h-217.405c-0.392,0-0.716-0.324-0.716-0.716V957.456c0-0.392,0.324-0.716,0.716-0.716h217.405
			c0.409,0,0.733,0.324,0.733,0.716V1174.861z M1528.81,942.039c0,0.409-0.324,0.733-0.733,0.733h-217.405
			c-0.392,0-0.716-0.324-0.716-0.733V724.634c0-0.392,0.324-0.716,0.716-0.716h217.405c0.409,0,0.733,0.324,0.733,0.716V942.039z
			 M835.734,709.951c-0.392,0-0.716-0.324-0.716-0.716V491.829c0-0.392,0.324-0.716,0.716-0.716h217.405
			c0.409,0,0.734,0.324,0.734,0.716v217.405c0,0.392-0.324,0.716-0.734,0.716L835.734,709.951L835.734,709.951z M835.017,724.634
			c0-0.392,0.324-0.716,0.716-0.716h217.405c0.409,0,0.734,0.324,0.734,0.716V883.72v58.318c0,0.409-0.324,0.733-0.734,0.733
			H835.734c-0.392,0-0.716-0.324-0.716-0.733L835.017,724.634L835.017,724.634z"/>
		
			<path fill="#99FFCC" stroke="#40DD92" stroke-width="4" stroke-linecap="round" stroke-linejoin="round" stroke-miterlimit="10" d="
			M1525.197,22.074H846.593c-67.529,0-122.779,55.232-122.779,122.761v174.42c-6.534,0.648-11.702,6.201-11.702,12.91v99.551
			c0,6.727,5.168,12.28,11.702,12.928v46.193c-6.534,0.666-11.702,6.201-11.702,12.928v99.551c0,6.727,5.168,12.28,11.702,12.928
			v1144.338c0,67.512,55.25,122.761,122.779,122.761h678.604c67.512,0,122.762-55.25,122.762-122.761V144.835
			C1647.959,77.306,1592.709,22.074,1525.197,22.074z M763.018,175.631c0-5.01,4.082-9.091,9.091-9.091h817.236
			c5.027,0,9.091,4.082,9.091,9.091v1535.29c0,5.027-4.064,9.109-9.091,9.109H772.11c-5.01,0-9.091-4.082-9.091-9.109
			L763.018,175.631L763.018,175.631z"/>
		<g>
			
				<path fill="#99FFCC" stroke="#40DD92" stroke-width="4" stroke-linecap="round" stroke-linejoin="round" stroke-miterlimit="10" d="
				M1537.968,39.346H833.823c-52.534,0-95.505,42.97-95.505,95.505v1635.734c0,52.517,42.97,95.487,95.505,95.487h704.144
				c52.517,0,95.487-42.97,95.487-95.487V134.29C1633.139,82.018,1590.292,39.346,1537.968,39.346z M1598.437,1710.921
				c0,5.027-4.064,9.109-9.091,9.109H772.11c-5.01,0-9.091-4.082-9.091-9.109V175.631c0-5.01,4.082-9.091,9.091-9.091h817.236
				c5.027,0,9.091,4.082,9.091,9.091L1598.437,1710.921L1598.437,1710.921z"/>
			
				<path fill="#FFFFFF" stroke="#40DD92" stroke-width="4" stroke-linecap="round" stroke-linejoin="round" stroke-miterlimit="10" d="
				M1256.691,1826.827H1109.1c-16.549,0-30.09-13.54-30.09-30.09l0,0c0-16.549,13.54-30.09,30.09-30.09h147.591
				c16.549,0,30.09,13.54,30.09,30.09l0,0C1286.781,1813.286,1273.241,1826.827,1256.691,1826.827z"/>
			
				<circle fill="#FFFFFF" stroke="#40DD92" stroke-width="4" stroke-linecap="round" stroke-linejoin="round" stroke-miterlimit="10" cx="994.461" cy="101.671" r="22.825"/>
			
				<path fill="#FFFFFF" stroke="#40DD92" stroke-width="4" stroke-linecap="round" stroke-linejoin="round" stroke-miterlimit="10" d="
				M1251.071,121.376h-134.185c-6.547,0-11.904-5.357-11.904-11.904l0,0c0-6.547,5.357-11.904,11.904-11.904h134.185
				c6.547,0,11.904,5.357,11.904,11.904l0,0C1262.974,116.019,1257.618,121.376,1251.071,121.376z"/>
			
				<path fill="#FFFFFF" stroke="#40DD92" stroke-width="4" stroke-linecap="round" stroke-linejoin="round" stroke-miterlimit="10" d="
				M1361.449,112.719h-34.628c-6.547,0-11.904-5.357-11.904-11.904l0,0c0-6.547,5.357-11.904,11.904-11.904h34.628
				c6.547,0,11.904,5.357,11.904,11.904l0,0C1373.352,107.362,1367.996,112.719,1361.449,112.719z"/>
		</g>
	</g>
	
		<line fill="none" stroke="#40DD92" stroke-width="10" stroke-miterlimit="10" x1="723.814" y1="1286.841" x2="901.427" y2="1393.903"/>
	<path fill="none" stroke="#40DD92" stroke-width="10" stroke-miterlimit="10" d="M1527.556,366c0,0,74-39,98-43"/>
	<g id="patel_6_">
		<g>
			<path fill="#FFD000" d="M31.076,1213.272c-3.577,6.156-22.643,49.073-13.513,60.234c14.506,17.733,46.346,10.339,52.093-12.097
				C73.118,1247.895,31.538,1212.476,31.076,1213.272z"/>
			<path fill="#FFAA00" d="M25.716,1264.924c-0.425,0.914-0.114,2.341,0.037,3.338l0.001,20.697c0.255,1.674,1.32,3.114,2.846,3.847
				l17.139,8.237c1.713,0.823,3.74,0.631,5.267-0.499l13.66-10.106c1.527-1.13,2.304-3.013,2.018-4.891l-3.003-19.716
				c-0.173-1.138-0.725-2.185-1.567-2.972c0,0-15.137-21.299-26.479-29.838C29.275,1250.24,25.716,1264.924,25.716,1264.924z"/>
			<g>
				<path fill="#1DF288" stroke="#1DF288" stroke-width="1.2" stroke-miterlimit="10" d="M12.199,1261.54
					c0,0,0.203,47.126,36.253,42.107c36.05-5.019,26.972-44.716,20.231-55.174c0,0-18.996,3.288-21.853,35.732
					C46.83,1284.204,35.178,1260.327,12.199,1261.54z"/>
				<path fill="#00FFFF" stroke="#00FFFF" stroke-width="2.5" stroke-miterlimit="10" d="M12.042,1261.499
					c0,0-1.306,4.157,2.631,15.378c0,0,22.455-0.502,35.645,21.577c0,0,3.074-25.41,23.161-35.46c0,0-0.654-10.329-4.043-14.523
					c0,0-25.47,5.883-22.915,31.696C46.521,1280.167,36.875,1256.844,12.042,1261.499z"/>
			</g>
		</g>
		<style>
			#patel_6_{
				animation-name: blinkWithOpcity;
				animation-duration: 4s;
				animation-iteration-count: infinite;
			}
			@keyframes blinkWithOpcity {
				0%   { opacity: 1; }
				5%  { opacity: 0; }
				10%  { opacity: 1; }
				50% { opacity: 1; }
				55% { opacity: 0; }
				60% { opacity: 1; }
				100% { opacity: 1; }
			}
		</style>
	</g>
	<g id="patel_5_">
		<g>
			<path fill="#FFD000" d="M1080.769,367.104c2.511,9.344,25.64,68.825,45.147,70.708c30.99,2.991,54.348-34.793,38.217-61.818
				C1154.415,359.715,1080.445,365.896,1080.769,367.104z"/>
			<path fill="#FFAA00" d="M1125.447,421.731c0.475,1.285,2.148,2.352,3.255,3.16l19.96,19.817c1.858,1.357,4.267,1.708,6.435,0.939
				l24.354-8.641c2.434-0.863,4.189-3.002,4.562-5.557l3.334-22.85c0.373-2.555-0.699-5.107-2.784-6.629l-21.888-15.983
				c-1.264-0.923-2.802-1.393-4.366-1.335c0,0-35.033-5.798-54.128-3.037C1114.695,404.239,1125.447,421.731,1125.447,421.731z"/>
			<g>
				<path fill="#1DF288" stroke="#1DF288" stroke-width="1.2" stroke-miterlimit="10" d="M1109.24,431.526
					c0,0,45.639,44.93,75.319,5.36s-17.294-68.828-33.834-72.341c0,0-15.018,21.466,13.532,55.288
					C1164.257,419.833,1130.074,408.206,1109.24,431.526z"/>
				<path fill="#00FFFF" stroke="#00FFFF" stroke-width="2.5" stroke-miterlimit="10" d="M1109.05,431.638
					c0,0,2.758,5.24,17.349,12.188c0,0,21.018-22.134,54.94-13.712c0,0-21.559-27.296-12.017-56.289c0,0-10.587-9.26-17.876-10.007
					c0,0-18.716,30.195,8.622,52.448C1160.068,416.266,1128.34,403.233,1109.05,431.638z"/>
			</g>
		</g>
		
		<style>
			#patel_5_{
				animation-name: blinkWithOpcity;
				animation-duration: 3s;
				animation-iteration-count: infinite;
			}
			@keyframes blinkWithOpcity {
				0%   { opacity: 1; }
				5%  { opacity: 0; }
				10%  { opacity: 1; }
				50% { opacity: 1; }
				55% { opacity: 0; }
				60% { opacity: 1; }
				100% { opacity: 1; }
			}
		</style>
	</g>
	<g id="patel_3_">
		<g>
			<path fill="#FFD000" d="M864.168,1436.219c1.4-12.25,1.844-93.57-20.391-104.936c-35.325-18.057-80.701,15.782-74.238,55.363
				C773.431,1410.489,863.987,1437.802,864.168,1436.219z"/>
			<path fill="#FFAA00" d="M836.803,1350.559c0.039-1.745-1.444-3.794-2.377-5.269l-14.374-32.832
				c-1.567-2.478-4.256-4.022-7.186-4.126l-32.908-1.165c-3.288-0.116-6.371,1.596-8.009,4.45l-14.651,25.517
				c-1.638,2.853-1.563,6.379,0.195,9.16l18.455,29.191c1.066,1.686,2.668,2.963,4.549,3.626c0,0,38.802,23.277,62.724,28.947
				C841.353,1376.323,836.803,1350.559,836.803,1350.559z"/>
			<g>
				<path fill="#1DF288" stroke="#1DF288" stroke-width="1.2" stroke-miterlimit="10" d="M860.595,1346.541
					c0,0-33.046-74.618-86.749-41.623c-53.703,32.996-11.737,89.665,6.219,101.574c0,0,27.85-18.407,9.854-71.858
					C789.92,1334.635,824.985,1364.421,860.595,1346.541z"/>
				<path fill="#00FFFF" stroke="#00FFFF" stroke-width="2.5" stroke-miterlimit="10" d="M860.873,1346.497
					c0,0-0.815-7.502-14.852-22.568c0,0-35.273,16.388-71.529-9.478c0,0,12.767,42.444-12.119,72.334
					c0,0,8.211,15.932,16.499,20.231c0,0,36.32-27.019,14.343-66.193C793.214,1340.824,824.711,1371.126,860.873,1346.497z"/>
			</g>
		</g>
		
		<style>
			#patel_3_{
				animation-name: blinkWithOpcity;
				animation-duration: 3.5s;
				animation-iteration-count: infinite;
			}
			@keyframes blinkWithOpcity {
				0%   { opacity: 1; }
				5%  { opacity: 0; }
				10%  { opacity: 1; }
				50% { opacity: 1; }
				55% { opacity: 0; }
				60% { opacity: 1; }
				100% { opacity: 1; }
			}
		</style>
	</g>
	<g id="patel_2_">
		<g>
			<path fill="#FFD000" d="M2323.006,416.651c1.768-8.13,7.564-62.696-6.596-71.83c-22.496-14.511-55.247,5.14-53.584,32.15
				C2263.828,393.242,2322.778,417.701,2323.006,416.651z"/>
			<path fill="#FFAA00" d="M2310.425,357.291c0.144-1.169-0.713-2.645-1.24-3.698l-7.431-23.014
				c-0.884-1.77-2.586-2.988-4.546-3.256l-22.015-3.007c-2.2-0.3-4.385,0.641-5.678,2.446l-11.561,16.141
				c-1.293,1.805-1.481,4.177-0.488,6.163l10.417,20.846c0.601,1.204,1.591,2.17,2.809,2.742c0,0,24.477,18.251,40.154,23.675
				C2311.738,374.896,2310.425,357.291,2310.425,357.291z"/>
			<g>
				<path fill="#1DF288" stroke="#1DF288" stroke-width="1.2" stroke-miterlimit="10" d="M2326.67,356.202
					c0,0-17.142-52.331-55.427-33.809s-13.941,59.405-2.691,68.614c0,0,19.942-10.475,11.474-47.577
					C2280.026,343.43,2301.554,365.798,2326.67,356.202z"/>
				<path fill="#00FFFF" stroke="#00FFFF" stroke-width="2.5" stroke-miterlimit="10" d="M2326.86,356.191
					c0,0-0.04-5.091-8.446-16.155c0,0-24.789,8.618-47.382-11.199c0,0,5.702,29.359-13.026,47.744c0,0,4.435,11.251,9.709,14.698
					c0,0,26.211-15.684,14.104-43.471C2281.819,347.808,2300.917,370.281,2326.86,356.191z"/>
			</g>
		</g>
		
		<style>
			#patel_2_{
				animation-name: blinkWithOpcity;
				animation-duration: 3.8s;
				animation-iteration-count: infinite;
			}
			@keyframes blinkWithOpcity {
				0%   { opacity: 1; }
				5%  { opacity: 0; }
				10%  { opacity: 1; }
				50% { opacity: 1; }
				55% { opacity: 0; }
				60% { opacity: 1; }
				100% { opacity: 1; }
			}
		</style>
	</g>
	<g id="patel_1_">
		<g>
			<path fill="#FFD000" d="M1792.475,702.561c8.406,3.041,65.695,16.989,77.441,3.21c18.66-21.891,2.398-59.572-26.606-61.65
				C1825.838,642.87,1791.389,702.168,1792.475,702.561z"/>
			<path fill="#FFAA00" d="M1857.488,697.62c1.225,0.32,2.918-0.383,4.115-0.794l25.569-4.635c2.011-0.69,3.551-2.328,4.115-4.377
				l6.339-23.018c0.633-2.3-0.058-4.762-1.796-6.396l-15.544-14.613c-1.738-1.634-4.238-2.172-6.494-1.398l-23.685,8.124
				c-1.368,0.469-2.537,1.385-3.321,2.601c0,0-22.925,23.468-30.935,39.392C1838.551,696.51,1857.488,697.62,1857.488,697.62z"/>
			<g>
				<path fill="#1DF288" stroke="#1DF288" stroke-width="1.2" stroke-miterlimit="10" d="M1856.333,715.077
					c0,0,58.176-10.8,43.905-54.214s-61.282-23.312-72.693-12.643c0,0,8.315,22.732,49.036,18.999
					C1876.581,667.219,1849.691,686.959,1856.333,715.077z"/>
				<path fill="#00FFFF" stroke="#00FFFF" stroke-width="2.5" stroke-miterlimit="10" d="M1856.317,715.28
					c0,0,5.428,0.683,18.409-6.693c0,0-5.646-27.629,18.678-48.868c0,0-32.08,1.89-48.993-20.676c0,0-12.615,3.121-17.037,8.246
					c0,0,12.969,30.15,44.288,21.215C1871.663,668.505,1845.007,685.642,1856.317,715.28z"/>
			</g>
		</g>
		
		<style>
			#patel_1_{
				animation-name: blinkWithOpcity;
				animation-duration: 3.2s;
				animation-iteration-count: infinite;
			}
			@keyframes blinkWithOpcity {
				0%   { opacity: 1; }
				5%  { opacity: 0; }
				10%  { opacity: 1; }
				50% { opacity: 1; }
				55% { opacity: 0; }
				60% { opacity: 1; }
				100% { opacity: 1; }
			}
		</style>
	</g>
	<g id="patel">
		<g>
			<path fill="#FFD000" d="M1749.8,324.909c-7.356-7.02-60.595-47.801-79.138-38.843c-29.459,14.232-29.806,60.91-0.568,76.369
				C1687.707,371.748,1750.75,325.816,1749.8,324.909z"/>
			<path fill="#FFAA00" d="M1679.862,300.248c-1.128-0.894-3.213-0.939-4.648-1.061l-28.74-6.897
				c-2.409-0.204-4.764,0.795-6.291,2.67l-17.151,21.054c-1.714,2.104-2.123,4.983-1.063,7.481l9.48,22.337
				c1.06,2.498,3.415,4.204,6.119,4.432l28.379,2.402c1.639,0.139,3.276-0.279,4.649-1.185c0,0,34.622-13.919,50.26-26.822
				C1699.065,310.085,1679.862,300.248,1679.862,300.248z"/>
			<g>
				<path fill="#1DF288" stroke="#1DF288" stroke-width="1.2" stroke-miterlimit="10" d="M1689.067,282.607
					c0,0-65.507-15.428-70.555,36.305s53.102,52.36,69.871,46.485c0,0,1.766-27.473-42.333-42.256
					C1646.05,323.141,1683.091,314.919,1689.067,282.607z"/>
				<path fill="#00FFFF" stroke="#00FFFF" stroke-width="2.5" stroke-miterlimit="10" d="M1689.176,282.402
					c0,0-5.337-3.199-22.231-1.473c0,0-6.789,31.348-41.845,42.305c0,0,34.259,12.739,41.519,43.982c0,0,14.561,2.535,21.514-0.773
					c0,0,0.322-37.329-36.374-42.386C1651.759,324.056,1687.362,318.437,1689.176,282.402z"/>
			</g>
		</g>
		
		<style>
			#patel{
				animation-name: blinkWithOpcity;
				animation-duration: 3.3s;
				animation-iteration-count: infinite;
			}
			@keyframes blinkWithOpcity {
				0%   { opacity: 1; }
				5%  { opacity: 0; }
				10%  { opacity: 1; }
				50% { opacity: 1; }
				55% { opacity: 0; }
				60% { opacity: 1; }
				100% { opacity: 1; }
			}
		</style>
	</g>
</g>
<g id="Alternate_hand">
</g>
</svg>
