<?xml version="1.0" encoding="utf-8"?>
<!-- Generator: Adobe Illustrator 17.0.0, SVG Export Plug-In . SVG Version: 6.00 Build 0)  -->
<!DOCTYPE svg PUBLIC "-//W3C//DTD SVG 1.1//EN" "http://www.w3.org/Graphics/SVG/1.1/DTD/svg11.dtd">
<svg version="1.1" id="Layer_1" xmlns="http://www.w3.org/2000/svg" xmlns:xlink="http://www.w3.org/1999/xlink" x="0px" y="0px"
	 width="1069.879px" height="1905.662px" viewBox="0 0 1069.879 1905.662" enable-background="new 0 0 1069.879 1905.662"
	 xml:space="preserve">
<g id="Alternate_hand_1_">
</g>
<g id="Alternate_hand">
</g>
<g id="Petals">
	<path fill="none" stroke="#42DB90" stroke-width="10" stroke-miterlimit="10" d="M951.623,310.986
		c0,0-81.017,36.008-120.025,55.012"/>
	<path fill="none" stroke="#42DB90" stroke-width="8" stroke-miterlimit="10" d="M832.851,1256.801"/>
	<path fill="none" stroke="#42DB90" stroke-width="8" stroke-miterlimit="10" d="M832.597,1156.033"/>
	
		<rect x="57.933" y="152.453" fill="#E9FDF3" stroke="#42DB90" stroke-linecap="round" stroke-linejoin="round" stroke-miterlimit="10" width="859.182" height="1582.336"/>
	
		<rect x="65.935" y="152.453" fill="#C8FDE1" stroke="#D7F6E7" stroke-linecap="round" stroke-linejoin="round" stroke-miterlimit="10" width="295.063" height="1563.332"/>
	
		<rect x="611.05" y="162.455" fill="#C8FDE1" stroke="#D7F6E7" stroke-linecap="round" stroke-linejoin="round" stroke-miterlimit="10" width="295.063" height="1563.332"/>
	<g>
		<path fill="#42DB90" d="M407.886,1310.818c36.596-18.336,66.292-44.538,88.264-77.879c18.104-27.473,30.955-59.699,38.196-95.784
			c12.85-64.035,4.264-122.165-1.626-138.852c-23.577-66.801-24.999-112.2-26.799-169.677c-0.48-15.345-0.978-31.211-1.902-48.828
			c-5.122-97.634,40.666-180.656,104.945-248.294c92.209,57.194,198.177,96.06,323.521,118.755c0-3.768,0-7.536,0-11.303
			C803.994,615.232,702,575.177,617.252,522.968c49.414-49.817,108.481-90.939,163.464-123.031
			c50.511-29.483,104.193-55.307,157.67-77.296c-0.191-3.93-0.549-7.848-0.531-11.658c-55.155,22.499-110.597,49.052-162.684,79.454
			c-56.358,32.896-116.922,75.166-167.464,126.554C436.614,408.077,336.438,248.731,227.173,74.923l-9.71-15.441l-9.311,5.857
			l9.708,15.438c90.122,143.357,175.247,278.765,297.546,382.531c26.75,22.695,54.707,43.407,84.077,62.22
			c-65.295,69.24-111.721,154.381-106.449,254.847c0.918,17.501,1.413,33.309,1.892,48.596
			c1.83,58.431,3.275,104.583,27.421,172.994c5.574,15.792,13.617,71.213,1.214,133.027
			c-10.743,53.541-40.389,125.802-120.603,165.992c-52.361,26.234-116.908,58.574-192.271,89.901
			c-44.614-26.474-88.706-53.184-132.557-79.749c-13.954-8.453-27.964-16.939-42.023-25.438c0.116,4.045-0.072,8.09-1.188,12.135
			c12.546,7.588,25.051,15.163,37.513,22.712c41.373,25.064,83.189,50.396,125.527,75.579
			c-48.892,19.917-102.169,39.259-159.474,56.179c0,3.823,0,7.646,0,11.468c18.481-5.443,37.033-11.272,55.677-17.511
			c40.242-13.465,78.714-28.091,115.396-43.248c87.086,51.619,176.361,102.428,268.424,148.766
			c158.354,79.704,307.948,137.208,457.329,175.797l2.752-10.65c-270.666-69.92-499.49-191.302-715.83-319.2
			C290.415,1369.013,352.306,1338.665,407.886,1310.818z"/>
	</g>
	<g>
		<path fill="none" d="M145.452,419.009"/>
	</g>
	<g id="petal-2">
		<g>
			<path fill="#FFCF00" d="M384.715,367.102c2.512,9.346,25.646,68.84,45.156,70.723c30.997,2.992,54.36-34.801,38.225-61.831
				C458.377,359.711,384.391,365.894,384.715,367.102z"/>
			<path fill="#FDA803" d="M429.402,421.741c0.475,1.285,2.149,2.353,3.255,3.161l19.964,19.821
				c1.859,1.357,4.268,1.709,6.436,0.939l24.36-8.643c2.434-0.864,4.19-3.003,4.563-5.559l3.335-22.854
				c0.373-2.556-0.699-5.108-2.785-6.631l-21.893-15.986c-1.264-0.923-2.802-1.394-4.367-1.335c0,0-35.041-5.799-54.14-3.038
				C418.648,404.245,429.402,421.741,429.402,421.741z"/>
			<g>
				<path fill="#20F086" stroke="#20F086" stroke-width="1.2" stroke-miterlimit="10" d="M413.193,431.537
					c0,0,45.649,44.94,75.335,5.361s-17.297-68.843-33.841-72.356c0,0-15.021,21.471,13.535,55.3
					C468.221,419.842,434.031,408.212,413.193,431.537z"/>
				<path fill="#0EFDFD" stroke="#0EFDFD" stroke-width="2.5" stroke-miterlimit="10" d="M413.002,431.65
					c0,0,2.759,5.241,17.352,12.19c0,0,21.022-22.139,54.951-13.715c0,0-21.564-27.302-12.019-56.301c0,0-10.59-9.262-17.88-10.009
					c0,0-18.72,30.201,8.624,52.459C464.031,416.274,432.296,403.239,413.002,431.65z"/>
			</g>
		</g>
	</g>
	<g id="petal-3">
		<g>
			<path fill="#FFCF00" d="M439.053,769.35c-9.525,21.566-56.602,169.762-22.478,203.161
				c54.212,53.061,156.297,17.103,167.019-58.827C590.053,867.944,440.284,766.563,439.053,769.35z"/>
			<path fill="#FDA803" d="M440.273,941.291c-1.064,3.164,0.478,7.747,1.342,10.971l7.561,68.112
				c1.45,5.415,5.482,9.765,10.771,11.621l59.411,20.849c5.937,2.083,12.538,0.711,17.152-3.566l41.263-38.246
				c4.614-4.277,6.483-10.755,4.855-16.833l-17.082-63.788c-0.986-3.683-3.185-6.927-6.241-9.208c0,0-57.589-64.567-98.033-88.528
				C446.625,891.669,440.273,941.291,440.273,941.291z"/>
			<g>
				<path fill="#20F086" stroke="#20F086" stroke-width="1.2" stroke-miterlimit="10" d="M394.555,935.089
					c0,0,17.872,155.016,134.679,125.336s72.439-157.005,46.436-188.96c0,0-61.313,17.756-58.871,125.569
					C516.798,997.034,469.733,922.709,394.555,935.089z"/>
				<path fill="#0EFDFD" stroke="#0EFDFD" stroke-width="2.5" stroke-miterlimit="10" d="M394.021,935.011
					c0,0-2.78,14.158,14.273,49.647c0,0,73.714-9.849,125.184,57.996c0,0,0.841-84.745,63.276-125.151
					c0,0-5.924-33.754-18.608-46.317c0,0-81.674,28.658-63.842,112.675C514.305,983.861,474.047,910.625,394.021,935.011z"/>
			</g>
		</g>
	</g>
	<g>
		
			<path fill="#FFFFFF" stroke="#42DB90" stroke-width="2" stroke-linecap="round" stroke-linejoin="round" stroke-miterlimit="10" d="
			M56.472,161.84v1564.187l882.159-5.256L928.118,161.84H56.472z M377.156,1641.472c-0.392,0-0.716-0.324-0.716-0.716v-217.451
			c0-0.409,0.324-0.716,0.716-0.716h217.451c0.392,0,0.716,0.307,0.716,0.716v217.451c0,0.392-0.324,0.716-0.716,0.716H377.156z
			 M138.911,957.579c0-0.392,0.324-0.716,0.716-0.716h217.451c0.409,0,0.734,0.324,0.734,0.716v217.451
			c0,0.392-0.324,0.716-0.734,0.716H139.628c-0.392,0-0.716-0.324-0.716-0.716V957.579z M138.911,1190.433
			c0-0.392,0.324-0.716,0.716-0.716h217.451c0.409,0,0.734,0.324,0.734,0.716v217.451c0,0.409-0.324,0.716-0.734,0.716H139.628
			c-0.392,0-0.716-0.307-0.716-0.716V1190.433z M138.911,1423.304c0-0.409,0.324-0.716,0.716-0.716h217.451
			c0.409,0,0.734,0.307,0.734,0.716v217.451c0,0.392-0.324,0.716-0.734,0.716H139.628c-0.392,0-0.716-0.324-0.716-0.716V1423.304z
			 M138.911,258.983c0-0.392,0.324-0.716,0.716-0.716h217.451c0.409,0,0.734,0.324,0.734,0.716v217.451
			c0,0.409-0.324,0.733-0.734,0.733H139.628c-0.392,0-0.716-0.324-0.716-0.733V258.983z M377.156,477.167
			c-0.392,0-0.716-0.324-0.716-0.733V258.983c0-0.392,0.324-0.716,0.716-0.716h217.451c0.392,0,0.716,0.324,0.716,0.716v217.451
			c0,0.409-0.324,0.733-0.716,0.733H377.156z M613.95,491.854c0-0.392,0.324-0.716,0.716-0.716h217.451
			c0.409,0,0.733,0.324,0.733,0.716v217.451c0,0.392-0.324,0.716-0.733,0.716H614.666c-0.392,0-0.716-0.324-0.716-0.716V491.854z
			 M832.851,476.434c0,0.409-0.324,0.733-0.733,0.733H614.666c-0.392,0-0.716-0.324-0.716-0.733V258.983
			c0-0.392,0.324-0.716,0.716-0.716h217.451c0.409,0,0.733,0.324,0.733,0.716V476.434z M376.439,491.854
			c0-0.392,0.324-0.716,0.716-0.716h217.451c0.392,0,0.716,0.324,0.716,0.716v217.451c0,0.392-0.324,0.716-0.716,0.716H377.156
			c-0.392,0-0.716-0.324-0.716-0.716V491.854z M376.439,724.708c0-0.392,0.324-0.716,0.716-0.716h217.451
			c0.392,0,0.716,0.324,0.716,0.716v217.451c0,0.409-0.324,0.734-0.716,0.734H377.156c-0.392,0-0.716-0.324-0.716-0.734V724.708z
			 M594.607,1175.746H377.156c-0.392,0-0.716-0.324-0.716-0.716V957.579c0-0.392,0.324-0.716,0.716-0.716h217.451
			c0.392,0,0.716,0.324,0.716,0.716v217.451C595.323,1175.422,594.999,1175.746,594.607,1175.746z M595.323,1190.433v217.451
			c0,0.409-0.324,0.716-0.716,0.716H377.156c-0.392,0-0.716-0.307-0.716-0.716v-217.451c0-0.392,0.324-0.716,0.716-0.716h217.451
			C594.999,1189.717,595.323,1190.041,595.323,1190.433z M613.95,1423.304c0-0.409,0.324-0.716,0.716-0.716h217.451
			c0.409,0,0.733,0.307,0.733,0.716v217.451c0,0.392-0.324,0.716-0.733,0.716H614.666c-0.392,0-0.716-0.324-0.716-0.716V1423.304z
			 M832.117,1408.601H614.666c-0.392,0-0.716-0.307-0.716-0.716v-217.451c0-0.392,0.324-0.716,0.716-0.716h217.451
			c0.409,0,0.733,0.324,0.733,0.716v217.451C832.851,1408.294,832.527,1408.601,832.117,1408.601z M832.851,1175.03
			c0,0.392-0.324,0.716-0.733,0.716H614.666c-0.392,0-0.716-0.324-0.716-0.716V957.579c0-0.392,0.324-0.716,0.716-0.716h217.451
			c0.409,0,0.733,0.324,0.733,0.716V1175.03z M832.851,942.159c0,0.409-0.324,0.734-0.733,0.734H614.666
			c-0.392,0-0.716-0.324-0.716-0.734V724.708c0-0.392,0.324-0.716,0.716-0.716h217.451c0.409,0,0.733,0.324,0.733,0.716V942.159z
			 M139.628,710.021c-0.392,0-0.716-0.324-0.716-0.716V491.854c0-0.392,0.324-0.716,0.716-0.716h217.451
			c0.409,0,0.734,0.324,0.734,0.716v217.451c0,0.392-0.324,0.716-0.734,0.716H139.628z M138.911,724.708
			c0-0.392,0.324-0.716,0.716-0.716h217.451c0.409,0,0.734,0.324,0.734,0.716v159.12v58.331c0,0.409-0.324,0.734-0.734,0.734
			H139.628c-0.392,0-0.716-0.324-0.716-0.734V724.708z"/>
		
			<path fill="#97FDCB" stroke="#42DB90" stroke-width="4" stroke-linecap="round" stroke-linejoin="round" stroke-miterlimit="10" d="
			M829.238,21.999H150.49c-67.544,0-122.805,55.244-122.805,122.787v174.457c-6.535,0.648-11.704,6.203-11.704,12.913v99.572
			c0,6.728,5.169,12.282,11.704,12.931v46.203c-6.535,0.666-11.704,6.202-11.704,12.931v99.572c0,6.728,5.169,12.282,11.704,12.931
			v1144.581c0,67.526,55.261,122.787,122.805,122.787h678.748c67.526,0,122.788-55.261,122.788-122.787V144.786
			C952.025,77.243,896.764,21.999,829.238,21.999z M66.897,175.588c0-5.011,4.082-9.093,9.093-9.093H893.4
			c5.028,0,9.093,4.082,9.093,9.093v1535.616c0,5.028-4.065,9.111-9.093,9.111H75.99c-5.011,0-9.093-4.083-9.093-9.111V175.588z"/>
		<g>
			
				<path fill="#97FDCB" stroke="#42DB90" stroke-width="4" stroke-linecap="round" stroke-linejoin="round" stroke-miterlimit="10" d="
				M842.011,39.274H137.717c-52.546,0-95.525,42.979-95.525,95.525V1770.88c0,52.528,42.979,95.507,95.525,95.507h704.294
				c52.528,0,95.507-42.979,95.507-95.507V134.239C937.203,81.956,894.346,39.274,842.011,39.274z M902.493,1711.204
				c0,5.028-4.065,9.111-9.093,9.111H75.99c-5.011,0-9.093-4.083-9.093-9.111V175.588c0-5.011,4.082-9.093,9.093-9.093H893.4
				c5.028,0,9.093,4.082,9.093,9.093V1711.204z"/>
			
				<path fill="#FFFFFF" stroke="#42DB90" stroke-width="4" stroke-linecap="round" stroke-linejoin="round" stroke-miterlimit="10" d="
				M569.252,1827.135H404.476c-11.836,0-21.519-9.684-21.519-21.519v-17.154c0-11.836,9.684-21.519,21.519-21.519h164.776
				c11.836,0,21.519,9.684,21.519,21.519v17.154C590.771,1817.451,581.087,1827.135,569.252,1827.135z"/>
			
				<circle fill="#FFFFFF" stroke="#42DB90" stroke-width="4" stroke-linecap="round" stroke-linejoin="round" stroke-miterlimit="10" cx="298.388" cy="101.613" r="22.83"/>
			
				<path fill="#FFFFFF" stroke="#42DB90" stroke-width="4" stroke-linecap="round" stroke-linejoin="round" stroke-miterlimit="10" d="
				M558.446,121.322h-141c-4.682,0-8.513-3.831-8.513-8.513v-6.786c0-4.682,3.831-8.513,8.513-8.513h141
				c4.682,0,8.513,3.831,8.513,8.513v6.786C566.959,117.491,563.128,121.322,558.446,121.322z"/>
			
				<path fill="#FFFFFF" stroke="#42DB90" stroke-width="4" stroke-linecap="round" stroke-linejoin="round" stroke-miterlimit="10" d="
				M668.847,112.663h-41.422c-4.682,0-8.513-3.831-8.513-8.513v-6.786c0-4.682,3.831-8.513,8.513-8.513h41.422
				c4.682,0,8.513,3.831,8.513,8.513v6.786C677.36,108.832,673.53,112.663,668.847,112.663z"/>
		</g>
	</g>
	
		<line fill="none" stroke="#42DB90" stroke-width="10" stroke-miterlimit="10" x1="27.685" y1="1287.034" x2="205.335" y2="1394.119"/>
	<g id="petal-4">
		<g>
			<path fill="#FFCF00" d="M161.785,1434.04c1.4-12.253,1.845-93.59-20.395-104.958c-35.333-18.061-80.718,15.785-74.254,55.375
				C71.029,1408.304,161.604,1435.624,161.785,1434.04z"/>
			<path fill="#FDA803" d="M134.414,1348.362c0.039-1.745-1.445-3.794-2.378-5.27l-14.377-32.839
				c-1.567-2.479-4.257-4.023-7.188-4.127l-32.915-1.165c-3.289-0.116-6.372,1.597-8.011,4.451l-14.654,25.523
				c-1.639,2.854-1.564,6.38,0.195,9.162l18.459,29.197c1.066,1.686,2.669,2.964,4.55,3.627c0,0,38.81,23.282,62.737,28.953
				C138.966,1374.132,134.414,1348.362,134.414,1348.362z"/>
			<g>
				<path fill="#20F086" stroke="#20F086" stroke-width="1.2" stroke-miterlimit="10" d="M158.212,1344.343
					c0,0-33.053-74.634-86.767-41.632c-53.715,33.003-11.739,89.684,6.221,101.595c0,0,27.856-18.411,9.856-71.873
					C87.521,1332.434,122.594,1362.227,158.212,1344.343z"/>
				<path fill="#0EFDFD" stroke="#0EFDFD" stroke-width="2.5" stroke-miterlimit="10" d="M158.49,1344.299
					c0,0-0.815-7.503-14.855-22.573c0,0-35.28,16.392-71.545-9.479c0,0,12.77,42.453-12.121,72.35c0,0,8.212,15.935,16.502,20.235
					c0,0,36.328-27.024,14.346-66.207C90.817,1338.625,122.32,1368.933,158.49,1344.299z"/>
			</g>
		</g>
	</g>
	<path fill="none" stroke="#42DB90" stroke-width="10" stroke-miterlimit="10" d="M831.597,365.998c0,0,74.016-39.008,98.021-43.009
		"/>
	<g id="petal-1">
		<g>
			<path fill="#FFCF00" d="M1053.888,324.898c-7.358-7.021-60.608-47.811-79.154-38.851c-29.465,14.235-29.812,60.923-0.568,76.385
				C991.782,371.747,1054.839,325.805,1053.888,324.898z"/>
			<path fill="#FDA803" d="M983.935,300.232c-1.128-0.895-3.214-0.94-4.649-1.061l-28.746-6.899c-2.41-0.204-4.765,0.796-6.292,2.67
				l-17.154,21.058c-1.714,2.104-2.123,4.984-1.063,7.482l9.482,22.341c1.06,2.498,3.416,4.205,6.12,4.433l28.385,2.402
				c1.639,0.139,3.277-0.279,4.65-1.185c0,0,34.629-13.922,50.27-26.828C1003.142,310.071,983.935,300.232,983.935,300.232z"/>
			<g>
				<path fill="#20F086" stroke="#20F086" stroke-width="1.2" stroke-miterlimit="10" d="M993.142,282.587
					c0,0-65.521-15.431-70.57,36.312s53.113,52.371,69.886,46.495c0,0,1.767-27.479-42.342-42.265
					C950.116,323.129,987.164,314.906,993.142,282.587z"/>
				<path fill="#0EFDFD" stroke="#0EFDFD" stroke-width="2.5" stroke-miterlimit="10" d="M993.252,282.382
					c0,0-5.338-3.2-22.236-1.473c0,0-6.79,31.354-41.854,42.313c0,0,34.267,12.742,41.527,43.991c0,0,14.565,2.535,21.519-0.774
					c0,0,0.322-37.337-36.382-42.395C955.827,324.045,991.437,318.425,993.252,282.382z"/>
			</g>
		</g>
	</g>
</g>
<style>
	#petal-1{
		animation-name: blinkWithOpcity;
		animation-duration: 4s;
		animation-iteration-count: infinite;
	}
	#petal-2{
		animation-name: blinkWithOpcity;
		animation-duration: 3.8s;
		animation-iteration-count: infinite;
	}
	#petal-3{
		animation-name: blinkWithOpcity;
		animation-duration: 6s;
		animation-iteration-count: infinite;
	}
	#petal-4{
		animation-name: blinkWithOpcity;
		animation-duration: 3.6s;
		animation-iteration-count: infinite;
	}
	@keyframes blinkWithOpcity {
		0%   { opacity: 1; }
		3%  { opacity: 0; }
		6%  { opacity: 1; }
		50% { opacity: 1; }
		53% { opacity: 0; }
		56% { opacity: 1; }
		100% { opacity: 1; }
	}
</style>
</svg>
