<?xml version="1.0" encoding="utf-8"?>
<!-- Generator: Adobe Illustrator 17.0.0, SVG Export Plug-In . SVG Version: 6.00 Build 0)  -->
<!DOCTYPE svg PUBLIC "-//W3C//DTD SVG 1.1//EN" "http://www.w3.org/Graphics/SVG/1.1/DTD/svg11.dtd">
<svg version="1.1" id="Layer_1" xmlns="http://www.w3.org/2000/svg" xmlns:xlink="http://www.w3.org/1999/xlink" x="0px" y="0px"
	 width="1069.879px" height="1905.662px" viewBox="700.682 0 1069.879 1905.662"
	 enable-background="new 700.682 0 1069.879 1905.662" xml:space="preserve">
<g>
	
		<rect id="back-col-2" x="758.716" y="152.623" fill="#EBFFF5" stroke="#40DD92" stroke-linecap="round" stroke-linejoin="round" stroke-miterlimit="10" width="859" height="1582"/>
	
		<rect id="back-col-3" x="766.716" y="152.623" fill="#CAFFE3" stroke="#D9F8E9" stroke-linecap="round" stroke-linejoin="round" stroke-miterlimit="10" width="295" height="1563"/>
	
		<rect id="back-col-1" x="1311.716" y="162.623" fill="#CAFFE3" stroke="#D9F8E9" stroke-linecap="round" stroke-linejoin="round" stroke-miterlimit="10" width="295" height="1563"/>
	<g id="lines_1_">
		<path fill="none" stroke="#40DD92" stroke-width="10" stroke-miterlimit="10" d="M1652.216,311.123c0,0-81,36-120,55"/>
		<path fill="none" stroke="#40DD92" stroke-width="10" stroke-miterlimit="10" d="M728.474,1286.962
			c280.046,169.209,556.739,344.175,908.809,435.124"/>
		<path fill="none" stroke="#40DD92" stroke-width="10" stroke-miterlimit="10" d="M913.558,62.6
			c174.396,277.194,316.759,515.042,738.658,585.43l0.401-336.651c-226.755,90.082-464.874,250.074-453.401,468.744
			c4.497,85.715-1,135,29,220c11.481,32.53,33,228-122.085,305.703c-101.383,50.796-227.547,112.117-377.657,155.249"/>
	</g>
	<g id="patel_4_">
		<g>
			<path fill="#FFD000" d="M1145.551,774.553c-7.962,18.026-47.312,141.901-18.789,169.818
				c45.315,44.353,130.645,14.296,139.608-49.173C1271.768,856.966,1146.579,772.224,1145.551,774.553z"/>
			<path fill="#FFAA00" d="M1146.571,918.275c-0.889,2.645,0.4,6.476,1.122,9.171l6.32,56.933c1.212,4.526,4.582,8.162,9.003,9.714
				l49.661,17.427c4.962,1.741,10.48,0.594,14.337-2.981l34.491-31.969c3.857-3.575,5.419-8.99,4.058-14.07l-14.278-53.319
				c-0.824-3.079-2.662-5.79-5.217-7.697c0,0-48.138-53.971-81.944-73.999C1151.879,876.797,1146.571,918.275,1146.571,918.275z"/>
			<g>
				<path fill="#1DF288" stroke="#1DF288" stroke-width="1.2" stroke-miterlimit="10" d="M1108.355,913.091
					c0,0,14.939,129.575,112.575,104.766c97.636-24.809,60.55-131.238,38.815-157.948c0,0-51.25,14.842-49.209,104.96
					C1210.536,964.869,1171.196,902.743,1108.355,913.091z"/>
				<path fill="#00FFFF" stroke="#00FFFF" stroke-width="2.5" stroke-miterlimit="10" d="M1107.909,913.026
					c0,0-2.324,11.834,11.931,41.499c0,0,61.616-8.232,104.639,48.478c0,0,0.703-70.836,52.891-104.611
					c0,0-4.952-28.215-15.554-38.716c0,0-68.27,23.955-53.364,94.183C1208.452,953.859,1174.801,892.642,1107.909,913.026z"/>
			</g>
		</g>
	</g>
	<g id="Phone">
		
			<path fill="#FFFFFF" stroke="#40DD92" stroke-width="2" stroke-linecap="round" stroke-linejoin="round" stroke-miterlimit="10" d="
			M757.255,162.008v1563.855l881.972-5.255l-10.51-1558.6L757.255,162.008L757.255,162.008z M1077.871,1641.326
			c-0.392,0-0.716-0.324-0.716-0.716v-217.405c0-0.409,0.324-0.716,0.716-0.716h217.405c0.392,0,0.716,0.307,0.716,0.716v217.405
			c0,0.392-0.324,0.716-0.716,0.716H1077.871z M839.677,957.579c0-0.392,0.324-0.716,0.716-0.716h217.405
			c0.409,0,0.734,0.324,0.734,0.716v217.405c0,0.392-0.324,0.716-0.734,0.716H840.394c-0.392,0-0.716-0.324-0.716-0.716
			L839.677,957.579L839.677,957.579z M839.677,1190.383c0-0.392,0.324-0.716,0.716-0.716h217.405c0.409,0,0.734,0.324,0.734,0.716
			v217.405c0,0.409-0.324,0.716-0.734,0.716H840.394c-0.392,0-0.716-0.307-0.716-0.716L839.677,1190.383L839.677,1190.383z
			 M839.677,1423.205c0-0.409,0.324-0.716,0.716-0.716h217.405c0.409,0,0.734,0.307,0.734,0.716v217.405
			c0,0.392-0.324,0.716-0.734,0.716H840.394c-0.392,0-0.716-0.324-0.716-0.716L839.677,1423.205L839.677,1423.205z M839.677,259.131
			c0-0.392,0.324-0.716,0.716-0.716h217.405c0.409,0,0.734,0.324,0.734,0.716v217.405c0,0.409-0.324,0.733-0.734,0.733H840.394
			c-0.392,0-0.716-0.324-0.716-0.733L839.677,259.131L839.677,259.131z M1077.871,477.269c-0.392,0-0.716-0.324-0.716-0.733V259.131
			c0-0.392,0.324-0.716,0.716-0.716h217.405c0.392,0,0.716,0.324,0.716,0.716v217.405c0,0.409-0.324,0.733-0.716,0.733H1077.871z
			 M1314.615,491.952c0-0.392,0.324-0.716,0.716-0.716h217.405c0.409,0,0.733,0.324,0.733,0.716v217.405
			c0,0.392-0.324,0.716-0.733,0.716h-217.405c-0.392,0-0.716-0.324-0.716-0.716V491.952z M1533.47,476.536
			c0,0.409-0.324,0.733-0.733,0.733h-217.405c-0.392,0-0.716-0.324-0.716-0.733V259.131c0-0.392,0.324-0.716,0.716-0.716h217.405
			c0.409,0,0.733,0.324,0.733,0.716V476.536z M1077.155,491.952c0-0.392,0.324-0.716,0.716-0.716h217.405
			c0.392,0,0.716,0.324,0.716,0.716v217.405c0,0.392-0.324,0.716-0.716,0.716h-217.405c-0.392,0-0.716-0.324-0.716-0.716V491.952z
			 M1077.155,724.757c0-0.392,0.324-0.716,0.716-0.716h217.405c0.392,0,0.716,0.324,0.716,0.716v217.405
			c0,0.409-0.324,0.733-0.716,0.733h-217.405c-0.392,0-0.716-0.324-0.716-0.733V724.757z M1295.276,1175.7h-217.405
			c-0.392,0-0.716-0.324-0.716-0.716V957.579c0-0.392,0.324-0.716,0.716-0.716h217.405c0.392,0,0.716,0.324,0.716,0.716v217.405
			C1295.992,1175.376,1295.668,1175.7,1295.276,1175.7z M1295.992,1190.383v217.405c0,0.409-0.324,0.716-0.716,0.716h-217.405
			c-0.392,0-0.716-0.307-0.716-0.716v-217.405c0-0.392,0.324-0.716,0.716-0.716h217.405
			C1295.668,1189.667,1295.992,1189.991,1295.992,1190.383z M1314.615,1423.205c0-0.409,0.324-0.716,0.716-0.716h217.405
			c0.409,0,0.733,0.307,0.733,0.716v217.405c0,0.392-0.324,0.716-0.733,0.716h-217.405c-0.392,0-0.716-0.324-0.716-0.716V1423.205z
			 M1532.737,1408.504h-217.405c-0.392,0-0.716-0.307-0.716-0.716v-217.405c0-0.392,0.324-0.716,0.716-0.716h217.405
			c0.409,0,0.733,0.324,0.733,0.716v217.405C1533.47,1408.197,1533.146,1408.504,1532.737,1408.504z M1533.47,1174.984
			c0,0.392-0.324,0.716-0.733,0.716h-217.405c-0.392,0-0.716-0.324-0.716-0.716V957.579c0-0.392,0.324-0.716,0.716-0.716h217.405
			c0.409,0,0.733,0.324,0.733,0.716V1174.984z M1533.47,942.162c0,0.409-0.324,0.733-0.733,0.733h-217.405
			c-0.392,0-0.716-0.324-0.716-0.733V724.757c0-0.392,0.324-0.716,0.716-0.716h217.405c0.409,0,0.733,0.324,0.733,0.716V942.162z
			 M840.394,710.074c-0.392,0-0.716-0.324-0.716-0.716V491.952c0-0.392,0.324-0.716,0.716-0.716h217.405
			c0.409,0,0.734,0.324,0.734,0.716v217.405c0,0.392-0.324,0.716-0.734,0.716L840.394,710.074L840.394,710.074z M839.677,724.757
			c0-0.392,0.324-0.716,0.716-0.716h217.405c0.409,0,0.734,0.324,0.734,0.716v159.086v58.318c0,0.409-0.324,0.733-0.734,0.733
			H840.394c-0.392,0-0.716-0.324-0.716-0.733L839.677,724.757L839.677,724.757z"/>
		
			<path fill="#99FFCC" stroke="#40DD92" stroke-width="4" stroke-linecap="round" stroke-linejoin="round" stroke-miterlimit="10" d="
			M1529.857,22.197H851.253c-67.529,0-122.779,55.232-122.779,122.761v174.42c-6.534,0.648-11.702,6.201-11.702,12.91v99.551
			c0,6.727,5.168,12.28,11.702,12.928v46.193c-6.534,0.666-11.702,6.201-11.702,12.928v99.551c0,6.727,5.168,12.28,11.702,12.928
			v1144.338c0,67.512,55.25,122.761,122.779,122.761h678.604c67.512,0,122.762-55.25,122.762-122.761V144.958
			C1652.619,77.429,1597.369,22.197,1529.857,22.197z M767.678,175.754c0-5.01,4.082-9.091,9.091-9.091h817.236
			c5.027,0,9.091,4.082,9.091,9.091v1535.29c0,5.027-4.064,9.109-9.091,9.109H776.77c-5.01,0-9.091-4.082-9.091-9.109
			L767.678,175.754L767.678,175.754z"/>
		<g>
			
				<path fill="#99FFCC" stroke="#40DD92" stroke-width="4" stroke-linecap="round" stroke-linejoin="round" stroke-miterlimit="10" d="
				M1542.628,39.469H838.483c-52.534,0-95.505,42.97-95.505,95.505v1635.734c0,52.517,42.97,95.487,95.505,95.487h704.144
				c52.517,0,95.487-42.97,95.487-95.487V134.413C1637.799,82.141,1594.952,39.469,1542.628,39.469z M1603.097,1711.044
				c0,5.027-4.064,9.109-9.091,9.109H776.77c-5.01,0-9.091-4.082-9.091-9.109V175.754c0-5.01,4.082-9.091,9.091-9.091h817.236
				c5.027,0,9.091,4.082,9.091,9.091L1603.097,1711.044L1603.097,1711.044z"/>
			
				<path fill="#FFFFFF" stroke="#40DD92" stroke-width="4" stroke-linecap="round" stroke-linejoin="round" stroke-miterlimit="10" d="
				M1261.351,1826.95H1113.76c-16.549,0-30.09-13.54-30.09-30.09l0,0c0-16.549,13.54-30.09,30.09-30.09h147.591
				c16.549,0,30.09,13.54,30.09,30.09l0,0C1291.441,1813.409,1277.901,1826.95,1261.351,1826.95z"/>
			
				<circle fill="#FFFFFF" stroke="#40DD92" stroke-width="4" stroke-linecap="round" stroke-linejoin="round" stroke-miterlimit="10" cx="999.121" cy="101.794" r="22.825"/>
			
				<path fill="#FFFFFF" stroke="#40DD92" stroke-width="4" stroke-linecap="round" stroke-linejoin="round" stroke-miterlimit="10" d="
				M1255.731,121.499h-134.185c-6.547,0-11.904-5.357-11.904-11.904l0,0c0-6.547,5.357-11.904,11.904-11.904h134.185
				c6.547,0,11.904,5.357,11.904,11.904l0,0C1267.634,116.142,1262.278,121.499,1255.731,121.499z"/>
			
				<path fill="#FFFFFF" stroke="#40DD92" stroke-width="4" stroke-linecap="round" stroke-linejoin="round" stroke-miterlimit="10" d="
				M1366.109,112.842h-34.628c-6.547,0-11.904-5.357-11.904-11.904l0,0c0-6.547,5.357-11.904,11.904-11.904h34.628
				c6.547,0,11.904,5.357,11.904,11.904l0,0C1378.012,107.485,1372.656,112.842,1366.109,112.842z"/>
		</g>
	</g>
	
		<line fill="none" stroke="#40DD92" stroke-width="10" stroke-miterlimit="10" x1="728.474" y1="1286.964" x2="906.087" y2="1394.026"/>
	<path fill="none" stroke="#40DD92" stroke-width="10" stroke-miterlimit="10" d="M1532.216,366.123c0,0,74-39,98-43"/>
	<g id="patel_5_">
		<g>
			<path fill="#FFD000" d="M1085.429,367.227c2.511,9.344,25.64,68.825,45.147,70.708c30.99,2.991,54.348-34.793,38.217-61.818
				C1159.075,359.838,1085.105,366.019,1085.429,367.227z"/>
			<path fill="#FFAA00" d="M1130.107,421.854c0.475,1.285,2.148,2.352,3.255,3.16l19.96,19.817c1.858,1.357,4.267,1.708,6.435,0.939
				l24.354-8.641c2.434-0.863,4.189-3.002,4.562-5.557l3.334-22.85c0.373-2.555-0.699-5.107-2.784-6.629l-21.888-15.983
				c-1.264-0.923-2.802-1.393-4.366-1.335c0,0-35.033-5.798-54.128-3.037C1119.355,404.362,1130.107,421.854,1130.107,421.854z"/>
			<g>
				<path fill="#1DF288" stroke="#1DF288" stroke-width="1.2" stroke-miterlimit="10" d="M1113.9,431.649
					c0,0,45.639,44.93,75.319,5.36s-17.294-68.828-33.834-72.341c0,0-15.018,21.466,13.532,55.288
					C1168.917,419.956,1134.734,408.329,1113.9,431.649z"/>
				<path fill="#00FFFF" stroke="#00FFFF" stroke-width="2.5" stroke-miterlimit="10" d="M1113.71,431.761
					c0,0,2.758,5.24,17.349,12.188c0,0,21.018-22.134,54.94-13.712c0,0-21.559-27.296-12.017-56.289c0,0-10.587-9.26-17.876-10.007
					c0,0-18.716,30.195,8.622,52.448C1164.728,416.389,1133,403.356,1113.71,431.761z"/>
			</g>
		</g>
		
			<animate  fill="remove" attributeType="CSS" repeatCount="indefinite" additive="replace" accumulate="none" restart="always" to="0" from="1" dur="1.1s" begin="0.1" attributeName="opacity" calcMode="linear">
			</animate>
	</g>
	<g id="patel_3_">
		<g>
			<path fill="#FFD000" d="M868.828,1436.342c1.4-12.25,1.844-93.57-20.391-104.936c-35.325-18.057-80.701,15.782-74.238,55.363
				C778.091,1410.612,868.647,1437.925,868.828,1436.342z"/>
			<path fill="#FFAA00" d="M841.463,1350.682c0.039-1.745-1.444-3.794-2.377-5.269l-14.374-32.832
				c-1.567-2.478-4.256-4.022-7.186-4.126l-32.908-1.165c-3.288-0.116-6.371,1.596-8.009,4.45l-14.651,25.517
				c-1.638,2.853-1.563,6.379,0.195,9.16l18.455,29.191c1.066,1.686,2.668,2.963,4.549,3.626c0,0,38.802,23.277,62.724,28.947
				C846.013,1376.446,841.463,1350.682,841.463,1350.682z"/>
			<g>
				<path fill="#1DF288" stroke="#1DF288" stroke-width="1.2" stroke-miterlimit="10" d="M865.255,1346.664
					c0,0-33.046-74.618-86.749-41.623c-53.703,32.996-11.737,89.665,6.219,101.574c0,0,27.85-18.407,9.854-71.858
					C794.58,1334.758,829.645,1364.544,865.255,1346.664z"/>
				<path fill="#00FFFF" stroke="#00FFFF" stroke-width="2.5" stroke-miterlimit="10" d="M865.533,1346.62
					c0,0-0.815-7.502-14.852-22.568c0,0-35.273,16.388-71.529-9.478c0,0,12.767,42.444-12.119,72.334
					c0,0,8.211,15.932,16.499,20.231c0,0,36.32-27.019,14.343-66.193C797.874,1340.947,829.371,1371.249,865.533,1346.62z"/>
			</g>
		</g>
		
			<animate  fill="remove" attributeType="CSS" repeatCount="indefinite" additive="replace" accumulate="none" restart="always" to="0" from="1" dur="1.3s" begin="0.3" attributeName="opacity" calcMode="linear">
			</animate>
	</g>
	<g id="patel">
		<g>
			<path fill="#FFD000" d="M1754.46,325.032c-7.356-7.02-60.595-47.801-79.138-38.843c-29.459,14.232-29.806,60.91-0.568,76.369
				C1692.367,371.871,1755.41,325.939,1754.46,325.032z"/>
			<path fill="#FFAA00" d="M1684.522,300.371c-1.128-0.894-3.213-0.939-4.648-1.061l-28.74-6.897
				c-2.409-0.204-4.764,0.795-6.291,2.67l-17.151,21.054c-1.714,2.104-2.123,4.983-1.063,7.481l9.48,22.337
				c1.06,2.498,3.415,4.204,6.119,4.432l28.379,2.402c1.639,0.139,3.276-0.279,4.649-1.185c0,0,34.622-13.919,50.26-26.822
				C1703.725,310.208,1684.522,300.371,1684.522,300.371z"/>
			<g>
				<path fill="#1DF288" stroke="#1DF288" stroke-width="1.2" stroke-miterlimit="10" d="M1693.727,282.73
					c0,0-65.507-15.428-70.555,36.305c-5.048,51.733,53.102,52.36,69.871,46.485c0,0,1.766-27.473-42.333-42.256
					C1650.71,323.264,1687.751,315.042,1693.727,282.73z"/>
				<path fill="#00FFFF" stroke="#00FFFF" stroke-width="2.5" stroke-miterlimit="10" d="M1693.836,282.525
					c0,0-5.337-3.199-22.231-1.473c0,0-6.789,31.348-41.845,42.305c0,0,34.259,12.739,41.519,43.982c0,0,14.561,2.535,21.514-0.773
					c0,0,0.322-37.329-36.374-42.386C1656.419,324.179,1692.022,318.56,1693.836,282.525z"/>
			</g>
		</g>
		
			<animate  fill="remove" attributeType="CSS" repeatCount="indefinite" additive="replace" accumulate="none" restart="always" to="0" from="1" dur="1.6s" begin="0.6" attributeName="opacity" calcMode="linear">
			</animate>
	</g>
</g>
<g id="Alternate_hand_1_">
</g>
<g id="Alternate_hand">
</g>
</svg>
