<?xml version="1.0" encoding="utf-8"?>
<!-- Generator: Adobe Illustrator 17.0.0, SVG Export Plug-In . SVG Version: 6.00 Build 0)  -->
<!DOCTYPE svg PUBLIC "-//W3C//DTD SVG 1.1//EN" "http://www.w3.org/Graphics/SVG/1.1/DTD/svg11.dtd">
<svg version="1.1" id="Layer_1" xmlns="http://www.w3.org/2000/svg" xmlns:xlink="http://www.w3.org/1999/xlink" x="0px" y="0px"
	 width="1007px" height="2596px" viewBox="0 0 1007 2596" enable-background="new 0 0 1007 2596" xml:space="preserve">
<rect x="33.361" y="716.535" fill="#FFFFFF" width="952.729" height="1713.965"/>
<g>
	<g>
		<defs>
			<rect id="SVGID_1_" x="49.981" y="743.407" width="906.061" height="1655.248"/>
		</defs>
		<clipPath id="SVGID_2_">
			<use xlink:href="#SVGID_1_"  overflow="visible"/>
		</clipPath>
		<g clip-path="url(#SVGID_2_)">
			
				<image overflow="visible" enable-background="new" width="720" height="1480" id="img-3" xlink:href="images/TheCheeseSociety.jpg"  transform="matrix(1.1585 0 0 1.1177 85.9694 743.8973)">
			</image>
			
				<image overflow="visible" enable-background="new" width="720" height="1480" id="img-2" xlink:href="images/NextGenu.jpg"  transform="matrix(1.1585 0 0 1.1177 85.9694 743.8973)">
			</image>
			
				<image overflow="visible" enable-background="new" width="720" height="1480" id="img-1" xlink:href="images/DesertFoxCollective.jpg"  transform="matrix(1.1585 0 0 1.1177 85.9694 743.8973)">
			</image>
		</g>
	</g>
</g>
<g>
	
		<path fill="#99FFCC" stroke="#40DD92" stroke-width="4" stroke-linecap="round" stroke-linejoin="round" stroke-miterlimit="10" d="
		M870.865,596.508H148.587c-71.864,0-130.667,58.789-130.667,130.667v185.637c-6.959,0.692-12.452,6.6-12.452,13.753v105.956
		c0,7.153,5.493,13.061,12.452,13.753v49.173c-6.959,0.692-12.452,6.6-12.452,13.753v105.956c0,7.153,5.493,13.061,12.452,13.753
		v1217.978c0,71.864,58.803,130.667,130.667,130.667h722.278c71.864,0,130.667-58.803,130.667-130.667V727.175
		C1001.532,655.297,942.729,596.508,870.865,596.508z M948.817,2394.032c0,5.341-4.331,9.685-9.671,9.685H69.321
		c-5.341,0-9.671-4.344-9.671-9.685V759.952c0-5.341,4.331-9.671,9.671-9.671h869.824c5.341,0,9.671,4.331,9.671,9.671v1634.08
		H948.817z"/>
	
		<path fill="#99FFCC" stroke="#40DD92" stroke-width="4" stroke-linecap="round" stroke-linejoin="round" stroke-miterlimit="10" d="
		M884.452,614.896H135c-55.911,0-101.639,45.742-101.639,101.639v1740.99c0,55.897,45.728,101.639,101.639,101.639h749.451
		c55.897,0,101.639-45.742,101.639-101.639V716.535C986.091,660.638,940.349,614.896,884.452,614.896z M948.817,2394.032
		c0,5.341-4.331,9.685-9.671,9.685H69.321c-5.341,0-9.671-4.344-9.671-9.685V759.952c0-5.341,4.331-9.671,9.671-9.671h869.824
		c5.341,0,9.671,4.331,9.671,9.671v1634.08H948.817z"/>
	
		<path fill="#FFFFFF" stroke="#40DD92" stroke-width="4" stroke-linecap="round" stroke-linejoin="round" stroke-miterlimit="10" d="
		M580.868,2520.493H423.78c-17.614,0-32.026-14.412-32.026-32.026l0,0c0-17.614,14.412-32.026,32.026-32.026h157.088
		c17.614,0,32.026,14.412,32.026,32.026l0,0C612.894,2506.081,598.482,2520.493,580.868,2520.493z"/>
	
		<circle fill="#FFFFFF" stroke="#40DD92" stroke-width="4" stroke-linecap="round" stroke-linejoin="round" stroke-miterlimit="10" cx="262.361" cy="676.863" r="25.339"/>
	
		<path fill="#FFFFFF" stroke="#40DD92" stroke-width="4" stroke-linecap="round" stroke-linejoin="round" stroke-miterlimit="10" d="
		M579.098,702.202h-142.82c-6.968,0-12.669-5.701-12.669-12.669l0,0c0-6.968,5.701-12.669,12.669-12.669h142.82
		c6.968,0,12.669,5.701,12.669,12.669l0,0C591.768,696.501,586.066,702.202,579.098,702.202z"/>
	
		<path fill="#FFFFFF" stroke="#40DD92" stroke-width="4" stroke-linecap="round" stroke-linejoin="round" stroke-miterlimit="10" d="
		M696.579,692.988h-36.857c-6.968,0-12.669-5.701-12.669-12.669l0,0c0-6.968,5.701-12.669,12.669-12.669h36.857
		c6.968,0,12.669,5.701,12.669,12.669l0,0C709.248,687.287,703.547,692.988,696.579,692.988z"/>
	
		<path fill="#99FFCC" stroke="#40DD92" stroke-width="4" stroke-linecap="round" stroke-linejoin="round" stroke-miterlimit="10" d="
		M899.108,316.221c-0.005-7.157-2.718-14.319-8.149-19.75c-10.861-10.861-28.638-10.861-39.5,0l-78.09,78.09L670.444,271.635
		l78.09-78.09c5.431-5.431,8.149-12.588,8.149-19.75c-0.005-7.157-2.718-14.319-8.149-19.75c-10.861-10.861-28.638-10.861-39.5,0
		l-78.09,78.09L543,144.191l78.09-78.09c5.431-5.431,8.143-12.593,8.149-19.75c-0.005-7.157-2.718-14.319-8.149-19.75
		c-10.861-10.861-28.638-10.861-39.5,0l-78.105,78.105l-78.11-78.11c-5.431-5.431-12.593-8.143-19.75-8.149
		c-7.162,0-14.319,2.718-19.75,8.149c-10.861,10.861-10.861,28.638,0,39.5l78.095,78.095l-95.43,95.43l-78.095-78.095
		c-5.431-5.431-12.593-8.143-19.75-8.149c-7.162,0-14.319,2.718-19.75,8.149c-10.861,10.861-10.856,28.633,0.005,39.494
		l78.095,78.095l-95.45,95.45L155.5,296.471c-5.431-5.431-12.588-8.149-19.75-8.149c-7.157-0.005-14.314,2.713-19.745,8.143
		c-10.861,10.861-10.861,28.638,0,39.5l97.876,97.876c0.236,0.236,0.478,0.468,0.724,0.694c0.514,0.483,1.043,0.94,1.593,1.377
		c0.149,0.118,0.293,0.231,0.442,0.349c0.154,0.113,0.308,0.236,0.468,0.344c0.108,0.087,0.226,0.164,0.339,0.247
		c0.134,0.092,0.272,0.19,0.406,0.283c0.293,0.2,0.581,0.396,0.884,0.575c0.149,0.098,0.303,0.19,0.457,0.283
		c0.241,0.149,0.488,0.293,0.74,0.432c0.031,0.021,0.062,0.041,0.092,0.051c0.154,0.092,0.308,0.175,0.468,0.252
		c0.247,0.134,0.493,0.267,0.745,0.385c0.817,0.396,1.649,0.755,2.497,1.079l0.005,0.005c0.632,0.231,1.279,0.447,1.922,0.637
		c0.005,0.005,0.005,0.005,0.005,0.005c0.432,0.123,0.868,0.242,1.3,0.344l0.005,0.005c0.313,0.077,0.622,0.149,0.94,0.211
		c0.344,0.077,0.694,0.139,1.038,0.195c0.447,0.067,0.884,0.134,1.331,0.19c0.216,0.031,0.442,0.051,0.673,0.077
		c0.447,0.036,0.889,0.067,1.331,0.087c0.221,0.015,0.447,0.026,0.678,0.031c0.252,0.005,0.504,0.01,0.755,0.005
		c0.755-0.005,1.505-0.036,2.266-0.098c0.498-0.046,1.002-0.098,1.5-0.164l2.148-0.38c0.005-0.005,0.005-0.005,0.005-0.005
		c0.329-0.072,0.653-0.149,0.981-0.231c0.735-0.19,1.464-0.406,2.184-0.652c0.241-0.077,0.478-0.17,0.719-0.257l0.005-0.005
		c0.421-0.164,0.837-0.334,1.254-0.504l0.005-0.005c0.416-0.18,0.827-0.375,1.238-0.57l0.005-0.005
		c0.817-0.406,1.618-0.848,2.399-1.331c0,0,0.01,0,0.01-0.01c0.385-0.241,0.771-0.493,1.151-0.75c0.005-0.005,0.005-0.005,0.01-0.01
		c0.375-0.262,0.745-0.539,1.115-0.817l2.667-2.348l250.104-250.104l250.104,250.104c0.211,0.211,0.426,0.416,0.637,0.617
		c0.216,0.205,0.437,0.406,0.658,0.596c0.154,0.134,0.303,0.272,0.462,0.401c0.046,0.036,0.093,0.082,0.144,0.123
		c0.293,0.241,0.591,0.478,0.889,0.704c0.324,0.252,0.653,0.488,0.986,0.719c0.329,0.226,0.663,0.447,0.997,0.658
		c0.509,0.324,1.017,0.627,1.536,0.909c0.514,0.288,1.043,0.55,1.577,0.796c0.236,0.113,0.473,0.216,0.714,0.324c0,0,0,0,0.01,0
		c0.216,0.092,0.426,0.18,0.637,0.267c1.5,0.596,3.036,1.063,4.598,1.403c0.863,0.185,1.726,0.329,2.605,0.437
		c0.873,0.092,1.742,0.159,2.615,0.18c0.581,0.015,1.166,0.015,1.757-0.01c0.73-0.031,1.459-0.082,2.184-0.17
		c0.724-0.087,1.454-0.2,2.168-0.339c0.863-0.164,1.721-0.375,2.569-0.627c0.498-0.149,1.002-0.313,1.495-0.488
		c0.493-0.175,0.981-0.365,1.469-0.575c0.483-0.205,0.961-0.426,1.439-0.658c0.308-0.154,0.616-0.308,0.915-0.473
		c0.242-0.128,0.478-0.262,0.714-0.396c0.118-0.067,0.241-0.139,0.354-0.211c0.2-0.118,0.39-0.236,0.586-0.36
		c0.293-0.18,0.575-0.37,0.863-0.565c0.231-0.159,0.463-0.329,0.688-0.493c0.01,0,0.015-0.005,0.015-0.015
		c0.19-0.139,0.38-0.277,0.565-0.421c0.303-0.231,0.601-0.468,0.889-0.714c0.159-0.128,0.308-0.267,0.462-0.401
		c0.221-0.19,0.442-0.39,0.658-0.596c0.211-0.2,0.426-0.406,0.637-0.617l97.876-97.876
		C896.39,330.54,899.103,323.378,899.108,316.221z"/>
	<g>
		<g>
			<path fill="#FFD000" d="M502.781,330.56c-11.383,12.281-77.266,100.919-62.073,131.24c24.138,48.17,101.01,47.626,125.768-0.887
				C581.39,431.688,504.252,328.973,502.781,330.56z"/>
			<path fill="#FFAA00" d="M463.842,446.312c-1.446,1.879-1.47,5.313-1.636,7.678l-10.672,47.49
				c-0.278,3.972,1.423,7.825,4.547,10.295l35.078,27.739c3.505,2.772,8.256,3.376,12.344,1.571l36.555-16.144
				c4.087-1.805,6.841-5.724,7.153-10.182l3.278-46.788c0.189-2.702-0.537-5.388-2.062-7.627c0,0-23.745-56.678-45.366-82.121
				C479.582,414.456,463.842,446.312,463.842,446.312z"/>
			<g>
				<path fill="#1DF288" stroke="#1DF288" stroke-width="1.2" stroke-miterlimit="10" d="M434.573,431.576
					c0,0-23.842,108.237,61.465,115.314s84.952-88.69,74.878-116.163c0,0-45.282-2.253-68.571,70.716
					C502.345,501.442,487.923,440.646,434.573,431.576z"/>
				<path fill="#00FFFF" stroke="#00FFFF" stroke-width="2.5" stroke-miterlimit="10" d="M434.233,431.4
					c0,0-5.141,8.865-1.894,36.642c0,0,51.781,10.431,70.66,67.895c0,0,20.16-56.718,71.433-69.417c0,0,3.826-24.038-1.787-35.408
					c0,0-61.476,0.361-68.928,60.907C503.716,492.02,493.615,433.528,434.233,431.4z"/>
			</g>
		</g>
	</g>
</g>
</svg>
