<?xml version="1.0" encoding="utf-8"?>
<!-- Generator: Adobe Illustrator 17.0.0, SVG Export Plug-In . SVG Version: 6.00 Build 0)  -->
<!DOCTYPE svg PUBLIC "-//W3C//DTD SVG 1.1 Basic//EN" "http://www.w3.org/Graphics/SVG/1.1/DTD/svg11-basic.dtd">
<svg version="1.1" baseProfile="basic" xmlns="http://www.w3.org/2000/svg" xmlns:xlink="http://www.w3.org/1999/xlink" x="0px"
	 y="0px" width="8255px" height="11699px" viewBox="0 0 8255 11699" xml:space="preserve">
<g id="Comments">
	<path fill="none" stroke="#40DD92" stroke-width="10" stroke-miterlimit="10" d="M1581.214,8306.948
		c-9.82,250.592-30.254,488.746,186.843,668.363c347.068,287.15,131.53,819.964,697.944,951.688c344,80,594.152-217.184,1040-80
		c208,64,338.023,352.326,584,392c496,80,800-240,800-240"/>
</g>
<g id="Human_touch">
	<path fill="none" stroke="#40DD92" stroke-width="10" stroke-miterlimit="10" d="M3233,4285c0,0,78,570,897,70
		c369.749-225.732,713-31,780,53c77.128,96.698,139.026,193.787,197.341,286.477"/>
</g>
<g id="Bees">
	<g>
		<g>
			<path fill="none" stroke="#40DD92" stroke-width="10" stroke-miterlimit="10" d="M5828.067,6357.963
				c57.673,14.898,117.369,27.542,179.433,37.537c636.5,102.5,617.893,735.883,39,779c-409.5,30.5-693.396-48.093-1084-192
				C4117,6671,3803,6953,3803,6953c-504,385-1103.602,612.343-1550,193c-792-744-1477.116,53.448-1056,324
				c389.783,250.422,392.464,553.848,381.214,840.948"/>
		</g>
	</g>
</g>
<g id="Creative">
	<path fill="none" stroke="#40DD92" stroke-width="10" stroke-miterlimit="10" d="M5846,4943c0,0-81,36-120,55"/>
	<path fill="none" stroke="#40DD92" stroke-width="8" stroke-miterlimit="10" d="M5727.253,5888.614"/>
	<path fill="none" stroke="#40DD92" stroke-width="8" stroke-miterlimit="10" d="M5727,5787.867"/>
	<path fill="none" stroke="#40DD92" stroke-width="10" stroke-miterlimit="10" d="M5107.341,4694.477
		C5293.717,4990.712,5443.508,5242.01,5937,5292c385,39,608-102,549-294c-41.257-134.26-187-156-349-135
		c-230.046,29.821-761,225-744,549c4.498,85.715-1,135,29,220c11.481,32.53,33,228-122.085,305.703
		C5126.991,6024.344,4881.972,6141.604,4569,6147c-519.201,8.952-323.906-592.462,8-424
		c414.589,210.429,760.153,503.373,1254.067,630.963"/>
	<path fill="none" d="M5040,5051"/>
	
		<line fill="none" stroke="#40DD92" stroke-width="10" stroke-miterlimit="10" x1="4922.258" y1="5918.841" x2="5099.87" y2="6025.903"/>
	<path fill="none" stroke="#40DD92" stroke-width="10" stroke-miterlimit="10" d="M5726,4998c0,0,74-39,98-43"/>
</g>
<g id="Followers">
	<g>
		<path fill="none" stroke="#40DD92" stroke-width="10" stroke-miterlimit="10" d="M5026,494c-220,1125,1209-184,1568,535
			c242.841,486.359-211.653,754.225-1240,573c-488-86-833.219,464.427-1532,214c-1504-539-1616,180-2420,410
			c-812.585,232.456-950,445-916,873c29.177,367.283,283,625,180,872c-317.485,761.347,642.289,702.471,661,314"/>
	</g>
	<g>
		<g>
			<path fill="#FFD000" d="M5026.168,318.1c-9.186,10.019-62.275,82.263-49.808,106.808c19.807,38.995,82.205,38.215,102.088-1.276
				C5090.426,399.843,5027.355,316.805,5026.168,318.1z"/>
			<path fill="#FFAA00" d="M4995.071,412.234c-1.166,1.531-1.17,4.32-1.294,6.24l-8.453,38.597c-0.208,3.225,1.19,6.346,3.736,8.337
				l28.597,22.362c2.857,2.234,6.717,2.704,10.027,1.221l29.602-13.266c3.31-1.483,5.527-4.677,5.761-8.297l2.454-37.994
				c0.142-2.194-0.459-4.372-1.707-6.182c0,0-19.526-45.903-37.188-66.461C5007.707,386.305,4995.071,412.234,4995.071,412.234z"/>
			<g>
				<path fill="#1DF288" stroke="#1DF288" stroke-width="1.2" stroke-miterlimit="10" d="M4971.247,400.401
					c0,0-18.876,87.966,50.403,93.335s68.568-72.37,60.269-94.626c0,0-36.767-1.629-55.351,57.706
					C5026.569,456.815,5014.594,407.527,4971.247,400.401z"/>
				<path fill="#00FFFF" stroke="#00FFFF" stroke-width="2.5" stroke-miterlimit="10" d="M4970.97,400.259
					c0,0-4.134,7.219-1.375,29.752c0,0,42.079,8.238,57.658,54.802c0,0,16.114-46.13,57.679-56.664c0,0,3-19.53-1.606-28.735
					c0,0-49.902,0.564-55.684,49.746C5027.641,449.16,5019.183,401.724,4970.97,400.259z"/>
			</g>
		</g>
	</g>
	<g>
		<g>
			<path fill="#FFD000" d="M1322.428,3936.793c-18.598,19.829-123.864,157.671-99.486,207.041
				c38.73,78.435,163.539,78.285,204.197-0.242C1451.631,4096.288,1324.831,3934.231,1322.428,3936.793z"/>
			<path fill="#FFAA00" d="M1260.649,4118.911c-2.365,3.036-2.437,8.612-2.729,12.45l-17.779,77
				c-0.49,6.446,2.236,12.718,7.283,16.757l56.686,45.37c5.664,4.533,13.372,5.561,20.025,2.668l59.502-25.862
				c6.653-2.892,11.161-9.228,11.71-16.462l5.768-75.93c0.333-4.384-0.82-8.753-3.275-12.402c0,0-41.702-88.786-76.561-130.3
				C1282.816,4070.8,1260.649,4118.911,1260.649,4118.911z"/>
			<g>
				<path fill="#1DF288" stroke="#1DF288" stroke-width="1.2" stroke-miterlimit="10" d="M1213.27,4094.707
					c0,0-39.739,175.499,98.692,187.801s138.767-143.183,122.673-187.881c0,0-73.495-4.089-112.002,114.156
					C1322.634,4208.783,1299.8,4109.94,1213.27,4094.707z"/>
				<path fill="#00FFFF" stroke="#00FFFF" stroke-width="2.5" stroke-miterlimit="10" d="M1212.719,4094.418
					c0,0-8.431,14.344-3.425,59.471c0,0,83.969,17.428,114.072,110.903c0,0,33.271-91.891,116.635-112.02
					c0,0,6.441-38.991-2.564-57.503c0,0-99.813,0-112.487,98.228C1324.95,4193.498,1309.107,4098.438,1212.719,4094.418z"/>
			</g>
		</g>
		<path fill="none" stroke="#42210B" stroke-width="0.5" stroke-miterlimit="10" d="M1164.141,4093.686"/>
	</g>
</g>
</svg>
