<?xml version="1.0" encoding="utf-8"?>
<!-- Generator: Adobe Illustrator 17.0.0, SVG Export Plug-In . SVG Version: 6.00 Build 0)  -->
<!DOCTYPE svg PUBLIC "-//W3C//DTD SVG 1.1 Basic//EN" "http://www.w3.org/Graphics/SVG/1.1/DTD/svg11-basic.dtd">
<svg version="1.1" baseProfile="basic" id="Layer_1"
	 xmlns="http://www.w3.org/2000/svg" xmlns:xlink="http://www.w3.org/1999/xlink" x="0px" y="0px" width="213px" height="275px"
	 viewBox="0 0 213 275" xml:space="preserve">
<g>
	<path fill="#40DD92" d="M61.358,161.029c0.078,8.758,0.087,17.511,0.029,26.26c-0.013,4.376-0.05,8.75-0.105,13.123
		c-0.058,4.373-0.069,8.749-0.175,13.118c-0.173,8.742-0.405,17.48-0.311,26.239c0.028,4.378-0.045,8.75-0.389,13.105
		c-0.328,4.356-0.882,8.698-1.508,13.036l-0.108,0.746c-0.309,2.142-2.248,3.651-4.377,3.471c-4.202-0.364-8.404-0.833-12.605-1.469
		c-2.101-0.319-4.202-0.675-6.303-1.081c-2.101-0.413-4.202-0.877-6.303-1.444v-1c2.101-0.566,4.202-1.03,6.303-1.444
		c2.101-0.405,4.202-0.761,6.303-1.081c4.202-0.636,8.404-1.104,12.605-1.469l-4.484,4.217c-0.089-4.382-0.106-8.759,0.103-13.123
		c0.193-4.364,0.657-8.712,1.222-13.054c1.168-8.681,2.01-17.381,2.911-26.079c0.43-4.35,0.956-8.694,1.436-13.041
		c0.483-4.346,0.982-8.692,1.506-13.036c1.016-8.69,2.099-17.376,3.251-26.058L61.358,161.029z"/>
	<path fill="#40DD92" d="M152.724,160.967c1.153,8.682,2.235,17.368,3.251,26.058c0.524,4.344,1.024,8.69,1.506,13.036
		c0.479,4.347,1.005,8.691,1.436,13.041c0.902,8.697,1.743,17.398,2.911,26.079c0.566,4.342,1.029,8.689,1.223,13.054
		c0.209,4.364,0.192,8.741,0.103,13.123l-4.484-4.217c4.202,0.364,8.404,0.833,12.605,1.469c2.101,0.319,4.202,0.675,6.303,1.081
		c2.101,0.413,4.202,0.877,6.303,1.444v1c-2.101,0.567-4.202,1.031-6.303,1.444c-2.101,0.405-4.202,0.761-6.303,1.081
		c-4.202,0.636-8.404,1.104-12.605,1.469c-2.156,0.187-4.066-1.345-4.375-3.459l-0.109-0.758c-0.626-4.338-1.18-8.68-1.508-13.036
		c-0.344-4.355-0.417-8.727-0.389-13.105c0.094-8.758-0.139-17.497-0.311-26.239c-0.107-4.37-0.118-8.745-0.175-13.118
		c-0.055-4.373-0.092-8.747-0.105-13.123c-0.058-8.749-0.05-17.502,0.029-26.26L152.724,160.967z"/>
	
		<path fill="#99FFCC" stroke="#40DD92" stroke-width="6" stroke-linecap="round" stroke-linejoin="round" stroke-miterlimit="10" d="
		M193.411,138.819l-56.793,56.793c-16.565,16.565-43.671,16.565-60.235,0l-56.793-56.793c-16.565-16.565-16.565-43.671,0-60.235
		l56.793-56.793c16.565-16.565,43.671-16.565,60.235,0l56.793,56.793C209.976,95.149,209.976,122.255,193.411,138.819z"/>
	
		<circle fill="#FFFFFF" stroke="#40DD92" stroke-width="6" stroke-linecap="round" stroke-linejoin="round" stroke-miterlimit="10" cx="106.5" cy="108.702" r="45.518"/>
	
		<circle fill="#FFFFFF" stroke="#40DD92" stroke-width="6" stroke-linecap="round" stroke-linejoin="round" stroke-miterlimit="10" cx="106.5" cy="35.951" r="10.662"/>
</g>
</svg>
