<?xml version="1.0" encoding="utf-8"?>
<!-- Generator: Adobe Illustrator 17.0.0, SVG Export Plug-In . SVG Version: 6.00 Build 0)  -->
<!DOCTYPE svg PUBLIC "-//W3C//DTD SVG 1.1 Basic//EN" "http://www.w3.org/Graphics/SVG/1.1/DTD/svg11-basic.dtd">
<svg version="1.1" baseProfile="basic" id="Layer_1"
	 xmlns="http://www.w3.org/2000/svg" xmlns:xlink="http://www.w3.org/1999/xlink" x="0px" y="0px" width="929.59px"
	 height="1719.172px" viewBox="0 0 929.59 1719.172" xml:space="preserve">
<g>
	
		<path fill="#99FFCC" stroke="#40DD92" stroke-width="6" stroke-linecap="round" stroke-linejoin="round" stroke-miterlimit="10" d="
		M914.004,582.11v626.507c0,10.638-0.302,21.196-0.906,31.659v0.048c-14.883,257.901-209.896,462.025-448.302,462.025
		c-248.09,0-449.209-221.058-449.209-493.732c0-7.092,0-26.094,0-28.622V532.816c0-18.589,7.601-35.491,19.845-47.735
		c12.244-12.244,29.147-19.845,47.735-19.845c32.184,0,59.296,22.786,65.99,53.03c0,0,0.557,388.387,1.59,391.376
		c3.959,11.56,14.963,19.908,27.827,19.908c16.187,0,29.417-13.23,29.417-29.417l-1.59-685.341c0-18.589,7.601-35.491,19.845-47.735
		c12.244-12.244,29.147-19.845,47.735-19.845c33.424,0,61.379,24.583,66.674,56.561c-0.445,2.019-0.127,607.473,0.906,610.463
		c3.959,11.56,14.963,19.908,27.827,19.908c16.187,0,29.417-13.23,29.417-29.417l-1.59-720.324c0-18.588,7.601-35.491,19.845-47.735
		c12.244-12.244,29.147-19.845,47.735-19.845c37.177,0,67.58,30.403,67.58,67.58l-1.59,706.013c0,16.187,13.23,29.417,29.417,29.417
		c12.864,0,23.868-8.348,27.827-19.908c1.034-2.989,1.59-6.186,1.59-9.509V200.243c2.83-12.785,9.302-24.233,18.255-33.186
		c12.244-12.244,29.147-19.845,47.735-19.845c37.177,0,67.58,30.403,67.58,67.58l-1.59,685.341c0,16.187,13.23,29.417,29.417,29.417
		c12.864,0,23.868-8.348,27.827-19.908c1.034-2.989,1.59-6.186,1.59-9.509V567.561c2.83-12.785,9.302-24.233,18.255-33.186
		c12.244-12.244,29.147-19.845,47.735-19.845C883.601,514.53,914.004,544.933,914.004,582.11z"/>
	<g>
		
			<line fill="none" stroke="#FFFFFF" stroke-width="12" stroke-linecap="round" stroke-linejoin="round" stroke-miterlimit="10" x1="83.783" y1="544.742" x2="83.783" y2="967.714"/>
		
			<line fill="none" stroke="#FFFFFF" stroke-width="12" stroke-linecap="round" stroke-linejoin="round" stroke-miterlimit="10" x1="274.597" y1="257.276" x2="274.597" y2="1037.679"/>
		
			<line fill="none" stroke="#FFFFFF" stroke-width="12" stroke-linecap="round" stroke-linejoin="round" stroke-miterlimit="10" x1="653.045" y1="248.98" x2="653.045" y2="1034.499"/>
		
			<line fill="none" stroke="#FFFFFF" stroke-width="12" stroke-linecap="round" stroke-linejoin="round" stroke-miterlimit="10" x1="851.81" y1="570.184" x2="851.81" y2="993.156"/>
		<path fill="none" stroke="#FFFFFF" stroke-width="12" stroke-linecap="round" stroke-linejoin="round" stroke-miterlimit="10" d="
			M98.834,1023.368H67.141c-6.589,0-11.981-5.391-11.981-11.981v-31.693c0-6.589,5.391-11.981,11.981-11.981h31.693
			c6.589,0,11.981,5.391,11.981,11.981v31.693C110.815,1017.977,105.424,1023.368,98.834,1023.368z"/>
		<path fill="none" stroke="#FFFFFF" stroke-width="12" stroke-linecap="round" stroke-linejoin="round" stroke-miterlimit="10" d="
			M868.452,1051.99h-31.693c-6.589,0-11.981-5.391-11.981-11.981v-31.693c0-6.589,5.391-11.981,11.981-11.981h31.693
			c6.589,0,11.981,5.391,11.981,11.981v31.693C880.433,1046.599,875.041,1051.99,868.452,1051.99z"/>
		<g>
			
				<path fill="none" stroke="#FFFFFF" stroke-width="12" stroke-linecap="round" stroke-linejoin="round" stroke-miterlimit="10" d="
				M247.669,1283.607l-95.209-95.209c-14.167-14.167-14.167-37.35,0-51.517l95.209-95.209c14.167-14.167,37.35-14.167,51.517,0
				l95.209,95.209c14.167,14.167,14.167,37.35,0,51.517l-95.209,95.209C285.019,1297.774,261.837,1297.774,247.669,1283.607z"/>
			
				<circle fill="none" stroke="#FFFFFF" stroke-width="12" stroke-linecap="round" stroke-linejoin="round" stroke-miterlimit="10" cx="273.428" cy="1162.639" r="57.31"/>
			
				<circle fill="none" stroke="#FFFFFF" stroke-width="12" stroke-linecap="round" stroke-linejoin="round" stroke-miterlimit="10" cx="273.428" cy="1162.639" r="13.833"/>
		</g>
		<g>
			
				<path fill="none" stroke="#FFFFFF" stroke-width="12" stroke-linecap="round" stroke-linejoin="round" stroke-miterlimit="10" d="
				M628.06,1283.607l-95.209-95.209c-14.167-14.167-14.167-37.35,0-51.517l95.209-95.209c14.167-14.167,37.35-14.167,51.517,0
				l95.209,95.209c14.167,14.167,14.167,37.35,0,51.517l-95.209,95.209C665.41,1297.774,642.228,1297.774,628.06,1283.607z"/>
			
				<circle fill="none" stroke="#FFFFFF" stroke-width="12" stroke-linecap="round" stroke-linejoin="round" stroke-miterlimit="10" cx="653.819" cy="1162.639" r="57.31"/>
			
				<circle fill="none" stroke="#FFFFFF" stroke-width="12" stroke-linecap="round" stroke-linejoin="round" stroke-miterlimit="10" cx="653.819" cy="1162.639" r="13.833"/>
		</g>
		<path fill="none" stroke="#FFFFFF" stroke-width="12" stroke-linecap="round" stroke-linejoin="round" stroke-miterlimit="10" d="
			M82.193,1023.368c0,0-3.18,193.995,0,241.698c3.18,47.704,46.113,330.745,384.809,330.745V123.361"/>
		<path fill="none" stroke="#FFFFFF" stroke-width="12" stroke-linecap="round" stroke-linejoin="round" stroke-miterlimit="10" d="
			M851.81,1051.99c0,0,0,143.111,0,190.814c0,47.703-19.081,353.006-384.809,353.006"/>
		<path fill="none" stroke="#FFFFFF" stroke-width="12" stroke-linecap="round" stroke-linejoin="round" stroke-miterlimit="10" d="
			M634.552,1498.814h-331.92c-14.544,0-26.444-11.9-26.444-26.444v-34.568c0-14.544,11.9-26.444,26.444-26.444h331.92
			c14.544,0,26.444,11.9,26.444,26.444v34.568C660.996,1486.914,649.096,1498.814,634.552,1498.814z"/>
		<path fill="none" stroke="#FFFFFF" stroke-width="12" stroke-linecap="round" stroke-linejoin="round" stroke-miterlimit="10" d="
			M126.54,1411.935c0,0,293.017-214.089,684.057,0"/>
		<path fill="#FFFFFF" d="M368.688,943.737l-22.41-22.41c-4.659-4.659-4.659-12.284,0-16.943l22.41-22.41
			c4.659-4.659,12.284-4.659,16.943,0l22.41,22.41c4.659,4.659,4.659,12.284,0,16.943l-22.41,22.41
			C380.972,948.396,373.348,948.396,368.688,943.737z"/>
		<path fill="#FFFFFF" d="M551.552,943.737l-22.41-22.41c-4.659-4.659-4.659-12.284,0-16.943l22.41-22.41
			c4.659-4.659,12.284-4.659,16.943,0l22.41,22.41c4.659,4.659,4.659,12.284,0,16.943l-22.41,22.41
			C563.836,948.396,556.211,948.396,551.552,943.737z"/>
		
			<line fill="none" stroke="#FFFFFF" stroke-width="12" stroke-linecap="round" stroke-linejoin="round" stroke-miterlimit="10" x1="276.187" y1="1452.7" x2="660.996" y2="1452.7"/>
	</g>
</g>
</svg>
